<?xml version="1.0" encoding="UTF-8"?>
<svg width="1024" height="600" version="1.1" viewBox="0 0 192.67 112.94" xmlns="http://www.w3.org/2000/svg" xmlns:xlink="http://www.w3.org/1999/xlink">
 <defs>
  <filter id="i" x="-.064488" y="-.095685" width="1.1719" height="1.2551" color-interpolation-filters="sRGB">
   <feFlood flood-color="#CBCCCE" flood-opacity=".847" result="flood"/>
   <feComposite in="flood" in2="SourceGraphic" operator="in" result="composite1"/>
   <feGaussianBlur in="composite1" result="blur" stdDeviation="12"/>
   <feOffset dx="20" dy="20" result="offset"/>
   <feComposite in="SourceGraphic" in2="offset" result="composite2"/>
  </filter>
  <filter id="h" x="-.021249" y="-.021249" width="1.0602" height="1.0602" color-interpolation-filters="sRGB">
   <feFlood flood-color="#A1A1A1" flood-opacity=".847" result="flood"/>
   <feComposite in="flood" in2="SourceGraphic" operator="in" result="composite1"/>
   <feGaussianBlur in="composite1" result="blur" stdDeviation=".5"/>
   <feOffset dx="1" dy="1" result="offset"/>
   <feComposite in="SourceGraphic" in2="offset" result="composite2"/>
  </filter>
  <filter id="c" x="-.012732" y="-.010341" width="1.0361" height="1.0293" color-interpolation-filters="sRGB">
   <feFlood flood-color="#A1A1A1" flood-opacity=".847" result="flood"/>
   <feComposite in="flood" in2="SourceGraphic" operator="in" result="composite1"/>
   <feGaussianBlur in="composite1" result="blur" stdDeviation=".5"/>
   <feOffset dx="1" dy="1" result="offset"/>
   <feComposite in="SourceGraphic" in2="offset" result="composite2"/>
  </filter>
  <filter id="g" x="-.02059" y="-.016419" width="1.0509" height="1.0406" color-interpolation-filters="sRGB">
   <feFlood flood-color="#A1A1A1" flood-opacity=".847" result="flood"/>
   <feComposite in="flood" in2="SourceGraphic" operator="in" result="composite1"/>
   <feGaussianBlur in="composite1" result="blur" stdDeviation="8.27"/>
   <feOffset dx="10" dy="10" result="offset"/>
   <feComposite in="SourceGraphic" in2="offset" result="composite2"/>
  </filter>
  <filter id="o" x="-.035698" y="-.11903" width="1.0926" height="1.3089" color-interpolation-filters="sRGB">
   <feFlood flood-color="#A1A1A1" flood-opacity=".847" result="flood"/>
   <feComposite in="flood" in2="SourceGraphic" operator="in" result="composite1"/>
   <feGaussianBlur in="composite1" result="blur" stdDeviation=".7"/>
   <feOffset dx="1" dy="1" result="offset"/>
   <feComposite in="SourceGraphic" in2="offset" result="composite2"/>
  </filter>
  <filter id="n" x="-.035696" y="-.11902" width="1.0926" height="1.3089" color-interpolation-filters="sRGB">
   <feFlood flood-color="#A1A1A1" flood-opacity=".847" result="flood"/>
   <feComposite in="flood" in2="SourceGraphic" operator="in" result="composite1"/>
   <feGaussianBlur in="composite1" result="blur" stdDeviation=".7"/>
   <feOffset dx="1" dy="1" result="offset"/>
   <feComposite in="SourceGraphic" in2="offset" result="composite2"/>
  </filter>
  <filter id="m" x="-.035698" y="-.11903" width="1.0926" height="1.3089" color-interpolation-filters="sRGB">
   <feFlood flood-color="#A1A1A1" flood-opacity=".847" result="flood"/>
   <feComposite in="flood" in2="SourceGraphic" operator="in" result="composite1"/>
   <feGaussianBlur in="composite1" result="blur" stdDeviation=".7"/>
   <feOffset dx="1" dy="1" result="offset"/>
   <feComposite in="SourceGraphic" in2="offset" result="composite2"/>
  </filter>
  <filter id="l" x="0" y="0" width="1.0059" height="1.0074" color-interpolation-filters="sRGB">
   <feFlood flood-color="#D2D2D2" result="flood"/>
   <feComposite in="flood" in2="SourceGraphic" operator="in" result="composite1"/>
   <feGaussianBlur in="composite1" result="blur"/>
   <feOffset dx="4.5" dy="2.881" result="offset"/>
   <feComposite in="SourceGraphic" in2="offset" result="composite2"/>
  </filter>
  <linearGradient id="d" x1="1572.7" x2="1834.3" y1="949.9" y2="1330.4" gradientUnits="userSpaceOnUse">
   <stop stop-color="#fff" offset="0"/>
   <stop stop-color="#E6E6E6" offset="1"/>
  </linearGradient>
  <linearGradient id="a" x1="1429.7" x2="1896.6" y1="1081.4" y2="1081.4" gradientUnits="userSpaceOnUse">
   <stop stop-color="#E6E6E6" offset="0"/>
   <stop stop-color="#fff" offset="1"/>
  </linearGradient>
  <linearGradient id="f" x1="1383.6" x2="1943.8" y1="1542.8" y2="1542.8" gradientUnits="userSpaceOnUse" xlink:href="#a"/>
  <linearGradient id="e" x1="1383.6" x2="1943.8" y1="1091" y2="1091" gradientUnits="userSpaceOnUse" xlink:href="#a"/>
  <linearGradient id="b" x1="1572.7" x2="1834.3" y1="949.9" y2="1330.4" gradientUnits="userSpaceOnUse" xlink:href="#d"/>
 </defs>
 <style>.st2{fill:#bcbec0}.st4{fill:#828487}.st6{fill:url(#d)}.st10{font-family:'RobotoCondensed-Bold'}.st12{font-size:58.0621px}</style>
 <g stroke-width="1.904">
  <g transform="matrix(.55842 0 0 .49383 1.506 10.058)" filter="url(#m)">
   <path d="M13.23 92.044v10.404h.005a23.53 2.122 0 0010.04 1.78 23.53 2.122 0 0032.768-.523 23.53 2.122 0 004.243-1.257h.005V92.044z" fill="#ececec" stroke-width="4.352"/>
   <path d="M46.264 90.625a23.53 1.5 0 0112.034 1.976 23.53 1.5 0 01-30.988.769 23.53 1.5 0 01-12.11-1.974 23.53 1.5 0 0130.958-.774" fill="#999" stroke-linecap="round" stroke-linejoin="round" stroke-width=".717" paint-order="fill markers stroke"/>
  </g>
  <g transform="matrix(.55842 0 0 .49383 1.506 10.058)" filter="url(#o)">
   <path d="M13.23 79.171v10.404h.005a23.53 2.122 0 0010.04 1.78 23.53 2.122 0 0032.768-.523 23.53 2.122 0 004.243-1.257h.005V79.17z" fill="#ececec" stroke-width="4.352"/>
   <path d="M46.264 77.752a23.53 1.5 0 0112.034 1.976 23.53 1.5 0 01-30.988.769 23.53 1.5 0 01-12.11-1.974 23.53 1.5 0 0130.958-.774" fill="#999" stroke-linecap="round" stroke-linejoin="round" stroke-width=".717" paint-order="fill markers stroke"/>
  </g>
  <g transform="matrix(.55842 0 0 .49383 1.506 10.058)" filter="url(#n)">
   <path d="M13.23 66.3v10.403h.005a23.53 2.122 0 0010.04 1.78 23.53 2.122 0 0032.768-.523 23.53 2.122 0 004.243-1.257h.005V66.299z" fill="#ececec" stroke-width="4.352"/>
   <path d="M46.264 64.88a23.53 1.5 0 0112.034 1.976 23.53 1.5 0 01-30.988.769A23.53 1.5 0 0115.2 65.65a23.53 1.5 0 0130.958-.774" fill="#999" stroke-linecap="round" stroke-linejoin="round" stroke-width=".717" paint-order="fill markers stroke"/>
  </g>
  <g class="st4 st10 st12" transform="matrix(.0876 0 0 .07747 -.782 12.285)" fill="#828487" filter="url(#c)" stroke-width="2.285" style="inline-size:249.409;white-space:pre" aria-label="Gir Data">
   <path d="M259.15 440.42v17.039q-1.304 1.39-4.536 3.317t-9.044 1.928q-6.89 0-11.028-4.338-4.11-4.366-4.11-13.353v-7.002q0-9.016 3.94-13.382t10.688-4.366q7.003 0 10.291 3.515 3.289 3.487 3.77 10.206h-8.08q-.34-3.884-1.672-5.33-1.304-1.474-4.083-1.474-3.232 0-4.848 2.41-1.616 2.41-1.644 8.136v7.287q0 5.868 1.786 8.335 1.786 2.438 5.472 2.438 2.211 0 3.204-.596l1.53-.907v-7.57h-5.868v-6.293zM262.65 423.52q0-1.871 1.19-3.062 1.191-1.219 3.204-1.219 1.985 0 3.176 1.22 1.19 1.19 1.19 3.061 0 1.843-1.19 3.062-1.191 1.19-3.176 1.19-2.013 0-3.203-1.19-1.191-1.22-1.191-3.062zm8.42 7.938v30.675h-8.052v-30.675zM287.81 438.97q-3.345 0-4.48 2.863v20.3h-8.023v-30.676h7.57l.227 3.317q1.928-3.884 5.245-3.884 1.304 0 2.183.34l-.085 7.967q-1.418-.227-2.637-.227zM213.33 534.71v-41.279h10.915q7.173 0 11.539 4.565 4.366 4.564 4.366 12.9v6.378q0 8.307-4.366 12.871-4.366 4.565-11.624 4.565zm8.363-34.333v27.415h2.467q4.45 0 6.039-2.438 1.616-2.438 1.616-8.08v-6.436q0-5.556-1.56-7.966-1.53-2.438-5.812-2.495zM258.31 534.71q-.425-.964-.68-2.381-2.183 2.948-5.84 2.948-3.715 0-6.323-2.495-2.58-2.495-2.58-6.662 0-4.678 3.005-7.4 3.006-2.75 9.186-2.75h2.155v-2.466q0-3.77-2.779-3.77-3.005 0-3.005 3.515h-8.023q0-4.026 3.033-6.89 3.062-2.891 8.222-2.891 4.564 0 7.57 2.381 3.033 2.382 3.033 7.768v14.402q.057 4.083 1.106 6.21v.481zm-4.706-5.755q1.304 0 2.24-.539.935-.539 1.389-1.276v-6.379h-1.9q-2.268 0-3.345 1.39t-1.077 3.402q0 3.402 2.693 3.402zM282.7 534.52q-1.956.765-4.451.765-3.572 0-5.699-2.098-2.126-2.097-2.126-7.002v-16.103h-3.572v-6.039h3.572v-7.57h7.995v7.57h4.11v6.039h-4.11v15.224q0 1.928.539 2.551.567.624 1.87.624 1.107 0 1.9-.227zM299.5 534.71q-.425-.964-.68-2.381-2.183 2.948-5.84 2.948-3.715 0-6.323-2.495-2.58-2.495-2.58-6.662 0-4.678 3.005-7.4 3.006-2.75 9.186-2.75h2.155v-2.466q0-3.77-2.779-3.77-3.005 0-3.005 3.515h-8.023q0-4.026 3.033-6.89 3.062-2.891 8.222-2.891 4.565 0 7.57 2.381 3.033 2.382 3.033 7.768v14.402q.057 4.083 1.106 6.21v.481zm-4.706-5.755q1.304 0 2.24-.539t1.389-1.276v-6.379h-1.9q-2.268 0-3.345 1.39-1.077 1.389-1.077 3.402 0 3.402 2.693 3.402z"/>
  </g>
  <g stroke-width="2.285">
   <path transform="matrix(.46535 0 0 .41152 49.588 34.815)" d="M10.502 93.542h53.784c.745 0 1.344.6 1.344 1.344v53.784c0 .745-.6 1.344-1.344 1.344H10.502c-.745 0-1.344-.6-1.344-1.344V94.886c0-.744.6-1.344 1.344-1.344z" fill="#ececec" filter="url(#h)"/>
   <path d="M68.938 73.31l.446.785a12.524 11.076 0 00-.076.061 12.524 11.076 0 00-1.13 1.168l-2.166-.666a14.72 13.017 0 00-1.098 1.692l1.725 1.319a12.524 11.076 0 00-.584 1.541l-2.295.119a14.72 13.017 0 00-.275 1.935l2.159.632a12.524 11.076 0 00.132 1.623l-2.074.888a14.72 13.017 0 00.587 1.88l2.265-.146a12.524 11.076 0 00.827 1.454l-1.53 1.52a14.72 13.017 0 001.354 1.54l2.033-.903a12.524 11.076 0 00.07.068 12.524 11.076 0 001.32 1l-.753 1.915a14.72 13.017 0 001.913.97l1.491-1.526a12.524 11.076 0 001.744.517l.133 2.03a14.72 13.017 0 002.188.243l.716-1.91a12.524 11.076 0 001.835-.116l.234.427v-3.443a9.19 8.127 0 01-8.464-2.192 9.19 8.127 0 010-11.494 9.19 8.127 0 018.464-2.192v-.186c0-.307-.28-.553-.626-.553z" fill="#ddd"/>
   <path d="M55.572 80.02l-1.49 1.526a13.664 13.664 0 00-.232-.083v14.533c0 .307.279.554.625.554h6.891l-.645-.493c.238-.5.433-1.016.585-1.542l2.294-.118c.147-.638.24-1.285.276-1.935l-2.159-.633a9.819 9.819 0 00-.132-1.623l2.074-.888a11.859 11.859 0 00-.587-1.879l-2.265.146a10.637 10.637 0 00-.827-1.455l1.53-1.52a13.372 13.372 0 00-1.354-1.54l-2.033.904a12.294 12.294 0 00-.07-.068c-.413-.36-.854-.694-1.32-1l.753-1.915a15.31 15.31 0 00-1.914-.97z" fill="#f9f9f9"/>
  </g>
  <path class="st6" transform="matrix(.08138 0 0 .07021 -16.393 -54.6)" d="M2430.6 2217.6h-976.42c-13.2 0-24-10.8-24-24V956.9c0-13.2 10.8-24 24-24h976.42c13.2 0 24 10.8 24 24v1236.7c0 13.2-10.8 24-24 24z" fill="url(#b)" filter="url(#g)" stroke="url(#f)" stroke-width="2.49"/>
  <g fill="#828487" stroke-width=".504" style="font-variant-caps:normal;font-variant-east-asian:normal;font-variant-ligatures:normal;font-variant-numeric:normal" aria-label="Base">
   <path d="M103.619 14.596q0 .387-.232.583-.23.195-.694.196h-.998v-2.643h.924q.447 0 .7.178.254.176.254.546 0 .18-.09.33-.088.151-.285.228.23.058.324.225.097.167.097.357zm-1.319-1.42v.662h.313q.355 0 .355-.325 0-.329-.335-.336zm.715 1.415q0-.356-.285-.367h-.43v.708h.384q.177 0 .253-.096.078-.098.078-.245zM105.082 15.376q-.031-.062-.05-.153-.158.189-.423.189-.269 0-.457-.16-.187-.16-.187-.427 0-.3.217-.473.218-.177.666-.177h.156v-.158q0-.241-.202-.241-.217 0-.217.225h-.581q0-.258.22-.441.221-.185.595-.185.33 0 .548.152.22.153.22.498v.922q.004.262.08.398v.03zm-.341-.369q.094 0 .162-.035.068-.034.1-.081v-.409h-.137q-.164 0-.242.09-.078.088-.078.217 0 .218.195.218zM106.991 14.849q0-.076-.088-.135t-.295-.137q-.304-.106-.469-.24-.162-.135-.162-.37 0-.246.203-.418.204-.174.565-.174.374 0 .59.17.215.17.215.445h-.581q0-.241-.226-.241-.21 0-.21.192 0 .076.08.129.083.053.296.13.333.111.489.248.158.136.158.38 0 .26-.22.422-.22.162-.59.162-.403 0-.617-.202-.211-.203-.211-.443h.55q.004.16.084.214.08.055.205.055.234 0 .234-.187zM109.571 15.118q-.088.105-.279.2-.189.094-.474.094-.454 0-.702-.24-.247-.24-.247-.666v-.162q0-.477.234-.722.236-.247.655-.247t.63.234q.212.234.216.703v.252h-1.152q.01.234.113.329.105.092.292.092.293 0 .484-.178zm-.815-1.317q-.152 0-.221.097-.068.094-.08.307h.58v-.046q-.004-.178-.065-.267-.062-.09-.214-.09z" style="font-variant-caps:normal;font-variant-east-asian:normal;font-variant-ligatures:normal;font-variant-numeric:normal"/>
  </g>
  <path d="M107.958 17.683h11.239a2.412 2.412 0 012.417 2.417v9.93a2.412 2.412 0 01-2.417 2.417h-11.24a2.412 2.412 0 01-2.417-2.417V20.1a2.412 2.412 0 012.418-2.417z" fill="#828487" stroke-width="3.626"/>
  <g fill="#f9f9f9" stroke-width=".504" aria-label="typetype_idparent_id">
   <path d="M107.483 19.156v.348h.468v.156h-.468v.665q0 .15.046.192.047.043.189.043h.233v.168h-.233q-.264 0-.364-.086-.1-.088-.1-.317v-.665h-.167v-.156h.167v-.348zM108.829 20.842q-.097.218-.188.285-.092.067-.245.067h-.182v-.169h.134q.094 0 .146-.039.052-.04.115-.186l.04-.092-.56-1.204h.242l.432.957.433-.957h.24zM109.968 20.544v.65h-.229v-1.69h.229v.186q.071-.11.18-.162.11-.053.262-.053.252 0 .41.177.157.177.157.465t-.158.466q-.157.177-.409.177-.152 0-.262-.053-.109-.053-.18-.162zm.773-.427q0-.222-.103-.347-.103-.127-.283-.127t-.285.127q-.102.125-.102.347 0 .222.102.349.104.125.285.125t.283-.125q.103-.127.103-.349zM112.542 20.066v.098h-1.045q.014.208.14.317.128.108.354.108.13 0 .253-.028.124-.028.245-.085v.19q-.122.046-.25.07t-.262.024q-.33 0-.525-.17-.193-.171-.193-.462 0-.3.183-.476.184-.177.496-.177.28 0 .441.16.163.158.163.431zm-.227-.06q-.003-.164-.105-.262-.102-.099-.27-.099-.19 0-.305.095-.114.095-.131.268zM107.483 24.752v.347h.468v.157h-.468v.664q0 .15.046.193.047.042.189.042h.233v.169h-.233q-.264 0-.364-.087-.1-.087-.1-.317v-.664h-.167v-.157h.167v-.347zM108.829 26.437q-.097.219-.188.286t-.245.066h-.182v-.168h.134q.094 0 .146-.04t.115-.185l.04-.092-.56-1.204h.242l.432.957.433-.957h.24zM109.968 26.14v.65h-.229V25.1h.229v.185q.071-.109.18-.161.11-.054.262-.054.252 0 .41.177.157.177.157.466 0 .288-.158.465-.157.177-.409.177-.152 0-.262-.052-.109-.054-.18-.163zm.773-.427q0-.222-.103-.348-.103-.127-.283-.127t-.285.127q-.102.126-.102.348 0 .222.102.348.104.126.285.126t.283-.126q.103-.126.103-.348zM112.542 25.662v.098h-1.045q.014.208.14.317.128.108.354.108.13 0 .253-.028.124-.029.245-.086v.19q-.122.046-.25.07t-.262.025q-.33 0-.525-.171-.193-.17-.193-.461 0-.3.183-.477.184-.177.496-.177.28 0 .441.16.163.158.163.432zm-.227-.06q-.003-.164-.105-.263-.102-.098-.27-.098-.19 0-.305.095-.114.095-.131.268zM113.966 26.695v.156h-1.315v-.156zM114.178 25.1h.228v1.224h-.228zm0-.477h.228v.255h-.228zM115.792 25.285v-.662h.228v1.7h-.228v-.183q-.072.11-.182.163-.108.052-.262.052-.25 0-.409-.177-.157-.177-.157-.465 0-.289.157-.466.159-.177.41-.177.153 0 .261.054.11.052.182.161zm-.775.428q0 .221.103.348.104.126.284.126t.284-.126q.104-.127.104-.348 0-.222-.104-.348-.103-.127-.284-.127t-.284.127q-.103.126-.103.348zM107.477 28.938v.649h-.228v-1.69h.228v.186q.072-.11.18-.162.11-.053.263-.053.252 0 .409.177.158.177.158.465 0 .289-.158.466-.157.177-.41.177-.151 0-.261-.053-.11-.053-.18-.162zm.774-.428q0-.222-.104-.347-.102-.127-.283-.127t-.284.127q-.103.125-.103.347 0 .222.103.349.104.126.284.126t.283-.126q.104-.127.104-.349zM109.493 28.506q-.275 0-.382.056-.106.055-.106.19 0 .107.08.17.08.063.217.063.189 0 .302-.118.115-.12.115-.316v-.045zm.454-.083v.698h-.228v-.185q-.078.111-.194.165-.116.052-.284.052-.213 0-.339-.105-.124-.106-.124-.283 0-.207.155-.311.157-.105.467-.105h.32v-.02q0-.139-.104-.214-.103-.077-.29-.077-.118 0-.23.025t-.217.076v-.186q.125-.043.242-.063.118-.022.229-.022.3 0 .448.137t.149.418zM111.219 28.085q-.039-.02-.084-.028-.045-.01-.1-.01-.192 0-.296.111-.102.11-.102.319v.644h-.229v-1.224h.229v.19q.071-.111.186-.165.115-.054.28-.054.023 0 .051.003.029.002.063.008zM112.587 28.46v.097h-1.046q.015.208.141.317.127.109.354.109.13 0 .253-.029.124-.028.245-.085v.19q-.123.046-.251.07t-.261.024q-.331 0-.525-.17-.193-.17-.193-.462 0-.3.183-.476.184-.177.495-.177.28 0 .442.16.163.158.163.431zm-.228-.06q-.002-.165-.105-.263-.101-.099-.269-.099-.19 0-.305.095-.114.095-.131.268zM114.111 28.383v.738h-.227v-.732q0-.174-.077-.26-.076-.086-.23-.086-.184 0-.29.103-.106.104-.106.284v.691h-.229v-1.224h.229v.19q.081-.11.191-.165.111-.054.256-.054.239 0 .36.13.123.131.123.385zM114.787 27.55v.347h.468v.157h-.468v.664q0 .15.046.193.047.042.189.042h.233v.169h-.233q-.263 0-.364-.087-.1-.087-.1-.317v-.664h-.166v-.157h.166v-.347zM116.607 29.493v.156h-1.314v-.156zM116.82 27.897h.227v1.224h-.227zm0-.476h.227v.254h-.227zM118.433 28.083v-.662h.228v1.7h-.228v-.183q-.071.11-.181.163-.109.052-.262.052-.251 0-.41-.177-.156-.177-.156-.465 0-.289.157-.466.158-.177.409-.177.153 0 .262.054.11.052.181.161zm-.774.428q0 .221.102.348.104.126.284.126t.285-.126q.103-.127.103-.348 0-.222-.103-.348-.104-.127-.285-.127t-.284.127q-.102.126-.102.348z"/>
  </g>
  <path d="M136.024 17.646h12.93a2.412 2.412 0 012.416 2.417v10.003a2.412 2.412 0 01-2.417 2.417h-12.93a2.412 2.412 0 01-2.416-2.417V20.063a2.412 2.412 0 012.417-2.417z" fill="#828487" stroke-width="3.626"/>
  <g fill="#f9f9f9" stroke-width=".504" aria-label="propertyproperty_idtype_id">
   <path d="M135.342 20.544v.65h-.228v-1.69h.228v.186q.072-.11.18-.162.11-.053.263-.053.252 0 .409.177.158.177.158.465t-.158.466q-.157.177-.41.177-.151 0-.261-.053-.109-.053-.18-.162zm.774-.427q0-.222-.104-.347-.102-.127-.283-.127t-.284.127q-.103.125-.103.347 0 .222.103.349.104.125.284.125t.283-.125q.104-.127.104-.349zM137.526 19.692q-.038-.02-.084-.028-.045-.01-.1-.01-.192 0-.296.111-.102.11-.102.318v.645h-.229v-1.224h.229v.19q.071-.111.186-.165.115-.054.28-.054.023 0 .052.003.028.002.063.008zM138.246 19.645q-.183 0-.289.127-.106.126-.106.345t.105.347q.106.125.29.125.182 0 .288-.126.106-.127.106-.346 0-.217-.106-.344-.106-.128-.288-.128zm0-.17q.297 0 .466.17t.17.472q0 .3-.17.472-.17.171-.466.171-.298 0-.467-.17-.168-.172-.168-.473t.168-.472q.17-.17.467-.17zM139.48 20.544v.65h-.228v-1.69h.228v.186q.072-.11.18-.162.11-.053.263-.053.252 0 .409.177.158.177.158.465t-.158.466q-.157.177-.41.177-.151 0-.261-.053-.109-.053-.18-.162zm.774-.427q0-.222-.104-.347-.102-.127-.283-.127t-.284.127q-.103.125-.103.347 0 .222.103.349.104.125.284.125t.283-.125q.104-.127.104-.349zM142.049 20.066v.098h-1.045q.014.208.14.317.128.108.354.108.13 0 .253-.028.124-.028.245-.085v.19q-.122.046-.251.07t-.26.024q-.332 0-.526-.17-.193-.171-.193-.462 0-.3.183-.476.184-.177.496-.177.279 0 .44.16.164.158.164.431zm-.227-.06q-.003-.164-.105-.262-.102-.099-.27-.099-.19 0-.305.095-.114.095-.131.268zM143.227 19.692q-.038-.02-.084-.028-.044-.01-.099-.01-.192 0-.296.111-.103.11-.103.318v.645h-.228v-1.224h.228v.19q.072-.111.187-.165.115-.054.28-.054.023 0 .051.003.028.002.063.008zM143.69 19.156v.348h.47v.156h-.47v.665q0 .15.047.192.046.043.189.043h.233v.168h-.233q-.264 0-.364-.086-.1-.088-.1-.317v-.665h-.167v-.156h.167v-.348zM145.031 20.842q-.096.218-.188.285-.091.067-.245.067h-.181v-.169h.133q.094 0 .146-.039.052-.04.115-.186l.04-.092-.559-1.204h.241l.433.957.432-.957h.241zM135.342 26.14v.65h-.228V25.1h.228v.185q.072-.109.18-.161.11-.054.263-.054.252 0 .409.177.158.177.158.466 0 .288-.158.465-.157.177-.41.177-.151 0-.261-.052-.109-.054-.18-.163zm.774-.427q0-.222-.104-.348-.102-.127-.283-.127t-.284.127q-.103.126-.103.348 0 .222.103.348.104.126.284.126t.283-.126q.104-.126.104-.348zM137.526 25.288q-.038-.02-.084-.029-.045-.01-.1-.01-.192 0-.296.112-.102.11-.102.318v.645h-.229V25.1h.229v.19q.071-.112.186-.165.115-.055.28-.055.023 0 .052.003l.063.008zM138.246 25.24q-.183 0-.289.128-.106.125-.106.345 0 .22.105.346.106.126.29.126.182 0 .288-.127.106-.126.106-.345 0-.218-.106-.344-.106-.128-.288-.128zm0-.17q.297 0 .466.17.17.171.17.473 0 .3-.17.472-.17.17-.466.17-.298 0-.467-.17-.168-.172-.168-.472 0-.302.168-.472.17-.17.467-.17zM139.48 26.14v.65h-.228V25.1h.228v.185q.072-.109.18-.161.11-.054.263-.054.252 0 .409.177.158.177.158.466 0 .288-.158.465-.157.177-.41.177-.151 0-.261-.052-.109-.054-.18-.163zm.774-.427q0-.222-.104-.348-.102-.127-.283-.127t-.284.127q-.103.126-.103.348 0 .222.103.348.104.126.284.126t.283-.126q.104-.126.104-.348zM142.049 25.662v.098h-1.045q.014.208.14.317.128.108.354.108.13 0 .253-.028.124-.029.245-.086v.19q-.122.046-.251.07t-.26.025q-.332 0-.526-.171-.193-.17-.193-.461 0-.3.183-.477.184-.177.496-.177.279 0 .44.16.164.158.164.432zm-.227-.06q-.003-.164-.105-.263-.102-.098-.27-.098-.19 0-.305.095-.114.095-.131.268zM143.227 25.288q-.038-.02-.084-.029-.044-.01-.099-.01-.192 0-.296.112-.103.11-.103.318v.645h-.228V25.1h.228v.19q.072-.112.187-.165.115-.055.28-.055.023 0 .051.003l.063.008zM143.69 24.752v.347h.47v.157h-.47v.664q0 .15.047.193.046.042.189.042h.233v.169h-.233q-.264 0-.364-.087-.1-.087-.1-.317v-.664h-.167v-.157h.167v-.347zM145.031 26.437q-.096.219-.188.286t-.245.066h-.181v-.168h.133q.094 0 .146-.04t.115-.185l.04-.092-.559-1.204h.241l.433.957.432-.957h.241zM147.008 26.695v.156h-1.315v-.156zM147.22 25.1h.227v1.224h-.227zm0-.477h.227v.255h-.227zM148.834 25.285v-.662h.227v1.7h-.227v-.183q-.072.11-.182.163-.109.052-.262.052-.25 0-.409-.177-.157-.177-.157-.465 0-.289.157-.466.158-.177.41-.177.152 0 .261.054.11.052.182.161zm-.775.428q0 .221.103.348.103.126.284.126t.284-.126q.104-.127.104-.348 0-.222-.104-.348-.104-.127-.284-.127t-.284.127q-.103.126-.103.348zM135.342 27.55v.347h.469v.157h-.469v.664q0 .15.046.193.047.042.19.042h.233v.169h-.234q-.263 0-.363-.087-.1-.087-.1-.317v-.664h-.167v-.157h.167v-.347zM136.688 29.235q-.096.218-.188.285t-.244.067h-.182v-.168h.133q.094 0 .146-.04t.115-.186l.041-.091-.56-1.205h.241l.433.958.432-.958h.241zM137.827 28.938v.649h-.228v-1.69h.228v.186q.072-.11.18-.162.11-.053.263-.053.252 0 .409.177.158.177.158.465 0 .289-.158.466-.157.177-.41.177-.151 0-.261-.053-.109-.053-.18-.162zm.774-.428q0-.222-.104-.347-.102-.127-.283-.127t-.284.127q-.103.125-.103.347 0 .222.103.349.104.126.284.126t.283-.126q.104-.127.104-.349zM140.402 28.46v.097h-1.046q.015.208.141.317.127.109.354.109.13 0 .253-.029.123-.028.245-.085v.19q-.123.046-.251.07t-.261.024q-.331 0-.525-.17-.193-.17-.193-.462 0-.3.183-.476.184-.177.495-.177.28 0 .442.16.163.158.163.431zm-.228-.06q-.002-.165-.105-.263-.101-.099-.27-.099-.19 0-.304.095-.114.095-.131.268zM141.826 29.493v.156h-1.315v-.156zM142.038 27.897h.227v1.224h-.227zm0-.476h.227v.254h-.227zM143.652 28.083v-.662h.227v1.7h-.227v-.183q-.072.11-.182.163-.109.052-.262.052-.25 0-.409-.177-.157-.177-.157-.465 0-.289.157-.466.158-.177.41-.177.152 0 .261.054.11.052.182.161zm-.775.428q0 .221.102.348.104.126.285.126t.284-.126q.104-.127.104-.348 0-.222-.104-.348-.104-.127-.284-.127t-.285.127q-.102.126-.102.348z"/>
  </g>
  <path d="M165.776 17.646h12.93a2.412 2.412 0 012.417 2.417v10.003a2.412 2.412 0 01-2.417 2.417h-12.93a2.412 2.412 0 01-2.417-2.417V20.063a2.412 2.412 0 012.417-2.417z" fill="#828487" stroke-width="3.626"/>
  <g fill="#f9f9f9" stroke-width=".504" aria-label="signalowner_idsignal_id">
   <path d="M166.078 19.669v.19q-.097-.044-.2-.065-.104-.022-.215-.022-.17 0-.255.046-.084.045-.084.137 0 .07.06.11.061.04.244.076l.078.015q.242.046.343.13.103.083.103.233 0 .17-.153.27-.152.1-.42.1-.11 0-.232-.02-.12-.019-.253-.057v-.208q.126.058.249.088.122.028.242.028.16 0 .247-.048.086-.049.086-.138 0-.081-.063-.125-.061-.044-.273-.084l-.079-.017q-.211-.04-.305-.12-.094-.082-.094-.224 0-.173.138-.267.139-.094.393-.094.126 0 .238.017.11.016.205.049zM166.513 19.633h.228v1.224h-.228zm0-.477h.228v.255h-.228zM168.127 20.23q0-.218-.102-.338-.102-.12-.286-.12-.183 0-.285.12-.102.12-.102.339 0 .217.102.338.102.12.285.12.184 0 .286-.12.102-.12.102-.338zm.228.475q0 .313-.157.465-.157.153-.481.153-.12 0-.226-.017-.106-.015-.207-.048v-.195q.1.048.198.07.098.024.2.024.223 0 .334-.104.111-.103.111-.312v-.1q-.07.109-.18.163-.11.053-.263.053-.255 0-.41-.171-.156-.172-.156-.455 0-.284.155-.456.156-.171.41-.171.154 0 .264.053.11.054.18.162v-.186h.228zM169.976 20.118v.74h-.228v-.733q0-.174-.076-.26t-.23-.087q-.184 0-.29.104-.107.104-.107.283v.692h-.229v-1.224h.23v.19q.08-.11.19-.165.112-.054.256-.054.239 0 .361.13.123.13.123.384zM171.059 20.242q-.276 0-.382.056-.106.055-.106.19 0 .107.079.17.08.062.217.062.19 0 .303-.118.115-.119.115-.315v-.045zm.454-.083v.698h-.228v-.186q-.078.112-.194.165-.116.053-.284.053-.213 0-.339-.105-.125-.106-.125-.283 0-.207.156-.312.157-.105.467-.105h.32v-.02q0-.138-.105-.213-.102-.077-.289-.077-.119 0-.231.025t-.216.076v-.186q.125-.043.242-.064.117-.021.229-.021.3 0 .448.137t.149.418zM171.98 19.156h.228v1.7h-.228zM165.732 25.37q-.183 0-.29.126-.106.126-.106.346t.105.346q.106.126.29.126.182 0 .289-.127.106-.127.106-.345 0-.218-.106-.344-.107-.128-.288-.128zm0-.17q.296 0 .466.17t.169.472q0 .3-.17.472-.169.17-.465.17-.298 0-.468-.17-.168-.172-.168-.472 0-.302.168-.472.17-.17.468-.17zM166.608 25.228h.228l.284.956.283-.956h.268l.284.956.283-.956h.228l-.362 1.225h-.268l-.298-1.004-.3 1.004h-.268zM169.964 25.714v.739h-.227v-.733q0-.173-.077-.26-.076-.086-.23-.086-.184 0-.29.104-.106.104-.106.283v.692h-.229v-1.224h.229v.19q.081-.11.191-.165.112-.055.256-.055.239 0 .361.131.122.13.122.384zM171.6 25.79v.099h-1.045q.015.207.141.317.127.108.353.108.131 0 .254-.028.123-.029.244-.086v.19q-.122.046-.25.07t-.261.024q-.331 0-.525-.17-.193-.17-.193-.461 0-.3.183-.477.184-.177.495-.177.28 0 .441.16.164.158.164.431zm-.227-.059q-.002-.165-.105-.263-.101-.098-.27-.098-.19 0-.304.095-.114.095-.131.268zM172.779 25.417q-.038-.02-.084-.029-.045-.01-.099-.01-.193 0-.297.112-.102.11-.102.318v.645h-.229v-1.224h.229v.19q.071-.112.186-.165.115-.055.28-.055.023 0 .052.003l.063.008zM174.069 26.824v.156h-1.315v-.156zM174.281 25.228h.227v1.225h-.227zm0-.476h.227v.255h-.227zM175.895 25.414v-.662h.227v1.7h-.227v-.183q-.072.11-.182.163-.109.052-.262.052-.25 0-.409-.177-.157-.177-.157-.466 0-.288.157-.465.158-.177.41-.177.152 0 .261.053.11.053.182.162zm-.775.427q0 .222.103.35.103.125.284.125.18 0 .284-.126.104-.127.104-.349 0-.221-.104-.347-.104-.127-.284-.127t-.284.127q-.103.126-.103.347zM166.078 28.063v.19q-.097-.044-.2-.066-.104-.022-.215-.022-.17 0-.255.046-.084.046-.084.138 0 .07.06.11.061.04.244.076l.078.015q.242.046.343.13.103.083.103.233 0 .17-.153.27-.152.1-.42.1-.11 0-.232-.02-.12-.019-.253-.057v-.208q.126.058.249.087.122.029.242.029.16 0 .247-.048.086-.05.086-.138 0-.082-.063-.126-.061-.043-.273-.084l-.079-.016q-.211-.04-.305-.12-.094-.082-.094-.224 0-.173.138-.267.139-.094.393-.094.126 0 .238.016.11.017.205.05zM166.513 28.026h.228v1.225h-.228zm0-.476h.228v.255h-.228zM168.127 28.624q0-.219-.102-.339-.102-.12-.286-.12-.183 0-.285.12-.102.12-.102.339 0 .218.102.338.102.12.285.12.184 0 .286-.12.102-.12.102-.338zm.228.474q0 .313-.157.465-.157.153-.481.153-.12 0-.226-.017-.106-.015-.207-.048v-.195q.1.048.198.07.098.024.2.024.223 0 .334-.104.111-.103.111-.312v-.099q-.07.108-.18.162-.11.053-.263.053-.255 0-.41-.171-.156-.172-.156-.455 0-.284.155-.456.156-.171.41-.171.154 0 .264.053.11.054.18.162v-.186h.228zM169.976 28.511v.74h-.228v-.733q0-.174-.076-.26t-.23-.086q-.184 0-.29.103-.107.104-.107.283v.692h-.229v-1.224h.23v.19q.08-.11.19-.165.112-.054.256-.054.239 0 .361.13.123.13.123.384zM171.059 28.635q-.276 0-.382.056-.106.055-.106.19 0 .107.079.17.08.063.217.063.19 0 .303-.118.115-.12.115-.316v-.045zm.454-.083v.698h-.228v-.186q-.078.112-.194.165-.116.053-.284.053-.213 0-.339-.105-.125-.106-.125-.283 0-.207.156-.312.157-.104.467-.104h.32v-.02q0-.139-.105-.214-.102-.077-.289-.077-.119 0-.231.025t-.216.076v-.186q.125-.043.242-.063.117-.022.229-.022.3 0 .448.137.149.138.149.418zM171.98 27.55h.228v1.7h-.228zM173.734 29.622v.156h-1.315v-.156zM173.946 28.026h.227v1.225h-.227zm0-.476h.227v.255h-.227zM175.56 28.212v-.662h.227v1.7h-.227v-.183q-.072.11-.182.163-.109.052-.262.052-.25 0-.409-.177-.157-.177-.157-.465 0-.289.157-.466.158-.177.41-.177.152 0 .261.053.11.053.182.162zm-.775.427q0 .222.103.35.103.125.284.125t.284-.126q.104-.127.104-.349 0-.221-.104-.347-.104-.127-.284-.127t-.284.127q-.103.126-.103.347z"/>
  </g>
  <g fill="#828487" stroke-width=".504" style="font-variant-caps:normal;font-variant-east-asian:normal;font-variant-ligatures:normal;font-variant-numeric:normal" aria-label="Project">
   <path d="M101.698 34.87h1.312q.585 0 .897.23.314.23.314.654 0 .427-.314.657-.312.23-.897.23h-.522v.94h-.79zm.79.507v.757h.437q.23 0 .356-.098.125-.1.125-.282 0-.181-.125-.28-.126-.097-.356-.097zM106.45 36.101q-.097-.04-.193-.058-.095-.02-.191-.02-.283 0-.437.162-.152.16-.152.459v.937h-.735v-2.034h.735v.334q.141-.2.324-.29.185-.093.441-.093.037 0 .08.004.044.002.126.01zM107.913 35.963q-.244 0-.374.156-.127.154-.127.447 0 .292.127.448.13.154.374.154.24 0 .367-.154.128-.156.128-.448 0-.293-.128-.447-.127-.156-.367-.156zm0-.465q.593 0 .926.283.334.284.334.785t-.334.784q-.333.283-.926.283-.596 0-.932-.283-.335-.283-.335-.784t.335-.785q.336-.283.932-.283zM109.705 35.548h.735v1.997q0 .408-.221.622-.222.217-.643.217h-.363v-.427h.127q.21 0 .287-.084.078-.083.078-.328zm0-.792h.735v.53h-.735zM113.441 36.558v.186h-1.718q.026.228.187.343.16.114.447.114.232 0 .474-.06.245-.062.501-.185v.501q-.26.087-.521.13-.26.046-.522.046-.624 0-.97-.28t-.346-.787q0-.498.34-.783.34-.285.935-.285.542 0 .867.289.326.288.326.771zm-.755-.216q0-.185-.124-.297-.12-.115-.318-.115-.213 0-.347.107-.133.106-.166.305zM115.86 35.61v.53q-.15-.09-.303-.133-.15-.044-.312-.044-.308 0-.48.16-.17.158-.17.443 0 .285.17.445.172.158.48.158.173 0 .327-.046.156-.045.287-.134v.532q-.172.056-.35.083-.177.03-.356.03-.622 0-.973-.282-.351-.283-.351-.786t.35-.785q.352-.283.974-.283.18 0 .355.03.177.026.351.083zM117.294 34.97v.577h.758v.465h-.758v.862q0 .142.064.193.064.049.252.049h.378v.465h-.63q-.435 0-.618-.16-.18-.162-.18-.547v-.862h-.366v-.465h.365v-.577z" style="font-variant-caps:normal;font-variant-east-asian:normal;font-variant-ligatures:normal;font-variant-numeric:normal"/>
  </g>
  <path d="M107.958 40.48h12.93a2.412 2.412 0 012.416 2.417V52.9a2.412 2.412 0 01-2.417 2.417h-12.93a2.412 2.412 0 01-2.417-2.417V42.897a2.412 2.412 0 012.418-2.417z" fill="#828487" stroke-width="3.626"/>
  <g fill="#f9f9f9" stroke-width=".504" aria-label="uiui_idfilename">
   <path d="M107.044 43.101v-.868h.266v.86q0 .203.09.305.09.101.269.101.215 0 .34-.121.126-.122.126-.332v-.813h.266v1.434h-.266v-.22q-.097.13-.226.194-.127.063-.297.063-.279 0-.423-.154-.145-.153-.145-.449zM108.948 42.234h.266v1.433h-.266zm0-.559h.266v.299h-.266zM107.044 49.654v-.867h.266v.858q0 .204.09.306.09.101.269.101.215 0 .34-.121.126-.122.126-.332v-.812h.266v1.433h-.266V50q-.097.13-.226.194-.127.063-.297.063-.279 0-.423-.153-.145-.154-.145-.45zM108.948 48.787h.266v1.433h-.266zm0-.558h.266v.298h-.266zM111.002 50.655v.183h-1.539v-.183zM111.253 48.787h.266v1.433h-.266zm0-.558h.266v.298h-.266zM113.14 49.004v-.775h.266v1.991h-.266v-.215q-.084.128-.213.19-.127.062-.307.062-.293 0-.478-.207-.184-.208-.184-.545 0-.338.184-.546.185-.207.478-.207.18 0 .307.063.129.061.213.19zm-.907.5q0 .26.12.409.121.147.333.147t.332-.147q.122-.149.122-.408 0-.26-.122-.407-.121-.149-.332-.149t-.333.149q-.12.147-.12.407zM108.378 52.063v1.434h-.267v-1.25h-.73v1.25h-.268v-1.25h-.255v-.184h.255v-.1q0-.234.124-.345.126-.113.385-.113h.267v.196h-.254q-.143 0-.2.051-.055.051-.055.184v.127zm-.267-.555h.267v.298h-.267zM108.936 51.505h.267v1.991h-.267zM111.141 52.721v.115h-1.223q.017.244.165.372.149.126.413.126.154 0 .297-.033.144-.033.286-.1v.223q-.143.054-.293.082t-.306.028q-.387 0-.614-.2-.226-.2-.226-.54 0-.352.214-.558.216-.207.58-.207.327 0 .516.187.191.185.191.505zm-.266-.069q-.003-.193-.123-.308-.118-.116-.315-.116-.223 0-.357.112-.133.111-.153.313zM112.928 52.631v.866h-.267v-.858q0-.203-.09-.305t-.268-.1q-.216 0-.34.12-.124.122-.124.332v.81h-.268v-1.433h.268v.223q.095-.13.224-.193.13-.064.3-.064.278 0 .421.153.144.152.144.45zM114.195 52.776q-.323 0-.447.065-.125.066-.125.223 0 .125.093.2.094.073.254.073.222 0 .355-.139.134-.14.134-.37v-.052zm.53-.097v.818h-.266v-.218q-.09.13-.227.193-.136.062-.332.062-.25 0-.397-.123-.146-.124-.146-.332 0-.241.183-.364t.546-.123h.373v-.023q0-.163-.121-.251-.12-.09-.339-.09-.138 0-.27.03t-.253.088v-.218q.146-.05.283-.074.138-.025.268-.025.351 0 .525.16.173.162.173.49zM116.533 52.338q.1-.158.24-.234.138-.075.326-.075.253 0 .39.157.138.156.138.445v.866h-.268v-.858q0-.206-.082-.306t-.252-.1q-.207 0-.327.122-.12.122-.12.332v.81h-.267v-.858q0-.207-.083-.306-.082-.1-.254-.1-.204 0-.324.123-.12.122-.12.33v.81h-.268v-1.433h.268v.223q.091-.132.218-.195.127-.062.302-.062.177 0 .3.079.124.08.183.23zM119.542 52.721v.115h-1.223q.017.244.165.372.149.126.413.126.153 0 .297-.033t.286-.1v.223q-.143.054-.294.082t-.305.028q-.387 0-.614-.2-.226-.2-.226-.54 0-.352.214-.558.216-.207.58-.207.327 0 .516.187.191.185.191.505zm-.266-.069q-.003-.193-.123-.308-.118-.116-.315-.116-.223 0-.357.112-.133.111-.154.313z"/>
  </g>
  <path d="M129.574 40.48h14.556a2.412 2.412 0 012.417 2.417V55.91a2.412 2.412 0 01-2.417 2.417h-14.556a2.412 2.412 0 01-2.417-2.417V42.897a2.412 2.412 0 012.417-2.417z" fill="#828487" stroke-width="3.626"/>
  <g fill="#f9f9f9" stroke-width=".504" aria-label="objectui_idobject_idtype_id">
   <path d="M129.272 42.399q-.215 0-.339.148-.124.147-.124.404t.123.406q.124.147.34.147.212 0 .336-.148.125-.149.125-.405 0-.254-.125-.403-.124-.15-.336-.15zm0-.2q.347 0 .545.2.198.2.198.552 0 .352-.198.553-.198.2-.545.2-.349 0-.547-.2-.197-.2-.197-.553 0-.353.197-.552.198-.2.547-.2zM131.616 42.951q0-.26-.122-.407-.12-.148-.33-.148-.212 0-.333.148-.12.148-.12.407t.12.409q.121.147.332.147.211 0 .331-.147.122-.149.122-.409zm-.905-.5q.084-.128.21-.19.13-.062.307-.062.295 0 .48.207.184.207.184.545t-.185.546q-.184.207-.479.207-.177 0-.306-.061-.127-.063-.211-.191v.215h-.268v-1.992h.268zM132.336 42.234h.266v1.459q0 .274-.118.396-.118.123-.38.123h-.1v-.2h.07q.152 0 .207-.062.055-.062.055-.257zm0-.559h.266v.299h-.266zM134.54 42.891v.115h-1.223q.018.243.165.371.15.127.414.127.153 0 .296-.033.145-.033.287-.1v.223q-.143.053-.294.082t-.305.028q-.388 0-.615-.2-.225-.2-.225-.54 0-.352.214-.558.215-.207.58-.207.327 0 .516.186.19.186.19.506zm-.265-.069q-.003-.193-.123-.309-.119-.115-.315-.115-.223 0-.358.112-.133.111-.153.313zM136.143 42.288v.22q-.113-.055-.227-.081-.113-.029-.229-.029-.258 0-.402.146-.143.145-.143.407t.143.409q.144.144.402.144.116 0 .229-.027.114-.028.227-.083v.218q-.111.046-.231.069-.119.023-.254.023-.365 0-.58-.204-.216-.203-.216-.549 0-.35.217-.551.218-.201.597-.201.123 0 .24.023.117.022.227.066zM136.869 41.826v.407h.548v.183h-.548v.779q0 .175.053.225.055.05.221.05h.274v.197h-.274q-.308 0-.425-.101-.117-.103-.117-.371v-.779h-.195v-.183h.195v-.407zM128.613 49.654v-.867h.266v.858q0 .204.09.306.09.101.269.101.215 0 .34-.121.125-.122.125-.332v-.812h.266v1.433h-.266V50q-.097.13-.225.194-.128.063-.297.063-.279 0-.424-.153-.144-.154-.144-.45zM130.522 48.787h.266v1.433h-.266zm0-.558h.266v.298h-.266zM132.57 50.655v.183h-1.538v-.183zM132.822 48.787h.266v1.433h-.266zm0-.558h.266v.298h-.266zM134.714 49.004v-.775h.266v1.991h-.266v-.215q-.084.128-.213.19-.127.062-.306.062-.294 0-.479-.207-.184-.208-.184-.545 0-.338.184-.546.185-.207.479-.207.18 0 .306.063.13.061.213.19zm-.907.5q0 .26.12.409.122.147.333.147.211 0 .332-.147.122-.149.122-.408 0-.26-.122-.407-.121-.149-.332-.149-.211 0-.333.149-.12.147-.12.407zM129.272 52.228q-.215 0-.339.149-.124.147-.124.404t.123.406q.124.147.34.147.212 0 .336-.148.125-.149.125-.405 0-.255-.125-.403-.124-.15-.336-.15zm0-.2q.347 0 .545.2.198.2.198.553 0 .352-.198.553-.198.2-.545.2-.349 0-.547-.2-.197-.2-.197-.553 0-.353.197-.553.198-.2.547-.2zM131.616 52.781q0-.26-.122-.407-.12-.148-.33-.148-.212 0-.333.148-.12.147-.12.407t.12.408q.121.147.332.147.211 0 .331-.147.122-.148.122-.408zm-.905-.5q.084-.128.21-.19.13-.063.307-.063.295 0 .48.208.184.207.184.545t-.185.545q-.184.208-.479.208-.177 0-.306-.062-.127-.063-.211-.19v.215h-.268v-1.992h.268zM132.336 52.063h.266v1.46q0 .273-.118.396t-.38.123h-.1v-.2h.07q.152 0 .207-.062.055-.062.055-.258zm0-.558h.266v.298h-.266zM134.54 52.721v.115h-1.223q.018.244.165.372.15.126.414.126.153 0 .296-.033.145-.033.287-.1v.223q-.143.054-.294.082t-.305.028q-.388 0-.615-.2-.225-.2-.225-.54 0-.352.214-.558.215-.207.58-.207.327 0 .516.187.19.185.19.505zm-.265-.069q-.003-.193-.123-.308-.119-.116-.315-.116-.223 0-.358.112-.133.111-.153.313zM136.143 52.118v.22q-.113-.055-.227-.082-.113-.028-.229-.028-.258 0-.402.146-.143.145-.143.407t.143.408q.144.145.402.145.116 0 .229-.027.114-.028.227-.083v.217q-.111.047-.231.07-.119.023-.254.023-.365 0-.58-.204-.216-.203-.216-.549 0-.35.217-.552.218-.2.597-.2.123 0 .24.022.117.022.227.067zM136.869 51.656v.407h.548v.183h-.548v.778q0 .176.053.226.055.05.221.05h.274v.197h-.274q-.308 0-.425-.101-.117-.103-.117-.372v-.778h-.195v-.183h.195v-.407zM139 53.932v.183h-1.538v-.183zM139.252 52.063h.266v1.434h-.266zm0-.558h.266v.298h-.266zM141.139 52.28v-.775h.266v1.991h-.266v-.215q-.084.128-.213.191-.127.062-.306.062-.294 0-.48-.208-.183-.207-.183-.545t.184-.545q.185-.208.479-.208.179 0 .306.063.129.062.213.19zm-.907.501q0 .26.12.408.122.147.333.147.21 0 .332-.147.122-.148.122-.408t-.122-.407q-.121-.148-.332-.148-.211 0-.333.148-.12.147-.12.407zM128.903 54.932v.408h.548v.183h-.548v.778q0 .175.054.225.055.05.22.05h.274v.197h-.273q-.308 0-.425-.101-.117-.102-.117-.371v-.778h-.196v-.183h.196v-.407zM130.477 56.906q-.113.256-.22.334-.107.078-.286.078h-.213v-.197h.157q.11 0 .17-.046t.135-.217l.048-.108-.656-1.41h.282l.507 1.12.506-1.12h.282zM131.811 56.558v.76h-.267V55.34h.267v.217q.084-.128.211-.189.13-.063.307-.063.295 0 .479.208.185.207.185.545 0 .338-.185.545-.184.208-.479.208-.178 0-.307-.062-.127-.063-.21-.19zm.906-.5q0-.26-.122-.407-.12-.149-.331-.149-.211 0-.333.149-.12.147-.12.407t.12.408q.122.147.333.147.211 0 .331-.147.122-.148.122-.408zM134.82 55.998v.115h-1.223q.017.243.164.371.15.127.414.127.153 0 .296-.034.145-.033.287-.1v.223q-.143.054-.294.082t-.305.028q-.387 0-.615-.2-.225-.199-.225-.54 0-.351.214-.557.215-.208.58-.208.327 0 .516.187.191.186.191.506zm-.266-.07q-.003-.193-.123-.308-.119-.115-.315-.115-.223 0-.357.111-.134.112-.154.314zM136.489 57.208v.184h-1.539v-.184zM136.74 55.34h.266v1.433h-.266zm0-.558h.266v.298h-.266zM138.627 55.557v-.775h.266v1.991h-.266v-.215q-.084.128-.213.191-.127.061-.306.061-.294 0-.479-.207-.184-.207-.184-.545 0-.338.184-.545.185-.208.479-.208.18 0 .306.063.129.061.213.19zm-.907.5q0 .26.12.41.122.146.333.146.211 0 .332-.147.122-.148.122-.408t-.122-.407q-.121-.149-.332-.149-.211 0-.333.149-.12.147-.12.407z"/>
  </g>
  <path d="M153.63 40.476h25.056a2.412 2.412 0 012.417 2.417v13.014a2.412 2.412 0 01-2.417 2.417H153.63a2.412 2.412 0 01-2.417-2.417V42.893a2.412 2.412 0 012.417-2.417z" fill="#828487" stroke-width="3.626"/>
  <g fill="#f9f9f9" stroke-width=".504" aria-label="object_propertyui_idobject_idproperty_id">
   <path d="M153.363 42.399q-.214 0-.338.148-.124.147-.124.404t.122.406q.125.147.34.147.213 0 .337-.148.125-.149.125-.405 0-.254-.125-.403-.124-.15-.337-.15zm0-.2q.347 0 .545.2.199.2.199.552 0 .352-.199.553-.198.2-.545.2-.348 0-.546-.2-.197-.2-.197-.553 0-.353.197-.552.198-.2.546-.2zM155.713 42.951q0-.26-.121-.407-.12-.148-.331-.148-.211 0-.333.148-.12.148-.12.407t.12.409q.122.147.333.147.21 0 .33-.147.122-.149.122-.409zm-.905-.5q.084-.128.211-.19.129-.062.307-.062.295 0 .478.207.186.207.186.545t-.186.546q-.183.207-.478.207-.178 0-.307-.061-.127-.063-.211-.191v.215h-.268v-1.992h.268zM156.428 42.234h.266v1.459q0 .274-.119.396-.117.123-.379.123h-.1v-.2h.07q.152 0 .207-.062.055-.062.055-.257zm0-.559h.266v.299h-.266zM158.638 42.891v.115h-1.223q.017.243.165.371.149.127.413.127.154 0 .297-.033.144-.033.286-.1v.223q-.143.053-.294.082t-.305.028q-.387 0-.614-.2-.226-.2-.226-.54 0-.352.214-.558.216-.207.58-.207.327 0 .516.186.191.186.191.506zm-.266-.069q-.003-.193-.123-.309-.118-.115-.315-.115-.223 0-.357.112-.133.111-.154.313zM160.24 42.288v.22q-.113-.055-.227-.081-.113-.029-.228-.029-.26 0-.402.146-.143.145-.143.407t.143.409q.143.144.402.144.115 0 .228-.027.114-.028.227-.083v.218q-.111.046-.231.069-.119.023-.253.023-.366 0-.582-.204-.215-.203-.215-.549 0-.35.217-.551.218-.201.597-.201.123 0 .24.023.117.022.227.066zM160.966 41.826v.407h.548v.183h-.548v.779q0 .175.053.225.055.05.222.05h.273v.197h-.273q-.308 0-.425-.101-.118-.103-.118-.371v-.779h-.195v-.183h.195v-.407zM163.093 44.102v.183h-1.54v-.183zM163.6 43.452v.76h-.267v-1.979h.268v.218q.083-.128.21-.19.13-.062.307-.062.295 0 .479.207.185.207.185.545t-.185.546q-.184.207-.479.207-.178 0-.306-.061-.128-.063-.211-.191zm.906-.5q0-.26-.122-.408-.12-.148-.33-.148-.212 0-.333.148-.12.148-.12.407t.12.409q.121.147.332.147.211 0 .331-.147.122-.149.122-.409zM166.163 42.453q-.045-.023-.099-.033-.052-.011-.115-.011-.226 0-.347.13-.12.13-.12.373v.755h-.268v-1.434h.268v.223q.083-.13.218-.193.134-.064.327-.064.027 0 .06.004.034.002.074.008zM167.006 42.399q-.214 0-.339.148-.124.147-.124.404t.123.406q.124.147.34.147.212 0 .337-.148.124-.149.124-.405 0-.254-.124-.403-.125-.15-.337-.15zm0-.2q.347 0 .545.2.198.2.198.552 0 .352-.198.553-.198.2-.545.2-.349 0-.547-.2-.197-.2-.197-.553 0-.353.197-.552.198-.2.547-.2zM168.446 43.452v.76h-.268v-1.979h.268v.218q.084-.128.21-.19.13-.062.307-.062.296 0 .48.207t.184.545-.185.546q-.183.207-.479.207-.177 0-.306-.061-.127-.063-.211-.191zm.905-.5q0-.26-.121-.408-.12-.148-.332-.148t-.332.148q-.12.148-.12.407t.12.409q.121.147.332.147t.332-.147q.121-.149.121-.409zM171.454 42.891v.115h-1.223q.017.243.165.371.149.127.413.127.154 0 .297-.033.145-.033.286-.1v.223q-.143.053-.293.082t-.305.028q-.388 0-.615-.2-.226-.2-.226-.54 0-.352.214-.558.216-.207.58-.207.327 0 .517.186t.19.506zm-.266-.069q-.003-.193-.123-.309-.118-.115-.315-.115-.223 0-.357.112-.133.111-.153.313zM172.828 42.453q-.045-.023-.099-.033-.052-.011-.115-.011-.226 0-.348.13-.12.13-.12.373v.755h-.267v-1.434h.267v.223q.084-.13.219-.193.134-.064.327-.064.027 0 .06.004.034.002.074.008zM173.375 41.826v.407h.548v.183h-.548v.779q0 .175.053.225.055.05.221.05h.274v.197h-.274q-.308 0-.425-.101-.117-.103-.117-.371v-.779h-.195v-.183h.195v-.407zM174.943 43.8q-.113.256-.22.334t-.286.078h-.213v-.197h.157q.11 0 .17-.046.061-.046.135-.218l.047-.107-.655-1.41h.282l.507 1.12.506-1.12h.282zM152.71 49.654v-.867h.266v.858q0 .204.09.306.09.101.269.101.215 0 .34-.121.126-.122.126-.332v-.812h.266v1.433h-.266V50q-.097.13-.226.194-.127.063-.296.063-.28 0-.424-.153-.145-.154-.145-.45zM154.614 48.787h.266v1.433h-.266zm0-.558h.266v.298h-.266zM156.668 50.655v.183h-1.539v-.183zM156.919 48.787h.266v1.433h-.266zm0-.558h.266v.298h-.266zM158.806 49.004v-.775h.266v1.991h-.266v-.215q-.084.128-.213.19-.127.062-.306.062-.294 0-.48-.207-.183-.208-.183-.545 0-.338.184-.546.185-.207.479-.207.179 0 .306.063.129.061.213.19zm-.907.5q0 .26.12.409.121.147.333.147.21 0 .332-.147.122-.149.122-.408 0-.26-.122-.407-.121-.149-.332-.149-.212 0-.333.149-.12.147-.12.407zM153.363 52.228q-.214 0-.338.149-.124.147-.124.404t.122.406q.125.147.34.147.213 0 .337-.148.125-.149.125-.405 0-.255-.125-.403-.124-.15-.337-.15zm0-.2q.347 0 .545.2.199.2.199.553 0 .352-.199.553-.198.2-.545.2-.348 0-.546-.2-.197-.2-.197-.553 0-.353.197-.553.198-.2.546-.2zM155.713 52.781q0-.26-.121-.407-.12-.148-.331-.148-.211 0-.333.148-.12.147-.12.407t.12.408q.122.147.333.147.21 0 .33-.147.122-.148.122-.408zm-.905-.5q.084-.128.211-.19.129-.063.307-.063.295 0 .478.208.186.207.186.545t-.186.545q-.183.208-.478.208-.178 0-.307-.062-.127-.063-.211-.19v.215h-.268v-1.992h.268zM156.428 52.063h.266v1.46q0 .273-.119.396-.117.123-.379.123h-.1v-.2h.07q.152 0 .207-.062.055-.062.055-.258zm0-.558h.266v.298h-.266zM158.638 52.721v.115h-1.223q.017.244.165.372.149.126.413.126.154 0 .297-.033.144-.033.286-.1v.223q-.143.054-.294.082t-.305.028q-.387 0-.614-.2-.226-.2-.226-.54 0-.352.214-.558.216-.207.58-.207.327 0 .516.187.191.185.191.505zm-.266-.069q-.003-.193-.123-.308-.118-.116-.315-.116-.223 0-.357.112-.133.111-.154.313zM160.24 52.118v.22q-.113-.055-.227-.082-.113-.028-.228-.028-.26 0-.402.146-.143.145-.143.407t.143.408q.143.145.402.145.115 0 .228-.027.114-.028.227-.083v.217q-.111.047-.231.07-.119.023-.253.023-.366 0-.582-.204-.215-.203-.215-.549 0-.35.217-.552.218-.2.597-.2.123 0 .24.022.117.022.227.067zM160.966 51.656v.407h.548v.183h-.548v.778q0 .176.053.226.055.05.222.05h.273v.197h-.273q-.308 0-.425-.101-.118-.103-.118-.372v-.778h-.195v-.183h.195v-.407zM163.093 53.932v.183h-1.54v-.183zM163.344 52.063h.266v1.434h-.266zm0-.558h.266v.298h-.266zM165.236 52.28v-.775h.266v1.991h-.266v-.215q-.084.128-.212.191-.128.062-.307.062-.294 0-.479-.208-.183-.207-.183-.545t.183-.545q.185-.208.479-.208.18 0 .307.063.128.062.212.19zm-.907.501q0 .26.12.408.122.147.333.147.211 0 .333-.147.121-.148.121-.408t-.121-.407q-.122-.148-.333-.148-.211 0-.333.148-.12.147-.12.407zM152.995 56.558v.76h-.268V55.34h.268v.217q.084-.128.211-.189.129-.063.307-.063.295 0 .478.208.185.207.185.545 0 .338-.185.545-.183.208-.478.208-.178 0-.307-.062-.127-.063-.211-.19zm.905-.5q0-.26-.121-.407-.12-.149-.331-.149-.212 0-.333.149-.12.147-.12.407t.12.408q.121.147.333.147.21 0 .33-.147.122-.148.122-.408zM155.557 55.56q-.045-.023-.098-.033-.052-.012-.116-.012-.226 0-.347.13-.12.13-.12.373v.755h-.268V55.34h.268v.222q.084-.13.218-.193.135-.064.327-.064.028 0 .06.004.034.003.075.009zM156.4 55.505q-.214 0-.339.149-.124.147-.124.404t.123.406q.124.147.34.147.212 0 .337-.149.124-.148.124-.404 0-.255-.124-.403-.125-.15-.337-.15zm0-.2q.347 0 .545.2.198.2.198.553 0 .352-.198.553-.198.2-.545.2-.349 0-.547-.2-.196-.201-.196-.553 0-.353.196-.553.198-.2.547-.2zM157.84 56.558v.76h-.268V55.34h.268v.217q.084-.128.211-.189.129-.063.307-.063.295 0 .478.208.186.207.186.545 0 .338-.186.545-.183.208-.478.208-.178 0-.307-.062-.127-.063-.211-.19zm.905-.5q0-.26-.121-.407-.12-.149-.331-.149-.211 0-.333.149-.12.147-.12.407t.12.408q.122.147.333.147.21 0 .33-.147.122-.148.122-.408zM160.849 55.998v.115h-1.224q.018.243.165.371.15.127.414.127.153 0 .296-.034.145-.033.287-.1v.223q-.144.054-.294.082t-.305.028q-.388 0-.615-.2-.225-.199-.225-.54 0-.351.214-.557.215-.208.58-.208.326 0 .516.187.19.186.19.506zm-.266-.07q-.003-.193-.123-.308-.119-.115-.316-.115-.222 0-.357.111-.133.112-.153.314zM162.222 55.56q-.045-.023-.098-.033-.053-.012-.116-.012-.226 0-.347.13-.12.13-.12.373v.755h-.268V55.34h.268v.222q.084-.13.218-.193.135-.064.327-.064.027 0 .06.004.034.003.074.009zM162.763 54.932v.408h.548v.183h-.548v.778q0 .175.054.225.055.05.221.05h.273v.197h-.273q-.308 0-.425-.101-.117-.102-.117-.371v-.778h-.195v-.183h.195v-.407zM164.337 56.906q-.112.256-.22.334t-.286.078h-.212v-.197h.156q.11 0 .17-.046t.135-.217l.048-.108-.655-1.41h.282l.506 1.12.506-1.12h.282zM166.648 57.208v.184h-1.538v-.184zM166.894 55.34h.266v1.433h-.266zm0-.558h.266v.298h-.266zM168.786 55.557v-.775h.266v1.991h-.266v-.215q-.084.128-.212.191-.128.061-.307.061-.293 0-.479-.207-.183-.207-.183-.545 0-.338.183-.545.186-.208.48-.208.178 0 .306.063.128.061.212.19zm-.906.5q0 .26.12.41.121.146.332.146t.333-.147q.121-.148.121-.408t-.121-.407q-.122-.149-.333-.149t-.332.149q-.12.147-.12.407z"/>
  </g>
  <path d="M107.958 60.577h21.238a2.412 2.412 0 012.417 2.417v3.71a2.412 2.412 0 01-2.417 2.418h-21.238a2.412 2.412 0 01-2.418-2.417v-3.711a2.412 2.412 0 012.418-2.417z" fill="#828487" stroke-width="3.626"/>
  <g fill="#f9f9f9" stroke-width=".504" aria-label="object_signal...">
   <path d="M107.547 62.415q-.215 0-.339.149-.124.147-.124.404t.123.406q.124.147.34.147.212 0 .336-.149t.125-.404q0-.255-.125-.403-.124-.15-.336-.15zm0-.2q.347 0 .545.2.198.2.198.553 0 .352-.198.553-.198.2-.545.2-.349 0-.547-.2-.197-.201-.197-.553 0-.353.197-.553.198-.2.547-.2zM109.89 62.968q0-.26-.12-.407-.12-.148-.332-.148t-.332.148q-.12.148-.12.407 0 .26.12.409.121.147.332.147t.331-.147q.122-.149.122-.409zm-.904-.5q.084-.128.21-.19.13-.062.307-.062.295 0 .48.207.184.207.184.545 0 .338-.185.546-.184.207-.479.207-.177 0-.306-.061-.127-.063-.211-.191v.215h-.268v-1.992h.268zM110.611 62.252h.266v1.46q0 .273-.118.396t-.38.123h-.1v-.2h.07q.152 0 .207-.063.055-.061.055-.257zm0-.558h.266v.298h-.266zM112.816 62.91v.114h-1.224q.018.243.165.371.15.127.414.127.153 0 .296-.033.145-.033.287-.1v.223q-.143.053-.294.082t-.305.028q-.388 0-.615-.2-.225-.2-.225-.54 0-.352.214-.558.215-.207.58-.207.327 0 .516.186.19.186.19.506zm-.266-.07q-.003-.193-.123-.309-.119-.115-.315-.115-.223 0-.358.112-.133.111-.153.313zM114.418 62.306v.22q-.113-.055-.227-.081-.113-.029-.229-.029-.258 0-.402.146-.143.145-.143.407t.143.409q.144.144.402.144.116 0 .229-.027.114-.028.227-.083v.218q-.111.046-.231.069-.12.023-.254.023-.365 0-.58-.204-.216-.203-.216-.549 0-.35.217-.551.218-.201.597-.201.123 0 .24.023.117.022.227.066zM115.144 61.842v.407h.548v.183h-.548v.778q0 .176.053.225.055.05.221.05h.274v.197h-.274q-.308 0-.425-.1-.117-.103-.117-.372v-.778h-.195v-.183h.195v-.407zM117.276 64.12v.182h-1.539v-.183zM118.554 62.292v.222q-.113-.051-.234-.077-.122-.025-.252-.025-.198 0-.298.054-.098.053-.098.16 0 .083.07.13.072.046.286.088l.09.018q.284.054.403.153.12.097.12.272 0 .2-.18.316-.177.117-.49.117-.13 0-.272-.023-.14-.022-.296-.067v-.243q.148.068.29.103.144.033.284.033.188 0 .29-.057.1-.057.1-.16 0-.097-.073-.148-.072-.051-.32-.099l-.092-.019q-.248-.046-.358-.14-.11-.097-.11-.263 0-.202.163-.312.162-.11.46-.11.147 0 .277.019t.24.058zM119.068 62.252h.266v1.434h-.266zm0-.558h.266v.298h-.266zM120.954 62.949q0-.256-.12-.397-.118-.141-.334-.141-.214 0-.334.14-.118.142-.118.398 0 .254.118.395.12.14.334.14.216 0 .334-.14.12-.14.12-.395zm.266.555q0 .366-.183.544-.184.18-.563.18-.14 0-.264-.02-.125-.018-.242-.056v-.23q.117.057.232.084t.232.027q.262 0 .392-.122.13-.12.13-.365v-.116q-.082.127-.21.19-.13.062-.309.062-.298 0-.48-.201-.182-.2-.182-.532 0-.333.182-.534t.48-.201q.18 0 .308.063.129.062.211.189v-.218h.266zM123.115 62.82v.865h-.266v-.857q0-.204-.09-.305t-.27-.1q-.215 0-.339.12-.124.122-.124.332v.81h-.268v-1.433h.268v.223q.095-.13.224-.194.13-.064.3-.064.278 0 .421.154.144.152.144.45zM124.382 62.963q-.323 0-.447.066-.125.065-.125.222 0 .126.093.2.094.073.255.073.22 0 .354-.138.134-.14.134-.37v-.053zm.53-.097v.818h-.266v-.218q-.09.131-.227.194-.136.061-.332.061-.249 0-.397-.123-.146-.124-.146-.331 0-.242.183-.365t.546-.123h.373v-.023q0-.162-.121-.25-.12-.09-.339-.09-.138 0-.27.029-.132.03-.253.088v-.217q.146-.05.283-.074.138-.026.268-.026.351 0 .525.161.173.161.173.49zM125.459 61.694h.266v1.991h-.266zM106.955 66.634h.305v.325h-.305zM107.893 66.634h.305v.325h-.305zM108.836 66.634h.305v.325h-.305z"/>
  </g>
  <g fill="#828487">
   <path d="M142.842 60.577h35.862a2.412 2.412 0 012.417 2.417v3.71a2.412 2.412 0 01-2.417 2.418h-35.862a2.412 2.412 0 01-2.417-2.417v-3.711a2.412 2.412 0 012.417-2.417z" stroke-width="3.626"/>
   <g stroke-width=".504" style="font-variant-caps:normal;font-variant-east-asian:normal;font-variant-ligatures:normal;font-variant-numeric:normal" aria-label="History">
    <path d="M103.189 77.59v-1.132h-.89v1.131h-.605v-2.643h.606v1.07h.889v-1.07h.601v2.643zM104.25 75.115q0-.12.086-.196.086-.078.232-.078.144 0 .23.078.086.076.086.196 0 .118-.086.196-.086.077-.23.077-.146 0-.232-.077-.086-.078-.086-.196zm.61.509v1.964h-.584v-1.964zM106.293 77.06q0-.075-.088-.133t-.296-.138q-.303-.106-.468-.24-.162-.134-.162-.37 0-.246.203-.418.204-.174.565-.174.374 0 .59.17.215.17.215.445h-.581q0-.241-.226-.241-.21 0-.21.192 0 .076.08.129.083.053.296.13.333.111.489.248.158.136.158.38 0 .26-.22.422-.22.162-.591.162-.402 0-.616-.202-.211-.203-.211-.443h.55q.004.16.084.214.08.055.205.055.234 0 .234-.187zM108.203 77.574q-.141.05-.322.05-.259 0-.413-.135-.154-.134-.154-.448v-1.032h-.258v-.386h.258v-.485h.58v.485h.297v.386h-.298v.975q0 .124.04.164.04.04.135.04.08 0 .137-.015zM108.382 76.542q0-.463.242-.708.244-.247.655-.247.415 0 .657.247.244.245.244.708v.13q0 .462-.244.707-.242.245-.653.245-.413 0-.657-.245-.244-.245-.244-.708zm.58.13q0 .526.321.526.306 0 .316-.494v-.162q0-.528-.32-.528-.306 0-.316.496zM111.448 76.108q-.243 0-.325.183v1.3h-.58v-1.964h.547l.017.212q.14-.249.38-.249.094 0 .158.022l-.006.51q-.103-.014-.191-.014zM112.252 78.384q-.105 0-.238-.034v-.4l.07.002q.141 0 .207-.05.065-.05.098-.157l.048-.136-.641-1.983h.622l.269 1.108.294-1.108h.62l-.733 2.264q-.156.454-.53.49z" style="font-variant-caps:normal;font-variant-east-asian:normal;font-variant-ligatures:normal;font-variant-numeric:normal"/>
   </g>
  </g>
  <path class="st6" transform="matrix(.08138 0 0 .07021 -68.414 -25.089)" d="m1872.1 1238.9h-417.9c-13.2 0-24-10.8-24-24v-266c0-13.2 10.8-24 24-24h417.9c13.2 0 24 10.8 24 24v266c0 13.2-10.8 24-24 24z" fill="url(#b)" filter="url(#i)" stroke="url(#e)" stroke-width="2.49"/>
  <g class="st4 st10 st12" transform="matrix(.10512 0 0 .09296 -15.341 -38.746)" fill="#828487" filter="url(#l)" style="inline-size:561.278;white-space:pre" aria-label="Data Model">
   <path d="m217.13 561.81v-60.667h16.042q10.542 0 16.958 6.708 6.417 6.709 6.417 18.958v9.375q0 12.208-6.417 18.917t-17.083 6.709zm12.292-50.459v40.292h3.625q6.542 0 8.875-3.583 2.375-3.584 2.375-11.875v-9.459q0-8.167-2.292-11.708-2.25-3.583-8.541-3.667zm54.748 50.459q-0.625-1.417-1-3.5-3.208 4.333-8.583 4.333-5.459 0-9.292-3.666-3.792-3.667-3.792-9.792 0-6.875 4.417-10.875 4.417-4.042 13.5-4.042h3.167v-3.625q0-5.541-4.084-5.541-4.416 0-4.416 5.166h-11.792q0-5.916 4.458-10.125 4.5-4.25 12.083-4.25 6.708 0 11.125 3.5 4.458 3.5 4.458 11.417v21.167q0.084 6 1.625 9.125v0.709zm-6.917-8.458q1.917 0 3.292-0.792t2.042-1.875v-9.375h-2.792q-3.333 0-4.917 2.042t-1.583 5q0 5 3.958 5zm43.707 8.168q-2.875 1.125-6.542 1.125-5.25 0-8.375-3.083t-3.125-10.292v-23.667h-5.25v-8.875h5.25v-11.125h11.75v11.125h6.042v8.875h-6.042v22.375q0 2.833 0.792 3.75 0.833 0.916 2.75 0.916 1.625 0 2.792-0.333zm25.63 0.29q-0.625-1.417-1-3.5-3.208 4.333-8.583 4.333-5.459 0-9.292-3.666-3.792-3.667-3.792-9.792 0-6.875 4.417-10.875 4.417-4.042 13.5-4.042h3.167v-3.625q0-5.541-4.084-5.541-4.416 0-4.416 5.166h-11.792q0-5.916 4.458-10.125 4.5-4.25 12.083-4.25 6.708 0 11.125 3.5 4.458 3.5 4.458 11.417v21.167q0.084 6 1.625 9.125v0.709zm-6.917-8.458q1.917 0 3.292-0.792t2.042-1.875v-9.375h-2.792q-3.333 0-4.917 2.042t-1.583 5q0 5 3.958 5zm69.417-8.372 11.417-43.834h16v60.667h-12.292v-16.417l1.125-25.125-12.083 41.542h-8.375l-12.083-41.542 1.125 25.125v16.417h-12.292v-60.667h16zm33.33-7.17q0-10.625 4.917-16.25 4.958-5.667 13.292-5.667 8.416 0 13.333 5.667 4.958 5.625 4.958 16.25v2.958q0 10.625-4.958 16.25-4.917 5.625-13.25 5.625-8.375 0-13.333-5.625t-4.959-16.25zm11.792 2.958q0 12.083 6.5 12.083 6.208 0 6.417-11.333v-3.708q0-12.125-6.5-12.125-6.209 0-6.417 11.375zm52.958 21.082-0.542-4.667q-3.583 5.459-9.375 5.459-7.041 0-10.792-5.542-3.75-5.542-3.791-16v-3.208q0-10.958 3.625-16.458 3.666-5.542 11-5.542 5.291 0 8.708 4.5v-22.583h11.833v64zm-12.708-21q0 6.208 1.292 9.083 1.333 2.834 4.916 2.834 3.625 0 5.334-3.167v-20.5q-1.75-3.375-5.292-3.375-3.5 0-4.875 2.875t-1.375 9.292zm63.548 15.04q-1.792 2.417-5.667 4.583-3.833 2.167-9.625 2.167-9.208 0-14.25-5.5-5-5.5-5-15.292v-3.708q0-10.958 4.75-16.583 4.792-5.667 13.292-5.667t12.792 5.375 4.375 16.125v5.792h-23.375q0.209 5.375 2.292 7.541 2.125 2.125 5.917 2.125 5.958 0 9.833-4.083zm-16.542-30.208q-3.083 0-4.5 2.208-1.375 2.167-1.625 7.042h11.792v-1.042q-0.083-4.083-1.333-6.125-1.25-2.083-4.334-2.083zm34.292-27.872v64h-11.833v-64z"/>
  </g>
  <g fill="#828487" stroke-width=".504" aria-label="TRIGGERS">
   <path d="M132.636 73.005h2.211v.432h-.795v1.784h-.619v-1.784h-.797zM136.045 73.984q.195 0 .278-.067.085-.067.085-.22 0-.151-.085-.216-.083-.066-.278-.066h-.26v.569zm-.26.395v.838h-.619v-2.216h.945q.474 0 .694.147.222.147.222.465 0 .22-.116.36-.114.141-.345.208.127.027.226.122.102.093.205.285l.335.63h-.658l-.293-.551q-.088-.167-.18-.227-.09-.061-.241-.061zM137.7 73.005h.62v2.216h-.62zM141.083 75.054q-.232.104-.48.156-.25.052-.515.052-.6 0-.95-.31t-.35-.84q0-.535.357-.843t.977-.307q.239 0 .458.042.22.041.414.123v.459q-.2-.106-.4-.158-.198-.052-.397-.052-.37 0-.57.192-.2.19-.2.545 0 .351.193.543t.548.191q.097 0 .179-.01.083-.012.149-.036v-.43h-.378v-.383h.965zM143.782 75.054q-.232.104-.48.156-.25.052-.515.052-.6 0-.95-.31t-.35-.84q0-.535.357-.843t.977-.307q.239 0 .458.042.22.041.414.123v.459q-.2-.106-.4-.158-.198-.052-.397-.052-.37 0-.57.192-.2.19-.2.545 0 .351.193.543t.548.191q.097 0 .179-.01.083-.012.149-.036v-.43h-.378v-.383h.965zM144.328 73.005h1.67v.432h-1.051v.412h.988v.432h-.988v.508h1.086v.432h-1.705zM147.453 73.984q.195 0 .278-.067.085-.067.085-.22 0-.151-.085-.216-.083-.066-.278-.066h-.26v.569zm-.26.395v.838h-.619v-2.216h.945q.474 0 .694.147.222.147.222.465 0 .22-.116.36-.114.141-.345.208.127.027.226.122.102.093.204.285l.336.63h-.659l-.292-.551q-.088-.167-.18-.227-.09-.061-.241-.061zM150.78 73.07v.47q-.197-.082-.385-.124-.188-.041-.355-.041-.222 0-.328.056-.106.056-.106.175 0 .09.07.14.073.049.26.084l.264.05q.4.074.57.225.168.151.168.43 0 .367-.236.547-.235.178-.719.178-.228 0-.458-.04t-.46-.119v-.482q.23.112.444.17.216.057.415.057.202 0 .31-.063.108-.062.108-.178 0-.104-.074-.16-.073-.056-.291-.101l-.24-.049q-.36-.071-.527-.227-.165-.156-.165-.42 0-.331.231-.51t.665-.178q.198 0 .407.029.209.026.432.081z"/>
  </g>
  <g fill="#bcbec0">
   <path class="st2" d="m129.02 71.421v3.845h-1.155v-3.846z" stroke-width=".358"/>
   <path class="st2" d="m129.94 74.493h-3.013l1.507 2.308z" stroke-width="3.468"/>
   <path class="st2" d="m155.71 71.421v3.845h-1.154v-3.846z" stroke-width=".358"/>
   <path class="st2" d="m155.13 76.8 1.506-2.307h-3.013z" stroke-width="3.468"/>
  </g>
  <path class="st2" d="M87.737 50.585v1.86h-.63v-1.86z" fill="#bcbec0" stroke-width=".358"/>
  <path class="st2" d="m88.927 52.444v-1.859h1.198v1.86zm2.396 0v-1.859h1.199v1.86zm2.386 0v-1.859h1.199v1.86zm2.386 0v-1.859h1.199v1.86z" stroke-width=".358"/>
  <g fill="#bcbec0">
   <path class="st2" d="M99.112 50.585v1.86h-.63v-1.86zM38.531 51.003h4.348v1.021H38.53z" stroke-width=".358"/>
   <path class="st2" d="m42.006 50.181v2.665l2.61-1.332z" stroke-width="3.468"/>
   <path class="st2" d="M67.561 70.765V66.92h-1.154v3.845z" stroke-width=".358"/>
   <path class="st2" d="m65.476 67.69 1.507-2.307 1.506 2.308z" stroke-width="3.468"/>
  </g>
  <g fill="#828487" stroke-width=".358" style="font-feature-settings:normal;font-variant-caps:normal;font-variant-ligatures:normal;font-variant-numeric:normal" aria-label="GObjectRuntime">
   <path d="M62.536 82.365v1.163q-.101.095-.35.227-.25.132-.7.132-.532 0-.851-.297-.318-.298-.318-.912V82.2q0-.616.305-.914.304-.298.825-.298.541 0 .795.24.254.238.291.697h-.624q-.026-.265-.129-.364-.1-.1-.315-.1-.25 0-.375.164t-.127.556v.497q0 .401.138.57.138.166.423.166.17 0 .247-.04l.119-.062v-.517h-.454v-.43zM65.233 82.69q0 .597-.316.897-.315.3-.83.3-.512 0-.832-.3-.32-.3-.32-.896v-.47q0-.61.318-.92.318-.31.83-.31.515 0 .832.31.318.31.318.92zm-.644-.472q0-.403-.13-.577t-.376-.174q-.245 0-.374.172-.127.17-.13.563v.488q0 .384.13.554.131.169.378.169.246 0 .373-.167.127-.166.129-.542zM67.511 82.868q0 .51-.19.765-.19.254-.572.254-.311 0-.493-.246l-.02.207h-.571v-2.974h.618v1.05q.177-.21.462-.21.398 0 .58.256.184.253.186.747zm-.944-.697q-.197 0-.284.157v.955q.085.147.289.147.203 0 .262-.128.06-.128.06-.434v-.137q0-.285-.062-.422-.059-.138-.265-.138zM67.874 81.214q0-.128.092-.21.092-.082.245-.082.156 0 .248.083.092.081.092.209 0 .126-.092.21-.092.08-.248.08-.153 0-.245-.08-.092-.084-.092-.21zm.042.542h.622v2.21q0 .354-.189.542-.186.19-.523.19-.149 0-.285-.033v-.445q.099.015.167.015.208 0 .208-.27zM70.75 83.574q-.094.113-.298.214-.201.1-.506.1-.484 0-.749-.255-.262-.256-.262-.711v-.173q0-.509.25-.77.251-.264.698-.264.447 0 .672.25.226.25.23.75v.269h-1.229q.011.25.12.35.113.1.312.1.313 0 .517-.19zm-.87-1.404q-.161 0-.236.103-.072.1-.085.327h.62v-.048q-.005-.19-.07-.285-.066-.097-.228-.097zM71.995 83.431q.272 0 .272-.31h.582q-.002.359-.245.562-.24.203-.598.203-.473 0-.705-.26-.232-.26-.236-.733v-.169q0-.48.232-.745t.707-.266q.381 0 .611.21.232.209.234.612h-.582q0-.366-.276-.366-.204 0-.256.143-.05.143-.05.412v.151q0 .277.05.417.05.14.26.14zM74.251 83.836q-.15.052-.344.052-.275 0-.44-.143-.164-.143-.164-.478v-1.1h-.276v-.413h.276v-.517h.618v.517h.317v.413h-.317v1.04q0 .132.041.174.044.043.145.043.085 0 .146-.016zM61.173 88.947l-.48-1.03h-.32v1.03h-.645v-2.82h1.027q.477 0 .744.22.268.216.268.633 0 .306-.123.494-.123.187-.34.29l.561 1.156v.027zm-.8-2.345v.84h.364q.193 0 .29-.112.096-.114.096-.304 0-.416-.355-.424zM63.362 88.947l-.015-.193q-.193.232-.52.232-.293 0-.477-.182t-.184-.596v-1.356h.62v1.356q0 .32.228.32.214 0 .309-.164v-1.512h.622v2.095zM65.255 87.268q-.168 0-.263.155v1.522h-.62V86.85h.58l.018.205q.213-.244.552-.244.278 0 .451.178.176.179.176.624v1.332h-.62V87.61q0-.2-.07-.27-.068-.07-.204-.07zM67.645 88.933q-.15.052-.344.052-.276 0-.44-.143-.164-.144-.164-.479v-1.1h-.276v-.412h.276v-.517h.617v.517h.318v.412h-.318v1.04q0 .132.042.174.044.043.145.043.085 0 .146-.015zM67.969 86.305q0-.127.092-.209.092-.083.247-.083.154 0 .246.083.092.082.092.21 0 .125-.092.209-.092.08-.246.08-.155 0-.247-.08-.092-.084-.092-.21zm.65.543v2.095h-.621v-2.095zM69.98 87.268q-.163 0-.252.15v1.527h-.62V86.85h.58l.018.194q.205-.233.547-.233.353 0 .504.281.203-.28.578-.28.287 0 .462.18.175.18.175.62v1.333h-.62v-1.334q0-.21-.065-.275-.066-.068-.184-.068-.175 0-.256.19l.002 1.487h-.618v-1.33q0-.207-.065-.277t-.187-.07zM74.19 88.67q-.094.113-.298.214-.201.1-.506.1-.484 0-.749-.255-.263-.256-.263-.71v-.173q0-.51.25-.771.252-.263.699-.263.446 0 .672.25.226.25.23.749v.27h-1.229q.011.249.12.35.112.098.312.098.313 0 .517-.19zm-.87-1.403q-.162 0-.236.102-.072.101-.085.328h.62v-.049q-.005-.19-.07-.284-.067-.097-.229-.097z"/>
  </g>
  <g fill="#828487" stroke-width=".358" style="font-feature-settings:normal;font-variant-caps:normal;font-variant-ligatures:normal;font-variant-numeric:normal" aria-label="cambalache-dbPython script">
   <path d="M54.282 49.839q.271 0 .271-.31h.583q-.002.358-.246.562-.24.203-.597.203-.473 0-.706-.26-.232-.26-.236-.733v-.169q0-.48.232-.746.232-.265.707-.265.381 0 .611.21.233.208.235.611h-.583q0-.366-.276-.366-.203 0-.256.144-.05.143-.05.412v.151q0 .277.05.417.05.139.26.139zM56.611 50.255q-.033-.066-.052-.162-.169.201-.451.201-.287 0-.489-.17-.199-.17-.199-.456 0-.32.232-.505.232-.188.71-.188h.166v-.168q0-.258-.215-.258-.232 0-.232.24h-.62q0-.275.235-.47.236-.198.635-.198.353 0 .585.163.234.162.234.53v.984q.004.279.085.424v.033zm-.363-.393q.1 0 .173-.037t.107-.087v-.436h-.147q-.175 0-.258.095-.083.095-.083.233 0 .232.208.232zM58.476 48.578q-.162 0-.252.15v1.527h-.62V48.16h.58l.018.194q.206-.233.548-.233.352 0 .503.281.204-.28.578-.28.287 0 .463.18.175.18.175.619v1.334h-.62v-1.334q0-.21-.066-.275-.065-.068-.184-.068-.175 0-.256.19l.002 1.487h-.617v-1.33q0-.207-.066-.277t-.186-.07zM62.776 49.276q0 .509-.19.765-.191.253-.572.253-.311 0-.493-.246l-.02.207h-.571v-2.974h.617v1.05q.178-.21.462-.21.399 0 .58.256.184.254.187.748zm-.944-.698q-.197 0-.285.157v.955q.086.147.29.147.203 0 .262-.128.06-.127.06-.433v-.138q0-.285-.062-.422-.06-.138-.265-.138zM64.272 50.255q-.033-.066-.052-.162-.169.201-.451.201-.287 0-.489-.17-.199-.17-.199-.456 0-.32.232-.505.232-.188.71-.188h.166v-.168q0-.258-.215-.258-.232 0-.232.24h-.62q0-.275.235-.47.236-.198.635-.198.353 0 .585.163.234.162.234.53v.984q.004.279.085.424v.033zm-.363-.393q.1 0 .173-.037t.107-.087v-.436h-.147q-.175 0-.258.095t-.083.233q0 .232.208.232zM65.908 47.28v2.976h-.621V47.28zM67.517 50.255q-.033-.066-.053-.162-.168.201-.451.201-.287 0-.488-.17-.2-.17-.2-.456 0-.32.233-.505.232-.188.71-.188h.165v-.168q0-.258-.214-.258-.232 0-.232.24h-.62q0-.275.234-.47.237-.198.635-.198.353 0 .585.163.234.162.234.53v.984q.005.279.086.424v.033zm-.364-.393q.1 0 .173-.037.072-.036.108-.087v-.436h-.147q-.175 0-.259.095-.083.095-.083.233 0 .232.208.232zM69.365 49.839q.272 0 .272-.31h.582q-.002.358-.245.562-.241.203-.598.203-.473 0-.705-.26-.232-.26-.237-.733v-.169q0-.48.233-.746.232-.265.707-.265.38 0 .61.21.233.208.235.611h-.582q0-.366-.276-.366-.204 0-.256.144-.05.143-.05.412v.151q0 .277.05.417.05.139.26.139zM71.437 48.578q-.175 0-.265.142v1.535h-.62v-2.974h.62v1.063q.201-.223.497-.223.293 0 .477.184t.184.63v1.32h-.62v-1.324q0-.202-.07-.277-.067-.076-.203-.076zM74.536 49.98q-.094.113-.298.213-.201.1-.506.1-.484 0-.749-.255-.262-.255-.262-.71v-.173q0-.51.25-.77.251-.264.698-.264.447 0 .672.25.226.25.23.75v.269h-1.228q.01.25.12.35.112.099.311.099.313 0 .517-.19zm-.87-1.404q-.161 0-.236.103-.072.1-.085.327h.62v-.048q-.005-.19-.07-.285-.066-.097-.228-.097zM76.038 48.818v.455h-1.07v-.455zM77.758 50.257l-.028-.217q-.189.254-.493.254-.37 0-.567-.258-.197-.257-.2-.743v-.15q0-.509.191-.764.193-.258.578-.258.278 0 .458.21v-1.05h.622v2.974zm-.668-.976q0 .289.068.422.07.132.259.132.19 0 .28-.147v-.953q-.092-.157-.278-.157-.184 0-.257.134-.072.133-.072.432zM80.623 49.276q0 .509-.19.765-.191.253-.572.253-.311 0-.493-.246l-.02.207h-.571v-2.974h.617v1.05q.178-.21.462-.21.399 0 .58.256.185.254.187.748zm-.944-.698q-.197 0-.285.157v.955q.086.147.29.147t.262-.128q.06-.127.06-.433v-.138q0-.285-.062-.422-.06-.138-.265-.138zM53.761 54.594v.62h-.404V53.45h.68q.302 0 .474.166.174.164.174.417 0 .256-.172.407-.171.151-.471.153zm0-.847v.55h.277q.126 0 .182-.073.057-.073.057-.187t-.057-.201q-.056-.089-.182-.089zM55.14 55.742q-.07 0-.16-.023v-.266l.047.001q.095 0 .138-.034.044-.032.066-.104l.032-.09-.428-1.322h.415l.18.738.195-.738h.414l-.489 1.509q-.104.303-.353.327zM56.862 55.205q-.095.033-.215.033-.173 0-.275-.09t-.103-.299v-.687h-.173v-.258h.173v-.323h.386v.323h.198v.258h-.198v.65q0 .082.026.108.027.027.09.027.054 0 .092-.01zM57.61 54.165q-.11 0-.165.088v.96h-.388v-1.859h.388v.664q.126-.139.31-.139t.299.115q.115.115.115.394v.825h-.388v-.828q0-.126-.043-.173-.043-.047-.128-.047zM58.403 54.516q0-.309.162-.472.163-.165.436-.165.277 0 .438.165.163.163.163.472v.086q0 .309-.163.472-.161.163-.435.163-.275 0-.438-.163-.163-.163-.163-.472zm.388.086q0 .351.213.351.204 0 .211-.33v-.107q0-.352-.214-.352-.203 0-.21.33zM60.386 54.165q-.106 0-.165.097v.951h-.387v-1.31h.363l.01.129q.134-.153.346-.153.174 0 .282.112.11.111.11.39v.832h-.388v-.835q0-.125-.044-.168-.042-.045-.127-.045zM62.519 54.862q0-.05-.059-.09-.059-.038-.197-.091-.203-.07-.312-.16-.108-.09-.108-.247 0-.163.135-.278.136-.117.377-.117.249 0 .392.114.144.113.144.297h-.387q0-.161-.15-.161-.14 0-.14.128 0 .05.053.086.055.035.197.087.222.074.326.165.105.09.105.253 0 .174-.146.282-.147.107-.394.107-.269 0-.411-.134-.141-.135-.141-.295h.367q.003.106.056.143t.137.036q.156 0 .156-.125zM63.675 54.953q.17 0 .17-.194h.364q-.002.224-.154.351-.15.128-.373.128-.296 0-.441-.163-.145-.163-.148-.458v-.106q0-.3.145-.466.145-.166.442-.166.238 0 .382.131.145.13.147.383h-.364q0-.23-.173-.23-.127 0-.16.09-.032.09-.032.258v.095q0 .173.032.26.031.087.163.087zM65.032 54.224q-.162 0-.217.122v.867h-.387v-1.31h.366l.01.142q.094-.166.254-.166.063 0 .105.015l-.004.34q-.068-.01-.127-.01zM65.356 53.565q0-.08.057-.13.058-.053.155-.053.096 0 .153.052.058.051.058.13 0 .08-.058.132-.057.05-.153.05-.097 0-.155-.05-.057-.052-.057-.131zm.406.339v1.31h-.389v-1.31zM66.746 55.238q-.18 0-.291-.131v.61h-.386v-1.813h.357l.014.12q.113-.145.303-.145.237 0 .356.155.12.155.123.466v.1q0 .307-.12.473-.12.164-.356.164zm-.118-1.073q-.12 0-.173.09v.61q.053.088.176.088.115 0 .159-.086.045-.086.045-.267v-.086q0-.187-.046-.268-.047-.08-.16-.08zM68.109 55.205q-.095.033-.215.033-.173 0-.275-.09-.103-.09-.103-.299v-.687h-.172v-.258h.172v-.323h.386v.323h.198v.258h-.198v.65q0 .082.026.108.027.027.09.027.054 0 .092-.01z"/>
  </g>
  <g fill="#f9f9f9" stroke-width=".504" aria-label="object_layout_property...">
   <path d="M142.724 62.677q-.214 0-.338.148-.125.148-.125.405t.123.406q.125.147.34.147.213 0 .337-.149.124-.148.124-.404 0-.255-.124-.403-.124-.15-.337-.15zm0-.2q.347 0 .545.2.198.2.198.553 0 .352-.198.553-.198.2-.545.2-.348 0-.547-.2-.196-.201-.196-.553 0-.353.196-.553.199-.2.547-.2zM145.074 63.23q0-.26-.121-.407-.12-.148-.332-.148-.21 0-.332.148-.12.147-.12.407t.12.408q.121.148.332.148.212 0 .332-.148.121-.148.121-.408zm-.905-.5q.084-.128.21-.19.13-.062.308-.062.295 0 .478.207.185.207.185.545 0 .338-.185.545-.183.208-.478.208-.178 0-.307-.062-.127-.062-.211-.19v.215h-.268v-1.992h.268zM145.789 62.514h.266v1.459q0 .274-.119.397-.117.123-.379.123h-.101v-.2h.07q.153 0 .208-.063.055-.061.055-.257zm0-.558h.266v.298h-.266zM147.999 63.17v.116h-1.223q.017.243.164.371.15.127.414.127.153 0 .296-.033.145-.034.287-.1v.223q-.143.053-.294.081-.15.029-.305.029-.387 0-.615-.2-.225-.2-.225-.54 0-.352.214-.558.215-.208.58-.208.327 0 .516.187.191.186.191.506zm-.266-.068q-.003-.193-.123-.309-.119-.115-.315-.115-.223 0-.357.111-.134.112-.154.314zM149.601 62.568v.22q-.113-.055-.227-.082-.113-.028-.228-.028-.26 0-.403.146-.143.145-.143.407t.143.408q.144.145.403.145.115 0 .228-.027.114-.028.227-.083v.218q-.111.046-.231.069-.119.023-.253.023-.366 0-.582-.204-.215-.203-.215-.549 0-.35.217-.551.218-.201.597-.201.123 0 .24.023.117.021.227.066zM150.327 62.109v.407h.548v.183h-.548v.778q0 .175.053.225.055.05.221.05h.274v.197h-.274q-.308 0-.425-.1-.117-.103-.117-.372v-.778h-.195v-.183h.195v-.407zM152.453 64.381v.183h-1.538v-.183zM152.705 61.956h.266v1.991h-.266zM154.262 63.225q-.323 0-.447.066t-.124.222q0 .126.092.2.094.073.255.073.221 0 .354-.138.135-.14.135-.37v-.053zm.53-.097v.818h-.265v-.218q-.091.13-.227.194-.136.06-.333.06-.249 0-.396-.122-.146-.124-.146-.331 0-.242.182-.365.184-.123.547-.123h.373v-.023q0-.163-.122-.251-.12-.09-.338-.09-.14 0-.27.03-.132.03-.254.088v-.217q.146-.05.284-.075.137-.025.267-.025.352 0 .525.161.174.161.174.489zM156.015 64.08q-.113.256-.22.334-.107.078-.286.078h-.213v-.197h.156q.11 0 .17-.046.062-.046.135-.218l.048-.107-.655-1.41h.282l.506 1.12.506-1.12h.282zM157.723 62.677q-.214 0-.339.148-.124.148-.124.405t.123.406q.124.147.34.147.212 0 .337-.149.124-.148.124-.404 0-.255-.124-.403-.125-.15-.337-.15zm0-.2q.347 0 .545.2.198.2.198.553 0 .352-.198.553-.198.2-.545.2-.349 0-.547-.2-.197-.201-.197-.553 0-.353.197-.553.198-.2.547-.2zM158.878 63.383v-.867h.266v.858q0 .204.09.306.09.101.269.101.215 0 .34-.121.126-.122.126-.332v-.812h.266v1.433h-.266v-.22q-.097.13-.226.195-.127.062-.296.062-.28 0-.424-.153-.145-.154-.145-.45zM161.05 62.109v.407h.548v.183h-.548v.778q0 .175.053.225.055.05.221.05h.274v.197h-.274q-.308 0-.425-.1-.117-.103-.117-.372v-.778h-.195v-.183h.195v-.407zM163.176 64.381v.183h-1.538v-.183zM163.684 63.734v.76h-.267v-1.978h.267v.217q.084-.128.211-.19.13-.062.307-.062.295 0 .479.207.185.208.185.546 0 .338-.185.545-.184.207-.479.207-.178 0-.307-.061-.127-.063-.21-.19zm.906-.5q0-.26-.122-.407-.12-.149-.331-.149-.211 0-.333.149-.12.147-.12.407t.12.408q.122.147.333.147.211 0 .331-.147.122-.149.122-.408zM166.246 62.731q-.044-.023-.098-.033-.052-.012-.116-.012-.225 0-.347.131-.12.13-.12.372v.756h-.267V62.51h.267v.223q.084-.13.219-.193.134-.064.327-.064.027 0 .06.003.034.003.074.01zM167.084 62.677q-.214 0-.339.148-.124.148-.124.405t.123.406q.124.147.34.147.212 0 .337-.149.124-.148.124-.404 0-.255-.124-.403-.125-.15-.337-.15zm0-.2q.347 0 .545.2.198.2.198.553 0 .352-.198.553-.198.2-.545.2-.349 0-.547-.2-.197-.201-.197-.553 0-.353.197-.553.198-.2.547-.2zM168.53 63.734v.76h-.268v-1.978h.267v.217q.084-.128.212-.19t.306-.062q.295 0 .479.207.185.208.185.546 0 .338-.185.545-.184.207-.479.207-.178 0-.306-.061-.128-.063-.212-.19zm.905-.5q0-.26-.122-.407-.12-.149-.33-.149t-.333.149q-.12.147-.12.407t.12.408q.121.147.332.147t.331-.147q.122-.149.122-.408zM171.538 63.17v.116h-1.223q.017.243.165.371.149.127.413.127.153 0 .297-.033.144-.034.286-.1v.223q-.143.053-.294.081-.15.029-.305.029-.387 0-.614-.2-.226-.2-.226-.54 0-.352.214-.558.216-.208.58-.208.327 0 .516.187.191.186.191.506zm-.266-.068q-.003-.193-.123-.309-.118-.115-.315-.115-.223 0-.357.111-.133.112-.154.314zM172.911 62.731q-.044-.023-.098-.033-.052-.012-.116-.012-.225 0-.347.131-.12.13-.12.372v.756h-.267V62.51h.267v.223q.084-.13.219-.193.134-.064.326-.064.028 0 .061.003t.074.01zM173.453 62.109v.407H174v.183h-.548v.778q0 .175.053.225.055.05.222.05H174v.197h-.273q-.308 0-.426-.1-.117-.103-.117-.372v-.778h-.195v-.183h.195v-.407zM175.027 64.08q-.113.256-.22.334-.107.078-.286.078h-.213v-.197h.156q.11 0 .171-.046.06-.046.134-.218l.048-.107-.655-1.41h.282l.506 1.12.506-1.12h.282zM142.132 66.9h.306v.326h-.306zM143.076 66.9h.305v.326h-.305zM144.02 66.9h.304v.326h-.305z"/>
  </g>
 </g>
 <path d="m134.16 78.555h15.252a3.2499 2.8126 0 0 1 3.2566 2.8184v14.926a3.2499 2.8126 0 0 1-3.2566 2.8184h-15.252a3.2499 2.8126 0 0 1-3.258-2.8184v-14.926a3.2499 2.8126 0 0 1 3.258-2.8184z" fill="#828487" stroke-width="3.626"/>
 <g fill="#f9f9f9" fill-rule="evenodd" stroke-dasharray="0.941171, 1.50588" stroke-linecap="round" stroke-miterlimit="10" stroke-width="1.8823" style="paint-order:stroke fill markers" aria-label="history  history_id command table values   ">
  <path d="m134.42 81.413v0.91127h-0.24804v-0.90318q0-0.21434-0.08358-0.32083t-0.25073-0.10649q-0.20086 0-0.31679 0.12806-0.11593 0.12806-0.11593 0.34914v0.8533h-0.24938v-2.0975h0.24938v0.8223q0.08897-0.13615 0.20895-0.20355 0.12132-0.067402 0.27904-0.067402 0.26017 0 0.39362 0.16176 0.13346 0.16042 0.13346 0.47316z"/>
  <path d="m134.92 80.814h0.24804v1.5098h-0.24804zm0-0.58774h0.24804v0.31409h-0.24804z"/>
  <path d="m136.65 80.859v0.23456q-0.10514-0.053921-0.21838-0.080882-0.11323-0.02696-0.23456-0.02696-0.18468 0-0.27769 0.056617-0.09167 0.056617-0.09167 0.16985 0 0.086274 0.06606 0.13615 0.06605 0.048529 0.26556 0.093014l0.08493 0.018872q0.26421 0.056617 0.37475 0.16042 0.11188 0.10245 0.11188 0.28713 0 0.21029-0.16715 0.33296-0.16581 0.12267-0.45698 0.12267-0.12133 0-0.25343-0.024265-0.13076-0.022916-0.27635-0.070097v-0.25612q0.1375 0.071445 0.27096 0.10784 0.13345 0.035048 0.26421 0.035048 0.17524 0 0.2696-0.059313 0.09437-0.060661 0.09437-0.16985 0-0.1011-0.06875-0.15502-0.0674-0.053921-0.29792-0.1038l-0.08627-0.020221q-0.23051-0.048529-0.33296-0.14828-0.10245-0.1011-0.10245-0.27635 0-0.21299 0.15098-0.32892 0.15097-0.11593 0.42867-0.11593 0.1375 0 0.25882 0.020221 0.12132 0.02022 0.22377 0.060661z"/>
  <path d="m137.37 80.385v0.42867h0.5109v0.19277h-0.5109v0.8196q0 0.18468 0.04987 0.23725 0.05123 0.052573 0.20625 0.052573h0.25478v0.2076h-0.25478q-0.28713 0-0.39632-0.10649-0.10919-0.10784-0.10919-0.39093v-0.8196h-0.18198v-0.19277h0.18198v-0.42867z"/>
  <path d="m138.79 80.988q-0.19951 0-0.31544 0.15637-0.11593 0.15502-0.11593 0.42598 0 0.27095 0.11458 0.42732 0.11593 0.15502 0.31679 0.15502 0.19816 0 0.31409-0.15637t0.11593-0.42598q0-0.26826-0.11593-0.42463-0.11593-0.15772-0.31409-0.15772zm0-0.21029q0.32352 0 0.5082 0.21029 0.18468 0.21029 0.18468 0.58235 0 0.37071-0.18468 0.58235-0.18468 0.21029-0.5082 0.21029-0.32488 0-0.50956-0.21029-0.18333-0.21164-0.18333-0.58235 0-0.37206 0.18333-0.58235 0.18468-0.21029 0.50956-0.21029z"/>
  <path d="m140.77 81.046q-0.04179-0.024265-0.09167-0.035049-0.04853-0.012132-0.10784-0.012132-0.21029 0-0.32353 0.1375-0.11188 0.13615-0.11188 0.39228v0.79534h-0.24939v-1.5098h0.24939v0.23456q0.07818-0.1375 0.20355-0.20355 0.12537-0.067402 0.30465-0.067402 0.02562 0 0.05662 0.004045 0.03101 0.002696 0.06875 0.009436z"/>
  <path d="m141.66 82.464q-0.10515 0.2696-0.2049 0.35184-0.09975 0.082229-0.26691 0.082229h-0.19816v-0.2076h0.14559q0.10245 0 0.15906-0.048529 0.05662-0.048529 0.12537-0.22916l0.04449-0.11324-0.61066-1.4855h0.26286l0.47181 1.1809 0.47181-1.1809h0.26287z"/>
  <path d="m134.42 87.515v0.91127h-0.24804v-0.90318q0-0.21434-0.08358-0.32083t-0.25073-0.10649q-0.20086 0-0.31679 0.12806-0.11593 0.12806-0.11593 0.34914v0.8533h-0.24938v-2.0975h0.24938v0.8223q0.08897-0.13615 0.20895-0.20355 0.12132-0.067402 0.27904-0.067402 0.26017 0 0.39362 0.16176 0.13346 0.16042 0.13346 0.47316z"/>
  <path d="m134.92 86.916h0.24804v1.5098h-0.24804zm0-0.58774h0.24804v0.31409h-0.24804z"/>
  <path d="m136.65 86.961v0.23456q-0.10514-0.053921-0.21838-0.080882-0.11323-0.02696-0.23456-0.02696-0.18468 0-0.27769 0.056617-0.09167 0.056617-0.09167 0.16985 0 0.086274 0.06606 0.13615 0.06605 0.048529 0.26556 0.093014l0.08493 0.018872q0.26421 0.056617 0.37475 0.16042 0.11188 0.10245 0.11188 0.28713 0 0.21029-0.16715 0.33296-0.16581 0.12267-0.45698 0.12267-0.12133 0-0.25343-0.024265-0.13076-0.022916-0.27635-0.070097v-0.25613q0.1375 0.071446 0.27096 0.10784 0.13345 0.035048 0.26421 0.035048 0.17524 0 0.2696-0.059313 0.09437-0.060661 0.09437-0.16985 0-0.1011-0.06875-0.15502-0.0674-0.053922-0.29792-0.1038l-0.08627-0.02022q-0.23051-0.048529-0.33296-0.14828-0.10245-0.1011-0.10245-0.27635 0-0.21299 0.15098-0.32892 0.15097-0.11593 0.42867-0.11593 0.1375 0 0.25882 0.020221 0.12132 0.02022 0.22377 0.060661z"/>
  <path d="m137.37 86.487v0.42867h0.5109v0.19277h-0.5109v0.8196q0 0.18468 0.04987 0.23725 0.05123 0.052574 0.20625 0.052574h0.25478v0.2076h-0.25478q-0.28713 0-0.39632-0.10649-0.10919-0.10784-0.10919-0.39093v-0.8196h-0.18198v-0.19277h0.18198v-0.42867z"/>
  <path d="m138.79 87.09q-0.19951 0-0.31544 0.15637-0.11593 0.15502-0.11593 0.42598 0 0.27095 0.11458 0.42732 0.11593 0.15502 0.31679 0.15502 0.19816 0 0.31409-0.15637t0.11593-0.42598q0-0.26826-0.11593-0.42463-0.11593-0.15772-0.31409-0.15772zm0-0.21029q0.32352 0 0.5082 0.21029 0.18468 0.21029 0.18468 0.58235 0 0.37071-0.18468 0.58235-0.18468 0.21029-0.5082 0.21029-0.32488 0-0.50956-0.21029-0.18333-0.21164-0.18333-0.58235 0-0.37206 0.18333-0.58235 0.18468-0.21029 0.50956-0.21029z"/>
  <path d="m140.77 87.148q-0.04179-0.024265-0.09167-0.035049-0.04853-0.012132-0.10784-0.012132-0.21029 0-0.32353 0.1375-0.11188 0.13615-0.11188 0.39228v0.79534h-0.24939v-1.5098h0.24939v0.23456q0.07818-0.1375 0.20355-0.20355 0.12537-0.067402 0.30465-0.067402 0.02562 0 0.05662 0.004044 0.03101 0.002696 0.06875 0.009437z"/>
  <path d="m141.66 88.566q-0.10515 0.2696-0.2049 0.35184-0.09975 0.082229-0.26691 0.082229h-0.19816v-0.2076h0.14559q0.10245 0 0.15906-0.048529 0.05662-0.048529 0.12537-0.22916l0.04449-0.11324-0.61066-1.4855h0.26286l0.47181 1.1809 0.47181-1.1809h0.26287z"/>
  <path d="m143.81 88.884v0.19277h-1.4343v-0.19277z"/>
  <path d="m144.04 86.916h0.24804v1.5098h-0.24804zm0-0.58774h0.24804v0.31409h-0.24804z"/>
  <path d="m145.8 87.145v-0.8169h0.24804v2.0975h-0.24804v-0.22647q-0.07818 0.1348-0.19816 0.20086-0.11862 0.064706-0.28578 0.064706-0.27365 0-0.4462-0.21838-0.1712-0.21838-0.1712-0.57426 0-0.35588 0.1712-0.57426 0.17255-0.21838 0.4462-0.21838 0.16716 0 0.28578 0.066054 0.11998 0.064705 0.19816 0.19951zm-0.84521 0.52708q0 0.27365 0.11189 0.43002 0.11323 0.15502 0.31004 0.15502t0.31005-0.15502q0.11323-0.15637 0.11323-0.43002 0-0.27365-0.11323-0.42867-0.11324-0.15637-0.31005-0.15637t-0.31004 0.15637q-0.11189 0.15502-0.11189 0.42867z"/>
  <path d="m134.25 90.025v0.23186q-0.10514-0.057965-0.21164-0.086273-0.10514-0.029657-0.21299-0.029657-0.24129 0-0.37475 0.15368-0.13345 0.15233-0.13345 0.42867t0.13345 0.43002q0.13346 0.15233 0.37475 0.15233 0.10785 0 0.21299-0.028309 0.1065-0.029656 0.21164-0.087622v0.22916q-0.10379 0.048529-0.21568 0.072794-0.11054 0.024264-0.23591 0.024264-0.34105 0-0.5419-0.21434-0.20086-0.21434-0.20086-0.5783 0-0.36936 0.20221-0.581 0.20355-0.21164 0.55673-0.21164 0.11458 0 0.22377 0.024264 0.10919 0.022917 0.21164 0.070098z"/>
  <path d="m135.27 90.141q-0.19951 0-0.31544 0.15637-0.11593 0.15502-0.11593 0.42598 0 0.27095 0.11458 0.42732 0.11593 0.15502 0.31679 0.15502 0.19816 0 0.31409-0.15637 0.11593-0.15637 0.11593-0.42598 0-0.26826-0.11593-0.42463-0.11593-0.15772-0.31409-0.15772zm0-0.21029q0.32352 0 0.5082 0.21029t0.18468 0.58235q0 0.37071-0.18468 0.58235-0.18468 0.21029-0.5082 0.21029-0.32488 0-0.50956-0.21029-0.18333-0.21164-0.18333-0.58235 0-0.37206 0.18333-0.58235 0.18468-0.21029 0.50956-0.21029z"/>
  <path d="m137.55 90.257q0.09301-0.16716 0.22242-0.24669 0.12942-0.079533 0.30466-0.079533 0.2359 0 0.36397 0.16581 0.12806 0.16446 0.12806 0.46911v0.91127h-0.24939v-0.90318q0-0.21703-0.07683-0.32218-0.07684-0.10515-0.23456-0.10515-0.19277 0-0.30465 0.12806-0.11189 0.12806-0.11189 0.34914v0.8533h-0.24939v-0.90318q0-0.21838-0.07683-0.32218-0.07684-0.10515-0.23726-0.10515-0.19007 0-0.30195 0.12941-0.11189 0.12806-0.11189 0.34779v0.8533h-0.24939v-1.5098h0.24939v0.23456q0.08492-0.13885 0.20355-0.2049t0.28174-0.066053q0.16446 0 0.27904 0.083578 0.11593 0.083577 0.1712 0.24264z"/>
  <path d="m140.24 90.257q0.09302-0.16716 0.22243-0.24669 0.12941-0.079533 0.30465-0.079533 0.23591 0 0.36397 0.16581 0.12806 0.16446 0.12806 0.46911v0.91127h-0.24938v-0.90318q0-0.21703-0.07684-0.32218t-0.23456-0.10515q-0.19276 0-0.30465 0.12806-0.11189 0.12806-0.11189 0.34914v0.8533h-0.24938v-0.90318q0-0.21838-0.07684-0.32218-0.07684-0.10515-0.23725-0.10515-0.19007 0-0.30196 0.12941-0.11189 0.12806-0.11189 0.34779v0.8533h-0.24938v-1.5098h0.24938v0.23456q0.08493-0.13885 0.20356-0.2049 0.11862-0.066053 0.28173-0.066053 0.16446 0 0.27905 0.083578 0.11593 0.083577 0.17119 0.24264z"/>
  <path d="m142.44 90.718q-0.30061 0-0.41654 0.068749-0.11594 0.06875-0.11594 0.23456 0 0.13211 0.08628 0.21029 0.08762 0.076838 0.23725 0.076838 0.20625 0 0.33027-0.14559 0.12536-0.14694 0.12536-0.38958v-0.055269zm0.49472-0.10245v0.86139h-0.24804v-0.22916q-0.08492 0.1375-0.21164 0.20355-0.12671 0.064705-0.31004 0.064705-0.23186 0-0.36936-0.12941-0.13615-0.13076-0.13615-0.34914 0-0.25478 0.16985-0.38419 0.1712-0.12941 0.50955-0.12941h0.34779v-0.024265q0-0.1712-0.11323-0.26421-0.11189-0.094362-0.31544-0.094362-0.12941 0-0.25208 0.031005-0.12267 0.031004-0.2359 0.093014v-0.22916q0.13615-0.052573 0.26421-0.078186 0.12806-0.02696 0.24938-0.02696 0.32758 0 0.48934 0.16985 0.16176 0.16985 0.16176 0.51495z"/>
  <path d="m144.7 90.565v0.91127h-0.24804v-0.90318q0-0.21434-0.08358-0.32083-0.08357-0.10649-0.25073-0.10649-0.20086 0-0.31679 0.12806-0.11593 0.12806-0.11593 0.34914v0.8533h-0.24938v-1.5098h0.24938v0.23456q0.08897-0.13615 0.20895-0.20355 0.12132-0.067401 0.27904-0.067401 0.26017 0 0.39362 0.16176 0.13346 0.16042 0.13346 0.47316z"/>
  <path d="m146.19 90.196v-0.8169h0.24804v2.0975h-0.24804v-0.22647q-0.07819 0.1348-0.19816 0.20086-0.11863 0.064705-0.28578 0.064705-0.27365 0-0.4462-0.21838-0.1712-0.21838-0.1712-0.57426t0.1712-0.57426q0.17255-0.21838 0.4462-0.21838 0.16715 0 0.28578 0.066053 0.11997 0.064705 0.19816 0.19951zm-0.84521 0.52708q0 0.27365 0.11188 0.43002 0.11324 0.15502 0.31005 0.15502t0.31005-0.15502q0.11323-0.15637 0.11323-0.43002 0-0.27365-0.11323-0.42867-0.11324-0.15637-0.31005-0.15637t-0.31005 0.15637q-0.11188 0.15502-0.11188 0.42867z"/>
  <path d="m133.41 92.589v0.42867h0.51091v0.19277h-0.51091v0.8196q0 0.18468 0.04988 0.23725 0.05123 0.052573 0.20625 0.052573h0.25478v0.2076h-0.25478q-0.28713 0-0.39632-0.10649-0.10919-0.10784-0.10919-0.39093v-0.8196h-0.18198v-0.19277h0.18198v-0.42867z"/>
  <path d="m134.94 93.769q-0.30062 0-0.41655 0.06875-0.11593 0.068749-0.11593 0.23456 0 0.13211 0.08628 0.21029 0.08762 0.076837 0.23725 0.076837 0.20625 0 0.33027-0.14559 0.12536-0.14694 0.12536-0.38958v-0.055269zm0.49472-0.10245v0.86139h-0.24804v-0.22916q-0.08492 0.1375-0.21164 0.20355-0.12671 0.064705-0.31004 0.064705-0.23186 0-0.36936-0.12941-0.13615-0.13076-0.13615-0.34914 0-0.25478 0.16985-0.38419 0.1712-0.12941 0.50955-0.12941h0.34779v-0.024264q0-0.1712-0.11323-0.26421-0.11189-0.094361-0.31544-0.094361-0.12941 0-0.25208 0.031004-0.12267 0.031005-0.2359 0.093014v-0.22916q0.13615-0.052573 0.26421-0.078185 0.12806-0.026961 0.24938-0.026961 0.32757 0 0.48934 0.16985 0.16176 0.16985 0.16176 0.51495z"/>
  <path d="m137.03 93.774q0-0.27365-0.11324-0.42867-0.11188-0.15637-0.30869-0.15637-0.19682 0-0.31005 0.15637-0.11189 0.15502-0.11189 0.42867 0 0.27365 0.11189 0.43002 0.11323 0.15502 0.31005 0.15502 0.19681 0 0.30869-0.15502 0.11324-0.15637 0.11324-0.43002zm-0.84387-0.52708q0.07819-0.1348 0.19681-0.19951 0.11998-0.066054 0.28579-0.066054 0.27499 0 0.44619 0.21838 0.17255 0.21838 0.17255 0.57426 0 0.35588-0.17255 0.57426-0.1712 0.21838-0.44619 0.21838-0.16581 0-0.28579-0.064705-0.11862-0.066053-0.19681-0.20086v0.22647h-0.24938v-2.0975h0.24938z"/>
  <path d="m137.69 92.43h0.24804v2.0975h-0.24804z"/>
  <path d="m139.75 93.711v0.12132h-1.1404q0.01617 0.25612 0.15367 0.39093 0.13885 0.13346 0.38554 0.13346 0.14289 0 0.27634-0.035049 0.13481-0.035048 0.26691-0.10515v0.23456q-0.13345 0.056617-0.27365 0.086274-0.14019 0.029656-0.28443 0.029656-0.36127 0-0.57291-0.21029-0.2103-0.21029-0.2103-0.56887 0-0.37071 0.19951-0.58774 0.20086-0.21838 0.54056-0.21838 0.30466 0 0.48125 0.19681 0.17794 0.19546 0.17794 0.53247zm-0.24804-0.072793q-0.0027-0.20355-0.11458-0.32488-0.11054-0.12132-0.29387-0.12132-0.2076 0-0.33297 0.11728-0.12401 0.11728-0.14289 0.33027z"/>
  <path d="m132.99 96.069h0.26287l0.47181 1.2671 0.47181-1.2671h0.26286l-0.56617 1.5098h-0.33701z"/>
  <path d="m135.49 96.82q-0.30061 0-0.41654 0.068749-0.11593 0.06875-0.11593 0.23456 0 0.13211 0.08627 0.21029 0.08762 0.076838 0.23725 0.076838 0.20625 0 0.33027-0.14559 0.12537-0.14694 0.12537-0.38958v-0.055269zm0.49472-0.10245v0.86139h-0.24803v-0.22916q-0.08493 0.1375-0.21164 0.20355-0.12672 0.064705-0.31005 0.064705-0.23186 0-0.36936-0.12941-0.13615-0.13076-0.13615-0.34914 0-0.25478 0.16985-0.38419 0.1712-0.12941 0.50956-0.12941h0.34779v-0.024265q0-0.1712-0.11324-0.26421-0.11188-0.094362-0.31544-0.094362-0.12941 0-0.25208 0.031005-0.12267 0.031004-0.2359 0.093014v-0.22916q0.13615-0.052573 0.26421-0.078186 0.12806-0.02696 0.24939-0.02696 0.32757 0 0.48933 0.16985 0.16176 0.16985 0.16176 0.51495z"/>
  <path d="m136.49 95.481h0.24803v2.0975h-0.24803z"/>
  <path d="m137.23 96.983v-0.91396h0.24804v0.90453q0 0.21434 0.08358 0.32218 0.08357 0.1065 0.25073 0.1065 0.20086 0 0.31679-0.12806 0.11727-0.12806 0.11727-0.34914v-0.856h0.24804v1.5098h-0.24804v-0.23186q-0.09031 0.1375-0.21029 0.2049-0.11862 0.066053-0.27634 0.066053-0.26017 0-0.39498-0.16176-0.1348-0.16176-0.1348-0.47316z"/>
  <path d="m140.3 96.762v0.12132h-1.1404q0.01618 0.25612 0.15368 0.39093 0.13884 0.13346 0.38553 0.13346 0.14289 0 0.27635-0.035049 0.1348-0.035049 0.26691-0.10515v0.23456q-0.13346 0.056617-0.27365 0.086273-0.1402 0.029657-0.28443 0.029657-0.36128 0-0.57292-0.21029-0.21029-0.21029-0.21029-0.56887 0-0.37071 0.19951-0.58774 0.20086-0.21838 0.54056-0.21838 0.30465 0 0.48124 0.19681 0.17794 0.19546 0.17794 0.53247zm-0.24803-0.072794q-0.0027-0.20355-0.11459-0.32488-0.11053-0.12132-0.29387-0.12132-0.20759 0-0.33296 0.11728-0.12402 0.11728-0.14289 0.33027z"/>
  <path d="m141.67 96.113v0.23456q-0.10515-0.053921-0.21838-0.080882-0.11324-0.02696-0.23456-0.02696-0.18468 0-0.27769 0.056617-0.09167 0.056617-0.09167 0.16985 0 0.086273 0.06606 0.13615 0.06605 0.048529 0.26556 0.093014l0.08492 0.018873q0.26422 0.056617 0.37475 0.16042 0.11189 0.10245 0.11189 0.28713 0 0.21029-0.16715 0.33296-0.16581 0.12267-0.45699 0.12267-0.12132 0-0.25342-0.024265-0.13076-0.022916-0.27635-0.070097v-0.25612q0.1375 0.071445 0.27095 0.10784 0.13346 0.035049 0.26422 0.035049 0.17524 0 0.2696-0.059313 0.09436-0.060662 0.09436-0.16985 0-0.1011-0.06875-0.15502-0.0674-0.053921-0.29791-0.1038l-0.08627-0.020221q-0.23052-0.048529-0.33297-0.14828-0.10245-0.1011-0.10245-0.27634 0-0.21299 0.15098-0.32892t0.42868-0.11593q0.13749 0 0.25882 0.02022 0.12132 0.020221 0.22377 0.060661z"/>
 </g>
</svg>
