<?xml version="1.0" encoding="UTF-8" standalone="no"?>
<svg
   width="640"
   height="360"
   viewBox="0 0 640 360"
   version="1.1"
   id="svg140"
   sodipodi:docname="merengue.svg"
   inkscape:version="1.2.2 (b0a8486541, 2022-12-01)"
   xmlns:inkscape="http://www.inkscape.org/namespaces/inkscape"
   xmlns:sodipodi="http://sodipodi.sourceforge.net/DTD/sodipodi-0.dtd"
   xmlns="http://www.w3.org/2000/svg"
   xmlns:svg="http://www.w3.org/2000/svg">
  <sodipodi:namedview
     id="namedview142"
     pagecolor="#ffffff"
     bordercolor="#666666"
     borderopacity="1.0"
     inkscape:showpageshadow="2"
     inkscape:pageopacity="0.0"
     inkscape:pagecheckerboard="0"
     inkscape:deskcolor="#d1d1d1"
     showgrid="false"
     inkscape:zoom="1.5695942"
     inkscape:cx="282.23856"
     inkscape:cy="195.91051"
     inkscape:window-width="2560"
     inkscape:window-height="1371"
     inkscape:window-x="0"
     inkscape:window-y="0"
     inkscape:window-maximized="1"
     inkscape:current-layer="svg140" />
  <defs
     id="defs2">
    <rect
       x="215.02249"
       y="234.43187"
       width="73.467687"
       height="22.455546"
       id="rect1950" />
  </defs>
  <defs
     id="defs9">
    <linearGradient
       id="b"
       x1="1572.7"
       x2="1834.3"
       y1="949.9"
       y2="1330.4"
       gradientUnits="userSpaceOnUse">
      <stop
         offset="0"
         stop-color="#fff"
         id="stop4" />
      <stop
         offset="1"
         stop-color="#E6E6E6"
         id="stop6" />
    </linearGradient>
  </defs>
  <defs
     id="defs33">
    <filter
       id="g"
       color-interpolation-filters="sRGB"
       x="-0.043570348"
       y="-0.054597156"
       width="1.1234493"
       height="1.1546919">
      <feFlood
         flood-color="#CBCCCE"
         result="flood"
         id="feFlood11" />
      <feComposite
         in="flood"
         in2="SourceGraphic"
         operator="in"
         result="composite1"
         id="feComposite13" />
      <feGaussianBlur
         in="composite1"
         result="blur"
         stdDeviation="12"
         id="feGaussianBlur15" />
      <feOffset
         dx="24"
         dy="24"
         result="offset"
         id="feOffset17" />
      <feComposite
         in="SourceGraphic"
         in2="offset"
         result="composite2"
         id="feComposite19" />
    </filter>
    <filter
       id="f"
       width="1.1662026"
       height="1.2463492"
       color-interpolation-filters="sRGB"
       x="-0.061683444"
       y="-0.091428571">
      <feFlood
         flood-color="#CBCCCE"
         flood-opacity=".847"
         result="flood"
         id="feFlood22" />
      <feComposite
         in="flood"
         in2="SourceGraphic"
         operator="in"
         result="composite1"
         id="feComposite24" />
      <feGaussianBlur
         in="composite1"
         result="blur"
         stdDeviation="12"
         id="feGaussianBlur26" />
      <feOffset
         dx="20"
         dy="20"
         result="offset"
         id="feOffset28" />
      <feComposite
         in="SourceGraphic"
         in2="offset"
         result="composite2"
         id="feComposite30" />
    </filter>
  </defs>
  <style
     id="style35">.st2{fill:#bcbec0}.st3{fill:#808285}.st4{fill:#828487}.st10{font-family:'RobotoCondensed-Bold'}.st12{font-size:58.0621px}.st14{font-size:25.4663px}</style>
  <g
     stroke-width="3.726"
     filter="url(#g)"
     transform="matrix(0.36212,0,0,0.35747,-88.896,-120.447)"
     id="g51">
    <linearGradient
       id="d"
       x1="568.15997"
       x2="1196.6"
       y1="794.89001"
       y2="1589.9"
       gradientUnits="userSpaceOnUse">
      <stop
         offset="0"
         stop-color="#fff"
         id="stop37" />
      <stop
         offset="1"
         stop-color="#E6E6E6"
         id="stop39" />
    </linearGradient>
    <path
       fill="url(#d)"
       d="M 980.7,1238.4 H 440.7 C 407.6,1238.4 380.7,1211.5 380.7,1178.4 V 771.9 C 380.7,738.8 407.6,711.9 440.7,711.9 H 980.7 C 1013.8,711.9 1040.7,738.8 1040.7,771.9 V 1178.4 C 1040.7,1211.6 1013.8,1238.4 980.7,1238.4 Z"
       id="path42"
       style="fill:url(#d)" />
    <linearGradient
       id="c"
       x1="380.20999"
       x2="1041.2"
       y1="975.17999"
       y2="975.17999"
       gradientUnits="userSpaceOnUse">
      <stop
         offset="0"
         stop-color="#E6E6E6"
         id="stop44" />
      <stop
         offset="1"
         stop-color="#fff"
         id="stop46" />
    </linearGradient>
    <path
       fill="url(#c)"
       d="M 980.7,1238.9 H 440.7 C 407.3,1238.9 380.2,1211.8 380.2,1178.4 V 771.9 C 380.2,738.5 407.3,711.4 440.7,711.4 H 980.7 C 1014.1,711.4 1041.2,738.5 1041.2,771.9 V 1178.4 C 1041.2,1211.8 1014,1238.9 980.7,1238.9 Z M 440.7,712.4 C 407.9,712.4 381.2,739.1 381.2,771.9 V 1178.4 C 381.2,1211.2 407.9,1237.9 440.7,1237.9 H 980.7 C 1013.5,1237.9 1040.2,1211.2 1040.2,1178.4 V 771.9 C 1040.2,739.1 1013.5,712.4 980.7,712.4 Z"
       id="path49"
       style="fill:url(#c)" />
  </g>
  <g
     stroke-width="2.779"
     id="g61">
    <path
       fill="#bcbec0"
       d="M 193.41,177.071 H 200.653 V 179.215 H 193.411 Z"
       class="st2"
       id="path53" />
    <path
       d="M 200.659,172.782 H 193.416 V 168.457 H 200.659 Z M 200.659,164.168 H 193.416 V 159.842 H 200.659 Z M 200.659,155.553 H 193.416 V 151.227 H 200.659 Z M 200.659,146.938 H 193.416 V 142.612 H 200.659 Z M 200.659,138.323 H 193.416 V 133.997 H 200.659 Z M 200.659,129.708 H 193.416 V 125.382 H 200.659 Z M 200.659,121.093 H 193.416 V 116.768 H 200.659 Z M 200.659,112.442 H 193.416 V 109.762 C 193.416,109.118 193.453,108.474 193.488,107.831 L 200.695,108.367 C 200.659,108.832 200.659,109.297 200.659,109.725 Z M 201.347,104.9 194.394,102.933 A 24.897,24.897 0 0 1 196.277,98.25 L 202.723,101.54 A 15.741,15.685 0 0 0 201.347,104.9 Z M 204.679,98.573 199.029,94.068 A 25.93,25.838 0 0 1 202.614,90.494 L 207.25,95.999 A 19.33,19.26 0 0 0 204.679,98.573 Z M 210.255,94.033 206.851,87.741 A 24.364,24.277 0 0 1 211.558,85.846 L 213.623,92.71 C 212.427,92.996 211.305,93.46 210.255,94.032 Z M 217.172,91.995 216.556,84.881 A 23.051,23.051 0 0 1 218.801,84.774 H 221.228 V 91.924 H 218.8 C 218.22,91.924 217.677,91.959 217.17,91.994 Z M 404.495,91.923 H 400.113 V 84.774 H 404.495 Z M 395.767,91.923 H 391.386 V 84.774 H 395.767 Z M 387.04,91.923 H 382.659 V 84.774 H 387.04 Z M 378.313,91.923 H 373.931 V 84.774 H 378.314 Z M 369.586,91.923 H 365.205 V 84.774 H 369.586 Z M 360.858,91.923 H 356.478 V 84.774 H 360.859 Z M 352.132,91.923 H 347.751 V 84.774 H 352.132 Z M 343.404,91.923 H 339.023 V 84.774 H 343.404 Z M 334.677,91.923 H 330.296 V 84.774 H 334.677 Z M 325.95,91.923 H 321.568 V 84.774 H 325.951 Z M 317.223,91.923 H 312.842 V 84.774 H 317.223 Z M 308.495,91.923 H 304.115 V 84.774 H 308.496 Z M 299.769,91.923 H 295.387 V 84.774 H 299.769 Z M 291.006,91.923 H 286.624 V 84.774 H 291.006 Z M 282.278,91.923 H 277.933 V 84.774 H 282.314 V 91.924 Z M 273.551,91.923 H 269.169 V 84.774 H 273.551 Z M 264.824,91.923 H 260.442 V 84.774 H 264.824 Z M 256.096,91.923 H 251.715 V 84.774 H 256.097 Z M 247.369,91.923 H 242.989 V 84.774 H 247.369 Z M 238.642,91.923 H 234.261 V 84.774 H 238.643 Z M 229.915,91.923 H 225.534 V 84.774 H 229.915 Z"
       class="st2"
       id="path55" />
    <path
       fill="#bcbec0"
       d="M 408.88,84.778 H 411.054 V 91.927 H 408.881 Z"
       class="st2"
       id="path57" />
  </g>
  <g
     fill="#828487"
     id="g69"
     style="stroke-width:1.341">
    <path
       stroke-width="2.779"
       d="M 341.797,268.24 V 279.427 C 341.797,280.568 341.187,281.191 340.094,281.191 338.896,281.191 338.391,280.611 338.391,279.219 V 277.767 H 335.238 V 279.261 C 335.238,280.838 335.616,281.814 336.52,282.644 337.403,283.433 338.58,283.848 340.032,283.848 343.164,283.848 344.952,282.249 344.952,279.427 V 268.24 Z M 358.463,272.848 C 358.441,269.713 356.318,267.99 352.449,267.99 348.769,267.99 346.646,269.692 346.646,272.64 346.646,274.985 347.844,276.127 350.956,276.708 L 353.101,277.123 C 355.203,277.518 355.981,278.098 355.981,279.323 355.981,280.589 354.804,281.357 352.891,281.357 350.746,281.357 349.548,280.464 349.443,278.846 H 346.373 C 346.563,282.083 348.812,283.848 352.723,283.848 356.675,283.848 359.01,282.042 359.01,278.948 359.01,276.562 357.79,275.317 354.952,274.778 L 352.555,274.321 C 350.305,273.885 349.653,273.449 349.653,272.349 349.653,271.208 350.662,270.481 352.303,270.481 354.299,270.481 355.414,271.311 355.519,272.847 Z M 367.113,267.993 C 364.969,267.993 363.203,268.699 361.899,270.089 360.533,271.543 359.755,273.659 359.755,275.921 359.755,278.183 360.533,280.321 361.899,281.753 363.224,283.165 364.948,283.85 367.135,283.85 369.322,283.85 371.045,283.165 372.37,281.753 373.694,280.363 374.514,278.163 374.514,276.025 374.514,273.659 373.737,271.521 372.37,270.089 371.025,268.657 369.342,267.993 367.113,267.993 Z M 367.135,270.65 C 369.72,270.65 371.36,272.725 371.36,276.005 371.36,279.118 369.657,281.195 367.135,281.195 364.57,281.195 362.909,279.118 362.909,275.922 362.909,272.726 364.569,270.65 367.135,270.65 Z M 385.307,283.371 H 388.46 V 268.241 H 385.307 V 278.535 L 379.23,268.241 H 375.992 V 283.371 H 379.146 V 272.911 Z"
       aria-label="JSON"
       id="path65" />
    <path
       stroke-width="2.779"
       d="M 56.804,24.49 61.556,44.828 H 66.996 L 71.676,24.489 V 44.828 H 77.116 V 18.724 H 68.92 L 64.277,39.494 59.489,18.725 H 51.363 V 44.83 H 56.803 Z M 97.467,36.736 C 97.503,36.306 97.503,36.126 97.503,35.876 97.503,33.943 97.213,32.152 96.741,30.791 95.435,27.282 92.279,25.17 88.326,25.17 82.703,25.17 79.257,29.18 79.257,35.661 79.257,41.856 82.667,45.651 88.217,45.651 92.606,45.651 96.161,43.217 97.285,39.385 H 92.279 C 91.663,40.925 90.249,41.82 88.399,41.82 86.947,41.82 85.787,41.212 85.062,40.137 84.59,39.421 84.408,38.562 84.336,36.736 Z M 84.407,33.405 C 84.735,30.433 86.005,29 88.254,29 90.575,29 91.954,30.54 92.208,33.404 Z M 100.19,25.492 V 44.828 H 105.268 V 34.551 C 105.268,31.615 106.755,30.147 109.73,30.147 110.274,30.147 110.637,30.183 111.326,30.29 V 25.206 C 111.036,25.17 110.926,25.17 110.709,25.17 108.388,25.17 106.393,26.674 105.269,29.287 V 25.492 Z M 130.441,36.736 C 130.478,36.306 130.478,36.126 130.478,35.876 130.478,33.943 130.188,32.152 129.716,30.791 128.41,27.282 125.255,25.17 121.301,25.17 115.678,25.17 112.232,29.18 112.232,35.661 112.232,41.856 115.642,45.651 121.192,45.651 125.581,45.651 129.136,43.217 130.26,39.385 H 125.254 C 124.638,40.925 123.224,41.82 121.374,41.82 119.922,41.82 118.762,41.212 118.036,40.137 117.565,39.421 117.383,38.562 117.311,36.736 Z M 117.383,33.405 C 117.71,30.433 118.979,29.001 121.228,29.001 123.55,29.001 124.928,30.541 125.181,33.405 Z M 133.164,25.492 V 44.828 H 138.243 V 33.226 C 138.243,30.934 139.839,29.43 142.342,29.43 144.518,29.43 145.607,30.612 145.607,32.903 V 44.827 H 150.685 V 31.865 C 150.685,27.569 148.327,25.169 144.119,25.169 141.471,25.169 139.694,26.099 138.243,28.284 V 25.492 Z M 166.755,25.492 V 28.464 C 165.341,26.208 163.781,25.17 161.713,25.17 159.973,25.17 158.05,26.03 156.708,27.426 154.749,29.431 153.734,32.224 153.734,35.626 153.734,41.57 156.925,45.651 161.604,45.651 163.708,45.651 164.978,44.971 166.755,42.859 V 45.472 C 166.755,47.8 165.087,49.411 162.693,49.411 160.879,49.411 159.755,48.624 159.356,47.155 H 154.133 C 154.169,48.659 154.713,49.697 156.055,50.772 157.615,52.025 159.755,52.634 162.511,52.634 168.17,52.634 171.58,49.948 171.58,45.472 V 25.492 Z M 162.656,29.359 C 165.05,29.359 166.828,31.973 166.828,35.554 166.828,39.063 165.123,41.462 162.584,41.462 160.371,41.462 158.81,39.063 158.81,35.554 158.81,31.901 160.37,29.359 162.656,29.359 Z M 193.306,44.827 V 25.49 H 188.227 V 37.593 C 188.227,39.885 186.631,41.389 184.129,41.389 181.952,41.389 180.864,40.242 180.864,37.915 V 25.492 H 175.786 V 38.954 C 175.786,43.251 178.143,45.65 182.351,45.65 184.999,45.65 186.776,44.72 188.227,42.535 V 44.827 Z M 214.128,36.736 C 214.164,36.306 214.164,36.126 214.164,35.876 214.164,33.943 213.874,32.152 213.402,30.791 212.097,27.282 208.942,25.17 204.987,25.17 199.365,25.17 195.919,29.18 195.919,35.661 195.919,41.856 199.329,45.651 204.878,45.651 209.268,45.651 212.822,43.217 213.947,39.385 H 208.941 C 208.325,40.925 206.91,41.82 205.061,41.82 203.609,41.82 202.448,41.212 201.723,40.137 201.252,39.421 201.07,38.562 200.998,36.736 Z M 201.07,33.405 C 201.396,30.433 202.666,29.001 204.915,29.001 207.236,29.001 208.614,30.541 208.868,33.405 Z"
       aria-label="Merengue"
       font-size="100.17px"
       id="path67" />
  </g>
  <path
     d="M 253.48683,299.615 H 139.77683 C 134.99683,299.615 131.08683,295.755 131.08683,291.035 V 195.95 C 131.08683,191.232 134.99683,187.37 139.77683,187.37 H 253.48683 C 258.26583,187.37 262.17683,191.232 262.17683,195.95 V 291.035 C 262.17683,295.755 258.26583,299.615 253.48683,299.615 Z"
     class="st4"
     id="path71"
     style="stroke-width:2.779" />
  <g
     fill="#ffffff"
     aria-label="http://localhost:8080"
     class="st10 st14"
     id="g89"
     style="stroke-width:2.779" />
  <g
     stroke-width="4.996"
     filter="url(#f)"
     transform="matrix(0.36212,0,0,0.35747,-88.896,-120.447)"
     id="g100">
    <path
       fill="url(#b)"
       d="M 1872.1,1238.4 H 1454.2 C 1441,1238.4 1430.2,1227.6 1430.2,1214.4 V 948.4 C 1430.2,935.2 1441,924.4 1454.2,924.4 H 1872.1 C 1885.3,924.4 1896.1,935.2 1896.1,948.4 V 1214.4 C 1896.1,1227.6 1885.3,1238.4 1872.1,1238.4 Z"
       id="path91"
       style="fill:url(#b)" />
    <linearGradient
       id="a"
       x1="1429.7"
       x2="1896.6"
       y1="1081.4"
       y2="1081.4"
       gradientUnits="userSpaceOnUse">
      <stop
         offset="0"
         stop-color="#E6E6E6"
         id="stop93" />
      <stop
         offset="1"
         stop-color="#fff"
         id="stop95" />
    </linearGradient>
    <path
       fill="url(#a)"
       d="M 1872.1,1238.9 H 1454.2 C 1440.7,1238.9 1429.7,1227.9 1429.7,1214.4 V 948.4 C 1429.7,934.9 1440.7,923.9 1454.2,923.9 H 1872.1 C 1885.6,923.9 1896.6,934.9 1896.6,948.4 V 1214.4 C 1896.6,1227.9 1885.6,1238.9 1872.1,1238.9 Z M 1454.2,924.9 C 1441.2,924.9 1430.7,935.4 1430.7,948.4 V 1214.4 C 1430.7,1227.4 1441.2,1237.9 1454.2,1237.9 H 1872.1 C 1885.1,1237.9 1895.6,1227.4 1895.6,1214.4 V 948.4 C 1895.6,935.4 1885.1,924.9 1872.1,924.9 Z"
       id="path98"
       style="fill:url(#a)" />
  </g>
  <path
     fill="#808285"
     d="M 499.083,272.595 501.837,284.384 H 504.99 L 507.703,272.594 V 284.384 H 510.857 V 269.254 H 506.105 L 503.414,281.292 500.638,269.253 H 495.928 V 284.383 H 499.082 Z M 522.367,279.695 C 522.388,279.445 522.388,279.342 522.388,279.195 522.388,278.075 522.22,277.037 521.948,276.249 521.189,274.215 519.36,272.99 517.068,272.99 513.81,272.99 511.812,275.315 511.812,279.071 511.812,282.662 513.788,284.862 517.005,284.862 519.549,284.862 521.61,283.451 522.262,281.23 H 519.36 C 519.003,282.123 518.183,282.642 517.111,282.642 516.27,282.642 515.597,282.289 515.176,281.666 514.903,281.251 514.798,280.753 514.756,279.694 Z M 514.797,277.764 C 514.987,276.041 515.723,275.211 517.027,275.211 518.372,275.211 519.171,276.104 519.318,277.765 Z M 523.634,273.178 V 284.386 H 526.578 V 278.429 C 526.578,276.727 527.441,275.876 529.164,275.876 529.48,275.876 529.69,275.896 530.089,275.959 V 273.012 C 529.921,272.991 529.858,272.991 529.732,272.991 528.387,272.991 527.23,273.863 526.578,275.378 V 273.178 Z M 540.871,279.695 C 540.892,279.445 540.892,279.342 540.892,279.195 540.892,278.075 540.724,277.037 540.452,276.249 539.694,274.215 537.865,272.99 535.573,272.99 532.315,272.99 530.317,275.315 530.317,279.071 530.317,282.662 532.293,284.862 535.51,284.862 538.054,284.862 540.115,283.451 540.767,281.23 H 537.865 C 537.508,282.123 536.688,282.642 535.615,282.642 534.775,282.642 534.101,282.289 533.68,281.666 533.408,281.251 533.302,280.753 533.26,279.694 Z M 533.302,277.764 C 533.492,276.041 534.227,275.211 535.532,275.211 536.876,275.211 537.676,276.104 537.822,277.765 Z M 542.139,273.178 V 284.386 H 545.083 V 277.661 C 545.083,276.333 546.008,275.461 547.459,275.461 548.72,275.461 549.351,276.146 549.351,277.474 V 284.386 H 552.295 V 276.873 C 552.295,274.383 550.927,272.992 548.489,272.992 546.954,272.992 545.924,273.531 545.083,274.797 V 273.178 Z M 561.295,273.178 V 274.901 C 560.475,273.593 559.572,272.991 558.373,272.991 557.363,272.991 556.25,273.49 555.471,274.298 554.335,275.461 553.747,277.08 553.747,279.051 553.747,282.497 555.597,284.862 558.31,284.862 559.53,284.862 560.265,284.468 561.295,283.244 V 284.759 C 561.295,286.109 560.329,287.042 558.941,287.042 557.89,287.042 557.237,286.585 557.006,285.734 H 553.98 C 554,286.606 554.316,287.209 555.094,287.831 555.998,288.558 557.238,288.911 558.836,288.911 562.116,288.911 564.093,287.354 564.093,284.759 V 273.178 Z M 558.919,275.418 C 560.307,275.418 561.337,276.935 561.337,279.01 561.337,281.044 560.349,282.435 558.877,282.435 557.595,282.435 556.69,281.044 556.69,279.01 556.69,276.893 557.595,275.42 558.92,275.42 Z M 576.396,284.384 V 273.176 H 573.452 V 280.192 C 573.452,281.52 572.527,282.392 571.076,282.392 569.815,282.392 569.184,281.727 569.184,280.378 V 273.176 H 566.24 V 280.98 C 566.24,283.47 567.608,284.862 570.046,284.862 571.581,284.862 572.611,284.322 573.452,283.055 V 284.384 Z M 588.165,279.694 C 588.185,279.445 588.185,279.342 588.185,279.196 588.185,278.076 588.018,277.037 587.745,276.249 586.987,274.215 585.158,272.99 582.866,272.99 579.608,272.99 577.61,275.315 577.61,279.071 577.61,282.662 579.586,284.862 582.803,284.862 585.347,284.862 587.408,283.451 588.06,281.23 H 585.158 C 584.801,282.123 583.981,282.642 582.908,282.642 582.068,282.642 581.394,282.289 580.974,281.666 580.701,281.251 580.596,280.753 580.554,279.694 Z M 580.595,277.764 C 580.785,276.041 581.521,275.211 582.825,275.211 584.17,275.211 584.969,276.104 585.116,277.765 Z"
     aria-label="Merengue"
     id="path102"
     style="stroke-width:2.779" />
  <g
     fill="#828487"
     id="g122"
     style="stroke-width:2.779">
    <path
       d="M 441.399,257.742 C 441.379,256.546 440.443,255.822 438.903,255.822 437.448,255.822 436.544,256.546 436.544,257.71 436.544,258.087 436.662,258.413 436.864,258.633 437.065,258.832 437.246,258.926 437.797,259.105 L 439.572,259.65 C 439.944,259.766 440.072,259.88 440.072,260.112 440.072,260.457 439.657,260.667 438.967,260.667 438.574,260.667 438.277,260.604 438.085,260.467 437.925,260.352 437.862,260.237 437.798,259.933 H 436.343 C 436.385,261.181 437.31,261.82 439.051,261.82 439.849,261.82 440.454,261.653 440.878,261.317 441.304,260.982 441.558,260.457 441.558,259.902 441.558,259.168 441.187,258.696 440.432,258.476 L 438.552,257.941 C 438.138,257.815 438.032,257.731 438.032,257.501 438.032,257.186 438.372,256.976 438.892,256.976 439.604,256.976 439.955,257.228 439.965,257.742 Z M 445.128,256.032 H 444.298 V 254.512 H 442.812 V 256.032 H 442.079 V 257.008 H 442.811 V 260.489 C 442.811,261.38 443.289,261.82 444.267,261.82 444.607,261.82 444.851,261.79 445.127,261.705 V 260.678 C 444.978,260.698 444.904,260.708 444.787,260.708 444.395,260.708 444.299,260.594 444.299,260.091 V 257.008 H 445.128 Z M 449.695,261.579 H 451.182 V 253.935 H 449.695 V 256.651 C 449.323,256.085 448.835,255.822 448.113,255.822 446.743,255.822 445.701,257.123 445.701,258.832 445.701,259.597 445.934,260.373 446.317,260.919 446.71,261.474 447.411,261.82 448.112,261.82 448.834,261.82 449.323,261.58 449.695,261.003 Z M 448.441,257.049 C 449.196,257.049 449.695,257.763 449.695,258.853 449.695,259.881 449.185,260.593 448.441,260.593 447.697,260.593 447.188,259.871 447.188,258.832 447.188,257.773 447.698,257.049 448.441,257.049 Z M 454.081,255.918 H 452.595 V 261.579 H 454.082 Z M 454.081,253.935 H 452.595 V 255.245 H 454.082 Z M 455.505,255.918 V 261.579 H 456.992 V 258.182 C 456.992,257.512 457.46,257.07 458.193,257.07 458.83,257.07 459.149,257.417 459.149,258.087 V 261.579 H 460.636 V 257.784 C 460.636,256.525 459.946,255.822 458.714,255.822 457.938,255.822 457.417,256.095 456.993,256.735 V 255.917 Z"
       aria-label="stdin"
       id="path104" />
    <path
       d="M 441.399,294.507 C 441.379,293.312 440.443,292.589 438.903,292.589 437.448,292.589 436.544,293.312 436.544,294.476 436.544,294.853 436.662,295.178 436.864,295.398 437.065,295.598 437.246,295.692 437.797,295.871 L 439.572,296.416 C 439.944,296.531 440.072,296.646 440.072,296.877 440.072,297.223 439.657,297.433 438.967,297.433 438.574,297.433 438.277,297.37 438.085,297.233 437.925,297.118 437.862,297.003 437.798,296.698 H 436.343 C 436.385,297.946 437.31,298.586 439.051,298.586 439.849,298.586 440.454,298.418 440.878,298.083 441.304,297.747 441.558,297.223 441.558,296.668 441.558,295.933 441.187,295.462 440.432,295.241 L 438.552,294.707 C 438.138,294.58 438.032,294.497 438.032,294.266 438.032,293.951 438.372,293.742 438.892,293.742 439.604,293.742 439.955,293.994 439.965,294.507 Z M 445.128,292.797 H 444.298 V 291.277 H 442.812 V 292.797 H 442.079 V 293.773 H 442.811 V 297.255 C 442.811,298.145 443.289,298.587 444.267,298.587 444.607,298.587 444.851,298.555 445.127,298.471 V 297.444 C 444.978,297.464 444.904,297.475 444.787,297.475 444.395,297.475 444.299,297.36 444.299,296.856 V 293.774 H 445.128 Z M 449.695,298.345 H 451.182 V 290.7 H 449.695 V 293.416 C 449.323,292.85 448.835,292.588 448.113,292.588 446.743,292.588 445.701,293.888 445.701,295.597 445.701,296.362 445.934,297.138 446.317,297.683 446.71,298.239 447.411,298.585 448.112,298.585 448.834,298.585 449.323,298.344 449.695,297.767 Z M 448.441,293.815 C 449.196,293.815 449.695,294.528 449.695,295.619 449.695,296.646 449.185,297.359 448.441,297.359 447.697,297.359 447.188,296.636 447.188,295.598 447.188,294.538 447.698,293.815 448.441,293.815 Z M 455.081,292.589 C 453.328,292.589 452.255,293.731 452.255,295.587 452.255,297.453 453.328,298.586 455.091,298.586 456.844,298.586 457.927,297.454 457.927,295.629 457.927,293.711 456.876,292.589 455.08,292.589 Z M 455.091,293.773 C 455.909,293.773 456.441,294.497 456.441,295.608 456.441,296.668 455.887,297.401 455.091,297.401 454.284,297.401 453.742,296.678 453.742,295.587 453.742,294.496 454.284,293.773 455.092,293.773 Z M 464.12,298.345 V 292.682 H 462.633 V 296.226 C 462.633,296.898 462.166,297.338 461.433,297.338 460.796,297.338 460.476,297.003 460.476,296.321 V 292.682 H 458.99 V 296.625 C 458.99,297.883 459.68,298.585 460.912,298.585 461.688,298.585 462.208,298.345 462.632,297.674 V 298.344 Z M 468.061,292.798 H 467.231 V 291.278 H 465.745 V 292.798 H 465.013 V 293.773 H 465.745 V 297.255 C 465.745,298.145 466.223,298.587 467.201,298.587 467.541,298.587 467.785,298.555 468.061,298.471 V 297.444 C 467.911,297.464 467.838,297.475 467.721,297.475 467.328,297.475 467.233,297.36 467.233,296.856 V 293.774 H 468.061 Z"
       aria-label="stdout"
       id="path106" />
    <path
       d="M 75.761,155.033 C 75.657,153.724 75.383,152.894 74.731,152.043 73.554,150.507 71.661,149.657 69.37,149.657 65.038,149.657 62.347,152.707 62.347,157.606 62.347,162.484 65.017,165.514 69.285,165.514 73.112,165.514 75.635,163.334 75.824,159.868 H 72.754 C 72.544,161.799 71.324,162.898 69.37,162.898 66.93,162.898 65.5,160.948 65.5,157.648 65.5,154.306 66.993,152.314 69.474,152.314 71.304,152.314 72.334,153.184 72.754,155.033 Z M 86.897,164.683 C 86.392,164.207 86.224,163.875 86.224,163.314 V 157.088 C 86.224,154.804 84.647,153.642 81.577,153.642 78.507,153.642 76.909,154.929 76.72,157.523 H 79.56 C 79.706,156.362 80.189,155.987 81.64,155.987 82.776,155.987 83.344,156.361 83.344,157.108 A 0.99,0.99 0 0 1 82.839,157.979 C 82.439,158.188 82.439,158.188 80.989,158.416 L 79.811,158.623 C 77.561,158.997 76.468,160.139 76.468,162.152 76.468,164.165 77.835,165.514 79.916,165.514 81.178,165.514 82.313,164.995 83.364,163.916 83.364,164.497 83.427,164.705 83.7,165.037 H 86.897 Z M 83.343,160.533 C 83.343,162.214 82.503,163.169 81.009,163.169 80.021,163.169 79.411,162.65 79.411,161.819 79.411,160.949 79.874,160.533 81.093,160.284 L 82.103,160.098 C 82.88,159.952 83.007,159.91 83.343,159.744 Z M 88.106,153.828 V 165.035 H 91.05 V 158.311 C 91.05,156.92 91.807,156.111 93.068,156.111 94.056,156.111 94.666,156.671 94.666,157.564 V 165.035 H 97.61 V 158.311 C 97.61,156.941 98.366,156.111 99.627,156.111 100.616,156.111 101.227,156.671 101.227,157.564 V 165.035 H 104.17 V 157.106 C 104.17,154.928 102.824,153.64 100.553,153.64 99.103,153.64 98.114,154.14 97.231,155.3 96.684,154.243 95.549,153.64 94.141,153.64 92.837,153.64 91.996,154.056 91.029,155.219 V 153.827 Z M 106.053,149.906 V 165.037 H 108.997 V 163.896 C 109.712,164.996 110.7,165.514 112.13,165.514 114.842,165.514 116.902,162.961 116.902,159.578 116.902,158.063 116.439,156.527 115.682,155.448 114.905,154.348 113.517,153.642 112.129,153.642 110.699,153.642 109.711,154.161 108.997,155.282 V 149.906 Z M 111.477,156.07 C 112.928,156.07 113.958,157.523 113.958,159.599 113.958,161.654 112.949,163.086 111.478,163.086 109.984,163.086 108.997,161.695 108.997,159.536 108.997,157.481 110.005,156.07 111.477,156.07 Z M 127.954,164.683 C 127.449,164.207 127.281,163.875 127.281,163.314 V 157.088 C 127.281,154.804 125.705,153.642 122.634,153.642 119.565,153.642 117.967,154.929 117.778,157.523 H 120.616 C 120.764,156.362 121.246,155.987 122.698,155.987 123.834,155.987 124.401,156.361 124.401,157.108 A 0.989,0.989 0 0 1 123.896,157.979 C 123.496,158.188 123.496,158.188 122.046,158.416 L 120.868,158.623 C 118.619,158.997 117.525,160.139 117.525,162.152 117.525,164.165 118.893,165.514 120.973,165.514 122.235,165.514 123.37,164.995 124.422,163.916 124.422,164.497 124.485,164.705 124.758,165.037 H 127.954 Z M 124.401,160.533 C 124.401,162.214 123.56,163.169 122.067,163.169 121.079,163.169 120.469,162.65 120.469,161.819 120.469,160.949 120.932,160.533 122.15,160.284 L 123.16,160.098 C 123.938,159.952 124.065,159.91 124.4,159.744 Z M 132.252,149.906 H 129.308 V 165.037 H 132.252 Z M 144.04,164.683 C 143.535,164.207 143.367,163.875 143.367,163.314 V 157.088 C 143.367,154.804 141.79,153.642 138.719,153.642 135.648,153.642 134.052,154.929 133.863,157.523 H 136.702 C 136.848,156.362 137.332,155.987 138.783,155.987 139.919,155.987 140.487,156.361 140.487,157.108 A 0.99,0.99 0 0 1 139.981,157.979 C 139.582,158.188 139.582,158.188 138.131,158.416 L 136.954,158.623 C 134.704,158.997 133.611,160.139 133.611,162.152 133.611,164.165 134.977,165.514 137.059,165.514 138.32,165.514 139.456,164.995 140.508,163.916 140.508,164.497 140.57,164.705 140.844,165.037 H 144.04 Z M 140.487,160.533 C 140.487,162.214 139.645,163.169 138.152,163.169 137.165,163.169 136.554,162.65 136.554,161.819 136.554,160.949 137.017,160.533 138.237,160.284 L 139.245,160.098 C 140.023,159.952 140.15,159.91 140.485,159.744 Z M 154.965,158.02 C 154.755,155.28 152.925,153.641 150.065,153.641 146.66,153.641 144.705,155.841 144.705,159.661 144.705,163.355 146.66,165.513 150.025,165.513 152.778,165.513 154.692,163.833 154.965,161.155 H 152.148 C 151.79,162.608 151.201,163.168 150.024,163.168 148.532,163.168 147.648,161.861 147.648,159.661 147.648,158.581 147.858,157.606 148.216,156.941 148.552,156.319 149.204,155.987 150.046,155.987 151.243,155.987 151.811,156.547 152.147,158.021 Z M 156.301,149.906 V 165.037 H 159.245 V 158.312 C 159.245,157.025 160.191,156.112 161.515,156.112 162.167,156.112 162.651,156.34 162.987,156.797 163.261,157.17 163.323,157.482 163.323,158.187 V 165.037 H 166.267 V 157.523 C 166.267,156.133 165.888,155.137 165.111,154.493 164.459,153.953 163.513,153.642 162.566,153.642 161.116,153.642 160.065,154.202 159.244,155.448 V 149.906 Z M 178.031,160.344 C 178.053,160.095 178.053,159.991 178.053,159.846 178.053,158.726 177.885,157.686 177.612,156.899 176.854,154.865 175.025,153.64 172.734,153.64 169.475,153.64 167.477,155.965 167.477,159.722 167.477,163.312 169.453,165.512 172.67,165.512 175.214,165.512 177.275,164.102 177.927,161.88 H 175.025 C 174.668,162.772 173.848,163.291 172.776,163.291 171.935,163.291 171.262,162.938 170.841,162.316 170.568,161.901 170.463,161.403 170.421,160.344 Z M 170.463,158.414 C 170.652,156.691 171.388,155.861 172.692,155.861 174.037,155.861 174.836,156.754 174.983,158.414 Z"
       aria-label="Cambalache"
       id="path108" />
    <g
       aria-label="Gtk 3 Application"
       class="st4 st10 st14"
       id="g114" />
    <g
       aria-label="Gtk 3 or 4 Application"
       class="st4 st10 st14"
       id="g120">
      <path
         d="M 503.028,295.505 H 499.928 V 296.815 H 501.691 C 501.647,297.245 501.541,297.508 501.307,297.78 A 2.073,2.065 0 0 1 499.725,298.514 C 498.429,298.514 497.515,297.403 497.515,295.83 497.515,294.184 498.322,293.187 499.682,293.187 500.235,293.187 500.702,293.344 501.052,293.649 501.276,293.837 501.392,294.016 501.531,294.414 H 503.028 C 502.837,292.831 501.541,291.846 499.672,291.846 497.442,291.846 495.922,293.47 495.922,295.851 495.922,298.168 497.452,299.856 499.544,299.856 500.585,299.856 501.286,299.489 501.881,298.629 L 502.072,299.636 H 503.029 Z M 506.215,294.067 H 505.386 V 292.547 H 503.9 V 294.067 H 503.168 V 295.043 H 503.9 V 298.524 C 503.9,299.415 504.378,299.856 505.356,299.856 505.696,299.856 505.94,299.824 506.216,299.741 V 298.713 C 506.067,298.734 505.993,298.744 505.876,298.744 505.483,298.744 505.387,298.629 505.387,298.126 V 295.043 H 506.217 Z M 507.953,296.156 V 291.971 H 506.466 V 299.616 H 507.953 V 297.759 L 508.548,297.119 509.918,299.616 H 511.66 L 509.568,296.092 511.522,293.953 H 509.834 Z M 515.557,296.291 C 516.132,296.291 516.163,296.291 516.429,296.364 516.929,296.501 517.247,296.93 517.247,297.476 517.247,298.136 516.78,298.598 516.132,298.598 515.43,298.598 515.048,298.199 515.006,297.434 H 513.561 C 513.571,298.924 514.548,299.856 516.1,299.856 517.704,299.856 518.734,298.923 518.734,297.476 518.734,296.606 518.352,296.039 517.501,295.631 518.192,295.201 518.49,294.728 518.49,294.047 518.49,292.81 517.555,292.023 516.099,292.023 515.006,292.023 514.167,292.496 513.837,293.303 513.699,293.659 513.657,293.9 513.657,294.519 H 515.037 C 515.048,294.121 515.08,293.921 515.154,293.732 515.293,293.408 515.633,293.208 516.067,293.208 516.662,293.208 517.002,293.565 517.002,294.183 517.002,294.938 516.567,295.305 515.686,295.305 H 515.558 Z M 523.851,293.857 C 522.098,293.857 521.025,294.999 521.025,296.856 521.025,298.722 522.098,299.855 523.861,299.855 525.614,299.855 526.697,298.722 526.697,296.897 526.697,294.979 525.646,293.857 523.85,293.857 Z M 523.861,295.042 C 524.679,295.042 525.211,295.765 525.211,296.876 525.211,297.936 524.657,298.67 523.861,298.67 523.054,298.67 522.512,297.946 522.512,296.856 522.512,295.766 523.054,295.042 523.861,295.042 Z M 527.109,293.953 V 299.616 H 528.596 V 296.606 C 528.596,295.746 529.032,295.316 529.903,295.316 530.063,295.316 530.169,295.327 530.37,295.358 V 293.869 C 530.286,293.859 530.254,293.859 530.19,293.859 529.51,293.859 528.926,294.299 528.596,295.065 V 293.953 Z M 537.611,296.752 H 536.825 V 292.181 H 535.072 L 532.322,296.731 V 297.969 H 535.338 V 299.615 H 536.825 V 297.969 H 537.611 Z M 535.338,296.752 H 533.373 L 535.338,293.575 Z M 544.818,298.072 545.327,299.612 H 546.963 L 544.286,291.968 H 542.523 L 539.772,299.613 H 541.397 L 541.917,298.071 Z M 544.382,296.761 H 542.364 L 543.372,293.772 Z M 548.511,293.953 H 547.024 V 301.901 H 548.511 V 298.945 C 548.871,299.574 549.382,299.868 550.105,299.868 551.485,299.868 552.505,298.588 552.505,296.868 552.505,296.072 552.272,295.275 551.889,294.75 551.506,294.215 550.795,293.859 550.105,293.859 549.382,293.859 548.872,294.163 548.511,294.792 Z M 549.765,295.085 C 550.519,295.085 551.018,295.799 551.018,296.889 551.018,297.927 550.508,298.64 549.765,298.64 549.01,298.64 548.511,297.927 548.511,296.868 548.511,295.799 549.01,295.086 549.765,295.086 Z M 554.305,293.953 H 552.818 V 301.901 H 554.305 V 298.945 C 554.666,299.574 555.175,299.868 555.898,299.868 557.279,299.868 558.299,298.588 558.299,296.868 558.299,296.072 558.065,295.275 557.683,294.75 557.3,294.215 556.589,293.859 555.898,293.859 555.176,293.859 554.666,294.163 554.305,294.792 Z M 555.558,295.085 C 556.313,295.085 556.811,295.799 556.811,296.889 556.811,297.927 556.301,298.64 555.558,298.64 554.804,298.64 554.305,297.927 554.305,296.868 554.305,295.799 554.805,295.086 555.558,295.086 Z M 560.172,291.969 H 558.685 V 299.613 H 560.172 Z M 562.38,293.953 H 560.893 V 299.616 H 562.38 Z M 562.38,291.971 H 560.893 V 293.281 H 562.38 Z M 567.957,296.069 C 567.851,294.685 566.927,293.857 565.482,293.857 563.762,293.857 562.773,294.968 562.773,296.898 562.773,298.765 563.761,299.855 565.461,299.855 566.852,299.855 567.818,299.005 567.957,297.653 H 566.533 C 566.353,298.387 566.055,298.67 565.461,298.67 564.706,298.67 564.261,298.01 564.261,296.898 564.261,296.352 564.366,295.86 564.547,295.524 564.717,295.209 565.047,295.042 565.472,295.042 566.077,295.042 566.364,295.325 566.533,296.069 Z"
         id="path116" />
      <path
         d="M 573.213,299.436 C 572.957,299.195 572.873,299.026 572.873,298.744 V 295.598 C 572.873,294.445 572.075,293.858 570.525,293.858 568.974,293.858 568.167,294.508 568.071,295.818 H 569.506 C 569.58,295.231 569.824,295.043 570.557,295.043 571.13,295.043 571.417,295.231 571.417,295.608 A 0.503,0.501 0 0 1 571.162,296.049 C 570.96,296.153 570.96,296.153 570.227,296.269 L 569.633,296.374 C 568.496,296.563 567.944,297.14 567.944,298.157 567.944,299.174 568.634,299.855 569.685,299.855 570.323,299.855 570.896,299.593 571.427,299.048 571.427,299.342 571.46,299.447 571.597,299.614 H 573.212 Z M 571.417,297.339 C 571.417,298.188 570.992,298.671 570.237,298.671 569.739,298.671 569.431,298.409 569.431,297.989 569.431,297.549 569.664,297.339 570.281,297.213 L 570.791,297.118 C 571.183,297.045 571.247,297.025 571.418,296.94 Z M 576,294.066 H 575.172 V 292.546 H 573.685 V 294.066 H 572.953 V 295.042 H 573.685 V 298.523 C 573.685,299.415 574.163,299.855 575.14,299.855 575.48,299.855 575.725,299.823 576,299.74 V 298.712 C 575.852,298.733 575.778,298.744 575.66,298.744 575.267,298.744 575.172,298.628 575.172,298.125 V 295.043 H 576.002 Z M 577.775,293.953 H 576.288 V 299.615 H 577.775 Z M 577.775,291.971 H 576.288 V 293.281 H 577.775 Z M 581.035,293.856 C 579.281,293.856 578.208,294.999 578.208,296.855 578.208,298.721 579.281,299.854 581.045,299.854 582.798,299.854 583.881,298.721 583.881,296.896 583.881,294.978 582.829,293.856 581.034,293.856 Z M 581.045,295.041 C 581.863,295.041 582.393,295.764 582.393,296.876 582.393,297.936 581.841,298.669 581.045,298.669 580.238,298.669 579.696,297.946 579.696,296.855 579.696,295.764 580.238,295.041 581.045,295.041 Z M 584.257,293.953 V 299.615 H 585.744 V 296.217 C 585.744,295.547 586.212,295.106 586.944,295.106 587.582,295.106 587.901,295.452 587.901,296.123 V 299.615 H 589.388 V 295.819 C 589.388,294.561 588.697,293.858 587.465,293.858 586.69,293.858 586.169,294.131 585.744,294.77 V 293.953 Z"
         id="path118" />
    </g>
  </g>
  <path
     fill="#bcbec0"
     d="M 509.73,201.134 H 516.973 V 203.279 H 509.73 Z"
     class="st2"
     id="path124"
     style="stroke-width:2.779" />
  <g
     fill="#bcbec0"
     id="g134"
     style="stroke-width:2.779">
    <path
       d="M 302.091,254.287 H 407.073 V 261.437 H 302.09 Z"
       class="st2"
       id="path128"
       sodipodi:nodetypes="ccccc" />
    <path
       d="M 401.596,267.19 417.964,257.86 401.596,248.53 Z M 312.986,291.069 H 417.966 V 298.219 H 312.986 Z"
       class="st2"
       id="path130" />
    <path
       d="M 318.417,285.312 302.086,294.642 318.417,303.972 Z"
       class="st2"
       id="path132" />
  </g>
  <g
     aria-label="Gtk 4 Application"
     id="text683"
     style="font-size:10.6667px;line-height:125%;font-family:Sans;-inkscape-font-specification:'Sans, Normal';text-align:center;text-anchor:middle;fill:#808285;fill-rule:evenodd;stroke-width:3.77953;stroke-linecap:round;stroke-miterlimit:10;paint-order:stroke fill markers">
    <path
       d="M 65.578007,175.60588 H 68.596684 V 179.55256 Q 67.999348,179.75522 67.34868,179.87256 66.708678,179.98989 65.887342,179.98989 64.18067,179.98989 63.263333,178.98722 62.345997,177.98455 62.345997,176.06455 62.345997,174.86988 62.804665,173.99521 63.274,173.12054 64.159336,172.64053 65.044672,172.16053 66.324676,172.16053 66.932678,172.16053 67.519347,172.28853 68.106015,172.41653 68.586017,172.62987 L 68.052682,173.92054 Q 67.700681,173.73921 67.252679,173.62187 66.804678,173.50454 66.31401,173.50454 65.610008,173.50454 65.087339,173.82454 64.575338,174.14454 64.287337,174.73121 64.010002,175.30721 64.010002,176.09655 64.010002,176.84321 64.21267,177.41922 64.415337,177.99522 64.852672,178.32589 65.290006,178.64589 65.994009,178.64589 66.335343,178.64589 66.570011,178.61389 66.815345,178.58189 67.018012,178.53922 V 176.94988 H 65.578007 Z"
       style="font-weight:bold;-inkscape-font-specification:'Sans Bold'"
       id="path8951" />
    <path
       d="M 72.735373,178.72055 Q 73.002041,178.72055 73.247375,178.66722 73.492709,178.61389 73.738043,178.53922 V 179.72322 Q 73.482042,179.82989 73.098041,179.90456 72.724707,179.98989 72.276705,179.98989 71.754037,179.98989 71.338036,179.81922 70.932701,179.64856 70.687367,179.23256 70.452699,178.80589 70.452699,178.05922 V 175.25388 H 69.695364 V 174.58187 L 70.570033,174.04854 71.028701,172.82187 H 72.042038 V 174.05921 H 73.674043 V 175.25388 H 72.042038 V 178.05922 Q 72.042038,178.38989 72.234038,178.56055 72.426039,178.72055 72.735373,178.72055 Z"
       style="font-weight:bold;-inkscape-font-specification:'Sans Bold'"
       id="path8953" />
    <path
       d="M 76.500718,175.40321 Q 76.500718,175.73388 76.468718,176.06455 76.447385,176.38455 76.415385,176.71521 H 76.436718 Q 76.596719,176.49121 76.767386,176.26721 76.938053,176.03255 77.130054,175.82988 L 78.762059,174.05921 H 80.554065 L 78.239391,176.58721 80.692732,179.88322 H 78.858059 L 77.183387,177.52588 76.500718,178.06989 V 179.88322 H 74.91138 V 171.77653 H 76.500718 Z"
       style="font-weight:bold;-inkscape-font-specification:'Sans Bold'"
       id="path8955" />
    <path
       d="M 89.386105,178.30455 H 88.468769 V 179.88322 H 86.900764 V 178.30455 H 83.647421 V 177.18455 L 86.986098,172.2672 H 88.468769 V 177.05655 H 89.386105 Z M 86.900764,175.76588 Q 86.900764,175.52054 86.911431,175.16854 86.922098,174.81654 86.932764,174.51787 86.954098,174.20854 86.964764,174.11254 H 86.922098 Q 86.826097,174.32587 86.71943,174.52854 86.612763,174.73121 86.463429,174.94454 L 85.066092,177.05655 H 86.900764 Z"
       style="font-weight:bold;-inkscape-font-specification:'Sans Bold'"
       id="path8957" />
    <path
       d="M 97.96214,179.88322 97.407472,178.06989 H 94.63413 L 94.079461,179.88322 H 92.340789 L 95.028798,172.2352 H 97.002137 L 99.700812,179.88322 Z M 96.468802,174.94454 Q 96.415469,174.76321 96.330135,174.48587 96.244801,174.20854 96.159468,173.92054 96.074134,173.63254 96.020801,173.4192 95.967467,173.63254 95.871467,173.95254 95.786133,174.26187 95.7008,174.54987 95.626133,174.82721 95.583466,174.94454 L 95.039464,176.71521 H 97.023471 Z"
       style="font-weight:bold;-inkscape-font-specification:'Sans Bold'"
       id="path8959" />
    <path
       d="M 103.7755,173.95254 Q 104.75683,173.95254 105.36483,174.72054 105.97284,175.47788 105.97284,176.96055 105.97284,178.44322 105.3435,179.22189 104.71417,179.98989 103.73283,179.98989 103.10349,179.98989 102.73016,179.76589 102.35682,179.53122 102.12216,179.24322 H 102.03682 Q 102.12216,179.69122 102.12216,180.09656 V 182.44323 H 100.53282 V 174.05921 H 101.82349 L 102.04749,174.81654 H 102.12216 Q 102.35682,174.46454 102.75149,174.20854 103.14616,173.95254 103.7755,173.95254 Z M 103.26349,175.22188 Q 102.64483,175.22188 102.38882,175.60588 102.14349,175.98988 102.12216,176.77921 V 176.94988 Q 102.12216,177.79255 102.36749,178.25122 102.62349,178.69922 103.28483,178.69922 103.82883,178.69922 104.08483,178.25122 104.3515,177.79255 104.3515,176.93922 104.3515,175.22188 103.26349,175.22188 Z"
       style="font-weight:bold;-inkscape-font-specification:'Sans Bold'"
       id="path8961" />
    <path
       d="M 110.52751,173.95254 Q 111.50885,173.95254 112.11685,174.72054 112.72485,175.47788 112.72485,176.96055 112.72485,178.44322 112.09552,179.22189 111.46618,179.98989 110.48484,179.98989 109.85551,179.98989 109.48217,179.76589 109.10884,179.53122 108.87417,179.24322 H 108.78884 Q 108.87417,179.69122 108.87417,180.09656 V 182.44323 H 107.28483 V 174.05921 H 108.5755 L 108.7995,174.81654 H 108.87417 Q 109.10884,174.46454 109.50351,174.20854 109.89817,173.95254 110.52751,173.95254 Z M 110.01551,175.22188 Q 109.39684,175.22188 109.14084,175.60588 108.8955,175.98988 108.87417,176.77921 V 176.94988 Q 108.87417,177.79255 109.11951,178.25122 109.37551,178.69922 110.03684,178.69922 110.58084,178.69922 110.83684,178.25122 111.10351,177.79255 111.10351,176.93922 111.10351,175.22188 110.01551,175.22188 Z"
       style="font-weight:bold;-inkscape-font-specification:'Sans Bold'"
       id="path8963" />
    <path
       d="M 115.62619,179.88322 H 114.03685 V 171.77653 H 115.62619 Z"
       style="font-weight:bold;-inkscape-font-specification:'Sans Bold'"
       id="path8965" />
    <path
       d="M 118.0902,171.77653 Q 118.4422,171.77653 118.6982,171.9472 118.9542,172.1072 118.9542,172.5552 118.9542,172.99254 118.6982,173.1632 118.4422,173.33387 118.0902,173.33387 117.72753,173.33387 117.47153,173.1632 117.2262,172.99254 117.2262,172.5552 117.2262,172.1072 117.47153,171.9472 117.72753,171.77653 118.0902,171.77653 Z M 118.87954,174.05921 V 179.88322 H 117.2902 V 174.05921 Z"
       style="font-weight:bold;-inkscape-font-specification:'Sans Bold'"
       id="path8967" />
    <path
       d="M 122.91155,179.98989 Q 121.61021,179.98989 120.89554,179.27522 120.19154,178.54989 120.19154,177.00322 120.19154,175.93655 120.55421,175.26454 120.91688,174.59254 121.55688,174.27254 122.20755,173.95254 123.05022,173.95254 123.64755,173.95254 124.08489,174.06987 124.53289,174.18721 124.86356,174.34721 L 124.39422,175.57388 Q 124.02089,175.42454 123.69022,175.32854 123.37022,175.23254 123.05022,175.23254 121.81288,175.23254 121.81288,176.99255 121.81288,177.86722 122.13288,178.28322 122.46355,178.69922 123.05022,178.69922 123.55155,178.69922 123.93555,178.57122 124.31955,178.43255 124.68222,178.19789 V 179.55256 Q 124.31955,179.78722 123.91422,179.88322 123.51955,179.98989 122.91155,179.98989 Z"
       style="font-weight:bold;-inkscape-font-specification:'Sans Bold'"
       id="path8969" />
    <path
       d="M 128.41557,173.94187 Q 129.58891,173.94187 130.20757,174.45387 130.83691,174.95521 130.83691,176.00055 V 179.88322 H 129.72757 L 129.41824,179.09389 H 129.37557 Q 129.00224,179.56322 128.58624,179.77656 128.17023,179.98989 127.4449,179.98989 126.66623,179.98989 126.15423,179.54189 125.64223,179.08322 125.64223,178.14455 125.64223,177.21655 126.29289,176.77921 126.94356,176.33121 128.2449,176.28855 L 129.25824,176.25655 V 176.00055 Q 129.25824,175.54188 129.0129,175.32854 128.77824,175.11521 128.35157,175.11521 127.9249,175.11521 127.51957,175.24321 127.11423,175.36054 126.7089,175.54188 L 126.18623,174.46454 Q 126.65556,174.21921 127.2209,174.08054 127.7969,173.94187 128.41557,173.94187 Z M 128.63957,177.20588 Q 127.87157,177.22722 127.5729,177.48322 127.27423,177.73922 127.27423,178.15522 127.27423,178.51789 127.48757,178.67789 127.7009,178.82722 128.04223,178.82722 128.55424,178.82722 128.90624,178.52855 129.25824,178.21922 129.25824,177.66455 V 177.18455 Z"
       style="font-weight:bold;-inkscape-font-specification:'Sans Bold'"
       id="path8971" />
    <path
       d="M 134.92226,178.72055 Q 135.18892,178.72055 135.43426,178.66722 135.67959,178.61389 135.92493,178.53922 V 179.72322 Q 135.66893,179.82989 135.28492,179.90456 134.91159,179.98989 134.46359,179.98989 133.94092,179.98989 133.52492,179.81922 133.11958,179.64856 132.87425,179.23256 132.63958,178.80589 132.63958,178.05922 V 175.25388 H 131.88225 V 174.58187 L 132.75692,174.04854 133.21558,172.82187 H 134.22892 V 174.05921 H 135.86093 V 175.25388 H 134.22892 V 178.05922 Q 134.22892,178.38989 134.42092,178.56055 134.61292,178.72055 134.92226,178.72055 Z"
       style="font-weight:bold;-inkscape-font-specification:'Sans Bold'"
       id="path8973" />
    <path
       d="M 137.89827,171.77653 Q 138.25027,171.77653 138.50627,171.9472 138.76227,172.1072 138.76227,172.5552 138.76227,172.99254 138.50627,173.1632 138.25027,173.33387 137.89827,173.33387 137.5356,173.33387 137.2796,173.1632 137.03426,172.99254 137.03426,172.5552 137.03426,172.1072 137.2796,171.9472 137.5356,171.77653 137.89827,171.77653 Z M 138.6876,174.05921 V 179.88322 H 137.09826 V 174.05921 Z"
       style="font-weight:bold;-inkscape-font-specification:'Sans Bold'"
       id="path8975" />
    <path
       d="M 145.6423,176.96055 Q 145.6423,178.41122 144.87429,179.20056 144.11696,179.98989 142.80495,179.98989 141.99429,179.98989 141.35428,179.63789 140.72495,179.28589 140.36228,178.61389 139.99961,177.93122 139.99961,176.96055 139.99961,175.50988 140.75695,174.73121 141.51428,173.95254 142.83695,173.95254 143.65829,173.95254 144.28763,174.30454 144.91696,174.65654 145.27963,175.32854 145.6423,175.98988 145.6423,176.96055 Z M 141.62095,176.96055 Q 141.62095,177.82455 141.89828,178.27255 142.18629,178.70989 142.82629,178.70989 143.45562,178.70989 143.73296,178.27255 144.02096,177.82455 144.02096,176.96055 144.02096,176.09655 143.73296,175.66988 143.45562,175.23254 142.81562,175.23254 142.18629,175.23254 141.89828,175.66988 141.62095,176.09655 141.62095,176.96055 Z"
       style="font-weight:bold;-inkscape-font-specification:'Sans Bold'"
       id="path8977" />
    <path
       d="M 150.26097,173.95254 Q 151.19964,173.95254 151.76497,174.46454 152.33031,174.96588 152.33031,176.08588 V 179.88322 H 150.74097 V 176.48055 Q 150.74097,175.85121 150.51697,175.54188 150.29297,175.22188 149.8023,175.22188 149.07696,175.22188 148.8103,175.72321 148.54363,176.21388 148.54363,177.14188 V 179.88322 H 146.95429 V 174.05921 H 148.17029 L 148.38363,174.80588 H 148.46896 Q 148.7463,174.35787 149.2263,174.15521 149.71697,173.95254 150.26097,173.95254 Z"
       style="font-weight:bold;-inkscape-font-specification:'Sans Bold'"
       id="path8979" />
  </g>
  <g
     aria-label="CmbCompositor
wlroots based"
     id="text683-3"
     style="font-size:13.3333px;line-height:0;font-family:Sans;-inkscape-font-specification:'Sans, Normal';fill:#ffffff;fill-rule:evenodd;stroke-width:3.77953;stroke-linecap:round;stroke-miterlimit:10;paint-order:stroke fill markers">
    <path
       d="M 147.94943,211.87715 Q 146.78943,211.87715 146.1761,212.74382 145.56277,213.61048 145.56277,215.11714 145.56277,216.63714 146.12277,217.47714 146.6961,218.3038 147.94943,218.3038 148.53609,218.3038 149.10943,218.17047 149.69609,218.03714 150.37609,217.79714 V 219.49046 Q 149.74942,219.7438 149.13609,219.8638 148.52276,219.9838 147.76276,219.9838 146.2961,219.9838 145.3361,219.3838 144.38944,218.77047 143.93611,217.67714 143.48277,216.57047 143.48277,215.10381 143.48277,213.66381 144.00277,212.55715 144.52277,211.45049 145.50944,210.82382 146.50943,210.19715 147.94943,210.19715 148.65609,210.19715 149.36276,210.38382 150.08276,210.55715 150.73609,210.86382 L 150.08276,212.50382 Q 149.54942,212.25048 149.00276,212.06382 148.46943,211.87715 147.94943,211.87715 Z"
       style="font-weight:bold;line-height:125%;-inkscape-font-specification:'Sans Bold'"
       id="path8900" />
    <path
       d="M 160.78939,212.43715 Q 162.02938,212.43715 162.65605,213.07715 163.29605,213.70381 163.29605,215.10381 V 219.85046 H 161.30938 V 215.59714 Q 161.30938,214.02381 160.21605,214.02381 159.42939,214.02381 159.09606,214.58381 158.76272,215.14381 158.76272,216.19714 V 219.85046 H 156.77606 V 215.59714 Q 156.77606,214.02381 155.68273,214.02381 154.85607,214.02381 154.53607,214.65048 154.2294,215.26381 154.2294,216.42381 V 219.85046 H 152.24274 V 212.57048 H 153.76274 L 154.0294,213.50381 H 154.13607 Q 154.4694,212.94381 155.04273,212.69048 155.6294,212.43715 156.25606,212.43715 157.05606,212.43715 157.61606,212.70382 158.17606,212.95715 158.46939,213.50381 H 158.64272 Q 158.97606,212.94381 159.56272,212.69048 160.16272,212.43715 160.78939,212.43715 Z"
       style="font-weight:bold;line-height:125%;-inkscape-font-specification:'Sans Bold'"
       id="path8902" />
    <path
       d="M 167.32271,212.07715 Q 167.32271,212.49048 167.29604,212.89048 167.26937,213.29048 167.24271,213.51715 H 167.32271 Q 167.61604,213.06381 168.10937,212.75715 168.6027,212.43715 169.38937,212.43715 170.61603,212.43715 171.37603,213.39715 172.13603,214.34381 172.13603,216.19714 172.13603,218.0638 171.3627,219.0238 170.58936,219.9838 169.33603,219.9838 168.53604,219.9838 168.06937,219.7038 167.61604,219.41046 167.32271,219.05047 H 167.18937 L 166.85604,219.85046 H 165.33604 V 209.71716 H 167.32271 Z M 168.74937,214.02381 Q 167.97604,214.02381 167.65604,214.50381 167.34937,214.98381 167.32271,215.97047 V 216.18381 Q 167.32271,217.23714 167.62937,217.81047 167.94937,218.37047 168.77604,218.37047 169.38937,218.37047 169.74937,217.81047 170.10937,217.23714 170.10937,216.17047 170.10937,215.10381 169.73603,214.57048 169.37603,214.02381 168.74937,214.02381 Z"
       style="font-weight:bold;line-height:125%;-inkscape-font-specification:'Sans Bold'"
       id="path8904" />
    <path
       d="M 177.97601,211.87715 Q 176.81601,211.87715 176.20268,212.74382 175.58935,213.61048 175.58935,215.11714 175.58935,216.63714 176.14934,217.47714 176.72268,218.3038 177.97601,218.3038 178.56267,218.3038 179.136,218.17047 179.72267,218.03714 180.40267,217.79714 V 219.49046 Q 179.776,219.7438 179.16267,219.8638 178.54934,219.9838 177.78934,219.9838 176.32268,219.9838 175.36268,219.3838 174.41601,218.77047 173.96268,217.67714 173.50935,216.57047 173.50935,215.10381 173.50935,213.66381 174.02935,212.55715 174.54935,211.45049 175.53601,210.82382 176.53601,210.19715 177.97601,210.19715 178.68267,210.19715 179.38934,210.38382 180.10933,210.55715 180.76267,210.86382 L 180.10933,212.50382 Q 179.576,212.25048 179.02934,212.06382 178.496,211.87715 177.97601,211.87715 Z"
       style="font-weight:bold;line-height:125%;-inkscape-font-specification:'Sans Bold'"
       id="path8906" />
    <path
       d="M 188.88263,216.19714 Q 188.88263,218.01047 187.92263,218.99713 186.97597,219.9838 185.33597,219.9838 184.32264,219.9838 183.52264,219.5438 182.73598,219.1038 182.28265,218.2638 181.82932,217.41047 181.82932,216.19714 181.82932,214.38381 182.77598,213.41048 183.72264,212.43715 185.37597,212.43715 186.40264,212.43715 187.1893,212.87715 187.97597,213.31715 188.4293,214.15714 188.88263,214.98381 188.88263,216.19714 Z M 183.85598,216.19714 Q 183.85598,217.27714 184.20264,217.83714 184.56264,218.3838 185.36264,218.3838 186.1493,218.3838 186.49597,217.83714 186.85597,217.27714 186.85597,216.19714 186.85597,215.11714 186.49597,214.58381 186.1493,214.03715 185.34931,214.03715 184.56264,214.03715 184.20264,214.58381 183.85598,215.11714 183.85598,216.19714 Z"
       style="font-weight:bold;line-height:125%;-inkscape-font-specification:'Sans Bold'"
       id="path8908" />
    <path
       d="M 199.06927,212.43715 Q 200.30926,212.43715 200.93593,213.07715 201.57593,213.70381 201.57593,215.10381 V 219.85046 H 199.58927 V 215.59714 Q 199.58927,214.02381 198.49593,214.02381 197.70927,214.02381 197.37594,214.58381 197.0426,215.14381 197.0426,216.19714 V 219.85046 H 195.05594 V 215.59714 Q 195.05594,214.02381 193.96261,214.02381 193.13595,214.02381 192.81595,214.65048 192.50928,215.26381 192.50928,216.42381 V 219.85046 H 190.52262 V 212.57048 H 192.04262 L 192.30928,213.50381 H 192.41595 Q 192.74928,212.94381 193.32261,212.69048 193.90928,212.43715 194.53594,212.43715 195.33594,212.43715 195.89594,212.70382 196.45594,212.95715 196.74927,213.50381 H 196.92261 Q 197.25594,212.94381 197.8426,212.69048 198.4426,212.43715 199.06927,212.43715 Z"
       style="font-weight:bold;line-height:125%;-inkscape-font-specification:'Sans Bold'"
       id="path8910" />
    <path
       d="M 207.66925,212.43715 Q 208.89591,212.43715 209.65591,213.39715 210.41591,214.34381 210.41591,216.19714 210.41591,218.05047 209.62924,219.0238 208.84258,219.9838 207.61591,219.9838 206.82925,219.9838 206.36258,219.7038 205.89592,219.41046 205.60259,219.05047 H 205.49592 Q 205.60259,219.61046 205.60259,220.11713 V 223.05046 H 203.61593 V 212.57048 H 205.22925 L 205.50925,213.51715 H 205.60259 Q 205.89592,213.07715 206.38925,212.75715 206.88258,212.43715 207.66925,212.43715 Z M 207.02925,214.02381 Q 206.25592,214.02381 205.93592,214.50381 205.62925,214.98381 205.60259,215.97047 V 216.18381 Q 205.60259,217.23714 205.90925,217.81047 206.22925,218.37047 207.05592,218.37047 207.73591,218.37047 208.05591,217.81047 208.38925,217.23714 208.38925,216.17047 208.38925,214.02381 207.02925,214.02381 Z"
       style="font-weight:bold;line-height:125%;-inkscape-font-specification:'Sans Bold'"
       id="path8912" />
    <path
       d="M 218.66921,216.19714 Q 218.66921,218.01047 217.70922,218.99713 216.76255,219.9838 215.12256,219.9838 214.10923,219.9838 213.30923,219.5438 212.52256,219.1038 212.06923,218.2638 211.6159,217.41047 211.6159,216.19714 211.6159,214.38381 212.56256,213.41048 213.50923,212.43715 215.16256,212.43715 216.18922,212.43715 216.97588,212.87715 217.76255,213.31715 218.21588,214.15714 218.66921,214.98381 218.66921,216.19714 Z M 213.64256,216.19714 Q 213.64256,217.27714 213.98923,217.83714 214.34922,218.3838 215.14922,218.3838 215.93589,218.3838 216.28255,217.83714 216.64255,217.27714 216.64255,216.19714 216.64255,215.11714 216.28255,214.58381 215.93589,214.03715 215.13589,214.03715 214.34922,214.03715 213.98923,214.58381 213.64256,215.11714 213.64256,216.19714 Z"
       style="font-weight:bold;line-height:125%;-inkscape-font-specification:'Sans Bold'"
       id="path8914" />
    <path
       d="M 225.38919,217.69047 Q 225.38919,218.79713 224.60252,219.39713 223.82919,219.9838 222.28253,219.9838 221.52253,219.9838 220.97587,219.87713 220.4292,219.7838 219.88253,219.55713 V 217.91714 Q 220.4692,218.1838 221.1492,218.35713 221.8292,218.53047 222.3492,218.53047 222.93586,218.53047 223.17586,218.35713 223.42919,218.1838 223.42919,217.9038 223.42919,217.71714 223.32253,217.57047 223.22919,217.4238 222.89586,217.23714 222.56253,217.05047 221.85586,216.75714 221.17587,216.46381 220.73587,216.18381 220.29587,215.89047 220.08253,215.49047 219.8692,215.07714 219.8692,214.46381 219.8692,213.45048 220.65587,212.94381 221.44253,212.43715 222.74919,212.43715 223.42919,212.43715 224.04252,212.57048 224.65586,212.70382 225.30919,213.01048 L 224.70919,214.43714 Q 224.17586,214.21048 223.69586,214.06381 223.21586,213.90381 222.72253,213.90381 221.84253,213.90381 221.84253,214.38381 221.84253,214.55714 221.9492,214.70381 222.0692,214.83714 222.3892,214.99714 222.72253,215.15714 223.36253,215.42381 223.98919,215.67714 224.44252,215.95714 224.89586,216.22381 225.13586,216.63714 225.38919,217.03714 225.38919,217.69047 Z"
       style="font-weight:bold;line-height:125%;-inkscape-font-specification:'Sans Bold'"
       id="path8916" />
    <path
       d="M 227.93585,209.71716 Q 228.37584,209.71716 228.69584,209.93049 229.01584,210.13049 229.01584,210.69049 229.01584,211.23715 228.69584,211.45049 228.37584,211.66382 227.93585,211.66382 227.48251,211.66382 227.16251,211.45049 226.85585,211.23715 226.85585,210.69049 226.85585,210.13049 227.16251,209.93049 227.48251,209.71716 227.93585,209.71716 Z M 228.92251,212.57048 V 219.85046 H 226.93585 V 212.57048 Z"
       style="font-weight:bold;line-height:125%;-inkscape-font-specification:'Sans Bold'"
       id="path8918" />
    <path
       d="M 234.06917,218.39713 Q 234.4025,218.39713 234.70916,218.33047 235.01583,218.2638 235.3225,218.17047 V 219.65046 Q 235.0025,219.7838 234.5225,219.87713 234.05583,219.9838 233.49583,219.9838 232.8425,219.9838 232.3225,219.77046 231.81584,219.55713 231.50917,219.03713 231.21584,218.5038 231.21584,217.57047 V 214.06381 H 230.26918 V 213.22381 L 231.36251,212.55715 231.93584,211.02382 H 233.2025 V 212.57048 H 235.2425 V 214.06381 H 233.2025 V 217.57047 Q 233.2025,217.9838 233.4425,218.19713 233.6825,218.39713 234.06917,218.39713 Z"
       style="font-weight:bold;line-height:125%;-inkscape-font-specification:'Sans Bold'"
       id="path8920" />
    <path
       d="M 243.40247,216.19714 Q 243.40247,218.01047 242.44248,218.99713 241.49581,219.9838 239.85582,219.9838 238.84249,219.9838 238.04249,219.5438 237.25582,219.1038 236.80249,218.2638 236.34916,217.41047 236.34916,216.19714 236.34916,214.38381 237.29582,213.41048 238.24249,212.43715 239.89582,212.43715 240.92248,212.43715 241.70915,212.87715 242.49581,213.31715 242.94914,214.15714 243.40247,214.98381 243.40247,216.19714 Z M 238.37582,216.19714 Q 238.37582,217.27714 238.72249,217.83714 239.08249,218.3838 239.88248,218.3838 240.66915,218.3838 241.01581,217.83714 241.37581,217.27714 241.37581,216.19714 241.37581,215.11714 241.01581,214.58381 240.66915,214.03715 239.86915,214.03715 239.08249,214.03715 238.72249,214.58381 238.37582,215.11714 238.37582,216.19714 Z"
       style="font-weight:bold;line-height:125%;-inkscape-font-specification:'Sans Bold'"
       id="path8922" />
    <path
       d="M 249.10913,212.43715 Q 249.25579,212.43715 249.45579,212.45048 249.65579,212.46382 249.77579,212.49048 L 249.62912,214.35714 Q 249.53579,214.33048 249.34913,214.31714 249.17579,214.29048 249.04246,214.29048 248.53579,214.29048 248.06913,214.47714 247.60246,214.65048 247.30913,215.05048 247.02913,215.45047 247.02913,216.14381 V 219.85046 H 245.04247 V 212.57048 H 246.54913 L 246.84246,213.79715 H 246.9358 Q 247.2558,213.23715 247.8158,212.83715 248.37579,212.43715 249.10913,212.43715 Z"
       style="font-weight:bold;line-height:125%;-inkscape-font-specification:'Sans Bold'"
       id="path8924" />
    <path
       d="M 147.88279,231.14681 Q 147.84013,230.96547 147.75479,230.61347 147.68012,230.2508 147.58412,229.84547 147.48812,229.42947 147.40279,229.08813 147.31746,228.73613 147.28546,228.57613 H 147.24279 Q 147.21079,228.73613 147.12546,229.08813 147.05079,229.42947 146.95479,229.84547 146.85879,230.2508 146.77345,230.61347 146.68812,230.97614 146.64545,231.16814 L 146.17612,233.18415 H 144.46945 L 142.81611,227.36013 H 144.39478 L 145.06678,229.94147 Q 145.14145,230.20814 145.19478,230.58147 145.25878,230.95481 145.31212,231.30681 145.36545,231.64814 145.38678,231.85081 H 145.42945 Q 145.44012,231.70148 145.47212,231.45614 145.50412,231.20014 145.54678,230.93347 145.60012,230.66681 145.63212,230.45347 145.67478,230.22947 145.69612,230.1548 L 146.41079,227.36013 H 148.16013 L 148.84279,230.1548 Q 148.88546,230.30414 148.9388,230.63481 149.0028,230.96547 149.04546,231.30681 149.0988,231.64814 149.0988,231.85081 H 149.14146 Q 149.1628,231.66948 149.21613,231.32814 149.26946,230.97614 149.33346,230.59214 149.40813,230.20814 149.4828,229.94147 L 150.17613,227.36013 H 151.73347 L 150.0588,233.18415 H 148.33079 Z"
       style="font-weight:bold;font-size:10.6667px;line-height:108%;-inkscape-font-specification:'Sans Bold'"
       id="path8926" />
    <path
       d="M 154.26149,233.18415 H 152.67215 V 225.07745 H 154.26149 Z"
       style="font-weight:bold;font-size:10.6667px;line-height:108%;-inkscape-font-specification:'Sans Bold'"
       id="path8928" />
    <path
       d="M 159.17884,227.25346 Q 159.29617,227.25346 159.45617,227.26413 159.61618,227.27479 159.71218,227.29613 L 159.59484,228.78947 Q 159.52018,228.76813 159.37084,228.75747 159.23217,228.73613 159.12551,228.73613 158.72017,228.73613 158.34684,228.88547 157.9735,229.02413 157.73884,229.34413 157.51484,229.66414 157.51484,230.2188 V 233.18415 H 155.9255 V 227.36013 H 157.13083 L 157.3655,228.34146 H 157.44017 Q 157.69617,227.89346 158.14417,227.57346 158.59217,227.25346 159.17884,227.25346 Z"
       style="font-weight:bold;font-size:10.6667px;line-height:108%;-inkscape-font-specification:'Sans Bold'"
       id="path8930" />
    <path
       d="M 165.84553,230.26147 Q 165.84553,231.71214 165.07753,232.50148 164.32019,233.29081 163.00819,233.29081 162.19752,233.29081 161.55752,232.93881 160.92818,232.58681 160.56551,231.91481 160.20284,231.23214 160.20284,230.26147 160.20284,228.8108 160.96018,228.03213 161.71752,227.25346 163.04019,227.25346 163.86152,227.25346 164.49086,227.60546 165.12019,227.95746 165.48286,228.62947 165.84553,229.2908 165.84553,230.26147 Z M 161.82418,230.26147 Q 161.82418,231.12547 162.10152,231.57347 162.38952,232.01081 163.02952,232.01081 163.65886,232.01081 163.93619,231.57347 164.22419,231.12547 164.22419,230.26147 164.22419,229.39747 163.93619,228.9708 163.65886,228.53347 163.01885,228.53347 162.38952,228.53347 162.10152,228.9708 161.82418,229.39747 161.82418,230.26147 Z"
       style="font-weight:bold;font-size:10.6667px;line-height:108%;-inkscape-font-specification:'Sans Bold'"
       id="path8932" />
    <path
       d="M 172.44821,230.26147 Q 172.44821,231.71214 171.68021,232.50148 170.92287,233.29081 169.61087,233.29081 168.8002,233.29081 168.1602,232.93881 167.53086,232.58681 167.16819,231.91481 166.80552,231.23214 166.80552,230.26147 166.80552,228.8108 167.56286,228.03213 168.3202,227.25346 169.64287,227.25346 170.4642,227.25346 171.09354,227.60546 171.72287,227.95746 172.08554,228.62947 172.44821,229.2908 172.44821,230.26147 Z M 168.42686,230.26147 Q 168.42686,231.12547 168.7042,231.57347 168.9922,232.01081 169.6322,232.01081 170.26154,232.01081 170.53887,231.57347 170.82687,231.12547 170.82687,230.26147 170.82687,229.39747 170.53887,228.9708 170.26154,228.53347 169.62153,228.53347 168.9922,228.53347 168.7042,228.9708 168.42686,229.39747 168.42686,230.26147 Z"
       style="font-weight:bold;font-size:10.6667px;line-height:108%;-inkscape-font-specification:'Sans Bold'"
       id="path8934" />
    <path
       d="M 176.21355,232.02148 Q 176.48022,232.02148 176.72555,231.96814 176.97089,231.91481 177.21622,231.84014 V 233.02415 Q 176.96022,233.13081 176.57622,233.20548 176.20288,233.29081 175.75488,233.29081 175.23221,233.29081 174.81621,233.12015 174.41088,232.94948 174.16554,232.53348 173.93088,232.10681 173.93088,231.36014 V 228.5548 H 173.17354 V 227.8828 L 174.04821,227.34946 174.50688,226.12279 H 175.52022 V 227.36013 H 177.15222 V 228.5548 H 175.52022 V 231.36014 Q 175.52022,231.69081 175.71222,231.86148 175.90422,232.02148 176.21355,232.02148 Z"
       style="font-weight:bold;font-size:10.6667px;line-height:108%;-inkscape-font-specification:'Sans Bold'"
       id="path8936" />
    <path
       d="M 182.45357,231.45614 Q 182.45357,232.34148 181.82424,232.82148 181.20557,233.29081 179.96823,233.29081 179.36023,233.29081 178.92289,233.20548 178.48556,233.13081 178.04822,232.94948 V 231.63748 Q 178.51756,231.85081 179.06156,231.98948 179.60556,232.12814 180.02156,232.12814 180.4909,232.12814 180.6829,231.98948 180.88557,231.85081 180.88557,231.62681 180.88557,231.47747 180.80023,231.36014 180.72557,231.24281 180.4589,231.09347 180.19223,230.94414 179.6269,230.70947 179.08289,230.4748 178.73089,230.2508 178.37889,230.01614 178.20822,229.69614 178.03756,229.36547 178.03756,228.8748 178.03756,228.06413 178.66689,227.6588 179.29623,227.25346 180.34156,227.25346 180.88557,227.25346 181.37623,227.36013 181.8669,227.4668 182.38957,227.71213 L 181.90957,228.85347 Q 181.4829,228.67213 181.0989,228.5548 180.7149,228.4268 180.32023,228.4268 179.61623,228.4268 179.61623,228.8108 179.61623,228.94947 179.70156,229.0668 179.79756,229.17347 180.05356,229.30147 180.32023,229.42947 180.83223,229.6428 181.33357,229.84547 181.69624,230.06947 182.0589,230.2828 182.2509,230.61347 182.45357,230.93347 182.45357,231.45614 Z"
       style="font-weight:bold;font-size:10.6667px;line-height:108%;-inkscape-font-specification:'Sans Bold'"
       id="path8938" />
    <path
       d="M 188.05359,226.96546 Q 188.05359,227.29613 188.03226,227.61613 188.01092,227.93613 187.98959,228.11746 H 188.05359 Q 188.28826,227.7548 188.68292,227.50946 189.07759,227.25346 189.70693,227.25346 190.68826,227.25346 191.29627,228.02146 191.90427,228.7788 191.90427,230.26147 191.90427,231.75481 191.2856,232.52281 190.66693,233.29081 189.66426,233.29081 189.02426,233.29081 188.65092,233.06681 188.28826,232.83215 188.05359,232.54414 H 187.94692 L 187.68025,233.18415 H 186.46425 V 225.07745 H 188.05359 Z M 189.19493,228.5228 Q 188.57626,228.5228 188.32026,228.9068 188.07492,229.2908 188.05359,230.08014 V 230.2508 Q 188.05359,231.09347 188.29892,231.55214 188.55492,232.00014 189.21626,232.00014 189.70693,232.00014 189.99493,231.55214 190.28293,231.09347 190.28293,230.24014 190.28293,229.3868 189.98426,228.96013 189.69626,228.5228 189.19493,228.5228 Z"
       style="font-weight:bold;font-size:10.6667px;line-height:108%;-inkscape-font-specification:'Sans Bold'"
       id="path8940" />
    <path
       d="M 195.60561,227.24279 Q 196.77894,227.24279 197.39761,227.7548 198.02695,228.25613 198.02695,229.30147 V 233.18415 H 196.91761 L 196.60828,232.39481 H 196.56561 Q 196.19227,232.86415 195.77627,233.07748 195.36027,233.29081 194.63494,233.29081 193.85627,233.29081 193.34427,232.84281 192.83226,232.38414 192.83226,231.44547 192.83226,230.51747 193.48293,230.08014 194.1336,229.63214 195.43494,229.58947 L 196.44827,229.55747 V 229.30147 Q 196.44827,228.8428 196.20294,228.62947 195.96827,228.41613 195.54161,228.41613 195.11494,228.41613 194.7096,228.54413 194.30427,228.66147 193.89893,228.8428 L 193.37627,227.76546 Q 193.8456,227.52013 194.41094,227.38146 194.98694,227.24279 195.60561,227.24279 Z M 195.82961,230.5068 Q 195.0616,230.52814 194.76294,230.78414 194.46427,231.04014 194.46427,231.45614 194.46427,231.81881 194.6776,231.97881 194.89094,232.12814 195.23227,232.12814 195.74427,232.12814 196.09627,231.82948 196.44827,231.52014 196.44827,230.96547 V 230.48547 Z"
       style="font-weight:bold;font-size:10.6667px;line-height:108%;-inkscape-font-specification:'Sans Bold'"
       id="path8942" />
    <path
       d="M 203.72297,231.45614 Q 203.72297,232.34148 203.09363,232.82148 202.47496,233.29081 201.23762,233.29081 200.62962,233.29081 200.19229,233.20548 199.75495,233.13081 199.31762,232.94948 V 231.63748 Q 199.78695,231.85081 200.33095,231.98948 200.87496,232.12814 201.29096,232.12814 201.76029,232.12814 201.95229,231.98948 202.15496,231.85081 202.15496,231.62681 202.15496,231.47747 202.06963,231.36014 201.99496,231.24281 201.72829,231.09347 201.46163,230.94414 200.89629,230.70947 200.35229,230.4748 200.00029,230.2508 199.64829,230.01614 199.47762,229.69614 199.30695,229.36547 199.30695,228.8748 199.30695,228.06413 199.93629,227.6588 200.56562,227.25346 201.61096,227.25346 202.15496,227.25346 202.64563,227.36013 203.1363,227.4668 203.65897,227.71213 L 203.17896,228.85347 Q 202.7523,228.67213 202.36829,228.5548 201.98429,228.4268 201.58963,228.4268 200.88562,228.4268 200.88562,228.8108 200.88562,228.94947 200.97096,229.0668 201.06696,229.17347 201.32296,229.30147 201.58963,229.42947 202.10163,229.6428 202.60296,229.84547 202.96563,230.06947 203.3283,230.2828 203.5203,230.61347 203.72297,230.93347 203.72297,231.45614 Z"
       style="font-weight:bold;font-size:10.6667px;line-height:108%;-inkscape-font-specification:'Sans Bold'"
       id="path8944" />
    <path
       d="M 207.36031,227.25346 Q 208.56564,227.25346 209.26965,227.9468 209.97365,228.62947 209.97365,229.8988 V 230.66681 H 206.21897 Q 206.2403,231.33881 206.61364,231.72281 206.99764,232.10681 207.66964,232.10681 208.23498,232.10681 208.69364,232.00014 209.15231,231.88281 209.64298,231.64814 V 232.87481 Q 209.21631,233.08815 208.73631,233.18415 208.26698,233.29081 207.59497,233.29081 206.7203,233.29081 206.0483,232.97081 205.3763,232.64014 204.9923,231.97881 204.6083,231.31747 204.6083,230.3148 204.6083,229.2908 204.94963,228.6188 205.30163,227.93613 205.9203,227.5948 206.53897,227.25346 207.36031,227.25346 Z M 207.37097,228.38413 Q 206.9123,228.38413 206.60297,228.6828 206.3043,228.98147 206.25097,229.6108 H 208.48031 Q 208.46964,229.07747 208.20298,228.73613 207.93631,228.38413 207.37097,228.38413 Z"
       style="font-weight:bold;font-size:10.6667px;line-height:108%;-inkscape-font-specification:'Sans Bold'"
       id="path8946" />
    <path
       d="M 213.10965,233.29081 Q 212.13898,233.29081 211.52032,232.53348 210.91231,231.76548 210.91231,230.2828 210.91231,228.78947 211.53098,228.02146 212.14965,227.25346 213.15232,227.25346 213.78166,227.25346 214.18699,227.4988 214.59233,227.74413 214.82699,228.1068 H 214.88033 Q 214.84833,227.93613 214.80566,227.61613 214.76299,227.28546 214.76299,226.94413 V 225.07745 H 216.35233 V 233.18415 H 215.13633 L 214.82699,232.42681 H 214.76299 Q 214.52832,232.78948 214.13366,233.04548 213.73899,233.29081 213.10965,233.29081 Z M 213.66432,232.02148 Q 214.32566,232.02148 214.59233,231.63748 214.85899,231.24281 214.86966,230.46414 V 230.29347 Q 214.86966,229.44013 214.60299,228.99213 214.34699,228.54413 213.64299,228.54413 213.12032,228.54413 212.82165,229.0028 212.52299,229.4508 212.52299,230.30414 212.52299,231.15747 212.82165,231.59481 213.12032,232.02148 213.66432,232.02148 Z"
       style="font-weight:bold;font-size:10.6667px;line-height:108%;-inkscape-font-specification:'Sans Bold'"
       id="path8948" />
  </g>
  <text
     xml:space="preserve"
     id="text1948"
     style="font-style:normal;font-variant:normal;font-weight:bold;font-stretch:normal;font-size:10.6667px;line-height:125%;font-family:Sans;-inkscape-font-specification:'Sans Bold';text-align:start;writing-mode:lr-tb;white-space:pre;shape-inside:url(#rect1950);display:inline;fill:#000000;fill-opacity:1;fill-rule:evenodd;stroke:none;stroke-width:3.77953;stroke-linecap:round;stroke-miterlimit:10;paint-order:stroke fill markers" />
  <g
     aria-label="Wayland 
unix socket 
shm / dmabuf"
     id="text5076"
     style="font-weight:bold;font-size:18.6667px;line-height:100%;font-family:Sans;-inkscape-font-specification:'Sans Bold';fill:#808285;fill-rule:evenodd;stroke-width:3.77953;stroke-linecap:round;stroke-miterlimit:10;paint-order:stroke fill markers">
    <path
       d="M 488.31763,93.320185 484.92029,106.64821 H 481.70962 L 479.89895,99.648196 Q 479.84295,99.442862 479.74961,99.032195 479.67495,98.621527 479.56295,98.136193 479.46961,97.650859 479.39495,97.221525 479.32028,96.773524 479.28295,96.530857 479.26428,96.773524 479.17095,97.221525 479.09628,97.650859 479.00295,98.136193 478.90961,98.602861 478.81628,99.032195 478.72295,99.442862 478.66695,99.666863 L 476.87494,106.64821 H 473.66427 L 470.26693,93.320185 H 473.04827 L 474.74694,100.6002 Q 474.85894,101.02953 474.98961,101.68287 475.12027,102.3362 475.23227,102.98954 475.34427,103.64287 475.40027,104.09087 475.45627,103.6242 475.56827,102.98954 475.68027,102.3362 475.79227,101.73887 475.92294,101.12287 476.01627,100.78686 L 477.95761,93.320185 H 480.62695 L 482.56829,100.78686 Q 482.66162,101.1042 482.77362,101.7202 482.90429,102.3362 483.01629,102.98954 483.12829,103.64287 483.18429,104.09087 483.24029,103.6242 483.35229,102.98954 483.46429,102.3362 483.59495,101.68287 483.74429,101.02953 483.83762,100.6002 L 485.53629,93.320185 Z"
       style="text-align:end;text-anchor:end"
       id="path8845" />
    <path
       d="M 493.58165,96.250857 Q 495.63498,96.250857 496.71765,97.146858 497.81899,98.024193 497.81899,99.85353 V 106.64821 H 495.87765 L 495.33632,105.26687 H 495.26165 Q 494.60832,106.08821 493.88032,106.46154 493.15231,106.83488 491.88298,106.83488 490.52031,106.83488 489.62431,106.05087 488.72831,105.24821 488.72831,103.60554 488.72831,101.98153 489.86697,101.2162 491.00564,100.4322 493.28298,100.35753 L 495.05632,100.30153 V 99.85353 Q 495.05632,99.050862 494.62698,98.677528 494.21632,98.304194 493.46965,98.304194 492.72298,98.304194 492.01365,98.528194 491.30431,98.733528 490.59498,99.050862 L 489.68031,97.165525 Q 490.50164,96.736191 491.49098,96.493524 492.49898,96.250857 493.58165,96.250857 Z M 493.97365,101.96287 Q 492.62965,102.0002 492.10698,102.4482 491.58431,102.8962 491.58431,103.6242 491.58431,104.25887 491.95764,104.53887 492.33098,104.80021 492.92831,104.80021 493.82431,104.80021 494.44032,104.27754 495.05632,103.7362 495.05632,102.76553 V 101.92553 Z"
       style="text-align:end;text-anchor:end"
       id="path8847" />
    <path
       d="M 499.21899,96.45619 H 502.26167 L 504.18434,102.18687 Q 504.33367,102.59753 504.40834,103.04554 504.483,103.47487 504.52034,103.9602 H 504.57634 Q 504.63234,103.47487 504.72567,103.04554 504.83767,102.59753 504.96834,102.18687 L 506.85367,96.45619 H 509.84035 L 505.52834,107.95488 Q 504.94967,109.54155 503.82967,110.32555 502.72833,111.12822 501.27233,111.12822 500.80566,111.12822 500.451,111.07222 500.11499,111.03488 499.85366,110.97888 V 108.77621 Q 500.05899,108.81355 500.339,108.85088 500.63766,108.88821 500.955,108.88821 501.83233,108.88821 502.33633,108.34688 502.859,107.82421 503.10167,107.07754 L 503.26967,106.57354 Z"
       style="text-align:end;text-anchor:end"
       id="path8849" />
    <path
       d="M 514.07769,106.64821 H 511.29635 V 92.461516 H 514.07769 Z"
       style="text-align:end;text-anchor:end"
       id="path8851" />
    <path
       d="M 521.17104,96.250857 Q 523.22438,96.250857 524.30705,97.146858 525.40838,98.024193 525.40838,99.85353 V 106.64821 H 523.46705 L 522.92571,105.26687 H 522.85105 Q 522.19771,106.08821 521.46971,106.46154 520.74171,106.83488 519.47237,106.83488 518.1097,106.83488 517.2137,106.05087 516.3177,105.24821 516.3177,103.60554 516.3177,101.98153 517.45637,101.2162 518.59504,100.4322 520.87238,100.35753 L 522.64571,100.30153 V 99.85353 Q 522.64571,99.050862 522.21638,98.677528 521.80571,98.304194 521.05904,98.304194 520.31238,98.304194 519.60304,98.528194 518.89371,98.733528 518.18437,99.050862 L 517.2697,97.165525 Q 518.09104,96.736191 519.08037,96.493524 520.08837,96.250857 521.17104,96.250857 Z M 521.56304,101.96287 Q 520.21904,102.0002 519.69637,102.4482 519.17371,102.8962 519.17371,103.6242 519.17371,104.25887 519.54704,104.53887 519.92037,104.80021 520.51771,104.80021 521.41371,104.80021 522.02971,104.27754 522.64571,103.7362 522.64571,102.76553 V 101.92553 Z"
       style="text-align:end;text-anchor:end"
       id="path8853" />
    <path
       d="M 534.05107,96.269523 Q 535.69374,96.269523 536.68307,97.165525 537.67241,98.04286 537.67241,100.00286 V 106.64821 H 534.89107 V 100.69353 Q 534.89107,99.592196 534.49907,99.050862 534.10707,98.490861 533.2484,98.490861 531.97906,98.490861 531.5124,99.368195 531.04573,100.22686 531.04573,101.85087 V 106.64821 H 528.26439 V 96.45619 H 530.3924 L 530.76573,97.762859 H 530.91506 Q 531.4004,96.978858 532.2404,96.624191 533.09907,96.269523 534.05107,96.269523 Z"
       style="text-align:end;text-anchor:end"
       id="path8855" />
    <path
       d="M 543.75775,106.83488 Q 542.05908,106.83488 540.97641,105.50954 539.91241,104.16554 539.91241,101.57087 539.91241,98.957528 540.99507,97.613526 542.07774,96.269523 543.83241,96.269523 544.93375,96.269523 545.64308,96.698857 546.35242,97.128191 546.76308,97.762859 H 546.85642 Q 546.80042,97.464192 546.72575,96.904191 546.65108,96.325523 546.65108,95.728189 V 92.461516 H 549.43242 V 106.64821 H 547.30442 L 546.76308,105.32287 H 546.65108 Q 546.24042,105.95754 545.54975,106.40554 544.85908,106.83488 543.75775,106.83488 Z M 544.72841,104.61354 Q 545.88575,104.61354 546.35242,103.94154 546.81908,103.25087 546.83775,101.8882 V 101.58953 Q 546.83775,100.0962 546.37108,99.312195 545.92308,98.528194 544.69108,98.528194 543.77641,98.528194 543.25374,99.330862 542.73108,100.11486 542.73108,101.6082 542.73108,103.10154 543.25374,103.86687 543.77641,104.61354 544.72841,104.61354 Z"
       style="text-align:end;text-anchor:end"
       id="path8857" />
    <path
       d="M 483.56863,118.03493 V 125.31491 H 482.04863 L 481.78196,124.38158 H 481.6753 Q 481.32863,124.94158 480.7153,125.19491 480.1153,125.44824 479.4353,125.44824 478.26197,125.44824 477.55531,124.82158 476.84864,124.18158 476.84864,122.78158 V 118.03493 H 478.83531 V 122.28825 Q 478.83531,123.06158 479.1153,123.46158 479.3953,123.86158 480.00864,123.86158 480.9153,123.86158 481.24863,123.24825 481.58197,122.62158 481.58197,121.46159 V 118.03493 Z"
       style="font-size:13.3333px;text-align:end;text-anchor:end"
       id="path8859" />
    <path
       d="M 489.78194,117.90159 Q 490.95527,117.90159 491.66193,118.54159 492.3686,119.16826 492.3686,120.56825 V 125.31491 H 490.38194 V 121.06159 Q 490.38194,120.27492 490.10194,119.88826 489.82194,119.48826 489.20861,119.48826 488.30194,119.48826 487.96861,120.11492 487.63528,120.72825 487.63528,121.88825 V 125.31491 H 485.64862 V 118.03493 H 487.16861 L 487.43528,118.96826 H 487.54195 Q 487.88861,118.40826 488.48861,118.15493 489.10194,117.90159 489.78194,117.90159 Z"
       style="font-size:13.3333px;text-align:end;text-anchor:end"
       id="path8861" />
    <path
       d="M 495.40859,115.1816 Q 495.84859,115.1816 496.16858,115.39493 496.48858,115.59493 496.48858,116.15493 496.48858,116.7016 496.16858,116.91493 495.84859,117.12826 495.40859,117.12826 494.95525,117.12826 494.63526,116.91493 494.32859,116.7016 494.32859,116.15493 494.32859,115.59493 494.63526,115.39493 494.95525,115.1816 495.40859,115.1816 Z M 496.39525,118.03493 V 125.31491 H 494.40859 V 118.03493 Z"
       style="font-size:13.3333px;text-align:end;text-anchor:end"
       id="path8863" />
    <path
       d="M 499.96858,121.59492 497.62192,118.03493 H 499.87525 L 501.28858,120.35492 502.71524,118.03493 H 504.96857 L 502.59524,121.59492 505.07523,125.31491 H 502.8219 L 501.28858,122.82158 499.75525,125.31491 H 497.50192 Z"
       style="font-size:13.3333px;text-align:end;text-anchor:end"
       id="path8865" />
    <path
       d="M 514.72853,123.15491 Q 514.72853,124.26158 513.94187,124.86158 513.16854,125.44824 511.62188,125.44824 510.86188,125.44824 510.31521,125.34158 509.76855,125.24824 509.22188,125.02158 V 123.38158 Q 509.80855,123.64825 510.48854,123.82158 511.16854,123.99491 511.68854,123.99491 512.27521,123.99491 512.51521,123.82158 512.76854,123.64825 512.76854,123.36825 512.76854,123.18158 512.66187,123.03491 512.56854,122.88825 512.23521,122.70158 511.90187,122.51492 511.19521,122.22158 510.51521,121.92825 510.07521,121.64825 509.63521,121.35492 509.42188,120.95492 509.20855,120.54159 509.20855,119.92826 509.20855,118.91493 509.99521,118.40826 510.78188,117.90159 512.08854,117.90159 512.76854,117.90159 513.38187,118.03493 513.9952,118.16826 514.64853,118.47493 L 514.04854,119.90159 Q 513.5152,119.67492 513.0352,119.52826 512.55521,119.36826 512.06187,119.36826 511.18188,119.36826 511.18188,119.84826 511.18188,120.02159 511.28854,120.16826 511.40854,120.30159 511.72854,120.46159 512.06187,120.62159 512.70187,120.88825 513.32854,121.14159 513.78187,121.42159 514.2352,121.68825 514.4752,122.10158 514.72853,122.50158 514.72853,123.15491 Z"
       style="font-size:13.3333px;text-align:end;text-anchor:end"
       id="path8867" />
    <path
       d="M 522.88851,121.66158 Q 522.88851,123.47491 521.92851,124.46158 520.98185,125.44824 519.34185,125.44824 518.32852,125.44824 517.52852,125.00824 516.74186,124.56824 516.28852,123.72825 515.83519,122.87492 515.83519,121.66158 515.83519,119.84826 516.78186,118.87493 517.72852,117.90159 519.38185,117.90159 520.40851,117.90159 521.19518,118.34159 521.98184,118.78159 522.43518,119.62159 522.88851,120.44825 522.88851,121.66158 Z M 517.86185,121.66158 Q 517.86185,122.74158 518.20852,123.30158 518.56852,123.84825 519.36852,123.84825 520.15518,123.84825 520.50185,123.30158 520.86185,122.74158 520.86185,121.66158 520.86185,120.58159 520.50185,120.04826 520.15518,119.50159 519.35518,119.50159 518.56852,119.50159 518.20852,120.04826 517.86185,120.58159 517.86185,121.66158 Z"
       style="font-size:13.3333px;text-align:end;text-anchor:end"
       id="path8869" />
    <path
       d="M 527.48849,125.44824 Q 525.86183,125.44824 524.9685,124.55491 524.0885,123.64825 524.0885,121.71492 524.0885,120.38159 524.54183,119.54159 524.99516,118.70159 525.79516,118.30159 526.60849,117.90159 527.66182,117.90159 528.40849,117.90159 528.95515,118.04826 529.51515,118.19493 529.92848,118.39493 L 529.34182,119.92826 Q 528.87515,119.74159 528.46182,119.62159 528.06182,119.50159 527.66182,119.50159 526.11516,119.50159 526.11516,121.70158 526.11516,122.79492 526.51516,123.31491 526.92849,123.83491 527.66182,123.83491 528.28849,123.83491 528.76849,123.67491 529.24849,123.50158 529.70182,123.20825 V 124.90158 Q 529.24849,125.19491 528.74182,125.31491 528.24849,125.44824 527.48849,125.44824 Z"
       style="font-size:13.3333px;text-align:end;text-anchor:end"
       id="path8871" />
    <path
       d="M 533.36847,119.71492 Q 533.36847,120.12826 533.32847,120.54159 533.30181,120.94159 533.26181,121.35492 H 533.28847 Q 533.48847,121.07492 533.70181,120.79492 533.91514,120.50159 534.15514,120.24826 L 536.19513,118.03493 H 538.43513 L 535.5418,121.19492 538.60846,125.31491 H 536.31513 L 534.2218,122.36825 533.36847,123.04825 V 125.31491 H 531.38181 V 115.1816 H 533.36847 Z"
       style="font-size:13.3333px;text-align:end;text-anchor:end"
       id="path8873" />
    <path
       d="M 542.64846,117.90159 Q 544.15513,117.90159 545.03512,118.76826 545.91512,119.62159 545.91512,121.20825 V 122.16825 H 541.2218 Q 541.24847,123.00825 541.71513,123.48825 542.19513,123.96825 543.03513,123.96825 543.74179,123.96825 544.31513,123.83491 544.88846,123.68825 545.50179,123.39491 V 124.92824 Q 544.96846,125.19491 544.36846,125.31491 543.78179,125.44824 542.9418,125.44824 541.84847,125.44824 541.00847,125.04824 540.16847,124.63491 539.68847,123.80825 539.20847,122.98158 539.20847,121.72825 539.20847,120.44825 539.63514,119.60826 540.07514,118.75493 540.84847,118.32826 541.6218,117.90159 542.64846,117.90159 Z M 542.6618,119.31492 Q 542.08846,119.31492 541.7018,119.68826 541.32847,120.06159 541.2618,120.84825 H 544.04846 Q 544.03513,120.18159 543.70179,119.75492 543.36846,119.31492 542.6618,119.31492 Z"
       style="font-size:13.3333px;text-align:end;text-anchor:end"
       id="path8875" />
    <path
       d="M 550.5951,123.86158 Q 550.92844,123.86158 551.2351,123.79491 551.54177,123.72825 551.84843,123.63491 V 125.11491 Q 551.52843,125.24824 551.04844,125.34158 550.58177,125.44824 550.02177,125.44824 549.36844,125.44824 548.84844,125.23491 548.34178,125.02158 548.03511,124.50158 547.74178,123.96825 547.74178,123.03491 V 119.52826 H 546.79511 V 118.68826 L 547.88844,118.02159 548.46178,116.48826 H 549.72844 V 118.03493 H 551.76843 V 119.52826 H 549.72844 V 123.03491 Q 549.72844,123.44825 549.96844,123.66158 550.20844,123.86158 550.5951,123.86158 Z"
       style="font-size:13.3333px;text-align:end;text-anchor:end"
       id="path8877" />
    <path
       d="M 468.99534,143.34097 Q 468.99534,144.44763 468.20867,145.04763 467.43534,145.6343 465.88868,145.6343 465.12868,145.6343 464.58201,145.52763 464.03535,145.4343 463.48868,145.20763 V 143.56763 Q 464.07535,143.8343 464.75535,144.00763 465.43535,144.18097 465.95534,144.18097 466.54201,144.18097 466.78201,144.00763 467.03534,143.8343 467.03534,143.5543 467.03534,143.36763 466.92867,143.22097 466.83534,143.0743 466.50201,142.88764 466.16868,142.70097 465.46201,142.40764 464.78201,142.1143 464.34201,141.83431 463.90202,141.54097 463.68868,141.14097 463.47535,140.72764 463.47535,140.11431 463.47535,139.10098 464.26201,138.59431 465.04868,138.08765 466.35534,138.08765 467.03534,138.08765 467.64867,138.22098 468.262,138.35431 468.91534,138.66098 L 468.31534,140.08764 Q 467.78201,139.86098 467.30201,139.71431 466.82201,139.55431 466.32868,139.55431 465.44868,139.55431 465.44868,140.03431 465.44868,140.20764 465.55534,140.35431 465.67534,140.48764 465.99534,140.64764 466.32868,140.80764 466.96867,141.07431 467.59534,141.32764 468.04867,141.60764 468.502,141.87431 468.742,142.28764 468.99534,142.68764 468.99534,143.34097 Z"
       style="font-size:13.3333px;text-align:end;text-anchor:end"
       id="path8879" />
    <path
       d="M 472.52866,137.43432 Q 472.52866,137.96765 472.48866,138.46098 472.46199,138.95431 472.43532,139.15431 H 472.54199 Q 472.88866,138.59431 473.43532,138.34098 473.98199,138.08765 474.64865,138.08765 475.83532,138.08765 476.54198,138.72765 477.26198,139.35431 477.26198,140.75431 V 145.50096 H 475.27532 V 141.24764 Q 475.27532,139.67431 474.10199,139.67431 473.20866,139.67431 472.86199,140.30098 472.52866,140.91431 472.52866,142.0743 V 145.50096 H 470.542 V 135.36766 H 472.52866 Z"
       style="font-size:13.3333px;text-align:end;text-anchor:end"
       id="path8881" />
    <path
       d="M 487.84861,138.08765 Q 489.08861,138.08765 489.71528,138.72765 490.35527,139.35431 490.35527,140.75431 V 145.50096 H 488.36861 V 141.24764 Q 488.36861,139.67431 487.27528,139.67431 486.48862,139.67431 486.15528,140.23431 485.82195,140.79431 485.82195,141.84764 V 145.50096 H 483.83529 V 141.24764 Q 483.83529,139.67431 482.74196,139.67431 481.9153,139.67431 481.5953,140.30098 481.28863,140.91431 481.28863,142.0743 V 145.50096 H 479.30197 V 138.22098 H 480.82196 L 481.08863,139.15431 H 481.1953 Q 481.52863,138.59431 482.10196,138.34098 482.68863,138.08765 483.31529,138.08765 484.11529,138.08765 484.67529,138.35431 485.23529,138.60765 485.52862,139.15431 H 485.70195 Q 486.03528,138.59431 486.62195,138.34098 487.22195,138.08765 487.84861,138.08765 Z"
       style="font-size:13.3333px;text-align:end;text-anchor:end"
       id="path8883" />
    <path
       d="M 500.26192,135.98099 496.71526,145.50096 H 494.91527 L 498.46193,135.98099 Z"
       style="font-size:13.3333px;text-align:end;text-anchor:end"
       id="path8885" />
    <path
       d="M 507.14191,145.6343 Q 505.92858,145.6343 505.15525,144.68763 504.39525,143.72763 504.39525,141.87431 504.39525,140.00764 505.16858,139.04765 505.94191,138.08765 507.19524,138.08765 507.98191,138.08765 508.48857,138.39431 508.99524,138.70098 509.28857,139.15431 H 509.35524 Q 509.31524,138.94098 509.2619,138.54098 509.20857,138.12765 509.20857,137.70098 V 135.36766 H 511.19523 V 145.50096 H 509.67524 L 509.28857,144.5543 H 509.20857 Q 508.91524,145.00763 508.42191,145.32763 507.92857,145.6343 507.14191,145.6343 Z M 507.83524,144.04763 Q 508.66191,144.04763 508.99524,143.56763 509.32857,143.0743 509.3419,142.10097 V 141.88764 Q 509.3419,140.82097 509.00857,140.26098 508.68857,139.70098 507.80857,139.70098 507.15524,139.70098 506.78191,140.27431 506.40858,140.83431 506.40858,141.90097 506.40858,142.96764 506.78191,143.5143 507.15524,144.04763 507.83524,144.04763 Z"
       style="font-size:13.3333px;text-align:end;text-anchor:end"
       id="path8887" />
    <path
       d="M 521.82187,138.08765 Q 523.06186,138.08765 523.68853,138.72765 524.32853,139.35431 524.32853,140.75431 V 145.50096 H 522.34186 V 141.24764 Q 522.34186,139.67431 521.24853,139.67431 520.46187,139.67431 520.12854,140.23431 519.7952,140.79431 519.7952,141.84764 V 145.50096 H 517.80854 V 141.24764 Q 517.80854,139.67431 516.71521,139.67431 515.88855,139.67431 515.56855,140.30098 515.26188,140.91431 515.26188,142.0743 V 145.50096 H 513.27522 V 138.22098 H 514.79522 L 515.06188,139.15431 H 515.16855 Q 515.50188,138.59431 516.07521,138.34098 516.66188,138.08765 517.28854,138.08765 518.08854,138.08765 518.64854,138.35431 519.20854,138.60765 519.50187,139.15431 H 519.6752 Q 520.00854,138.59431 520.5952,138.34098 521.1952,138.08765 521.82187,138.08765 Z"
       style="font-size:13.3333px;text-align:end;text-anchor:end"
       id="path8889" />
    <path
       d="M 529.35518,138.07431 Q 530.82185,138.07431 531.59518,138.71431 532.38184,139.34098 532.38184,140.64764 V 145.50096 H 530.99518 L 530.60851,144.5143 H 530.55518 Q 530.08851,145.10096 529.56852,145.36763 529.04852,145.6343 528.14185,145.6343 527.16852,145.6343 526.52852,145.0743 525.88852,144.50097 525.88852,143.32763 525.88852,142.16764 526.70186,141.62097 527.51519,141.06097 529.14185,141.00764 L 530.40851,140.96764 V 140.64764 Q 530.40851,140.07431 530.10185,139.80764 529.80851,139.54098 529.27518,139.54098 528.74185,139.54098 528.23519,139.70098 527.72852,139.84764 527.22185,140.07431 L 526.56852,138.72765 Q 527.15519,138.42098 527.86185,138.24765 528.58185,138.07431 529.35518,138.07431 Z M 529.63518,142.1543 Q 528.67518,142.18097 528.30185,142.50097 527.92852,142.82097 527.92852,143.34097 527.92852,143.7943 528.19519,143.9943 528.46185,144.18097 528.88852,144.18097 529.52852,144.18097 529.96851,143.80763 530.40851,143.42097 530.40851,142.72764 V 142.12764 Z"
       style="font-size:13.3333px;text-align:end;text-anchor:end"
       id="path8891" />
    <path
       d="M 536.4085,137.72765 Q 536.4085,138.14098 536.38184,138.54098 536.35517,138.94098 536.3285,139.16765 H 536.4085 Q 536.70184,138.71431 537.19517,138.40765 537.6885,138.08765 538.47516,138.08765 539.70183,138.08765 540.46183,139.04765 541.22182,139.99431 541.22182,141.84764 541.22182,143.7143 540.44849,144.6743 539.67516,145.6343 538.42183,145.6343 537.62183,145.6343 537.15517,145.3543 536.70184,145.06096 536.4085,144.70096 H 536.27517 L 535.94184,145.50096 H 534.42184 V 135.36766 H 536.4085 Z M 537.83517,139.67431 Q 537.06183,139.67431 536.74184,140.15431 536.43517,140.63431 536.4085,141.62097 V 141.83431 Q 536.4085,142.88764 536.71517,143.46097 537.03517,144.02097 537.86183,144.02097 538.47516,144.02097 538.83516,143.46097 539.19516,142.88764 539.19516,141.82097 539.19516,140.75431 538.82183,140.22098 538.46183,139.67431 537.83517,139.67431 Z"
       style="font-size:13.3333px;text-align:end;text-anchor:end"
       id="path8893" />
    <path
       d="M 549.54179,138.22098 V 145.50096 H 548.02179 L 547.75513,144.56763 H 547.64846 Q 547.30179,145.12763 546.68846,145.38096 546.08846,145.6343 545.40847,145.6343 544.23514,145.6343 543.52847,145.00763 542.82181,144.36763 542.82181,142.96764 V 138.22098 H 544.80847 V 142.4743 Q 544.80847,143.24764 545.08847,143.64763 545.36847,144.04763 545.9818,144.04763 546.88846,144.04763 547.22179,143.4343 547.55513,142.80764 547.55513,141.64764 V 138.22098 Z"
       style="font-size:13.3333px;text-align:end;text-anchor:end"
       id="path8895" />
    <path
       d="M 555.64844,139.71431 H 553.92845 V 145.50096 H 551.94178 V 139.71431 H 550.84845 V 138.75431 L 551.94178,138.22098 V 137.68765 Q 551.94178,136.75432 552.24845,136.24765 552.56845,135.72765 553.14178,135.51432 553.72845,135.30099 554.51511,135.30099 555.10178,135.30099 555.56844,135.39432 556.04844,135.48765 556.34177,135.60765 L 555.83511,137.06098 Q 555.60844,136.99432 555.34178,136.94098 555.07511,136.87432 554.72844,136.87432 554.31511,136.87432 554.11511,137.12765 553.92845,137.38098 553.92845,137.76765 V 138.22098 H 555.64844 Z"
       style="font-size:13.3333px;text-align:end;text-anchor:end"
       id="path8897" />
  </g>
  <path
     d="M 569.9805,89.914455 C 575.7745,58.742455 551.4405,30.217452 519.6455,30.217452 501.2495,30.217452 484.8095,39.832455 475.7555,54.739455 463.4075,50.806455 450.66151,52.487455 440.19551,59.601455 429.72951,66.715455 423.4655,77.974455 422.9585,90.307455 408.9805,96.813455 399.81851,110.57546 399.81851,125.66146 399.81851,128.23446 400.07251,130.84446 400.5785,133.34646 404.27251,151.64846 420.67851,164.94646 439.61651,164.94646 H 553.7585 C 575.9205,164.94646 593.9545,147.32346 593.9545,125.66146 593.9545,110.21846 584.4305,96.241455 569.9815,89.914455 Z M 553.7575,153.75746 H 439.61551 C 424.0815,153.75746 411.18851,141.31746 411.18851,125.69646 411.18851,114.00646 418.97451,103.42646 430.5625,99.351455 L 434.61851,97.956455 434.3645,93.739455 C 433.7495,83.836455 438.3485,74.542455 446.64051,68.894455 455.40451,62.924455 466.1945,62.531455 476.0455,66.928455 L 481.1505,69.216455 483.5405,64.176455 C 490.06051,50.377455 504.2185,41.476455 519.6455,41.476455 541.5895,41.476455 559.4425,59.100455 559.4425,80.762455 559.4425,87.162455 558.0665,91.058455 556.5445,96.205455 560.7815,98.385455 561.4705,98.778455 562.9185,99.279455 574.6865,103.24746 582.5815,113.86446 582.5815,125.69646 582.5815,141.13946 569.6535,153.75746 553.7565,153.75746 Z"
     class="st3"
     id="path6554"
     style="fill:#808285;stroke-width:2.779" />
  <path
     d="M 516.972,196.4198 H 509.73 V 192.3448 H 516.973 Z M 516.972,188.2698 H 509.73 V 184.1938 H 516.973 Z M 516.972,180.1548 H 509.73 V 176.0798 H 516.973 Z M 516.972,172.0398 H 509.73 V 167.9658 H 516.973 Z"
     class="st2"
     id="path6621"
     style="fill:#bcbec0;stroke-width:2.779" />
</svg>
