<?xml version="1.0" encoding="UTF-8"?>
<svg version="1.1" viewBox="0 0 640 360" xmlns="http://www.w3.org/2000/svg">
 <defs>
  <linearGradient id="b" x1="1572.7" x2="1834.3" y1="949.9" y2="1330.4" gradientUnits="userSpaceOnUse">
   <stop stop-color="#fff" offset="0"/>
   <stop stop-color="#E6E6E6" offset="1"/>
  </linearGradient>
 </defs>
 <defs>
  <filter id="g" x="-.04357" y="-.054597" width="1.1234" height="1.1547" color-interpolation-filters="sRGB">
   <feFlood flood-color="#CBCCCE" result="flood"/>
   <feComposite in="flood" in2="SourceGraphic" operator="in" result="composite1"/>
   <feGaussianBlur in="composite1" result="blur" stdDeviation="12"/>
   <feOffset dx="24" dy="24" result="offset"/>
   <feComposite in="SourceGraphic" in2="offset" result="composite2"/>
  </filter>
  <filter id="f" x="-.061683" y="-.091429" width="1.1662" height="1.2463" color-interpolation-filters="sRGB">
   <feFlood flood-color="#CBCCCE" flood-opacity=".847" result="flood"/>
   <feComposite in="flood" in2="SourceGraphic" operator="in" result="composite1"/>
   <feGaussianBlur in="composite1" result="blur" stdDeviation="12"/>
   <feOffset dx="20" dy="20" result="offset"/>
   <feComposite in="SourceGraphic" in2="offset" result="composite2"/>
  </filter>
 </defs>
 <style>.st2{fill:#bcbec0}.st3{fill:#808285}.st4{fill:#828487}.st10{font-family:'RobotoCondensed-Bold'}.st12{font-size:58.0621px}.st14{font-size:25.4663px}</style>
 <g transform="matrix(.36212 0 0 .35747 -88.896 -120.45)" filter="url(#g)" stroke-width="3.726">
  <linearGradient id="d" x1="568.16" x2="1196.6" y1="794.89" y2="1589.9" gradientUnits="userSpaceOnUse">
   <stop stop-color="#fff" offset="0"/>
   <stop stop-color="#E6E6E6" offset="1"/>
  </linearGradient>
  <path d="m980.7 1238.4h-540c-33.1 0-60-26.9-60-60v-406.5c0-33.1 26.9-60 60-60h540c33.1 0 60 26.9 60 60v406.5c0 33.2-26.9 60-60 60z" fill="url(#d)"/>
  <linearGradient id="c" x1="380.21" x2="1041.2" y1="975.18" y2="975.18" gradientUnits="userSpaceOnUse">
   <stop stop-color="#E6E6E6" offset="0"/>
   <stop stop-color="#fff" offset="1"/>
  </linearGradient>
  <path d="m980.7 1238.9h-540c-33.4 0-60.5-27.1-60.5-60.5v-406.5c0-33.4 27.1-60.5 60.5-60.5h540c33.4 0 60.5 27.1 60.5 60.5v406.5c0 33.4-27.2 60.5-60.5 60.5zm-540-526.5c-32.8 0-59.5 26.7-59.5 59.5v406.5c0 32.8 26.7 59.5 59.5 59.5h540c32.8 0 59.5-26.7 59.5-59.5v-406.5c0-32.8-26.7-59.5-59.5-59.5z" fill="url(#c)"/>
 </g>
 <g stroke-width="2.779">
  <path class="st2" d="m193.41 177.07h7.243v2.144h-7.242z" fill="#bcbec0"/>
  <path class="st2" d="m200.66 172.78h-7.243v-4.325h7.243zm0-8.614h-7.243v-4.326h7.243zm0-8.615h-7.243v-4.326h7.243zm0-8.615h-7.243v-4.326h7.243zm0-8.615h-7.243v-4.326h7.243zm0-8.615h-7.243v-4.326h7.243zm0-8.615h-7.243v-4.325h7.243zm0-8.651h-7.243v-2.68c0-0.644 0.037-1.288 0.072-1.931l7.207 0.536c-0.036 0.465-0.036 0.93-0.036 1.358zm0.688-7.542-6.953-1.967a24.897 24.897 0 0 1 1.883-4.683l6.446 3.29a15.741 15.685 0 0 0-1.376 3.36zm3.332-6.327-5.65-4.505a25.93 25.838 0 0 1 3.585-3.574l4.636 5.505a19.33 19.26 0 0 0-2.571 2.574zm5.576-4.54-3.404-6.292a24.364 24.277 0 0 1 4.707-1.895l2.065 6.864c-1.196 0.286-2.318 0.75-3.368 1.322zm6.917-2.038-0.616-7.114a23.051 23.051 0 0 1 2.245-0.107h2.427v7.15h-2.428c-0.58 0-1.123 0.035-1.63 0.07zm187.32-0.072h-4.382v-7.149h4.382zm-8.728 0h-4.381v-7.149h4.381zm-8.727 0h-4.381v-7.149h4.381zm-8.727 0h-4.382v-7.149h4.383zm-8.727 0h-4.381v-7.149h4.381zm-8.728 0h-4.38v-7.149h4.381zm-8.726 0h-4.381v-7.149h4.381zm-8.728 0h-4.381v-7.149h4.381zm-8.727 0h-4.381v-7.149h4.381zm-8.727 0h-4.382v-7.149h4.383zm-8.727 0h-4.381v-7.149h4.381zm-8.728 0h-4.38v-7.149h4.381zm-8.726 0h-4.382v-7.149h4.382zm-8.763 0h-4.382v-7.149h4.382zm-8.728 0h-4.345v-7.149h4.381v7.15zm-8.727 0h-4.382v-7.149h4.382zm-8.727 0h-4.382v-7.149h4.382zm-8.728 0h-4.381v-7.149h4.382zm-8.727 0h-4.38v-7.149h4.38zm-8.727 0h-4.381v-7.149h4.382zm-8.727 0h-4.381v-7.149h4.381z"/>
  <path class="st2" d="m408.88 84.778h2.174v7.149h-2.173z" fill="#bcbec0"/>
 </g>
 <g fill="#828487" stroke-width="2.779">
  <path d="m341.8 268.24v11.187c0 1.141-0.61 1.764-1.703 1.764-1.198 0-1.703-0.58-1.703-1.972v-1.452h-3.153v1.494c0 1.577 0.378 2.553 1.282 3.383 0.883 0.789 2.06 1.204 3.512 1.204 3.132 0 4.92-1.599 4.92-4.421v-11.187zm16.666 4.608c-0.022-3.135-2.145-4.858-6.014-4.858-3.68 0-5.803 1.702-5.803 4.65 0 2.345 1.198 3.487 4.31 4.068l2.145 0.415c2.102 0.395 2.88 0.975 2.88 2.2 0 1.266-1.177 2.034-3.09 2.034-2.145 0-3.343-0.893-3.448-2.511h-3.07c0.19 3.237 2.439 5.002 6.35 5.002 3.952 0 6.287-1.806 6.287-4.9 0-2.386-1.22-3.631-4.058-4.17l-2.397-0.457c-2.25-0.436-2.902-0.872-2.902-1.972 0-1.141 1.009-1.868 2.65-1.868 1.996 0 3.111 0.83 3.216 2.366zm8.65-4.855c-2.144 0-3.91 0.706-5.214 2.096-1.366 1.454-2.144 3.57-2.144 5.832s0.778 4.4 2.144 5.832c1.325 1.412 3.049 2.097 5.236 2.097s3.91-0.685 5.235-2.097c1.324-1.39 2.144-3.59 2.144-5.728 0-2.366-0.777-4.504-2.144-5.936-1.345-1.432-3.028-2.096-5.257-2.096zm0.022 2.657c2.585 0 4.225 2.075 4.225 5.355 0 3.113-1.703 5.19-4.225 5.19-2.565 0-4.226-2.077-4.226-5.273s1.66-5.272 4.226-5.272zm18.172 12.721h3.153v-15.13h-3.153v10.294l-6.077-10.294h-3.238v15.13h3.154v-10.46z" aria-label="JSON"/>
  <path d="m56.804 24.49 4.752 20.338h5.44l4.68-20.339v20.339h5.44v-26.104h-8.196l-4.643 20.77-4.788-20.769h-8.126v26.105h5.44zm40.663 12.246c0.036-0.43 0.036-0.61 0.036-0.86 0-1.933-0.29-3.724-0.762-5.085-1.306-3.509-4.462-5.621-8.415-5.621-5.623 0-9.069 4.01-9.069 10.491 0 6.195 3.41 9.99 8.96 9.99 4.389 0 7.944-2.434 9.068-6.266h-5.006c-0.616 1.54-2.03 2.435-3.88 2.435-1.452 0-2.612-0.608-3.337-1.683-0.472-0.716-0.654-1.575-0.726-3.401zm-13.06-3.331c0.328-2.972 1.598-4.405 3.847-4.405 2.321 0 3.7 1.54 3.954 4.404zm15.783-7.913v19.336h5.078v-10.277c0-2.936 1.487-4.404 4.462-4.404 0.544 0 0.907 0.036 1.596 0.143v-5.084c-0.29-0.036-0.4-0.036-0.617-0.036-2.321 0-4.316 1.504-5.44 4.117v-3.795zm30.251 11.244c0.037-0.43 0.037-0.61 0.037-0.86 0-1.933-0.29-3.724-0.762-5.085-1.306-3.509-4.461-5.621-8.415-5.621-5.623 0-9.069 4.01-9.069 10.491 0 6.195 3.41 9.99 8.96 9.99 4.389 0 7.944-2.434 9.068-6.266h-5.006c-0.616 1.54-2.03 2.435-3.88 2.435-1.452 0-2.612-0.608-3.338-1.683-0.471-0.716-0.653-1.575-0.725-3.401zm-13.058-3.331c0.327-2.972 1.596-4.404 3.845-4.404 2.322 0 3.7 1.54 3.953 4.404zm15.781-7.913v19.336h5.079v-11.602c0-2.292 1.596-3.796 4.099-3.796 2.176 0 3.265 1.182 3.265 3.473v11.924h5.078v-12.962c0-4.296-2.358-6.696-6.566-6.696-2.648 0-4.425 0.93-5.876 3.115v-2.792zm33.591 0v2.972c-1.414-2.256-2.974-3.294-5.042-3.294-1.74 0-3.663 0.86-5.005 2.256-1.959 2.005-2.974 4.798-2.974 8.2 0 5.944 3.191 10.025 7.87 10.025 2.104 0 3.374-0.68 5.151-2.792v2.613c0 2.328-1.668 3.939-4.062 3.939-1.814 0-2.938-0.787-3.337-2.256h-5.223c0.036 1.504 0.58 2.542 1.922 3.617 1.56 1.253 3.7 1.862 6.456 1.862 5.659 0 9.069-2.686 9.069-7.162v-19.98zm-4.099 3.867c2.394 0 4.172 2.614 4.172 6.195 0 3.509-1.705 5.908-4.244 5.908-2.213 0-3.774-2.399-3.774-5.908 0-3.653 1.56-6.195 3.846-6.195zm30.65 15.468v-19.337h-5.079v12.103c0 2.292-1.596 3.796-4.098 3.796-2.177 0-3.265-1.147-3.265-3.474v-12.423h-5.078v13.462c0 4.297 2.357 6.696 6.565 6.696 2.648 0 4.425-0.93 5.876-3.115v2.292zm20.822-8.091c0.036-0.43 0.036-0.61 0.036-0.86 0-1.933-0.29-3.724-0.762-5.085-1.305-3.509-4.46-5.621-8.415-5.621-5.622 0-9.068 4.01-9.068 10.491 0 6.195 3.41 9.99 8.959 9.99 4.39 0 7.944-2.434 9.069-6.266h-5.006c-0.616 1.54-2.031 2.435-3.88 2.435-1.452 0-2.613-0.608-3.338-1.683-0.471-0.716-0.653-1.575-0.725-3.401zm-13.058-3.331c0.326-2.972 1.596-4.404 3.845-4.404 2.321 0 3.699 1.54 3.953 4.404z" font-size="100.17px" aria-label="Merengue"/>
 </g>
 <path class="st4" d="m259.23 301.27h-119.05c-5.0044 0-9.098-3.9169-9.098-8.7065v-96.486c0-4.7875 4.0936-8.7065 9.098-8.7065h119.05c5.0034 0 9.098 3.9189 9.098 8.7065v96.486c0 4.7896-4.0946 8.7065-9.098 8.7065z" stroke-width="2.779"/>
 <g transform="matrix(.36212 0 0 .35747 -88.896 -120.45)" filter="url(#f)" stroke-width="4.996">
  <path d="m1872.1 1238.4h-417.9c-13.2 0-24-10.8-24-24v-266c0-13.2 10.8-24 24-24h417.9c13.2 0 24 10.8 24 24v266c0 13.2-10.8 24-24 24z" fill="url(#b)"/>
  <linearGradient id="a" x1="1429.7" x2="1896.6" y1="1081.4" y2="1081.4" gradientUnits="userSpaceOnUse">
   <stop stop-color="#E6E6E6" offset="0"/>
   <stop stop-color="#fff" offset="1"/>
  </linearGradient>
  <path d="m1872.1 1238.9h-417.9c-13.5 0-24.5-11-24.5-24.5v-266c0-13.5 11-24.5 24.5-24.5h417.9c13.5 0 24.5 11 24.5 24.5v266c0 13.5-11 24.5-24.5 24.5zm-417.9-314c-13 0-23.5 10.5-23.5 23.5v266c0 13 10.5 23.5 23.5 23.5h417.9c13 0 23.5-10.5 23.5-23.5v-266c0-13-10.5-23.5-23.5-23.5z" fill="url(#a)"/>
 </g>
 <g stroke-width="2.779">
  <path d="m499.08 272.6 2.754 11.789h3.153l2.713-11.79v11.79h3.154v-15.13h-4.752l-2.691 12.038-2.776-12.039h-4.71v15.13h3.154zm23.284 7.1c0.021-0.25 0.021-0.353 0.021-0.5 0-1.12-0.168-2.158-0.44-2.946-0.759-2.034-2.588-3.259-4.88-3.259-3.258 0-5.256 2.325-5.256 6.081 0 3.591 1.976 5.791 5.193 5.791 2.544 0 4.605-1.411 5.257-3.632h-2.902c-0.357 0.893-1.177 1.412-2.249 1.412-0.841 0-1.514-0.353-1.935-0.976-0.273-0.415-0.378-0.913-0.42-1.972zm-7.57-1.931c0.19-1.723 0.926-2.553 2.23-2.553 1.345 0 2.144 0.893 2.291 2.554zm8.837-4.586v11.208h2.944v-5.957c0-1.702 0.863-2.553 2.586-2.553 0.316 0 0.526 0.02 0.925 0.083v-2.947c-0.168-0.021-0.231-0.021-0.357-0.021-1.345 0-2.502 0.872-3.154 2.387v-2.2zm17.237 6.517c0.021-0.25 0.021-0.353 0.021-0.5 0-1.12-0.168-2.158-0.44-2.946-0.758-2.034-2.587-3.259-4.879-3.259-3.258 0-5.256 2.325-5.256 6.081 0 3.591 1.976 5.791 5.193 5.791 2.544 0 4.605-1.411 5.257-3.632h-2.902c-0.357 0.893-1.177 1.412-2.25 1.412-0.84 0-1.514-0.353-1.935-0.976-0.272-0.415-0.378-0.913-0.42-1.972zm-7.569-1.931c0.19-1.723 0.925-2.553 2.23-2.553 1.344 0 2.144 0.893 2.29 2.554zm8.837-4.586v11.208h2.944v-6.725c0-1.328 0.925-2.2 2.376-2.2 1.261 0 1.892 0.685 1.892 2.013v6.912h2.944v-7.513c0-2.49-1.368-3.881-3.806-3.881-1.535 0-2.565 0.539-3.406 1.805v-1.619zm19.156 0v1.723c-0.82-1.308-1.723-1.91-2.922-1.91-1.01 0-2.123 0.499-2.902 1.307-1.136 1.163-1.724 2.782-1.724 4.753 0 3.446 1.85 5.811 4.563 5.811 1.22 0 1.955-0.394 2.985-1.618v1.515c0 1.35-0.966 2.283-2.354 2.283-1.051 0-1.704-0.457-1.935-1.308h-3.026c0.02 0.872 0.336 1.475 1.114 2.097 0.904 0.727 2.144 1.08 3.742 1.08 3.28 0 5.257-1.557 5.257-4.152v-11.581zm-2.376 2.24c1.388 0 2.418 1.517 2.418 3.592 0 2.034-0.988 3.425-2.46 3.425-1.282 0-2.187-1.391-2.187-3.425 0-2.117 0.905-3.59 2.23-3.59zm17.477 8.966v-11.208h-2.944v7.016c0 1.328-0.925 2.2-2.376 2.2-1.261 0-1.892-0.665-1.892-2.014v-7.202h-2.944v7.804c0 2.49 1.368 3.882 3.806 3.882 1.535 0 2.565-0.54 3.406-1.807v1.329zm11.769-4.69c0.02-0.249 0.02-0.352 0.02-0.498 0-1.12-0.167-2.159-0.44-2.947-0.758-2.034-2.587-3.259-4.879-3.259-3.258 0-5.256 2.325-5.256 6.081 0 3.591 1.976 5.791 5.193 5.791 2.544 0 4.605-1.411 5.257-3.632h-2.902c-0.357 0.893-1.177 1.412-2.25 1.412-0.84 0-1.514-0.353-1.934-0.976-0.273-0.415-0.378-0.913-0.42-1.972zm-7.57-1.93c0.19-1.723 0.926-2.553 2.23-2.553 1.345 0 2.144 0.893 2.291 2.554z" fill="#808285" aria-label="Merengue"/>
  <path d="m75.761 155.03c-0.104-1.309-0.378-2.139-1.03-2.99-1.177-1.536-3.07-2.386-5.361-2.386-4.332 0-7.023 3.05-7.023 7.949 0 4.878 2.67 7.908 6.938 7.908 3.827 0 6.35-2.18 6.539-5.646h-3.07c-0.21 1.931-1.43 3.03-3.384 3.03-2.44 0-3.87-1.95-3.87-5.25 0-3.342 1.493-5.334 3.974-5.334 1.83 0 2.86 0.87 3.28 2.719zm11.136 9.65c-0.505-0.476-0.673-0.808-0.673-1.369v-6.226c0-2.284-1.577-3.446-4.647-3.446s-4.668 1.287-4.857 3.881h2.84c0.146-1.161 0.629-1.536 2.08-1.536 1.136 0 1.704 0.374 1.704 1.121a0.99 0.99 0 0 1-0.505 0.871c-0.4 0.209-0.4 0.209-1.85 0.437l-1.178 0.207c-2.25 0.374-3.343 1.516-3.343 3.529s1.367 3.362 3.448 3.362c1.262 0 2.397-0.519 3.448-1.598 0 0.581 0.063 0.789 0.336 1.121h3.197zm-3.554-4.15c0 1.681-0.84 2.636-2.334 2.636-0.988 0-1.598-0.519-1.598-1.35 0-0.87 0.463-1.286 1.682-1.535l1.01-0.186c0.777-0.146 0.904-0.188 1.24-0.354zm4.763-6.705v11.207h2.944v-6.724c0-1.391 0.757-2.2 2.018-2.2 0.988 0 1.598 0.56 1.598 1.453v7.471h2.944v-6.724c0-1.37 0.756-2.2 2.017-2.2 0.989 0 1.6 0.56 1.6 1.453v7.471h2.943v-7.929c0-2.178-1.346-3.466-3.617-3.466-1.45 0-2.439 0.5-3.322 1.66-0.547-1.057-1.682-1.66-3.09-1.66-1.304 0-2.145 0.416-3.112 1.579v-1.392zm17.947-3.922v15.131h2.944v-1.141c0.715 1.1 1.703 1.618 3.133 1.618 2.712 0 4.772-2.553 4.772-5.936 0-1.515-0.463-3.051-1.22-4.13-0.777-1.1-2.165-1.806-3.553-1.806-1.43 0-2.418 0.519-3.132 1.64v-5.376zm5.424 6.164c1.451 0 2.481 1.453 2.481 3.529 0 2.055-1.009 3.487-2.48 3.487-1.494 0-2.481-1.391-2.481-3.55 0-2.055 1.008-3.466 2.48-3.466zm16.477 8.613c-0.505-0.476-0.673-0.808-0.673-1.369v-6.226c0-2.284-1.576-3.446-4.647-3.446-3.069 0-4.667 1.287-4.856 3.881h2.838c0.148-1.161 0.63-1.536 2.082-1.536 1.136 0 1.703 0.374 1.703 1.121a0.989 0.989 0 0 1-0.505 0.871c-0.4 0.209-0.4 0.209-1.85 0.437l-1.178 0.207c-2.249 0.374-3.343 1.516-3.343 3.529s1.368 3.362 3.448 3.362c1.262 0 2.397-0.519 3.449-1.598 0 0.581 0.063 0.789 0.336 1.121h3.196zm-3.553-4.15c0 1.681-0.841 2.636-2.334 2.636-0.988 0-1.598-0.519-1.598-1.35 0-0.87 0.463-1.286 1.681-1.535l1.01-0.186c0.778-0.146 0.905-0.188 1.24-0.354zm7.851-10.627h-2.944v15.131h2.944zm11.788 14.777c-0.505-0.476-0.673-0.808-0.673-1.369v-6.226c0-2.284-1.577-3.446-4.648-3.446s-4.667 1.287-4.856 3.881h2.839c0.146-1.161 0.63-1.536 2.081-1.536 1.136 0 1.704 0.374 1.704 1.121a0.99 0.99 0 0 1-0.506 0.871c-0.399 0.209-0.399 0.209-1.85 0.437l-1.177 0.207c-2.25 0.374-3.343 1.516-3.343 3.529s1.366 3.362 3.448 3.362c1.261 0 2.397-0.519 3.449-1.598 0 0.581 0.062 0.789 0.336 1.121h3.196zm-3.553-4.15c0 1.681-0.842 2.636-2.335 2.636-0.987 0-1.598-0.519-1.598-1.35 0-0.87 0.463-1.286 1.683-1.535l1.008-0.186c0.778-0.146 0.905-0.188 1.24-0.354zm14.478-2.513c-0.21-2.74-2.04-4.379-4.9-4.379-3.405 0-5.36 2.2-5.36 6.02 0 3.694 1.955 5.852 5.32 5.852 2.753 0 4.667-1.68 4.94-4.358h-2.817c-0.358 1.453-0.947 2.013-2.124 2.013-1.492 0-2.376-1.307-2.376-3.507 0-1.08 0.21-2.055 0.568-2.72 0.336-0.622 0.988-0.954 1.83-0.954 1.197 0 1.765 0.56 2.101 2.034zm1.336-8.114v15.131h2.944v-6.725c0-1.287 0.946-2.2 2.27-2.2 0.652 0 1.136 0.228 1.472 0.685 0.274 0.373 0.336 0.685 0.336 1.39v6.85h2.944v-7.514c0-1.39-0.379-2.386-1.156-3.03-0.652-0.54-1.598-0.851-2.545-0.851-1.45 0-2.501 0.56-3.322 1.806v-5.542zm21.73 10.438c0.022-0.249 0.022-0.353 0.022-0.498 0-1.12-0.168-2.16-0.441-2.947-0.758-2.034-2.587-3.259-4.878-3.259-3.259 0-5.257 2.325-5.257 6.082 0 3.59 1.976 5.79 5.193 5.79 2.544 0 4.605-1.41 5.257-3.632h-2.902c-0.357 0.892-1.177 1.411-2.249 1.411-0.841 0-1.514-0.353-1.935-0.975-0.273-0.415-0.378-0.913-0.42-1.972zm-7.568-1.93c0.189-1.723 0.925-2.553 2.229-2.553 1.345 0 2.144 0.893 2.291 2.553z" fill="#828487" aria-label="Cambalache"/>
  <g class="st4 st10 st14" aria-label="Gtk 3 or 4 Application">
   <path d="m503.03 295.5h-3.1v1.31h1.763c-0.044 0.43-0.15 0.693-0.384 0.965a2.073 2.065 0 0 1-1.582 0.734c-1.296 0-2.21-1.111-2.21-2.684 0-1.646 0.807-2.643 2.167-2.643 0.553 0 1.02 0.157 1.37 0.462 0.224 0.188 0.34 0.367 0.479 0.765h1.497c-0.191-1.583-1.487-2.568-3.356-2.568-2.23 0-3.75 1.624-3.75 4.005 0 2.317 1.53 4.005 3.622 4.005 1.041 0 1.742-0.367 2.337-1.227l0.191 1.007h0.957zm3.187-1.438h-0.829v-1.52h-1.486v1.52h-0.732v0.976h0.732v3.481c0 0.891 0.478 1.332 1.456 1.332 0.34 0 0.584-0.032 0.86-0.115v-1.028c-0.149 0.021-0.223 0.031-0.34 0.031-0.393 0-0.489-0.115-0.489-0.618v-3.083h0.83zm1.738 2.089v-4.185h-1.487v7.645h1.487v-1.857l0.595-0.64 1.37 2.497h1.742l-2.092-3.524 1.954-2.139h-1.688zm7.604 0.135c0.575 0 0.606 0 0.872 0.073 0.5 0.137 0.818 0.566 0.818 1.112 0 0.66-0.467 1.122-1.115 1.122-0.702 0-1.084-0.399-1.126-1.164h-1.445c0.01 1.49 0.987 2.422 2.539 2.422 1.604 0 2.634-0.933 2.634-2.38 0-0.87-0.382-1.437-1.233-1.845 0.691-0.43 0.989-0.903 0.989-1.584 0-1.237-0.935-2.024-2.391-2.024-1.093 0-1.932 0.473-2.262 1.28-0.138 0.356-0.18 0.597-0.18 1.216h1.38c0.011-0.398 0.043-0.598 0.117-0.787 0.139-0.324 0.479-0.524 0.913-0.524 0.595 0 0.935 0.357 0.935 0.975 0 0.755-0.435 1.122-1.316 1.122h-0.128zm8.294-2.434c-1.753 0-2.826 1.142-2.826 2.999 0 1.866 1.073 2.999 2.836 2.999 1.753 0 2.836-1.133 2.836-2.958 0-1.918-1.051-3.04-2.847-3.04zm0.01 1.185c0.818 0 1.35 0.723 1.35 1.834 0 1.06-0.554 1.794-1.35 1.794-0.807 0-1.349-0.724-1.349-1.814s0.542-1.814 1.349-1.814zm3.248-1.089v5.663h1.487v-3.01c0-0.86 0.436-1.29 1.307-1.29 0.16 0 0.266 0.011 0.467 0.042v-1.489c-0.084-0.01-0.116-0.01-0.18-0.01-0.68 0-1.264 0.44-1.594 1.206v-1.112zm10.502 2.799h-0.786v-4.571h-1.753l-2.75 4.55v1.238h3.016v1.646h1.487v-1.646h0.786zm-2.273 0h-1.965l1.965-3.177zm9.48 1.32 0.509 1.54h1.636l-2.677-7.644h-1.763l-2.751 7.645h1.625l0.52-1.542zm-0.436-1.311h-2.018l1.008-2.989zm4.129-2.808h-1.487v7.948h1.487v-2.956c0.36 0.629 0.871 0.923 1.594 0.923 1.38 0 2.4-1.28 2.4-3 0-0.796-0.233-1.593-0.616-2.118-0.383-0.535-1.094-0.891-1.784-0.891-0.723 0-1.233 0.304-1.594 0.933zm1.254 1.132c0.754 0 1.253 0.714 1.253 1.804 0 1.038-0.51 1.751-1.253 1.751-0.755 0-1.254-0.713-1.254-1.772 0-1.069 0.499-1.782 1.254-1.782zm4.54-1.132h-1.487v7.948h1.487v-2.956c0.361 0.629 0.87 0.923 1.593 0.923 1.381 0 2.401-1.28 2.401-3 0-0.796-0.234-1.593-0.616-2.118-0.383-0.535-1.094-0.891-1.785-0.891-0.722 0-1.232 0.304-1.593 0.933zm1.253 1.132c0.755 0 1.253 0.714 1.253 1.804 0 1.038-0.51 1.751-1.253 1.751-0.754 0-1.253-0.713-1.253-1.772 0-1.069 0.5-1.782 1.253-1.782zm4.614-3.116h-1.487v7.644h1.487zm2.208 1.984h-1.487v5.663h1.487zm0-1.982h-1.487v1.31h1.487zm5.577 4.098c-0.106-1.384-1.03-2.212-2.475-2.212-1.72 0-2.709 1.111-2.709 3.041 0 1.867 0.988 2.957 2.688 2.957 1.391 0 2.357-0.85 2.496-2.202h-1.424c-0.18 0.734-0.478 1.017-1.072 1.017-0.755 0-1.2-0.66-1.2-1.772 0-0.546 0.105-1.038 0.286-1.374 0.17-0.315 0.5-0.482 0.925-0.482 0.605 0 0.892 0.283 1.061 1.027z"/>
   <path d="m573.21 299.44c-0.256-0.241-0.34-0.41-0.34-0.692v-3.146c0-1.153-0.798-1.74-2.348-1.74-1.551 0-2.358 0.65-2.454 1.96h1.435c0.074-0.587 0.318-0.775 1.051-0.775 0.573 0 0.86 0.188 0.86 0.565a0.503 0.501 0 0 1-0.255 0.441c-0.202 0.104-0.202 0.104-0.935 0.22l-0.594 0.105c-1.137 0.189-1.689 0.766-1.689 1.783s0.69 1.698 1.741 1.698c0.638 0 1.211-0.262 1.742-0.807 0 0.294 0.033 0.399 0.17 0.566h1.615zm-1.796-2.097c0 0.849-0.425 1.332-1.18 1.332-0.498 0-0.806-0.262-0.806-0.682 0-0.44 0.233-0.65 0.85-0.776l0.51-0.095c0.392-0.073 0.456-0.093 0.627-0.178zm4.583-3.273h-0.828v-1.52h-1.487v1.52h-0.732v0.976h0.732v3.481c0 0.892 0.478 1.332 1.455 1.332 0.34 0 0.585-0.032 0.86-0.115v-1.028c-0.148 0.021-0.222 0.032-0.34 0.032-0.393 0-0.488-0.116-0.488-0.619v-3.082h0.83zm1.775-0.113h-1.487v5.662h1.487zm0-1.982h-1.487v1.31h1.487zm3.26 1.885c-1.754 0-2.827 1.143-2.827 2.999 0 1.866 1.073 2.999 2.837 2.999 1.753 0 2.836-1.133 2.836-2.958 0-1.918-1.052-3.04-2.847-3.04zm0.01 1.185c0.818 0 1.348 0.723 1.348 1.835 0 1.06-0.552 1.793-1.348 1.793-0.807 0-1.349-0.723-1.349-1.814s0.542-1.814 1.349-1.814zm3.212-1.088v5.662h1.487v-3.398c0-0.67 0.468-1.111 1.2-1.111 0.638 0 0.957 0.346 0.957 1.017v3.492h1.487v-3.796c0-1.258-0.691-1.961-1.923-1.961-0.775 0-1.296 0.273-1.721 0.912v-0.817z"/>
  </g>
  <path class="st2" d="m509.73 201.13h7.243v2.145h-7.243z" fill="#bcbec0"/>
  <g fill="#bcbec0">
   <path class="st2" d="m302.09 254.29h104.98v7.15h-104.98z"/>
   <path class="st2" d="m401.6 267.19 16.368-9.33-16.368-9.33zm-88.61 23.879h104.98v7.15h-104.98z"/>
   <path class="st2" d="m318.42 285.31-16.331 9.33 16.331 9.33z"/>
  </g>
 </g>
 <g fill="#808285" fill-rule="evenodd" stroke-linecap="round" stroke-miterlimit="10" stroke-width="3.7795" style="paint-order:stroke fill markers" aria-label="Gtk 4 Application">
  <path d="m65.578 175.61h3.0187v3.9467q-0.59734 0.20266-1.248 0.32-0.64 0.11733-1.4613 0.11733-1.7067 0-2.624-1.0027-0.91734-1.0027-0.91734-2.9227 0-1.1947 0.45867-2.0693 0.46934-0.87467 1.3547-1.3547 0.88534-0.48 2.1653-0.48 0.608 0 1.1947 0.128 0.58667 0.128 1.0667 0.34134l-0.53334 1.2907q-0.352-0.18133-0.8-0.29867-0.448-0.11733-0.93867-0.11733-0.704 0-1.2267 0.32-0.512 0.32-0.8 0.90667-0.27734 0.576-0.27734 1.3653 0 0.74666 0.20267 1.3227 0.20267 0.576 0.64 0.90667 0.43733 0.32 1.1413 0.32 0.34133 0 0.576-0.032 0.24533-0.032 0.448-0.07467v-1.5893h-1.44z"/>
  <path d="m72.735 178.72q0.26667 0 0.512-0.05333t0.49067-0.128v1.184q-0.256 0.10667-0.64 0.18134-0.37333 0.08533-0.82134 0.08533-0.52267 0-0.93867-0.17067-0.40534-0.17066-0.65067-0.58666-0.23467-0.42667-0.23467-1.1733v-2.8053h-0.75734v-0.67201l0.87467-0.53333 0.45867-1.2267h1.0133v1.2373h1.632v1.1947h-1.632v2.8053q0 0.33067 0.192 0.50133 0.192 0.16 0.50134 0.16z"/>
  <path d="m76.501 175.4q0 0.33067-0.032 0.66134-0.021333 0.32-0.053333 0.65066h0.021333q0.16-0.224 0.33067-0.448 0.17067-0.23466 0.36267-0.43733l1.632-1.7707h1.792l-2.3147 2.528 2.4533 3.296h-1.8347l-1.6747-2.3573-0.68267 0.54401v1.8133h-1.5893v-8.1067h1.5893z"/>
  <path d="m89.386 178.3h-0.91734v1.5787h-1.568v-1.5787h-3.2533v-1.12l3.3387-4.9174h1.4827v4.7894h0.91734zm-2.4853-2.5387q0-0.24534 0.010667-0.59734t0.021333-0.65067q0.021334-0.30933 0.032-0.40533h-0.042666q-0.096001 0.21333-0.20267 0.416t-0.256 0.416l-1.3973 2.112h1.8347z"/>
  <path d="m97.962 179.88-0.55467-1.8133h-2.7733l-0.55467 1.8133h-1.7387l2.688-7.648h1.9733l2.6987 7.648zm-1.4933-4.9387q-0.053333-0.18133-0.13867-0.45867-0.085334-0.27733-0.17067-0.56533-0.085334-0.288-0.13867-0.50134-0.053334 0.21334-0.14933 0.53334-0.085334 0.30933-0.17067 0.59733-0.074667 0.27734-0.11733 0.39467l-0.544 1.7707h1.984z"/>
  <path d="m103.78 173.95q0.98133 0 1.5893 0.768 0.60801 0.75734 0.60801 2.24t-0.62934 2.2613q-0.62933 0.768-1.6107 0.768-0.62934 0-1.0027-0.224-0.37334-0.23467-0.608-0.52267h-0.08534q0.08534 0.448 0.08534 0.85334v2.3467h-1.5893v-8.384h1.2907l0.224 0.75733h0.07467q0.23466-0.352 0.62933-0.608t1.024-0.256zm-0.51201 1.2693q-0.61866 0-0.87467 0.384-0.24533 0.384-0.26666 1.1733v0.17067q0 0.84267 0.24533 1.3013 0.256 0.448 0.91734 0.448 0.544 0 0.8-0.448 0.26667-0.45867 0.26667-1.312 0-1.7173-1.088-1.7173z"/>
  <path d="m110.53 173.95q0.98134 0 1.5893 0.768 0.608 0.75734 0.608 2.24t-0.62933 2.2613q-0.62934 0.768-1.6107 0.768-0.62933 0-1.0027-0.224-0.37333-0.23467-0.608-0.52267h-0.08533q0.08533 0.448 0.08533 0.85334v2.3467h-1.5893v-8.384h1.2907l0.224 0.75733h0.07467q0.23467-0.352 0.62934-0.608 0.39466-0.256 1.024-0.256zm-0.512 1.2693q-0.61867 0-0.87467 0.384-0.24534 0.384-0.26667 1.1733v0.17067q0 0.84267 0.24534 1.3013 0.256 0.448 0.91733 0.448 0.544 0 0.8-0.448 0.26667-0.45867 0.26667-1.312 0-1.7173-1.088-1.7173z"/>
  <path d="m115.63 179.88h-1.5893v-8.1067h1.5893z"/>
  <path d="m118.09 171.78q0.352 0 0.608 0.17067 0.256 0.16 0.256 0.608 0 0.43734-0.256 0.608-0.256 0.17067-0.608 0.17067-0.36267 0-0.61867-0.17067-0.24533-0.17066-0.24533-0.608 0-0.448 0.24533-0.608 0.256-0.17067 0.61867-0.17067zm0.78934 2.2827v5.824h-1.5893v-5.824z"/>
  <path d="m122.91 179.99q-1.3013 0-2.016-0.71467-0.704-0.72533-0.704-2.272 0-1.0667 0.36267-1.7387 0.36267-0.672 1.0027-0.992 0.65067-0.32 1.4933-0.32 0.59733 0 1.0347 0.11733 0.448 0.11734 0.77867 0.27734l-0.46934 1.2267q-0.37333-0.14934-0.704-0.24534-0.32-0.096-0.64-0.096-1.2373 0-1.2373 1.76 0 0.87467 0.32 1.2907 0.33067 0.416 0.91734 0.416 0.50133 0 0.88533-0.128 0.384-0.13867 0.74667-0.37333v1.3547q-0.36267 0.23466-0.768 0.33066-0.39467 0.10667-1.0027 0.10667z"/>
  <path d="m128.42 173.94q1.1733 0 1.792 0.512 0.62934 0.50134 0.62934 1.5467v3.8827h-1.1093l-0.30933-0.78933h-0.04267q-0.37333 0.46933-0.78933 0.68267-0.41601 0.21333-1.1413 0.21333-0.77867 0-1.2907-0.448-0.512-0.45867-0.512-1.3973 0-0.928 0.65066-1.3653 0.65067-0.448 1.952-0.49066l1.0133-0.032v-0.256q0-0.45867-0.24534-0.67201-0.23466-0.21333-0.66133-0.21333t-0.832 0.128q-0.40534 0.11733-0.81067 0.29867l-0.52267-1.0773q0.46933-0.24533 1.0347-0.384 0.576-0.13867 1.1947-0.13867zm0.224 3.264q-0.768 0.02134-1.0667 0.27734t-0.29867 0.672q0 0.36267 0.21334 0.52267 0.21333 0.14933 0.55466 0.14933 0.51201 0 0.86401-0.29867 0.352-0.30933 0.352-0.864v-0.48z"/>
  <path d="m134.92 178.72q0.26666 0 0.512-0.05333 0.24533-0.05333 0.49067-0.128v1.184q-0.256 0.10667-0.64001 0.18134-0.37333 0.08533-0.82133 0.08533-0.52267 0-0.93867-0.17067-0.40534-0.17066-0.65067-0.58666-0.23467-0.42667-0.23467-1.1733v-2.8053h-0.75733v-0.67201l0.87467-0.53333 0.45866-1.2267h1.0133v1.2373h1.632v1.1947h-1.632v2.8053q0 0.33067 0.192 0.50133 0.192 0.16 0.50134 0.16z"/>
  <path d="m137.9 171.78q0.352 0 0.608 0.17067 0.256 0.16 0.256 0.608 0 0.43734-0.256 0.608-0.256 0.17067-0.608 0.17067-0.36267 0-0.61867-0.17067-0.24534-0.17066-0.24534-0.608 0-0.448 0.24534-0.608 0.256-0.17067 0.61867-0.17067zm0.78933 2.2827v5.824h-1.5893v-5.824z"/>
  <path d="m145.64 176.96q0 1.4507-0.76801 2.24-0.75733 0.78933-2.0693 0.78933-0.81066 0-1.4507-0.352-0.62933-0.352-0.992-1.024-0.36267-0.68267-0.36267-1.6533 0-1.4507 0.75734-2.2293 0.75733-0.77867 2.08-0.77867 0.82134 0 1.4507 0.352 0.62933 0.352 0.992 1.024 0.36267 0.66134 0.36267 1.632zm-4.0214 0q0 0.864 0.27733 1.312 0.28801 0.43734 0.92801 0.43734 0.62933 0 0.90667-0.43734 0.288-0.448 0.288-1.312t-0.288-1.2907q-0.27734-0.43734-0.91734-0.43734-0.62933 0-0.91734 0.43734-0.27733 0.42667-0.27733 1.2907z"/>
  <path d="m150.26 173.95q0.93867 0 1.504 0.512 0.56534 0.50134 0.56534 1.6213v3.7973h-1.5893v-3.4027q0-0.62934-0.224-0.93867-0.224-0.32-0.71467-0.32-0.72534 0-0.992 0.50133-0.26667 0.49067-0.26667 1.4187v2.7413h-1.5893v-5.824h1.216l0.21334 0.74667h0.08533q0.27734-0.44801 0.75734-0.65067 0.49067-0.20267 1.0347-0.20267z"/>
 </g>
 <g transform="translate(-6.4086 -.80758)" fill="#fff" fill-rule="evenodd" stroke-linecap="round" stroke-miterlimit="10" stroke-width="3.7795">
  <path d="m147.88 231.15q-0.04266-0.18134-0.128-0.53334-0.07467-0.36267-0.17067-0.768-0.096-0.416-0.18133-0.75734-0.08533-0.352-0.11733-0.512h-0.04267q-0.032 0.16-0.11733 0.512-0.07467 0.34134-0.17067 0.75734-0.096 0.40533-0.18134 0.768-0.08533 0.36267-0.128 0.55467l-0.46933 2.016h-1.7067l-1.6533-5.824h1.5787l0.672 2.5813q0.07467 0.26667 0.128 0.64 0.064 0.37334 0.11734 0.72534 0.05333 0.34133 0.07466 0.544h0.04267q0.01067-0.14933 0.04267-0.39467 0.032-0.256 0.07466-0.52267 0.05334-0.26666 0.08534-0.48 0.04266-0.224 0.064-0.29867l0.71467-2.7947h1.7493l0.68266 2.7947q0.04267 0.14934 0.09601 0.48001 0.064 0.33066 0.10666 0.672 0.05334 0.34133 0.05334 0.544h0.04266q0.02134-0.18133 0.07467-0.52267 0.05333-0.352 0.11733-0.736 0.07467-0.384 0.14934-0.65067l0.69333-2.5813h1.5573l-1.6747 5.824h-1.728z" style="paint-order:stroke fill markers"/>
  <path d="m154.26 233.18h-1.5893v-8.1067h1.5893z" style="paint-order:stroke fill markers"/>
  <path d="m159.18 227.25q0.11733 0 0.27733 0.01067 0.16001 0.01066 0.25601 0.032l-0.11734 1.4933q-0.07466-0.02134-0.224-0.032-0.13867-0.02134-0.24533-0.02134-0.40534 0-0.77867 0.14934-0.37334 0.13866-0.608 0.45866-0.224 0.32001-0.224 0.87467v2.9654h-1.5893v-5.824h1.2053l0.23467 0.98133h0.07467q0.256-0.448 0.704-0.768t1.0347-0.32z" style="paint-order:stroke fill markers"/>
  <path d="m165.85 230.26q0 1.4507-0.768 2.24-0.75734 0.78933-2.0693 0.78933-0.81067 0-1.4507-0.352-0.62934-0.352-0.99201-1.024-0.36267-0.68267-0.36267-1.6533 0-1.4507 0.75734-2.2293t2.08-0.77867q0.82133 0 1.4507 0.352 0.62933 0.352 0.992 1.024 0.36267 0.66133 0.36267 1.632zm-4.0214 0q0 0.864 0.27734 1.312 0.288 0.43734 0.928 0.43734 0.62934 0 0.90667-0.43734 0.288-0.448 0.288-1.312t-0.288-1.2907q-0.27733-0.43733-0.91734-0.43733-0.62933 0-0.91733 0.43733-0.27734 0.42667-0.27734 1.2907z" style="paint-order:stroke fill markers"/>
  <path d="m172.45 230.26q0 1.4507-0.768 2.24-0.75734 0.78933-2.0693 0.78933-0.81067 0-1.4507-0.352-0.62934-0.352-0.99201-1.024-0.36267-0.68267-0.36267-1.6533 0-1.4507 0.75734-2.2293t2.08-0.77867q0.82133 0 1.4507 0.352 0.62933 0.352 0.992 1.024 0.36267 0.66133 0.36267 1.632zm-4.0214 0q0 0.864 0.27734 1.312 0.288 0.43734 0.928 0.43734 0.62934 0 0.90667-0.43734 0.288-0.448 0.288-1.312t-0.288-1.2907q-0.27733-0.43733-0.91734-0.43733-0.62933 0-0.91733 0.43733-0.27734 0.42667-0.27734 1.2907z" style="paint-order:stroke fill markers"/>
  <path d="m176.21 232.02q0.26667 0 0.512-0.05334 0.24534-0.05333 0.49067-0.128v1.184q-0.256 0.10666-0.64 0.18133-0.37334 0.08533-0.82134 0.08533-0.52267 0-0.93867-0.17066-0.40533-0.17067-0.65067-0.58667-0.23466-0.42667-0.23466-1.1733v-2.8053h-0.75734v-0.672l0.87467-0.53334 0.45867-1.2267h1.0133v1.2373h1.632v1.1947h-1.632v2.8053q0 0.33067 0.192 0.50134 0.192 0.16 0.50133 0.16z" style="paint-order:stroke fill markers"/>
  <path d="m182.45 231.46q0 0.88534-0.62933 1.3653-0.61867 0.46933-1.856 0.46933-0.608 0-1.0453-0.08533-0.43733-0.07467-0.87467-0.256v-1.312q0.46934 0.21333 1.0133 0.352 0.544 0.13866 0.96 0.13866 0.46934 0 0.66134-0.13866 0.20267-0.13867 0.20267-0.36267 0-0.14934-0.08534-0.26667-0.07466-0.11733-0.34133-0.26667-0.26667-0.14933-0.832-0.384-0.54401-0.23467-0.89601-0.45867-0.352-0.23466-0.52267-0.55466-0.17066-0.33067-0.17066-0.82134 0-0.81067 0.62933-1.216 0.62934-0.40534 1.6747-0.40534 0.54401 0 1.0347 0.10667 0.49067 0.10667 1.0133 0.352l-0.48 1.1413q-0.42667-0.18134-0.81067-0.29867-0.384-0.128-0.77867-0.128-0.704 0-0.704 0.384 0 0.13867 0.08533 0.256 0.096 0.10667 0.352 0.23467 0.26667 0.128 0.77867 0.34133 0.50134 0.20267 0.86401 0.42667 0.36266 0.21333 0.55466 0.544 0.20267 0.32 0.20267 0.84267z" style="paint-order:stroke fill markers"/>
  <path d="m188.05 226.97q0 0.33067-0.02133 0.65067-0.02134 0.32-0.04267 0.50133h0.064q0.23467-0.36266 0.62933-0.608 0.39467-0.256 1.024-0.256 0.98133 0 1.5893 0.768 0.608 0.75734 0.608 2.24 0 1.4933-0.61867 2.2613t-1.6213 0.768q-0.64 0-1.0133-0.224-0.36266-0.23466-0.59733-0.52267h-0.10667l-0.26667 0.64001h-1.216v-8.1067h1.5893zm1.1413 1.5573q-0.61867 0-0.87467 0.384-0.24534 0.384-0.26667 1.1733v0.17066q0 0.84267 0.24533 1.3013 0.256 0.448 0.91734 0.448 0.49067 0 0.77867-0.448 0.288-0.45867 0.288-1.312 0-0.85334-0.29867-1.28-0.288-0.43733-0.78933-0.43733z" style="paint-order:stroke fill markers"/>
  <path d="m195.61 227.24q1.1733 0 1.792 0.51201 0.62934 0.50133 0.62934 1.5467v3.8827h-1.1093l-0.30933-0.78934h-0.04267q-0.37334 0.46934-0.78934 0.68267t-1.1413 0.21333q-0.77867 0-1.2907-0.448-0.51201-0.45867-0.51201-1.3973 0-0.928 0.65067-1.3653 0.65067-0.448 1.952-0.49067l1.0133-0.032v-0.256q0-0.45867-0.24533-0.672-0.23467-0.21334-0.66133-0.21334-0.42667 0-0.83201 0.128-0.40533 0.11734-0.81067 0.29867l-0.52266-1.0773q0.46933-0.24533 1.0347-0.384 0.576-0.13867 1.1947-0.13867zm0.224 3.264q-0.76801 0.02134-1.0667 0.27734-0.29867 0.256-0.29867 0.672 0 0.36267 0.21333 0.52267 0.21334 0.14933 0.55467 0.14933 0.512 0 0.864-0.29866 0.352-0.30934 0.352-0.86401v-0.48z" style="paint-order:stroke fill markers"/>
  <path d="m203.72 231.46q0 0.88534-0.62934 1.3653-0.61867 0.46933-1.856 0.46933-0.608 0-1.0453-0.08533-0.43734-0.07467-0.87467-0.256v-1.312q0.46933 0.21333 1.0133 0.352 0.54401 0.13866 0.96001 0.13866 0.46933 0 0.66133-0.13866 0.20267-0.13867 0.20267-0.36267 0-0.14934-0.08533-0.26667-0.07467-0.11733-0.34134-0.26667-0.26666-0.14933-0.832-0.384-0.544-0.23467-0.896-0.45867-0.352-0.23466-0.52267-0.55466-0.17067-0.33067-0.17067-0.82134 0-0.81067 0.62934-1.216 0.62933-0.40534 1.6747-0.40534 0.544 0 1.0347 0.10667t1.0133 0.352l-0.48001 1.1413q-0.42666-0.18134-0.81067-0.29867-0.384-0.128-0.77866-0.128-0.70401 0-0.70401 0.384 0 0.13867 0.08534 0.256 0.096 0.10667 0.352 0.23467 0.26667 0.128 0.77867 0.34133 0.50133 0.20267 0.864 0.42667 0.36267 0.21333 0.55467 0.544 0.20267 0.32 0.20267 0.84267z" style="paint-order:stroke fill markers"/>
  <path d="m207.36 227.25q1.2053 0 1.9093 0.69334 0.704 0.68267 0.704 1.952v0.76801h-3.7547q0.02133 0.672 0.39467 1.056 0.384 0.384 1.056 0.384 0.56534 0 1.024-0.10667 0.45867-0.11733 0.94934-0.352v1.2267q-0.42667 0.21334-0.90667 0.30934-0.46933 0.10666-1.1413 0.10666-0.87467 0-1.5467-0.32-0.672-0.33067-1.056-0.992-0.384-0.66134-0.384-1.664 0-1.024 0.34133-1.696 0.352-0.68267 0.97067-1.024 0.61867-0.34134 1.44-0.34134zm0.01066 1.1307q-0.45867 0-0.768 0.29867-0.29867 0.29867-0.352 0.928h2.2293q-0.01067-0.53333-0.27733-0.87467-0.26667-0.352-0.83201-0.352z" style="paint-order:stroke fill markers"/>
  <path d="m213.11 233.29q-0.97067 0-1.5893-0.75733-0.60801-0.768-0.60801-2.2507 0-1.4933 0.61867-2.2613 0.61867-0.768 1.6213-0.768 0.62934 0 1.0347 0.24534 0.40534 0.24533 0.64 0.608h0.05334q-0.032-0.17067-0.07467-0.49067-0.04267-0.33067-0.04267-0.672v-1.8667h1.5893v8.1067h-1.216l-0.30934-0.75734h-0.064q-0.23467 0.36267-0.62933 0.61867-0.39467 0.24533-1.024 0.24533zm0.55467-1.2693q0.66134 0 0.92801-0.384 0.26666-0.39467 0.27733-1.1733v-0.17067q0-0.85334-0.26667-1.3013-0.256-0.448-0.96-0.448-0.52267 0-0.82134 0.45867-0.29866 0.448-0.29866 1.3013 0 0.85333 0.29866 1.2907 0.29867 0.42667 0.84267 0.42667z" style="paint-order:stroke fill markers"/>
 </g>
 <text fill="#000000" fill-rule="evenodd" font-family="Sans" font-size="10.667px" font-weight="bold" style="line-height:125%;paint-order:stroke fill markers;shape-inside:url(#rect1950);white-space:pre" xml:space="preserve"/>
 <g fill="#808285" fill-rule="evenodd" stroke-linecap="round" stroke-miterlimit="10" stroke-width="3.7795" style="paint-order:stroke fill markers" aria-label="Wayland  unix socket  shm / dmabuf">
  <path d="m488.32 93.32-3.3973 13.328h-3.2107l-1.8107-7q-0.056-0.20533-0.14934-0.616-0.07466-0.41067-0.18666-0.896-0.09334-0.48533-0.168-0.91467-0.07467-0.448-0.112-0.69067-0.01867 0.24267-0.112 0.69067-0.07467 0.42933-0.168 0.91467-0.09334 0.46667-0.18667 0.896-0.09333 0.41067-0.14933 0.63467l-1.792 6.9813h-3.2107l-3.3973-13.328h2.7813l1.6987 7.28q0.112 0.42933 0.24267 1.0827 0.13066 0.65333 0.24266 1.3067 0.112 0.65333 0.168 1.1013 0.056-0.46667 0.168-1.1013 0.112-0.65334 0.224-1.2507 0.13067-0.616 0.224-0.95201l1.9413-7.4667h2.6693l1.9413 7.4667q0.09333 0.31734 0.20533 0.93334 0.13067 0.616 0.24267 1.2693 0.112 0.65333 0.168 1.1013 0.056-0.46667 0.168-1.1013 0.112-0.65334 0.24266-1.3067 0.14934-0.65334 0.24267-1.0827l1.6987-7.28z"/>
  <path d="m493.58 96.251q2.0533 0 3.136 0.896 1.1013 0.87734 1.1013 2.7067v6.7947h-1.9413l-0.54133-1.3813h-0.07467q-0.65333 0.82134-1.3813 1.1947-0.72801 0.37334-1.9973 0.37334-1.3627 0-2.2587-0.78401-0.896-0.80266-0.896-2.4453 0-1.624 1.1387-2.3893 1.1387-0.784 3.416-0.85867l1.7733-0.056v-0.448q0-0.80267-0.42934-1.176-0.41066-0.37333-1.1573-0.37333t-1.456 0.224q-0.70934 0.20533-1.4187 0.52267l-0.91467-1.8853q0.82133-0.42933 1.8107-0.672 1.008-0.24267 2.0907-0.24267zm0.392 5.712q-1.344 0.03733-1.8667 0.48533t-0.52267 1.176q0 0.63467 0.37333 0.91467 0.37334 0.26134 0.97067 0.26134 0.896 0 1.512-0.52267 0.616-0.54134 0.616-1.512v-0.84z"/>
  <path d="m499.22 96.456h3.0427l1.9227 5.7307q0.14933 0.41066 0.224 0.85867 0.07466 0.42933 0.112 0.91466h0.056q0.056-0.48533 0.14933-0.91466 0.112-0.44801 0.24267-0.85867l1.8853-5.7307h2.9867l-4.312 11.499q-0.57867 1.5867-1.6987 2.3707-1.1013 0.80267-2.5573 0.80267-0.46667 0-0.82133-0.056-0.33601-0.03734-0.59734-0.09334v-2.2027q0.20533 0.03734 0.48534 0.07467 0.29866 0.03733 0.616 0.03733 0.87733 0 1.3813-0.54133 0.52267-0.52267 0.76534-1.2693l0.168-0.504z"/>
  <path d="m514.08 106.65h-2.7813v-14.187h2.7813z"/>
  <path d="m521.17 96.251q2.0533 0 3.136 0.896 1.1013 0.87734 1.1013 2.7067v6.7947h-1.9413l-0.54134-1.3813h-0.07466q-0.65334 0.82134-1.3813 1.1947-0.728 0.37334-1.9973 0.37334-1.3627 0-2.2587-0.78401-0.896-0.80266-0.896-2.4453 0-1.624 1.1387-2.3893 1.1387-0.784 3.416-0.85867l1.7733-0.056v-0.448q0-0.80267-0.42933-1.176-0.41067-0.37333-1.1573-0.37333-0.74666 0-1.456 0.224-0.70933 0.20533-1.4187 0.52267l-0.91467-1.8853q0.82134-0.42933 1.8107-0.672 1.008-0.24267 2.0907-0.24267zm0.392 5.712q-1.344 0.03733-1.8667 0.48533-0.52266 0.448-0.52266 1.176 0 0.63467 0.37333 0.91467 0.37333 0.26134 0.97067 0.26134 0.896 0 1.512-0.52267 0.616-0.54134 0.616-1.512v-0.84z"/>
  <path d="m534.05 96.27q1.6427 0 2.632 0.896 0.98934 0.87734 0.98934 2.8373v6.6454h-2.7813v-5.9547q0-1.1013-0.392-1.6427-0.392-0.56-1.2507-0.56-1.2693 0-1.736 0.87733-0.46667 0.85866-0.46667 2.4827v4.7973h-2.7813v-10.192h2.128l0.37333 1.3067h0.14933q0.48534-0.784 1.3253-1.1387 0.85867-0.35467 1.8107-0.35467z"/>
  <path d="m543.76 106.83q-1.6987 0-2.7813-1.3253-1.064-1.344-1.064-3.9387 0-2.6133 1.0827-3.9573 1.0827-1.344 2.8373-1.344 1.1013 0 1.8107 0.42933 0.70934 0.42933 1.12 1.064h0.09334q-0.056-0.29867-0.13067-0.85867-0.07467-0.57867-0.07467-1.176v-3.2667h2.7813v14.187h-2.128l-0.54134-1.3253h-0.112q-0.41066 0.63467-1.1013 1.0827-0.69067 0.42934-1.792 0.42934zm0.97066-2.2213q1.1573 0 1.624-0.672 0.46666-0.69067 0.48533-2.0533v-0.29867q0-1.4933-0.46667-2.2773-0.448-0.784-1.68-0.784-0.91467 0-1.4373 0.80267-0.52266 0.784-0.52266 2.2773t0.52266 2.2587q0.52267 0.74667 1.4747 0.74667z"/>
  <path d="m483.57 118.03v7.28h-1.52l-0.26667-0.93333h-0.10666q-0.34667 0.56-0.96 0.81333-0.6 0.25333-1.28 0.25333-1.1733 0-1.88-0.62666-0.70667-0.64-0.70667-2.04v-4.7466h1.9867v4.2533q0 0.77333 0.27999 1.1733 0.28 0.4 0.89334 0.4 0.90666 0 1.24-0.61333 0.33334-0.62667 0.33334-1.7867v-3.4267z"/>
  <path d="m489.78 117.9q1.1733 0 1.88 0.64 0.70667 0.62667 0.70667 2.0267v4.7467h-1.9867v-4.2533q0-0.78667-0.28-1.1733-0.28-0.4-0.89333-0.4-0.90667 0-1.24 0.62666-0.33333 0.61333-0.33333 1.7733v3.4267h-1.9867v-7.28h1.52l0.26667 0.93333h0.10667q0.34666-0.56 0.94666-0.81333 0.61333-0.25334 1.2933-0.25334z"/>
  <path d="m495.41 115.18q0.44 0 0.75999 0.21333 0.32 0.2 0.32 0.76 0 0.54667-0.32 0.76-0.31999 0.21333-0.75999 0.21333-0.45334 0-0.77333-0.21333-0.30667-0.21333-0.30667-0.76 0-0.56 0.30667-0.76 0.31999-0.21333 0.77333-0.21333zm0.98666 2.8533v7.28h-1.9867v-7.28z"/>
  <path d="m499.97 121.59-2.3467-3.56h2.2533l1.4133 2.32 1.4267-2.32h2.2533l-2.3733 3.56 2.48 3.72h-2.2533l-1.5333-2.4933-1.5333 2.4933h-2.2533z"/>
  <path d="m514.73 123.15q0 1.1067-0.78666 1.7067-0.77333 0.58666-2.32 0.58666-0.76 0-1.3067-0.10666-0.54666-0.09334-1.0933-0.32v-1.64q0.58667 0.26667 1.2667 0.44 0.68 0.17333 1.2 0.17333 0.58667 0 0.82667-0.17333 0.25333-0.17333 0.25333-0.45333 0-0.18667-0.10667-0.33334-0.09333-0.14666-0.42666-0.33333-0.33334-0.18666-1.04-0.48-0.68-0.29333-1.12-0.57333-0.44-0.29333-0.65333-0.69333-0.21333-0.41333-0.21333-1.0267 0-1.0133 0.78666-1.52 0.78667-0.50667 2.0933-0.50667 0.68 0 1.2933 0.13334 0.61333 0.13333 1.2667 0.44l-0.59999 1.4267q-0.53334-0.22667-1.0133-0.37333-0.47999-0.16-0.97333-0.16-0.87999 0-0.87999 0.48 0 0.17333 0.10666 0.32 0.12 0.13333 0.44 0.29333 0.33333 0.16 0.97333 0.42666 0.62667 0.25334 1.08 0.53334 0.45333 0.26666 0.69333 0.67999 0.25333 0.4 0.25333 1.0533z"/>
  <path d="m522.89 121.66q0 1.8133-0.96 2.8-0.94666 0.98666-2.5867 0.98666-1.0133 0-1.8133-0.44-0.78666-0.44-1.24-1.28-0.45333-0.85333-0.45333-2.0667 0-1.8133 0.94667-2.7866 0.94666-0.97334 2.6-0.97334 1.0267 0 1.8133 0.44 0.78666 0.44 1.24 1.28 0.45333 0.82666 0.45333 2.04zm-5.0267 0q0 1.08 0.34667 1.64 0.36 0.54667 1.16 0.54667 0.78666 0 1.1333-0.54667 0.36-0.56 0.36-1.64 0-1.08-0.36-1.6133-0.34667-0.54667-1.1467-0.54667-0.78666 0-1.1467 0.54667-0.34667 0.53333-0.34667 1.6133z"/>
  <path d="m527.49 125.45q-1.6267 0-2.52-0.89333-0.88-0.90666-0.88-2.84 0-1.3333 0.45333-2.1733t1.2533-1.24q0.81333-0.4 1.8667-0.4 0.74667 0 1.2933 0.14667 0.56 0.14667 0.97333 0.34667l-0.58666 1.5333q-0.46667-0.18667-0.88-0.30667-0.4-0.12-0.8-0.12-1.5467 0-1.5467 2.2 0 1.0933 0.4 1.6133 0.41333 0.52 1.1467 0.52 0.62667 0 1.1067-0.16 0.48-0.17333 0.93333-0.46666v1.6933q-0.45333 0.29333-0.96 0.41333-0.49333 0.13333-1.2533 0.13333z"/>
  <path d="m533.37 119.71q0 0.41334-0.04 0.82667-0.02666 0.4-0.06666 0.81333h0.02666q0.2-0.28 0.41334-0.56 0.21333-0.29333 0.45333-0.54666l2.04-2.2133h2.24l-2.8933 3.16 3.0667 4.12h-2.2933l-2.0933-2.9467-0.85333 0.68v2.2667h-1.9867v-10.133h1.9867z"/>
  <path d="m542.65 117.9q1.5067 0 2.3867 0.86667 0.88 0.85333 0.88 2.44v0.96h-4.6933q0.02667 0.84 0.49333 1.32 0.48 0.48 1.32 0.48 0.70666 0 1.28-0.13334 0.57333-0.14666 1.1867-0.44v1.5333q-0.53333 0.26667-1.1333 0.38667-0.58667 0.13333-1.4267 0.13333-1.0933 0-1.9333-0.4-0.84-0.41333-1.32-1.24-0.48-0.82667-0.48-2.08 0-1.28 0.42667-2.12 0.44-0.85333 1.2133-1.28t1.8-0.42667zm0.01334 1.4133q-0.57334 0-0.96 0.37334-0.37333 0.37333-0.44 1.16h2.7867q-0.01333-0.66666-0.34667-1.0933-0.33333-0.44-1.04-0.44z"/>
  <path d="m550.6 123.86q0.33334 0 0.64-0.06667 0.30667-0.06666 0.61333-0.16v1.48q-0.32 0.13333-0.79999 0.22667-0.46667 0.10666-1.0267 0.10666-0.65333 0-1.1733-0.21333-0.50666-0.21333-0.81333-0.73333-0.29333-0.53333-0.29333-1.4667v-3.5066h-0.94667v-0.84l1.0933-0.66667 0.57334-1.5333h1.2667v1.5467h2.04v1.4933h-2.04v3.5066q0 0.41334 0.24 0.62667 0.24 0.2 0.62666 0.2z"/>
  <path d="m469 143.34q0 1.1067-0.78667 1.7067-0.77333 0.58667-2.32 0.58667-0.76 0-1.3067-0.10667-0.54666-0.09333-1.0933-0.32v-1.64q0.58667 0.26667 1.2667 0.44 0.68 0.17334 1.2 0.17334 0.58667 0 0.82667-0.17334 0.25333-0.17333 0.25333-0.45333 0-0.18667-0.10667-0.33333-0.09333-0.14667-0.42666-0.33333-0.33333-0.18667-1.04-0.48-0.68-0.29334-1.12-0.57333-0.43999-0.29334-0.65333-0.69334-0.21333-0.41333-0.21333-1.0267 0-1.0133 0.78666-1.52 0.78667-0.50666 2.0933-0.50666 0.68 0 1.2933 0.13333t1.2667 0.44l-0.6 1.4267q-0.53333-0.22666-1.0133-0.37333-0.48-0.16-0.97333-0.16-0.88 0-0.88 0.48 0 0.17333 0.10666 0.32 0.12 0.13333 0.44 0.29333 0.33334 0.16 0.97333 0.42667 0.62667 0.25333 1.08 0.53333 0.45333 0.26667 0.69333 0.68 0.25334 0.4 0.25334 1.0533z"/>
  <path d="m472.53 137.43q0 0.53333-0.04 1.0267-0.02667 0.49333-0.05334 0.69333h0.10667q0.34667-0.56 0.89333-0.81333 0.54667-0.25333 1.2133-0.25333 1.1867 0 1.8933 0.64 0.72 0.62666 0.72 2.0267v4.7466h-1.9867v-4.2533q0-1.5733-1.1733-1.5733-0.89333 0-1.24 0.62667-0.33333 0.61333-0.33333 1.7733v3.4267h-1.9867v-10.133h1.9867z"/>
  <path d="m487.85 138.09q1.24 0 1.8667 0.64 0.63999 0.62666 0.63999 2.0267v4.7466h-1.9867v-4.2533q0-1.5733-1.0933-1.5733-0.78666 0-1.12 0.56-0.33333 0.56-0.33333 1.6133v3.6533h-1.9867v-4.2533q0-1.5733-1.0933-1.5733-0.82666 0-1.1467 0.62667-0.30667 0.61333-0.30667 1.7733v3.4267h-1.9867v-7.28h1.52l0.26667 0.93333h0.10667q0.33333-0.56 0.90666-0.81333 0.58667-0.25333 1.2133-0.25333 0.8 0 1.36 0.26666 0.56 0.25334 0.85333 0.8h0.17333q0.33333-0.56 0.92-0.81333 0.6-0.25333 1.2267-0.25333z"/>
  <path d="m500.26 135.98-3.5467 9.52h-1.8l3.5467-9.52z"/>
  <path d="m507.14 145.63q-1.2133 0-1.9867-0.94667-0.76-0.96-0.76-2.8133 0-1.8667 0.77333-2.8267 0.77333-0.96 2.0267-0.96 0.78667 0 1.2933 0.30666 0.50667 0.30667 0.8 0.76h0.06667q-0.04-0.21333-0.09334-0.61333-0.05333-0.41333-0.05333-0.84v-2.3333h1.9867v10.133h-1.52l-0.38667-0.94666h-0.08q-0.29333 0.45333-0.78666 0.77333-0.49334 0.30667-1.28 0.30667zm0.69333-1.5867q0.82667 0 1.16-0.48 0.33333-0.49333 0.34666-1.4667v-0.21333q0-1.0667-0.33333-1.6267-0.32-0.56-1.2-0.56-0.65333 0-1.0267 0.57333-0.37333 0.56-0.37333 1.6267 0 1.0667 0.37333 1.6133 0.37333 0.53333 1.0533 0.53333z"/>
  <path d="m521.82 138.09q1.24 0 1.8667 0.64 0.64 0.62666 0.64 2.0267v4.7466h-1.9867v-4.2533q0-1.5733-1.0933-1.5733-0.78666 0-1.12 0.56-0.33334 0.56-0.33334 1.6133v3.6533h-1.9867v-4.2533q0-1.5733-1.0933-1.5733-0.82666 0-1.1467 0.62667-0.30667 0.61333-0.30667 1.7733v3.4267h-1.9867v-7.28h1.52l0.26666 0.93333h0.10667q0.33333-0.56 0.90666-0.81333 0.58667-0.25333 1.2133-0.25333 0.8 0 1.36 0.26666 0.56 0.25334 0.85333 0.8h0.17333q0.33334-0.56 0.92-0.81333 0.6-0.25333 1.2267-0.25333z"/>
  <path d="m529.36 138.07q1.4667 0 2.24 0.64 0.78666 0.62667 0.78666 1.9333v4.8533h-1.3867l-0.38667-0.98666h-0.05333q-0.46667 0.58666-0.98666 0.85333-0.52 0.26667-1.4267 0.26667-0.97333 0-1.6133-0.56-0.64-0.57333-0.64-1.7467 0-1.16 0.81334-1.7067 0.81333-0.56 2.44-0.61333l1.2667-0.04v-0.32q0-0.57333-0.30666-0.84-0.29334-0.26666-0.82667-0.26666t-1.04 0.16q-0.50667 0.14666-1.0133 0.37333l-0.65333-1.3467q0.58667-0.30667 1.2933-0.48 0.72-0.17334 1.4933-0.17334zm0.28 4.08q-0.96 0.02667-1.3333 0.34667t-0.37333 0.84q0 0.45333 0.26667 0.65333 0.26666 0.18667 0.69333 0.18667 0.64 0 1.08-0.37334 0.44-0.38666 0.44-1.08v-0.6z"/>
  <path d="m536.41 137.73q0 0.41333-0.02666 0.81333-0.02667 0.4-0.05334 0.62667h0.08q0.29334-0.45334 0.78667-0.76 0.49333-0.32 1.28-0.32 1.2267 0 1.9867 0.96 0.75999 0.94666 0.75999 2.8 0 1.8667-0.77333 2.8267t-2.0267 0.96q-0.8 0-1.2667-0.28-0.45333-0.29334-0.74667-0.65334h-0.13333l-0.33333 0.8h-1.52v-10.133h1.9867zm1.4267 1.9467q-0.77334 0-1.0933 0.48-0.30667 0.48-0.33334 1.4667v0.21334q0 1.0533 0.30667 1.6267 0.32 0.56 1.1467 0.56 0.61333 0 0.97333-0.56 0.36-0.57333 0.36-1.64 0-1.0667-0.37333-1.6-0.36-0.54667-0.98666-0.54667z"/>
  <path d="m549.54 138.22v7.28h-1.52l-0.26666-0.93333h-0.10667q-0.34667 0.56-0.96 0.81333-0.6 0.25334-1.28 0.25334-1.1733 0-1.88-0.62667-0.70666-0.64-0.70666-2.04v-4.7467h1.9867v4.2533q0 0.77334 0.28 1.1733 0.28 0.4 0.89333 0.4 0.90666 0 1.24-0.61333 0.33334-0.62666 0.33334-1.7867v-3.4267z"/>
  <path d="m555.65 139.71h-1.72v5.7866h-1.9867v-5.7866h-1.0933v-0.96l1.0933-0.53333v-0.53333q0-0.93333 0.30667-1.44 0.32-0.52 0.89333-0.73333 0.58667-0.21333 1.3733-0.21333 0.58667 0 1.0533 0.09333 0.48 0.09333 0.77333 0.21333l-0.50666 1.4533q-0.22667-0.06666-0.49333-0.12-0.26667-0.06666-0.61334-0.06666-0.41333 0-0.61333 0.25333-0.18666 0.25333-0.18666 0.64v0.45333h1.72z"/>
 </g>
 <path class="st3" d="m569.98 89.914c5.794-31.172-18.54-59.697-50.335-59.697-18.396 0-34.836 9.615-43.89 24.522-12.348-3.933-25.094-2.252-35.56 4.862s-16.73 18.373-17.237 30.706c-13.978 6.506-23.14 20.268-23.14 35.354 0 2.573 0.254 5.183 0.75999 7.685 3.694 18.302 20.1 31.6 39.038 31.6h114.14c22.162 0 40.196-17.623 40.196-39.285 0-15.443-9.524-29.42-23.973-35.747zm-16.223 63.843h-114.14c-15.534 0-28.427-12.44-28.427-28.061 0-11.69 7.786-22.27 19.374-26.345l4.056-1.395-0.25401-4.217c-0.615-9.903 3.984-19.197 12.276-24.845 8.764-5.97 19.554-6.363 29.405-1.966l5.105 2.288 2.39-5.04c6.52-13.799 20.678-22.7 36.105-22.7 21.944 0 39.797 17.624 39.797 39.286 0 6.4-1.376 10.296-2.898 15.443 4.237 2.18 4.926 2.573 6.374 3.074 11.768 3.968 19.663 14.585 19.663 26.417 0 15.443-12.928 28.061-28.825 28.061z" fill="#808285" stroke-width="2.779"/>
 <path class="st2" d="m516.97 196.42h-7.242v-4.075h7.243zm0-8.15h-7.242v-4.076h7.243zm0-8.115h-7.242v-4.075h7.243zm0-8.115h-7.242v-4.074h7.243z" fill="#bcbec0" stroke-width="2.779"/>
 <g fill="#f9f9f9" fill-rule="evenodd" stroke-dasharray="5.00002, 8.00006" stroke-linecap="round" stroke-miterlimit="10" stroke-width="10" style="paint-order:stroke fill markers" aria-label="CasildaCompositor">
  <path d="m140.87 212.06q-1.16 0-1.7733 0.86666-0.61333 0.86667-0.61333 2.3733 0 1.52 0.56 2.36 0.57333 0.82667 1.8267 0.82667 0.58666 0 1.16-0.13334 0.58667-0.13333 1.2667-0.37333v1.6933q-0.62667 0.25333-1.24 0.37333t-1.3733 0.12q-1.4667 0-2.4267-0.59999-0.94666-0.61334-1.4-1.7067-0.45333-1.1067-0.45333-2.5733 0-1.44 0.52-2.5467 0.52-1.1067 1.5067-1.7333 1-0.62667 2.44-0.62667 0.70666 0 1.4133 0.18667 0.72 0.17333 1.3733 0.48l-0.65333 1.64q-0.53334-0.25333-1.08-0.44-0.53333-0.18666-1.0533-0.18666z"/>
  <path d="m148.15 212.61q1.4667 0 2.24 0.64 0.78667 0.62667 0.78667 1.9333v4.8533h-1.3867l-0.38666-0.98666h-0.05334q-0.46666 0.58666-0.98666 0.85333-0.52 0.26666-1.4267 0.26666-0.97333 0-1.6133-0.56-0.64-0.57333-0.64-1.7467 0-1.16 0.81333-1.7067 0.81333-0.56 2.44-0.61333l1.2667-0.04v-0.32q0-0.57333-0.30667-0.84-0.29333-0.26666-0.82666-0.26666t-1.04 0.16q-0.50667 0.14666-1.0133 0.37333l-0.65333-1.3467q0.58666-0.30666 1.2933-0.47999 0.72-0.17334 1.4933-0.17334zm0.28 4.08q-0.96 0.02667-1.3333 0.34667-0.37334 0.32-0.37334 0.84 0 0.45333 0.26667 0.65333 0.26667 0.18666 0.69333 0.18666 0.64 0 1.08-0.37333 0.44-0.38666 0.44-1.08v-0.59999z"/>
  <path d="m158.3 217.88q0 1.1067-0.78666 1.7067-0.77334 0.58666-2.32 0.58666-0.76 0-1.3067-0.10666-0.54667-0.09334-1.0933-0.32v-1.64q0.58666 0.26667 1.2667 0.44t1.2 0.17333q0.58666 0 0.82666-0.17333 0.25334-0.17333 0.25334-0.45333 0-0.18667-0.10667-0.33333-0.09333-0.14667-0.42667-0.33334-0.33333-0.18666-1.04-0.47999-0.68-0.29334-1.12-0.57334-0.44-0.29333-0.65333-0.69333-0.21334-0.41333-0.21334-1.0267 0-1.0133 0.78667-1.52 0.78666-0.50666 2.0933-0.50666 0.68 0 1.2933 0.13333t1.2667 0.44l-0.6 1.4267q-0.53333-0.22667-1.0133-0.37333-0.48-0.16-0.97333-0.16-0.88 0-0.88 0.48 0 0.17333 0.10667 0.32 0.12 0.13333 0.44 0.29333 0.33333 0.16 0.97333 0.42667 0.62666 0.25333 1.08 0.53333 0.45333 0.26666 0.69333 0.68 0.25333 0.39999 0.25333 1.0533z"/>
  <path d="m160.85 209.9q0.44 0 0.76 0.21334 0.31999 0.2 0.31999 0.75999 0 0.54667-0.31999 0.76-0.32 0.21333-0.76 0.21333-0.45334 0-0.77333-0.21333-0.30667-0.21333-0.30667-0.76 0-0.55999 0.30667-0.75999 0.31999-0.21334 0.77333-0.21334zm0.98666 2.8533v7.28h-1.9867v-7.28z"/>
  <path d="m165.9 220.04h-1.9867v-10.133h1.9867z"/>
  <path d="m170.29 220.17q-1.2133 0-1.9867-0.94666-0.76-0.96-0.76-2.8133 0-1.8667 0.77333-2.8267 0.77333-0.95999 2.0267-0.95999 0.78667 0 1.2933 0.30666 0.50667 0.30667 0.8 0.76h0.06667q-0.04-0.21333-0.09334-0.61333-0.05333-0.41333-0.05333-0.84v-2.3333h1.9867v10.133h-1.52l-0.38667-0.94666h-0.08q-0.29333 0.45333-0.78666 0.77333-0.49334 0.30666-1.28 0.30666zm0.69333-1.5867q0.82667 0 1.16-0.48 0.33333-0.49333 0.34666-1.4667v-0.21333q0-1.0667-0.33333-1.6267-0.32-0.55999-1.2-0.55999-0.65334 0-1.0267 0.57333-0.37333 0.56-0.37333 1.6267t0.37333 1.6133q0.37333 0.53333 1.0533 0.53333z"/>
  <path d="m179.41 212.61q1.4667 0 2.24 0.64 0.78667 0.62667 0.78667 1.9333v4.8533h-1.3867l-0.38666-0.98666h-0.05333q-0.46667 0.58666-0.98667 0.85333-0.52 0.26666-1.4267 0.26666-0.97333 0-1.6133-0.56-0.64-0.57333-0.64-1.7467 0-1.16 0.81333-1.7067 0.81333-0.56 2.44-0.61333l1.2667-0.04v-0.32q0-0.57333-0.30667-0.84-0.29333-0.26666-0.82666-0.26666t-1.04 0.16q-0.50666 0.14666-1.0133 0.37333l-0.65333-1.3467q0.58666-0.30666 1.2933-0.47999 0.72-0.17334 1.4933-0.17334zm0.28 4.08q-0.96 0.02667-1.3333 0.34667t-0.37333 0.84q0 0.45333 0.26666 0.65333 0.26667 0.18666 0.69333 0.18666 0.64 0 1.08-0.37333 0.44-0.38666 0.44-1.08v-0.59999z"/>
  <path d="m188.67 212.06q-1.16 0-1.7733 0.86666-0.61333 0.86667-0.61333 2.3733 0 1.52 0.56 2.36 0.57333 0.82667 1.8267 0.82667 0.58667 0 1.16-0.13334 0.58667-0.13333 1.2667-0.37333v1.6933q-0.62666 0.25333-1.24 0.37333-0.61334 0.12-1.3733 0.12-1.4667 0-2.4267-0.59999-0.94667-0.61334-1.4-1.7067-0.45333-1.1067-0.45333-2.5733 0-1.44 0.52-2.5467 0.52-1.1067 1.5067-1.7333 1-0.62667 2.44-0.62667 0.70667 0 1.4133 0.18667 0.72 0.17333 1.3733 0.48l-0.65333 1.64q-0.53333-0.25333-1.08-0.44-0.53333-0.18666-1.0533-0.18666z"/>
  <path d="m199.58 216.38q0 1.8133-0.96 2.8-0.94666 0.98666-2.5867 0.98666-1.0133 0-1.8133-0.44-0.78667-0.43999-1.24-1.28-0.45333-0.85333-0.45333-2.0667 0-1.8133 0.94666-2.7867t2.6-0.97333q1.0267 0 1.8133 0.43999 0.78667 0.44 1.24 1.28 0.45333 0.82667 0.45333 2.04zm-5.0266 0q0 1.08 0.34666 1.64 0.36 0.54667 1.16 0.54667 0.78667 0 1.1333-0.54667 0.36-0.56 0.36-1.64 0-1.08-0.36-1.6133-0.34666-0.54667-1.1467-0.54667-0.78667 0-1.1467 0.54667-0.34666 0.53333-0.34666 1.6133z"/>
  <path d="m209.77 212.62q1.24 0 1.8667 0.63999 0.63999 0.62667 0.63999 2.0267v4.7466h-1.9867v-4.2533q0-1.5733-1.0933-1.5733-0.78666 0-1.12 0.56-0.33333 0.56-0.33333 1.6133v3.6533h-1.9867v-4.2533q0-1.5733-1.0933-1.5733-0.82666 0-1.1467 0.62666-0.30667 0.61334-0.30667 1.7733v3.4267h-1.9867v-7.28h1.52l0.26667 0.93333h0.10667q0.33333-0.56 0.90666-0.81333 0.58667-0.25333 1.2133-0.25333 0.8 0 1.36 0.26666 0.56 0.25333 0.85333 0.8h0.17333q0.33333-0.56 0.92-0.81333 0.6-0.25333 1.2267-0.25333z"/>
  <path d="m218.37 212.62q1.2267 0 1.9867 0.95999 0.76 0.94667 0.76 2.8t-0.78667 2.8267q-0.78666 0.95999-2.0133 0.95999-0.78667 0-1.2533-0.28-0.46667-0.29333-0.76-0.65333h-0.10667q0.10667 0.56 0.10667 1.0667v2.9333h-1.9867v-10.48h1.6133l0.27999 0.94666h0.09334q0.29333-0.44 0.78666-0.75999 0.49333-0.32 1.28-0.32zm-0.64 1.5867q-0.77333 0-1.0933 0.48-0.30667 0.48-0.33333 1.4667v0.21333q0 1.0533 0.30666 1.6267 0.32 0.55999 1.1467 0.55999 0.68 0 0.99999-0.55999 0.33334-0.57334 0.33334-1.64 0-2.1467-1.36-2.1467z"/>
  <path d="m229.37 216.38q0 1.8133-0.95999 2.8-0.94667 0.98666-2.5867 0.98666-1.0133 0-1.8133-0.44-0.78667-0.43999-1.24-1.28-0.45333-0.85333-0.45333-2.0667 0-1.8133 0.94666-2.7867 0.94667-0.97333 2.6-0.97333 1.0267 0 1.8133 0.43999 0.78666 0.44 1.24 1.28 0.45333 0.82667 0.45333 2.04zm-5.0266 0q0 1.08 0.34667 1.64 0.36 0.54667 1.16 0.54667 0.78667 0 1.1333-0.54667 0.36-0.56 0.36-1.64 0-1.08-0.36-1.6133-0.34666-0.54667-1.1467-0.54667-0.78666 0-1.1467 0.54667-0.34667 0.53333-0.34667 1.6133z"/>
  <path d="m236.09 217.88q0 1.1067-0.78667 1.7067-0.77333 0.58666-2.32 0.58666-0.76 0-1.3067-0.10666-0.54667-0.09334-1.0933-0.32v-1.64q0.58666 0.26667 1.2667 0.44t1.2 0.17333q0.58666 0 0.82666-0.17333 0.25333-0.17333 0.25333-0.45333 0-0.18667-0.10666-0.33333-0.09334-0.14667-0.42667-0.33334-0.33333-0.18666-1.04-0.47999-0.67999-0.29334-1.12-0.57334-0.44-0.29333-0.65333-0.69333-0.21334-0.41333-0.21334-1.0267 0-1.0133 0.78667-1.52 0.78666-0.50666 2.0933-0.50666 0.67999 0 1.2933 0.13333 0.61333 0.13333 1.2667 0.44l-0.6 1.4267q-0.53333-0.22667-1.0133-0.37333-0.48-0.16-0.97333-0.16-0.88 0-0.88 0.48 0 0.17333 0.10667 0.32 0.12 0.13333 0.44 0.29333 0.33333 0.16 0.97333 0.42667 0.62666 0.25333 1.08 0.53333 0.45334 0.26666 0.69334 0.68 0.25333 0.39999 0.25333 1.0533z"/>
  <path d="m238.63 209.9q0.44 0 0.75999 0.21334 0.32 0.2 0.32 0.75999 0 0.54667-0.32 0.76-0.31999 0.21333-0.75999 0.21333-0.45334 0-0.77333-0.21333-0.30667-0.21333-0.30667-0.76 0-0.55999 0.30667-0.75999 0.31999-0.21334 0.77333-0.21334zm0.98666 2.8533v7.28h-1.9867v-7.28z"/>
  <path d="m244.77 218.58q0.33333 0 0.63999-0.06667 0.30667-0.06666 0.61334-0.16v1.48q-0.32 0.13333-0.8 0.22667-0.46667 0.10666-1.0267 0.10666-0.65333 0-1.1733-0.21333-0.50666-0.21333-0.81333-0.73333-0.29333-0.53333-0.29333-1.4667v-3.5067h-0.94666v-0.84l1.0933-0.66666 0.57333-1.5333h1.2667v1.5467h2.04v1.4933h-2.04v3.5067q0 0.41333 0.24 0.62666 0.24 0.2 0.62667 0.2z"/>
  <path d="m254.1 216.38q0 1.8133-0.96 2.8-0.94667 0.98666-2.5867 0.98666-1.0133 0-1.8133-0.44-0.78667-0.43999-1.24-1.28-0.45333-0.85333-0.45333-2.0667 0-1.8133 0.94666-2.7867 0.94667-0.97333 2.6-0.97333 1.0267 0 1.8133 0.43999 0.78666 0.44 1.24 1.28 0.45334 0.82667 0.45334 2.04zm-5.0267 0q0 1.08 0.34667 1.64 0.36 0.54667 1.16 0.54667 0.78667 0 1.1333-0.54667 0.35999-0.56 0.35999-1.64 0-1.08-0.35999-1.6133-0.34667-0.54667-1.1467-0.54667-0.78666 0-1.1467 0.54667-0.34667 0.53333-0.34667 1.6133z"/>
  <path d="m259.81 212.62q0.14667 0 0.34666 0.01333 0.2 0.01333 0.32 0.04l-0.14666 1.8667q-0.09334-0.02667-0.28-0.04-0.17333-0.02667-0.30667-0.02667-0.50666 0-0.97333 0.18667-0.46666 0.17333-0.76 0.57333-0.28 0.4-0.28 1.0933v3.7067h-1.9867v-7.28h1.5067l0.29333 1.2267h0.09333q0.32-0.56 0.88-0.96 0.56-0.39999 1.2933-0.39999z"/>
 </g>
 <g fill="#808285" fill-rule="evenodd" stroke-dasharray="5.00002, 8.00007" stroke-linecap="round" stroke-miterlimit="10" stroke-width="10" style="paint-order:stroke fill markers" aria-label="unix socket">
  <path d="m438.4 268.99v5.5765h-1.1643l-0.20427-0.71494h-0.0817q-0.26555 0.42896-0.73536 0.62302-0.4596 0.19405-0.98048 0.19405-0.89877 0-1.4401-0.48003-0.54131-0.49023-0.54131-1.5626v-3.6359h1.5218v3.258q0 0.59237 0.21448 0.89877t0.68429 0.3064q0.69451 0 0.94984-0.46982 0.25533-0.48002 0.25533-1.3686v-2.6248z"/>
  <path d="m443.16 268.89q0.89877 0 1.4401 0.49024 0.54131 0.48002 0.54131 1.5524v3.6359h-1.5218v-3.258q0-0.60258-0.21448-0.89877-0.21448-0.3064-0.68429-0.3064-0.69451 0-0.94984 0.48003-0.25533 0.46981-0.25533 1.3584v2.6248h-1.5218v-5.5765h1.1643l0.20427 0.71494h0.0817q0.26555-0.42896 0.72515-0.62302 0.46981-0.19405 0.99069-0.19405z"/>
  <path d="m447.47 266.8q0.33704 0 0.58216 0.16341 0.24511 0.1532 0.24511 0.58216 0 0.41874-0.24511 0.58216-0.24512 0.16341-0.58216 0.16341-0.34726 0-0.59237-0.16341-0.23491-0.16342-0.23491-0.58216 0-0.42896 0.23491-0.58216 0.24511-0.16341 0.59237-0.16341zm0.75578 2.1856v5.5765h-1.5218v-5.5765z"/>
  <path d="m450.96 271.72-1.7975-2.727h1.726l1.0826 1.7771 1.0928-1.7771h1.726l-1.818 2.727 1.8997 2.8495h-1.726l-1.1745-1.9099-1.1745 1.9099h-1.726z"/>
  <path d="m437.17 283.94q0 0.8477-0.60258 1.3073-0.59238 0.44938-1.7771 0.44938-0.58216 0-1.0009-0.0817-0.41875-0.0715-0.83749-0.24512v-1.2562q0.44938 0.20427 0.97026 0.33704t0.9192 0.13277q0.44938 0 0.63322-0.13277 0.19405-0.13277 0.19405-0.34725 0-0.14299-0.0817-0.25533-0.07149-0.11235-0.32683-0.25534-0.25533-0.14298-0.79663-0.36768-0.52088-0.22469-0.85792-0.43917-0.33704-0.22469-0.50045-0.53109-0.16342-0.31661-0.16342-0.78642 0-0.77621 0.60259-1.1643 0.60258-0.3881 1.6035-0.3881 0.52087 0 0.99069 0.10213 0.46981 0.10213 0.97026 0.33704l-0.4596 1.0928q-0.40853-0.17363-0.77621-0.28597-0.36768-0.12256-0.74557-0.12256-0.67408 0-0.67408 0.36768 0 0.13277 0.08171 0.24512 0.09192 0.10213 0.33704 0.22469 0.25533 0.12256 0.74557 0.32682 0.48002 0.19406 0.82728 0.40854 0.34725 0.20426 0.53109 0.52087 0.19405 0.3064 0.19405 0.80686z"/>
  <path d="m443.42 282.8q0 1.389-0.73536 2.1448-0.72515 0.75578-1.9814 0.75578-0.77621 0-1.389-0.33704-0.60258-0.33703-0.94984-0.98047-0.34725-0.65365-0.34725-1.5831 0-1.389 0.72515-2.1346 0.72514-0.74557 1.9916-0.74557 0.78642 0 1.389 0.33703 0.60258 0.33704 0.94983 0.98048 0.34726 0.63323 0.34726 1.5626zm-3.8504 0q0 0.82727 0.26555 1.2562 0.27576 0.41875 0.88856 0.41875 0.60258 0 0.86813-0.41875 0.27576-0.42896 0.27576-1.2562 0-0.82728-0.27576-1.2358-0.26555-0.41875-0.87835-0.41875-0.60258 0-0.87834 0.41875-0.26555 0.40853-0.26555 1.2358z"/>
  <path d="m446.95 285.7q-1.246 0-1.9303-0.68429-0.67408-0.6945-0.67408-2.1754 0-1.0213 0.34725-1.6648t0.96005-0.94984q0.62301-0.30639 1.4299-0.30639 0.57195 0 0.99069 0.11234 0.42896 0.11235 0.74557 0.26555l-0.44938 1.1745q-0.35747-0.14299-0.67408-0.23491-0.3064-0.09192-0.6128-0.09192-1.1847 0-1.1847 1.6852 0 0.83749 0.3064 1.2358 0.31661 0.39831 0.87834 0.39831 0.48003 0 0.84771-0.12256 0.36768-0.13277 0.71493-0.35746v1.2971q-0.34725 0.22469-0.73536 0.31661-0.37789 0.10213-0.96005 0.10213z"/>
  <path d="m451.45 281.31q0 0.31662-0.03063 0.63323-0.02043 0.3064-0.05107 0.62301h0.02043q0.15319-0.21448 0.31661-0.42896 0.16341-0.22469 0.34725-0.41874l1.5626-1.6954h1.7158l-2.2163 2.4206 2.3491 3.1559h-1.7567l-1.6035-2.2571-0.65366 0.52088v1.7363h-1.5218v-7.7621h1.5218z"/>
  <path d="m458.56 279.92q1.1541 0 1.8282 0.66386 0.67408 0.65365 0.67408 1.869v0.73536h-3.5951q0.02042 0.64344 0.37789 1.0111 0.36768 0.36768 1.0111 0.36768 0.54131 0 0.98048-0.10214 0.43917-0.11234 0.90898-0.33704v1.1745q-0.40853 0.20427-0.86813 0.29619-0.44938 0.10213-1.0928 0.10213-0.83749 0-1.4809-0.3064-0.64344-0.31661-1.0111-0.94983-0.36768-0.63323-0.36768-1.5933 0-0.98047 0.32682-1.6239 0.33704-0.65365 0.92941-0.98048 0.59237-0.32682 1.3788-0.32682zm0.01021 1.0826q-0.43917 0-0.73536 0.28597-0.28597 0.28597-0.33703 0.88855h2.1346q-0.01021-0.51066-0.26554-0.83749-0.25533-0.33703-0.79664-0.33703z"/>
  <path d="m464.65 284.48q0.25533 0 0.49024-0.05107 0.23491-0.05106 0.46981-0.12256v1.1337q-0.24512 0.10213-0.6128 0.17363-0.35746 0.0817-0.78642 0.0817-0.50045 0-0.89877-0.16341-0.38811-0.16341-0.62301-0.56173-0.22469-0.40853-0.22469-1.1235v-2.6861h-0.72515v-0.64344l0.83749-0.51066 0.43917-1.1745h0.97027v1.1847h1.5626v1.1439h-1.5626v2.6861q0 0.31661 0.18384 0.48002 0.18384 0.1532 0.48002 0.1532z"/>
 </g>
</svg>
