<?xml version="1.0" encoding="UTF-8"?>
<!-- Created with Inkscape (http://www.inkscape.org/) -->
<svg version="1.1" viewBox="0 0 800 421" xmlns="http://www.w3.org/2000/svg">
 <defs>
  <filter id="filter15" x="-.007" y="-.012" width="1.02" height="1.03" style="color-interpolation-filters:sRGB">
   <feFlood flood-color="rgb(210,210,210)" in="SourceGraphic" result="flood"/>
   <feGaussianBlur in="SourceGraphic" result="blur" stdDeviation="0.500000"/>
   <feOffset dx="0.500000" dy="0.500000" in="blur" result="offset"/>
   <feComposite in="flood" in2="offset" operator="in" result="comp1"/>
   <feComposite in="SourceGraphic" in2="comp1" result="comp2"/>
  </filter>
  <filter id="filter18" x="-.0101" y="-.0135" width="1.02" height="1.03" style="color-interpolation-filters:sRGB">
   <feFlood flood-color="rgb(210,210,210)" in="SourceGraphic" result="flood"/>
   <feGaussianBlur in="SourceGraphic" result="blur" stdDeviation="0.500000"/>
   <feOffset dx="0.500000" dy="0.500000" in="blur" result="offset"/>
   <feComposite in="flood" in2="offset" operator="in" result="comp1"/>
   <feComposite in="SourceGraphic" in2="comp1" result="comp2"/>
  </filter>
  <filter id="filter20" x="-.0101" y="-.0114" width="1.02" height="1.03" style="color-interpolation-filters:sRGB">
   <feFlood flood-color="rgb(210,210,210)" in="SourceGraphic" result="flood"/>
   <feGaussianBlur in="SourceGraphic" result="blur" stdDeviation="0.500000"/>
   <feOffset dx="0.500000" dy="0.500000" in="blur" result="offset"/>
   <feComposite in="flood" in2="offset" operator="in" result="comp1"/>
   <feComposite in="SourceGraphic" in2="comp1" result="comp2"/>
  </filter>
  <filter id="filter22" x="-.00318" y="-.00294" width="1.01" height="1.01" style="color-interpolation-filters:sRGB">
   <feFlood flood-color="rgb(210,210,210)" in="SourceGraphic" result="flood"/>
   <feGaussianBlur in="SourceGraphic" result="blur" stdDeviation="0.500000"/>
   <feOffset dx="0.500000" dy="0.500000" in="blur" result="offset"/>
   <feComposite in="flood" in2="offset" operator="in" result="comp1"/>
   <feComposite in="SourceGraphic" in2="comp1" result="comp2"/>
  </filter>
 </defs>
 <g transform="translate(-19.3 -11.7)">
  <g style="filter:url(#filter18)">
   <path d="m24.7 93.5v23.2h.0126c-.414 1.58 9.05 3.07 25.2 3.98 12.9.725 28.9 1.01 44.4.789 15.5-.219 29.3-.923 38.4-1.96 7.22-.824 11-1.81 10.7-2.82h.012v-23.2z" fill="#ececec" stroke-width="2.28"/>
   <path d="m108 90.4c14.4.359 25.7 1.03 31.4 1.86 5.68.83 5.29 1.75-1.09 2.57-6.34.814-18.1 1.45-32.8 1.78-14.7.322-31 .302-45.4-.0575-29.9-.742-43.5-2.71-30.5-4.4 6.3-.816 18.1-1.46 32.8-1.78 14.7-.324 31-.305 45.5.053" fill="#999999" stroke-linecap="round" stroke-linejoin="round" stroke-width=".376" paint-order="fill markers stroke"/>
   <path d="m24.7 64.9v23.2h.0126c-.414 1.58 9.05 3.07 25.2 3.98 12.9.724 28.9 1.01 44.4.789 15.5-.219 29.3-.924 38.4-1.96 7.22-.824 11-1.81 10.7-2.81h.012v-23.2z" fill="#ececec" stroke-width="2.28"/>
   <path d="m108 61.8c14.4.359 25.7 1.03 31.4 1.86 5.68.83 5.29 1.75-1.09 2.57-6.34.814-18.1 1.45-32.8 1.78-14.7.322-31 .302-45.4-.0575-29.9-.742-43.5-2.71-30.5-4.4 6.3-.816 18.1-1.46 32.8-1.78 14.7-.324 31-.305 45.5.053" fill="#999999" stroke-linecap="round" stroke-linejoin="round" stroke-width=".376" paint-order="fill markers stroke"/>
   <path d="m24.7 36.1v23.2h.0126c-.414 1.58 9.05 3.07 25.2 3.98 12.9.724 28.9 1.01 44.4.789 15.5-.219 29.3-.924 38.4-1.96 7.22-.824 11-1.81 10.7-2.81h.012v-23.2z" fill="#ececec" stroke-width="2.28"/>
   <path d="m108 33c14.4.359 25.7 1.03 31.4 1.86 5.68.83 5.29 1.75-1.09 2.57-6.34.814-18.1 1.45-32.8 1.78-14.7.322-31 .302-45.4-.0575-14.5-.356-25.8-1.02-31.5-1.85-5.73-.83-5.38-1.75.988-2.57 6.3-.816 18.1-1.46 32.8-1.78 14.7-.324 31-.305 45.5.0531" fill="#999999" stroke-linecap="round" stroke-linejoin="round" stroke-width=".376" paint-order="fill markers stroke"/>
  </g>
  <path d="m231 174h113c1.57 0 2.82 1.12 2.82 2.5v100c0 1.39-1.26 2.5-2.82 2.5h-113c-1.57 0-2.82-1.12-2.82-2.5v-100c0-1.39 1.26-2.5 2.82-2.5z" fill="#ececec" filter="url(#h)" style="filter:url(#filter20);stroke-width:4.51"/>
  <path d="m296 174 2.02 3.55a56.5 50.2 0 00-.344.276 56.5 50.2 0 00-5.11 5.29l-9.81-3.01a66.5 58.8 0 00-4.97 7.64l7.78 5.97a56.5 50.2 0 00-2.64 6.96l-10.4.538a66.5 58.8 0 00-1.24 8.77l9.77 2.86a56.5 50.2 0 00.597 7.33l-9.36 4.02a66.5 58.8 0 002.65 8.5l10.2-.66a56.5 50.2 0 003.74 6.56l-6.92 6.87a66.5 58.8 0 006.1 6.96l9.18-4.08a56.5 50.2 0 00.317.308 56.5 50.2 0 005.97 4.52l-3.41 8.68a66.5 58.8 0 008.64 4.39l6.74-6.92a56.5 50.2 0 007.87 2.34l.601 9.18a66.5 58.8 0 009.9 1.1l3.24-8.64a56.5 50.2 0 008.32-.525l1.06 1.93v-15.6a41.6 36.8 0 01-38.3-9.9 41.6 36.8 0 010-52 41.6 36.8 0 0138.3-9.9v-.841c0-1.39-1.27-2.5-2.83-2.5z" fill="#dddddd" style="stroke-width:10.3"/>
  <path d="m236 204-6.74 6.92a62 62 0 00-1.05-.375v65.6c0 1.39 1.26 2.51 2.83 2.51h31.2l-2.92-2.23c1.08-2.26 1.96-4.61 2.65-6.96l10.4-.534c.665-2.89 1.09-5.79 1.25-8.77l-9.77-2.86a44.4 44.4 0 00-.597-7.33l9.36-4.02a53.8 53.8 0 00-2.65-8.5l-10.2.66a47.9 47.9 0 00-3.74-6.6l6.92-6.87a60.6 60.6 0 00-6.1-6.96l-9.18 4.09a55.6 55.6 0 00-.317-.308c-1.87-1.63-3.86-3.14-5.97-4.52l3.41-8.68a69.2 69.2 0 00-8.64-4.39z" fill="#f9f9f9" style="stroke-width:10.3"/>
  <path class="st6" d="m803 425h-360c-4.88 0-8.82-3.43-8.82-7.6v-393c0-4.19 3.98-7.6 8.82-7.6h360c4.84 0 8.82 3.43 8.82 7.6v393c0 4.19-3.97 7.6-8.82 7.6z" fill="url(#b)" filter="url(#g)" stroke="url(#f)" stroke-width="2.49" style="fill:#f2f2f2;filter:url(#filter22);stroke-width:.855;stroke:url(#f)"/>
  <path d="m455 34q0 1.75-1.05 2.64-1.04.882-3.14.886h-4.51v-11.9h4.18q2.02 0 3.17.805 1.15.796 1.15 2.47 0 .814-.407 1.49-.398.683-1.29 1.03 1.04.262 1.47 1.02.439.755.439 1.61zm-5.97-6.42v2.99h1.42q1.61 0 1.61-1.47 0-1.49-1.51-1.52zm3.23 6.42q0-1.61-1.29-1.66h-1.94v3.2h1.74q.8 0 1.14-.434.353-.443.353-1.11zm9.36 3.55q-.14-.28-.226-.692-.714.855-1.91.855-1.22 0-2.07-.724-.846-.724-.846-1.93 0-1.36.981-2.14.986-.8 3.01-.8h.705v-.714q0-1.09-.913-1.09-.981 0-.981 1.02h-2.63q0-1.17.995-1.99.999-.837 2.69-.837 1.49 0 2.48.687.995.692.995 2.25v4.17q.0181 1.18.362 1.8v.136zm-1.54-1.67q.425 0 .733-.158.307-.154.452-.366v-1.85h-.62q-.742 0-1.09.407-.353.398-.353.981 0 .986.882.986zm10.2-.714q0-.344-.398-.61-.398-.267-1.33-.62-1.37-.479-2.12-1.09-.733-.61-.733-1.67 0-1.11.918-1.89.922-.787 2.56-.787 1.69 0 2.67.769.972.769.972 2.01h-2.63q0-1.09-1.02-1.09-.95 0-.95.868 0 .344.362.583.375.24 1.34.588 1.51.502 2.21 1.12.714.615.714 1.72 0 1.18-.995 1.91-.995.733-2.67.733-1.82 0-2.79-.913-.954-.918-.954-2h2.49q.0181.724.38.968.362.249.927.249 1.06 0 1.06-.846zm11.7 1.22q-.398.475-1.26.904-.855.425-2.14.425-2.05 0-3.17-1.09-1.12-1.09-1.12-3.01v-.733q0-2.16 1.06-3.26 1.07-1.12 2.96-1.12 1.89 0 2.85 1.06.959 1.06.977 3.18v1.14h-5.2q.0452 1.06.511 1.49.475.416 1.32.416 1.32 0 2.19-.805zm-3.69-5.97q-.687 0-.999.439-.308.425-.362 1.39h2.62v-.208q-.0181-.805-.294-1.21-.28-.407-.968-.407z" style="fill:#828487;font-variant-caps:normal;font-variant-east-asian:normal;font-variant-ligatures:normal;font-variant-numeric:normal;stroke-width:2.28"/>
  <path d="m474 47.8h50.9c6.04-.0135 10.9 4.9 10.9 10.9v44.9c.0135 6.04-4.9 10.9-10.9 10.9h-50.9c-6.04.0135-10.9-4.9-10.9-10.9v-44.9c-.00906-6.04 4.9-10.9 10.9-10.9z" fill="#828487" stroke-width="3.63" style="stroke-width:16.4"/>
  <path d="m468 54.8v1.57h2.12v.705h-2.12v3.01q0 .678.208.868.213.194.855.194h1.05v.76h-1.05q-1.19 0-1.65-.389-.452-.398-.452-1.43v-3.01h-.755v-.705h.755v-1.57zm6.1 7.64q-.439.986-.85 1.29-.416.303-1.11.303h-.823v-.764h.606q.425 0 .66-.176.235-.181.52-.841l.181-.416-2.53-5.43h1.09l1.95 4.33 1.96-4.33h1.09zm5.16-1.35v2.94h-1.04v-7.64h1.04v.841q.321-.497.814-.733.497-.24 1.18-.24 1.14 0 1.85.8.71.8.71 2.1 0 1.3-.714 2.11-.71.8-1.85.8-.687 0-1.18-.24-.493-.24-.814-.733zm3.5-1.93q0-1-.466-1.57-.466-.574-1.28-.574t-1.29.574q-.461.565-.461 1.57t.461 1.58q.47.565 1.29.565.818 0 1.28-.565.466-.574.466-1.58zm8.14-.231v.443h-4.7q.0633.941.633 1.43.579.488 1.6.488.588 0 1.14-.127.561-.127 1.11-.384v.859q-.552.208-1.13.317-.579.109-1.18.109-1.49 0-2.37-.769-.873-.773-.873-2.09 0-1.36.828-2.15.832-.8 2.24-.8 1.27 0 1.99.724.737.714.737 1.95zm-1.03-.271q-.0136-.742-.475-1.18-.461-.448-1.22-.448-.859 0-1.38.43-.516.43-.592 1.21zm-21.8 21.5v1.57h2.12v.71h-2.12v3q0 .678.208.873.213.19.855.19h1.05v.764h-1.05q-1.19 0-1.65-.393-.452-.393-.452-1.43v-3h-.755v-.71h.755v-1.57zm6.1 7.6q-.439.99-.85 1.29-.412.303-1.11.298h-.823v-.76h.606q.425 0 .66-.181.235-.181.52-.837l.181-.416-2.53-5.43h1.09l1.95 4.33 1.96-4.33h1.09zm5.16-1.34v2.94h-1.04v-7.64h1.04v.837q.321-.493.814-.728.497-.244 1.18-.244 1.14 0 1.85.8.71.8.71 2.11 0 1.3-.714 2.1-.71.8-1.85.8-.687 0-1.18-.235-.493-.244-.814-.737zm3.5-1.93q0-1-.466-1.57-.466-.574-1.28-.574-.814 0-1.29.574-.461.57-.461 1.57t.461 1.57q.47.57 1.29.57.818 0 1.28-.57.466-.57.466-1.57zm8.14-.231v.443h-4.7q.0633.941.633 1.43.579.488 1.6.488.588 0 1.14-.127.561-.131 1.11-.389v.859q-.552.208-1.13.317-.579.109-1.18.113-1.49 0-2.37-.773-.873-.769-.873-2.08 0-1.36.828-2.16.832-.8 2.24-.8 1.27 0 1.99.724.737.714.737 1.95zm-1.03-.271q-.0136-.742-.475-1.19-.461-.443-1.22-.443-.859 0-1.38.43-.516.43-.592 1.21zm7.46 4.93v.705h-5.97v-.705zm.959-7.24h1.03v5.52h-1.03zm0-2.16h1.03v1.15h-1.03zm7.28 2.99v-2.99h1.03v7.69h-1.03v-.828q-.326.497-.823.737-.488.235-1.18.235-1.13 0-1.85-.8-.71-.8-.71-2.1 0-1.31.71-2.11.719-.8 1.85-.8.692 0 1.18.244.497.235.823.728zm-3.5 1.94q0 .999.466 1.57.47.57 1.28.57t1.28-.57q.47-.574.47-1.57 0-1-.47-1.57-.466-.574-1.28-.574t-1.28.574q-.466.57-.466 1.57zm-34.1 14.6v2.93h-1.03v-7.64h1.03v.841q.326-.497.814-.733.497-.24 1.19-.24 1.14 0 1.85.8.714.8.714 2.1 0 1.31-.714 2.11-.71.8-1.85.8-.683 0-1.18-.24-.497-.24-.814-.733zm3.5-1.94q0-1-.47-1.57-.461-.574-1.28-.574-.819 0-1.28.574-.466.565-.466 1.57 0 1 .466 1.58.47.57 1.28.57t1.28-.57q.47-.574.47-1.58zm5.61-.0181q-1.24 0-1.73.253-.479.249-.479.859 0 .484.362.769.362.285.981.285.855 0 1.37-.534.52-.543.52-1.43v-.203zm2.05-.375v3.16h-1.03v-.837q-.353.502-.877.746-.525.235-1.28.235-.963 0-1.53-.475-.561-.479-.561-1.28 0-.936.701-1.41.71-.475 2.11-.475h1.45v-.0904q0-.629-.47-.968-.466-.348-1.31-.348-.534 0-1.04.113-.506.113-.981.344v-.841q.565-.194 1.09-.285.534-.0995 1.04-.0995 1.36 0 2.03.62.669.62.674 1.89zm5.74-1.53q-.176-.0904-.38-.127-.204-.0452-.452-.0452-.868 0-1.34.502-.461.497-.461 1.44v2.91h-1.04v-5.52h1.04v.859q.321-.502.841-.746.52-.244 1.27-.244.104 0 .231.0136.131.00904.285.0362zm6.2 1.7v.439h-4.75q.0679.941.638 1.43.574.493 1.6.493.588 0 1.14-.131.561-.127 1.11-.384v.859q-.556.208-1.14.317-.579.109-1.18.109-1.5 0-2.37-.769-.873-.769-.873-2.09 0-1.36.828-2.15.832-.8 2.24-.8 1.27 0 2 .724.737.714.737 1.95zm-1.03-.271q-.00903-.746-.475-1.19-.457-.448-1.22-.448-.859 0-1.38.43-.516.43-.592 1.21zm7.91-.0769v3.34h-1.03v-3.31q0-.787-.348-1.18-.344-.389-1.04-.389-.832 0-1.31.466-.479.47-.479 1.28v3.12h-1.04v-5.52h1.04v.859q.366-.497.864-.746.502-.244 1.16-.244 1.08 0 1.63.588.556.592.556 1.74zm3.06-3.77v1.57h2.12v.71h-2.12v3q0 .678.208.873.213.19.855.19h1.05v.764h-1.05q-1.19 0-1.65-.393-.452-.393-.452-1.43v-3h-.751v-.71h.751v-1.57zm8.23 8.77v.705h-5.92v-.705zm.963-7.24h1.03v5.52h-1.03zm0-2.15h1.03v1.15h-1.03zm7.28 2.99v-2.99h1.03v7.69h-1.03v-.828q-.321.497-.819.737-.493.235-1.18.235-1.14 0-1.85-.8-.705-.8-.705-2.1 0-1.31.71-2.11.714-.8 1.85-.8.692 0 1.18.244.497.235.819.728zm-3.5 1.94q0 .999.461 1.57.47.57 1.28.57t1.29-.57q.466-.574.466-1.57 0-1-.466-1.57-.47-.574-1.29-.574-.819 0-1.28.574-.461.57-.461 1.57z" style="fill:#f9f9f9;stroke-width:2.28"/>
  <path d="m601 47.4h58.6c6.04-.00904 10.9 4.9 10.9 10.9v45.2c.0136 6.04-4.9 10.9-10.9 10.9h-58.6c-6.04.00904-10.9-4.9-10.9-10.9v-45.2c-.00906-6.04 4.9-10.9 10.9-10.9z" fill="#828487" stroke-width="3.63" style="stroke-width:16.4"/>
  <path d="m595 60.6v2.94h-1.03v-7.64h1.03v.841q.326-.497.814-.733.497-.24 1.19-.24 1.14 0 1.85.8.714.8.714 2.1 0 1.3-.714 2.11-.71.8-1.85.8-.683 0-1.18-.24-.493-.24-.814-.733zm3.5-1.93q0-1-.47-1.57-.461-.574-1.28-.574-.818 0-1.28.574-.466.565-.466 1.57t.466 1.58q.47.565 1.28.565.814 0 1.28-.565.47-.574.47-1.58zm6.38-1.92q-.172-.0904-.38-.127-.204-.0452-.452-.0452-.868 0-1.34.502-.461.497-.461 1.44v2.92h-1.04v-5.52h1.04v.859q.321-.502.841-.746.52-.244 1.27-.244.104 0 .235.0136.127.00905.285.0362zm3.26-.213q-.828 0-1.31.574-.479.57-.479 1.56 0 .99.475 1.57.479.565 1.31.565.823 0 1.3-.57.479-.574.479-1.56 0-.981-.479-1.56-.479-.579-1.3-.579zm0-.769q1.34 0 2.11.769.764.769.769 2.13 0 1.36-.769 2.13-.769.773-2.11.773-1.35 0-2.11-.769-.76-.778-.76-2.14 0-1.36.76-2.13.769-.769 2.11-.769zm5.56 4.84v2.94h-1.03v-7.64h1.03v.841q.326-.497.814-.733.497-.24 1.19-.24 1.14 0 1.85.8.714.8.714 2.1 0 1.3-.714 2.11-.71.8-1.85.8-.683 0-1.18-.24-.493-.24-.814-.733zm3.5-1.93q0-1-.47-1.57-.461-.574-1.28-.574-.818 0-1.28.574-.466.565-.466 1.57 0 1 .466 1.58.47.565 1.28.565.814 0 1.28-.565.47-.574.47-1.58zm8.14-.231v.443h-4.7q.0633.941.633 1.43.579.488 1.6.488.588 0 1.14-.127.561-.127 1.11-.384v.859q-.552.208-1.14.317-.583.109-1.18.109-1.5 0-2.38-.769-.873-.773-.873-2.09 0-1.36.828-2.15.832-.8 2.24-.8 1.26 0 1.99.724.742.714.742 1.95zm-1.03-.271q-.0136-.742-.475-1.18-.461-.448-1.22-.448-.859 0-1.38.43-.516.43-.592 1.21zm6.33-1.42q-.172-.0904-.38-.127-.199-.0452-.448-.0452-.868 0-1.34.502-.466.497-.466 1.44v2.92h-1.03v-5.52h1.03v.859q.326-.502.846-.746.52-.244 1.27-.244.104 0 .231.0136.127.00904.285.0362zm2.09-2.42v1.57h2.13v.705h-2.13v3.01q0 .678.213.868.208.194.855.194h1.05v.76h-1.05q-1.19 0-1.65-.389-.452-.398-.452-1.43v-3.01h-.755v-.705h.755v-1.57zm6.06 7.64q-.434.986-.85 1.29-.412.303-1.11.303h-.818v-.764h.601q.425 0 .66-.176.235-.181.52-.841l.181-.416-2.53-5.43h1.09l1.96 4.33 1.95-4.33h1.09zm-43.8 24v2.94h-1.03v-7.64h1.03v.837q.326-.493.814-.728.497-.244 1.19-.244 1.14 0 1.85.8.714.8.714 2.11 0 1.3-.714 2.1-.71.8-1.85.8-.683 0-1.18-.235-.493-.244-.814-.737zm3.5-1.93q0-1-.47-1.57-.461-.574-1.28-.574-.818 0-1.28.574-.466.57-.466 1.57 0 1 .466 1.57.47.57 1.28.57t1.28-.57q.47-.57.47-1.57zm6.38-1.92q-.172-.0904-.38-.131-.204-.0452-.452-.0452-.868 0-1.34.506-.461.497-.461 1.44v2.92h-1.04v-5.52h1.04v.859q.321-.506.841-.746.52-.249 1.27-.249.104 0 .235.0136l.285.0362zm3.26-.217q-.828 0-1.31.579-.479.565-.479 1.56 0 .995.475 1.56.479.57 1.31.57.823 0 1.3-.574.479-.57.479-1.56 0-.986-.479-1.56-.479-.579-1.3-.579zm0-.769q1.34 0 2.11.769.769.773.769 2.14 0 1.36-.769 2.13-.769.769-2.11.769-1.35 0-2.11-.769-.76-.778-.76-2.13 0-1.37.76-2.13.769-.769 2.11-.769zm5.56 4.84v2.94h-1.03v-7.64h1.03v.837q.326-.493.814-.728.497-.244 1.19-.244 1.14 0 1.85.8.714.8.714 2.11 0 1.3-.714 2.1-.71.8-1.85.8-.683 0-1.18-.235-.493-.244-.814-.737zm3.5-1.93q0-1-.47-1.57-.461-.574-1.28-.574-.818 0-1.28.574-.466.57-.466 1.57 0 1 .466 1.57.47.57 1.28.57t1.28-.57q.47-.57.47-1.57zm8.14-.231v.443h-4.7q.0633.941.633 1.43.579.488 1.6.488.588 0 1.14-.127.561-.131 1.11-.389v.859q-.552.208-1.14.317-.583.109-1.18.113-1.5 0-2.38-.773-.873-.769-.873-2.08 0-1.36.828-2.16.832-.8 2.24-.8 1.26 0 1.99.724.742.714.742 1.95zm-1.03-.271q-.0136-.742-.475-1.19-.461-.443-1.22-.443-.859 0-1.38.43-.515.43-.592 1.21zm6.33-1.42q-.172-.0904-.38-.131-.199-.0452-.448-.0452-.868 0-1.34.506-.466.497-.466 1.44v2.92h-1.03v-5.52h1.03v.859q.326-.506.846-.746.52-.249 1.27-.249.104 0 .231.0136l.285.0362zm2.09-2.42v1.57h2.13v.71h-2.13v3q0 .678.213.873.208.19.855.19h1.05v.764h-1.05q-1.19 0-1.65-.393-.452-.393-.452-1.43v-3h-.755v-.71h.755v-1.57zm6.06 7.6q-.434.99-.85 1.29-.416.303-1.11.298h-.818v-.76h.601q.425 0 .66-.181.235-.181.52-.837l.181-.416-2.53-5.43h1.09l1.96 4.33 1.95-4.33h1.09zm8.95 1.17v.705h-5.97v-.705zm.959-7.24h1.03v5.52h-1.03zm0-2.16h1.03v1.15h-1.03zm7.28 2.99v-2.99h1.03v7.69h-1.03v-.828q-.326.497-.823.737-.493.235-1.18.235-1.13 0-1.85-.8-.71-.8-.71-2.1 0-1.31.71-2.11.714-.8 1.85-.8.687 0 1.18.244.497.235.823.728zm-3.5 1.94q0 .999.466 1.57.466.57 1.28.57.819 0 1.28-.57.47-.574.47-1.57 0-1-.47-1.57-.47-.574-1.28-.574-.814 0-1.28.574-.466.57-.466 1.57zm-57.4 8.32v1.57h2.12v.71h-2.12v3q0 .678.208.873.213.19.859.19h1.05v.764h-1.06q-1.19 0-1.64-.393-.452-.393-.452-1.43v-3h-.755v-.71h.755v-1.57zm6.1 7.6q-.434.986-.85 1.29-.416.303-1.1.303h-.823v-.76h.601q.425 0 .66-.181.235-.181.52-.841l.185-.412-2.53-5.43h1.09l1.96 4.33 1.95-4.33h1.09zm5.16-1.34v2.93h-1.03v-7.64h1.03v.841q.326-.497.814-.733.497-.24 1.19-.24 1.14 0 1.85.8.714.8.714 2.1 0 1.31-.714 2.11-.71.8-1.85.8-.683 0-1.18-.24-.493-.24-.814-.733zm3.5-1.94q0-1-.47-1.57-.461-.574-1.28-.574-.818 0-1.28.574-.466.565-.466 1.57t.466 1.58q.47.57 1.28.57.814 0 1.28-.57.47-.574.47-1.58zm8.14-.226v.439h-4.75q.0678.941.638 1.43.574.493 1.6.493.588 0 1.14-.131.556-.127 1.11-.384v.859q-.556.208-1.14.317-.579.109-1.18.109-1.5 0-2.37-.769-.873-.769-.873-2.09 0-1.36.828-2.15.832-.8 2.24-.8 1.27 0 2 .724.737.714.737 1.95zm-1.03-.271q-.00911-.746-.475-1.19-.457-.448-1.22-.448-.859 0-1.37.43-.516.43-.592 1.21zm7.46 4.93v.705h-5.97v-.705zm.959-7.24h1.03v5.52h-1.03zm0-2.15h1.03v1.15h-1.03zm7.28 2.99v-2.99h1.03v7.69h-1.03v-.828q-.326.497-.823.737-.493.235-1.18.235-1.13 0-1.85-.8-.71-.8-.71-2.1 0-1.31.71-2.11.714-.8 1.85-.8.687 0 1.18.244.497.235.823.728zm-3.5 1.94q0 .999.461 1.57.47.57 1.29.57.819 0 1.28-.57.47-.574.47-1.57 0-1-.47-1.57-.47-.574-1.28-.574-.814 0-1.29.574-.461.57-.461 1.57z" style="fill:#f9f9f9;stroke-width:2.28"/>
  <path d="m733 47.4h58.6c6.04-.0135 10.9 4.9 10.9 10.9v45.2c.0136 6.04-4.9 10.9-10.9 10.9h-58.6c-6.04.0136-10.9-4.9-10.9-10.9v-45.2c-.00906-6.04 4.9-10.9 10.9-10.9z" fill="#828487" stroke-width="3.63" style="stroke-width:16.4"/>
  <path d="m735 57v.859q-.439-.199-.904-.294-.47-.0995-.972-.0995-.769 0-1.15.208-.38.203-.38.62 0 .317.271.497.276.181 1.1.344l.353.0678q1.09.208 1.55.588.466.375.466 1.05 0 .769-.692 1.22-.687.452-1.9.452-.497 0-1.05-.0904-.543-.0859-1.14-.258v-.941q.57.262 1.13.398.552.127 1.09.127.724 0 1.12-.217.389-.222.389-.624 0-.366-.285-.565-.276-.199-1.23-.38l-.357-.0769q-.954-.181-1.38-.543-.425-.371-.425-1.01 0-.782.624-1.21.629-.425 1.78-.425.57 0 1.08.0769.497.0724.927.222zm1.97-.163h1.03v5.52h-1.03zm0-2.16h1.03v1.15h-1.03zm7.28 4.84q0-.986-.461-1.53-.461-.543-1.29-.543-.828 0-1.29.543-.461.543-.461 1.53 0 .981.461 1.53.461.543 1.29.543.832 0 1.29-.543.461-.543.461-1.53zm1.03 2.15q0 1.42-.71 2.1-.71.692-2.18.692-.543 0-1.02-.0769-.479-.0678-.936-.217v-.882q.452.217.895.317.443.109.904.109 1.01 0 1.51-.47.502-.466.502-1.41v-.452q-.317.493-.814.737-.497.24-1.19.24-1.15 0-1.85-.773-.705-.778-.705-2.06 0-1.28.701-2.06.705-.773 1.85-.773.696 0 1.19.24.497.244.814.733v-.841h1.03zm7.33-2.65v3.35h-1.03v-3.31q0-.787-.344-1.18-.344-.389-1.04-.393-.832 0-1.31.47-.484.47-.484 1.28v3.13h-1.04v-5.52h1.04v.859q.362-.497.859-.746.506-.244 1.16-.244 1.08 0 1.63.588.556.588.556 1.74zm4.88.561q-1.25 0-1.73.253-.479.249-.479.859 0 .484.357.769.362.28.981.28.859 0 1.37-.534.52-.538.52-1.42v-.203zm2.05-.375v3.16h-1.03v-.841q-.353.506-.877.746-.525.24-1.28.24-.963 0-1.53-.475-.565-.479-.565-1.28 0-.936.705-1.41.71-.475 2.11-.475h1.45v-.0904q0-.624-.475-.963-.461-.348-1.31-.348-.538 0-1.04.113-.506.113-.977.344v-.841q.565-.194 1.09-.289.529-.095 1.04-.095 1.36 0 2.03.62.669.62.674 1.89zm2.11-4.52h1.03v7.69h-1.03zm-28.3 28.1q-.828 0-1.31.57-.479.57-.479 1.56 0 .995.475 1.56.479.57 1.31.57.823 0 1.31-.574.479-.574.479-1.56 0-.986-.479-1.56-.484-.579-1.3-.579zm0-.769q1.34 0 2.11.769.769.769.764 2.13 0 1.36-.769 2.13-.764.769-2.1.769-1.35 0-2.12-.769-.76-.778-.76-2.13 0-1.37.76-2.13.769-.769 2.12-.769zm3.96.127h1.03l1.28 4.32 1.28-4.32h1.21l1.28 4.32 1.28-4.32h1.03l-1.64 5.52h-1.21l-1.35-4.52-1.36 4.52h-1.21zm15.2 2.2v3.34h-1.03v-3.31q0-.782-.348-1.18-.344-.389-1.04-.389-.832 0-1.31.47-.479.47-.479 1.28v3.13h-1.04v-5.52h1.04v.859q.366-.497.864-.746.506-.249 1.16-.249 1.08 0 1.63.592.552.588.552 1.74zm7.42.344v.448h-4.7q.0679.936.638 1.43.574.488 1.6.488.592 0 1.15-.127.556-.131 1.1-.389v.859q-.552.208-1.13.317-.579.109-1.18.109-1.5 0-2.37-.769-.873-.769-.873-2.08 0-1.36.828-2.16.832-.8 2.24-.8 1.27 0 1.99.724.742.714.742 1.95zm-1.03-.267q-.00902-.746-.475-1.19-.457-.443-1.22-.443-.859 0-1.37.43-.515.43-.592 1.21zm6.38-1.42q-.172-.0904-.38-.131-.204-.0452-.448-.0452-.873 0-1.34.506-.461.497-.461 1.44v2.92h-1.04v-5.52h1.04v.859q.321-.506.841-.746.52-.249 1.27-.249.104 0 .235.0136l.285.0362zm5.83 6.38v.705h-5.97v-.705zm.959-7.24h1.03v5.52h-1.03zm0-2.15h1.03v1.15h-1.03zm7.28 2.99v-2.99h1.03v7.69h-1.03v-.828q-.326.497-.823.737-.493.235-1.18.235-1.13 0-1.85-.8-.71-.8-.71-2.11 0-1.3.71-2.1.714-.8 1.85-.8.687 0 1.18.24.497.24.823.733zm-3.5 1.93q0 1 .466 1.58.466.565 1.28.565.814 0 1.28-.57.47-.574.47-1.58 0-.999-.47-1.57-.47-.574-1.28-.574t-1.28.574q-.466.57-.466 1.57zm-40.9 10v.859q-.439-.199-.904-.298-.47-.0995-.972-.0995-.769 0-1.15.208-.38.208-.38.624 0 .317.271.497.276.181 1.1.344l.353.0678q1.09.208 1.55.588.466.375.466 1.05 0 .769-.692 1.22-.687.452-1.9.452-.497 0-1.05-.0904-.543-.0859-1.14-.258v-.941q.57.262 1.13.393.552.131 1.09.131.724 0 1.12-.217.389-.226.389-.624 0-.371-.285-.57-.276-.194-1.23-.38l-.357-.0724q-.954-.181-1.38-.543-.425-.371-.425-1.01 0-.782.624-1.21.629-.425 1.78-.425.57 0 1.08.0724.497.0769.927.226zm1.97-.167h1.03v5.52h-1.03zm0-2.15h1.03v1.15h-1.03zm7.28 4.84q0-.99-.461-1.53-.461-.543-1.29-.543-.828 0-1.29.543-.461.543-.461 1.53 0 .986.461 1.53.461.543 1.29.543.832 0 1.29-.543.461-.543.461-1.53zm1.03 2.14q0 1.42-.71 2.1-.71.692-2.18.692-.543 0-1.02-.0769-.479-.0678-.936-.217v-.882q.452.217.895.317.443.109.904.109 1.01 0 1.51-.47.502-.466.502-1.41v-.448q-.317.488-.814.733-.497.24-1.19.24-1.15 0-1.85-.773-.705-.778-.705-2.06 0-1.28.701-2.06.705-.773 1.85-.773.696 0 1.19.24.497.244.814.733v-.841h1.03zm7.33-2.65v3.35h-1.03v-3.31q0-.787-.344-1.18-.344-.389-1.04-.389-.832 0-1.31.466-.484.47-.484 1.28v3.13h-1.04v-5.52h1.04v.859q.362-.497.859-.746.506-.244 1.16-.244 1.08 0 1.63.588.556.588.556 1.74zm4.88.561q-1.25 0-1.73.253-.479.249-.479.859 0 .484.357.769.362.285.981.285.859 0 1.37-.534.52-.543.52-1.43v-.203zm2.05-.375v3.16h-1.03v-.841q-.353.506-.877.746-.525.24-1.28.24-.963 0-1.53-.475-.565-.479-.565-1.28 0-.936.705-1.41.71-.47 2.11-.47h1.45v-.0904q0-.629-.475-.968-.461-.348-1.31-.348-.538 0-1.04.113-.506.113-.977.344v-.841q.565-.194 1.09-.285.529-.0995 1.04-.0995 1.36 0 2.03.62.674.624.674 1.89zm2.11-4.52h1.03v7.69h-1.03zm7.91 9.36v.705h-5.97v-.705zm.959-7.24h1.03v5.52h-1.03zm0-2.15h1.03v1.15h-1.03zm7.28 2.99v-2.99h1.03v7.69h-1.03v-.828q-.326.497-.823.737-.493.235-1.18.235-1.13 0-1.85-.8-.71-.8-.71-2.1 0-1.31.71-2.11.715-.8 1.85-.8.687 0 1.18.24.497.24.823.733zm-3.5 1.93q0 1 .466 1.58.466.565 1.28.565.818 0 1.28-.57.47-.574.47-1.58 0-.999-.47-1.57-.47-.574-1.28-.574t-1.28.574q-.466.57-.466 1.57z" style="fill:#f9f9f9;stroke-width:2.28"/>
  <path d="m446 126h5.02q2.23 0 3.42.877 1.2.877 1.2 2.49 0 1.63-1.2 2.5-1.19.877-3.42.877h-1.99v3.58h-3.01zm3.01 1.93v2.89h1.66q.877 0 1.36-.374.475-.381.475-1.08 0-.687-.475-1.07-.479-.369-1.36-.369zm15.1 2.76q-.37-.152-.737-.221-.362-.076-.728-.076-1.08 0-1.66.615-.579.61-.579 1.75v3.57h-2.8v-7.73h2.8v1.27q.538-.76 1.23-1.1.705-.354 1.68-.354.141 0 .305.0152.168.00759.479.0381zm5.56-.525q-.932 0-1.42.592-.484.588-.484 1.7 0 1.11.484 1.7.497.588 1.42.588.913 0 1.4-.588.488-.592.488-1.7 0-1.12-.488-1.7-.484-.592-1.4-.592zm0-1.77q2.26 0 3.53 1.08 1.27 1.08 1.27 2.99 0 1.91-1.27 2.98-1.27 1.08-3.53 1.08-2.27 0-3.55-1.08-1.28-1.08-1.28-2.98 0-1.91 1.28-2.99 1.28-1.08 3.55-1.08zm6.83.19h2.8v7.6q0 1.56-.841 2.37-.846.828-2.45.828h-1.38v-1.63h.484q.8 0 1.09-.32.297-.316.297-1.25zm0-3.02h2.8v2.02h-2.8zm14.2 6.87v.71h-6.56q.099.868.714 1.31.61.434 1.7.434.882 0 1.8-.228.932-.236 1.91-.705v1.91q-.99.331-1.99.497-.99.175-1.99.175-2.38 0-3.69-1.07-1.32-1.07-1.32-3 0-1.9 1.29-2.98 1.29-1.09 3.56-1.09 2.07 0 3.3 1.1 1.24 1.1 1.24 2.94zm-2.88-.823q0-.705-.47-1.13-.457-.438-1.21-.438-.809 0-1.32.407-.506.404-.633 1.16zm12.1-2.79v2.02q-.57-.343-1.15-.506-.57-.168-1.19-.168-1.17 0-1.83.61-.647.601-.647 1.69t.647 1.7q.656.601 1.83.601.66 0 1.24-.175.592-.171 1.09-.511v2.03q-.656.213-1.33.316-.674.114-1.36.114-2.37 0-3.71-1.08-1.34-1.08-1.34-2.99t1.33-2.99q1.34-1.08 3.71-1.08.687 0 1.35.114.674.099 1.34.316zm5.47-2.44v2.2h2.89v1.77h-2.89v3.28q0 .543.244.737.244.187.959.187h1.44v1.77h-2.4q-1.66 0-2.36-.61-.687-.615-.687-2.08v-3.28h-1.39v-1.77h1.39v-2.2z" style="fill:#828487;font-variant-caps:normal;font-variant-east-asian:normal;font-variant-ligatures:normal;font-variant-numeric:normal;stroke-width:1.92"/>
  <path d="m474 150h58.6c6.04-.00908 10.9 4.9 10.9 10.9v45.2c.0136 6.04-4.9 10.9-10.9 10.9h-58.6c-6.04.0136-10.9-4.9-10.9-10.9v-45.2c-.00906-6.04 4.9-10.9 10.9-10.9z" fill="#828487" stroke-width="3.63" style="stroke-width:16.4"/>
  <path d="m468 163v-3.93h1.2v3.89q0 .918.407 1.38.407.457 1.22.457.972 0 1.54-.547.57-.552.57-1.5v-3.68h1.2v6.47h-1.2v-.995q-.439.588-1.02.877-.574.285-1.34.285-1.26 0-1.91-.696-.656-.692-.656-2.03zm8.59-3.92h1.2v6.47h-1.2zm0-2.53h1.2v1.35h-1.2zm-8.59 36.1v-3.92h1.2v3.88q0 .923.407 1.38.407.457 1.22.457.972 0 1.54-.547.57-.552.57-1.5v-3.67h1.2v6.47h-1.2v-.995q-.439.588-1.02.877-.574.285-1.34.285-1.26 0-1.91-.692-.656-.696-.656-2.03zm8.59-3.92h1.2v6.47h-1.2zm0-2.52h1.2v1.35h-1.2zm9.27 11v.828h-6.96v-.828zm1.14-8.46h1.2v6.47h-1.2zm0-2.52h1.2v1.35h-1.2zm8.55 3.5v-3.5h1.2v9h-1.2v-.972q-.38.579-.963.859-.574.28-1.39.28-1.32 0-2.16-.936-.832-.941-.832-2.46 0-1.53.832-2.47.837-.936 2.16-.936.814 0 1.39.285.583.276.963.859zm-4.1 2.26q0 1.18.543 1.85.547.665 1.51.665.959 0 1.5-.665.552-.674.552-1.85 0-1.18-.552-1.84-.547-.674-1.5-.674-.954 0-1.51.674-.543.665-.543 1.84zm-17.5 11.6v6.47h-1.21v-5.65h-3.3v5.65h-1.21v-5.65h-1.15v-.832h1.15v-.452q0-1.06.561-1.56.57-.511 1.74-.511h1.21v.886h-1.15q-.647 0-.904.231-.249.231-.249.832v.574zm-1.21-2.51h1.21v1.35h-1.21zm3.73-.0136h1.21v9h-1.21zm9.95 5.52v.52h-5.52q.0768 1.1.746 1.68.674.57 1.87.57.696 0 1.34-.149.651-.149 1.29-.452v1.01q-.647.244-1.32.371-.678.127-1.38.127-1.75 0-2.78-.904-1.02-.904-1.02-2.44 0-1.59.968-2.52.977-.936 2.62-.936 1.48 0 2.33.846.864.837.864 2.28zm-1.2-.312q-.0136-.873-.556-1.39-.534-.525-1.42-.525-1.01 0-1.61.506-.601.502-.692 1.42zm9.27-.095v3.92h-1.21v-3.88q0-.918-.407-1.38t-1.21-.452q-.977 0-1.54.543-.561.552-.561 1.5v3.66h-1.21v-6.47h1.21v1.01q.43-.588 1.01-.873.588-.289 1.36-.289 1.26 0 1.9.692.651.687.651 2.03zm5.74.656q-1.46 0-2.02.294-.565.298-.565 1.01 0 .565.421.904.425.33 1.15.33 1 0 1.61-.629.606-.633.606-1.67v-.235zm2.4-.439v3.7h-1.2v-.986q-.407.588-1.03.873-.615.28-1.5.28-1.13 0-1.8-.556-.66-.561-.66-1.5 0-1.09.828-1.65.827-.556 2.47-.556h1.69v-.104q0-.737-.547-1.14-.543-.407-1.53-.407-.624 0-1.22.136-.597.136-1.14.398v-.986q.66-.226 1.28-.335.624-.113 1.21-.113 1.59 0 2.37.724.782.733.782 2.22zm8.18-1.54q.452-.714 1.09-1.06.624-.339 1.47-.339 1.14 0 1.76.71.624.705.624 2.01v3.92h-1.21v-3.88q0-.932-.371-1.38-.371-.452-1.14-.452-.936 0-1.48.552-.543.552-.543 1.5v3.66h-1.21v-3.88q0-.936-.375-1.38-.371-.452-1.15-.452-.922 0-1.47.556-.543.552-.543 1.49v3.66h-1.21v-6.47h1.21v1.01q.411-.597.986-.882.574-.28 1.37-.28.8 0 1.36.357.561.362.828 1.04zm13.6 1.73v.52h-5.52q.0769 1.1.746 1.68.674.57 1.87.57.692 0 1.34-.149.651-.149 1.29-.452v1.01q-.647.244-1.33.371-.683.127-1.38.127-1.75 0-2.78-.904-1.02-.904-1.02-2.44 0-1.59.968-2.52.977-.936 2.62-.936 1.48 0 2.33.846.864.837.864 2.28zm-1.2-.312q-.0136-.873-.556-1.39-.534-.525-1.42-.525-1.01 0-1.61.506-.601.502-.696 1.42z" style="fill:#f9f9f9;stroke-width:2.28"/>
  <path d="m569 150h65.8c6.04-.0136 10.9 4.9 10.9 10.9v59c.0136 6.04-4.9 10.9-10.9 10.9h-65.8c-6.04.0135-10.9-4.9-10.9-10.9v-59c-.00911-6.04 4.9-10.9 10.9-10.9z" fill="#828487" stroke-width="3.63" style="stroke-width:16.4"/>
  <path d="m568 160q-.972 0-1.53.669-.561.665-.561 1.83t.556 1.84q.561.665 1.54.665.959 0 1.52-.669.565-.674.565-1.83 0-1.15-.565-1.82-.561-.678-1.52-.678zm0-.904q1.57 0 2.46.904.895.904.895 2.5 0 1.59-.895 2.5-.895.904-2.46.904-1.58 0-2.47-.904-.891-.904-.891-2.5 0-1.6.891-2.5.895-.904 2.47-.904zm10.6 3.4q0-1.18-.552-1.84-.543-.669-1.49-.669-.959 0-1.51.669-.543.669-.543 1.84t.543 1.85q.547.665 1.5.665.954 0 1.5-.665.552-.674.552-1.85zm-4.09-2.26q.38-.579.95-.859.588-.28 1.39-.28 1.33 0 2.17.936.832.936.832 2.46 0 1.53-.837 2.47-.832.936-2.17.936-.8 0-1.38-.276-.574-.285-.954-.864v.972h-1.21v-9h1.21zm7.33-.981h1.2v6.6q0 1.24-.534 1.79-.534.556-1.72.556h-.452v-.904h.317q.687 0 .936-.28.249-.28.249-1.16zm0-2.53h1.2v1.35h-1.2zm9.95 5.52v.52h-5.52q.0814 1.1.746 1.68.678.574 1.87.574.692 0 1.34-.149.656-.149 1.3-.452v1.01q-.647.24-1.33.371-.683.131-1.38.127-1.75 0-2.78-.904-1.02-.904-1.02-2.44 0-1.59.968-2.52.972-.936 2.62-.936 1.48 0 2.33.841.859.841.859 2.29zm-1.2-.312q-.0136-.873-.556-1.4-.538-.52-1.42-.52-1.01 0-1.62.506-.601.502-.692 1.42zm8.46-2.41v.995q-.511-.249-1.03-.366-.511-.131-1.04-.131-1.17 0-1.82.66-.647.656-.647 1.84 0 1.18.647 1.85.651.651 1.82.651.525 0 1.04-.122.516-.127 1.03-.375v.986q-.502.208-1.04.312-.538.104-1.15.104-1.65 0-2.62-.922-.977-.918-.977-2.48 0-1.58.981-2.49.986-.909 2.7-.909.556 0 1.09.104.529.0995 1.03.298zm3.28-2.09v1.84h2.48v.828h-2.48v3.52q0 .791.24 1.02.249.226.999.226h1.24v.891h-1.24q-1.39 0-1.92-.457-.529-.466-.529-1.68v-3.52h-.882v-.828h.882v-1.84zm-37.4 35.4v-3.92h1.2v3.88q0 .923.407 1.38.407.457 1.22.457.972 0 1.54-.547.565-.552.565-1.5v-3.67h1.2v6.47h-1.2v-.995q-.439.588-1.02.877-.579.285-1.34.285-1.26 0-1.92-.692-.651-.696-.651-2.03zm8.64-3.92h1.2v6.47h-1.2zm0-2.52h1.2v1.35h-1.2zm9.27 11v.828h-6.96v-.828zm1.14-8.46h1.2v6.47h-1.2zm0-2.52h1.2v1.35h-1.2zm8.55 3.5v-3.5h1.2v9h-1.2v-.972q-.38.579-.963.859-.574.28-1.38.28-1.33 0-2.17-.936-.832-.941-.832-2.46 0-1.53.832-2.47.837-.936 2.17-.936.814 0 1.38.285.588.276.963.859zm-4.1 2.26q0 1.18.543 1.85.552.665 1.51.665.954 0 1.5-.665.552-.674.552-1.85 0-1.18-.552-1.84-.547-.674-1.5-.674-.954 0-1.51.674-.543.665-.543 1.84zm-20.5 12.3q-.972 0-1.53.674-.561.665-.561 1.83 0 1.16.556 1.84.561.665 1.54.665.959 0 1.52-.669.565-.674.565-1.83 0-1.15-.565-1.82-.561-.678-1.52-.678zm0-.904q1.57 0 2.46.904.895.904.895 2.5 0 1.59-.895 2.5-.895.904-2.46.904-1.58 0-2.47-.904-.891-.904-.891-2.5 0-1.6.891-2.5.895-.904 2.47-.904zm10.6 3.41q0-1.18-.552-1.84-.543-.669-1.49-.669-.959 0-1.51.669-.543.665-.543 1.84 0 1.18.543 1.84.547.665 1.5.665.954 0 1.5-.665.552-.669.552-1.84zm-4.09-2.26q.38-.579.95-.859.588-.285 1.39-.285 1.33 0 2.17.941.832.936.832 2.46 0 1.53-.837 2.46-.832.941-2.17.941-.8 0-1.38-.28-.574-.285-.954-.859v.972h-1.21v-9h1.21zm7.33-.986h1.2v6.6q0 1.23-.534 1.79t-1.72.556h-.452v-.904h.317q.687 0 .936-.28.249-.28.249-1.17zm0-2.52h1.2v1.35h-1.2zm9.95 5.52v.52h-5.52q.0814 1.1.746 1.68.678.57 1.87.57.692 0 1.34-.149.656-.149 1.3-.452v1.01q-.647.244-1.33.371-.683.127-1.38.127-1.75 0-2.78-.904-1.02-.904-1.02-2.44 0-1.59.968-2.52.972-.936 2.62-.936 1.48 0 2.33.846.859.837.859 2.28zm-1.2-.312q-.0135-.873-.556-1.39-.538-.525-1.42-.525-1.01 0-1.62.506-.601.502-.692 1.42zm8.46-2.41v.995q-.511-.249-1.03-.371-.511-.127-1.04-.127-1.17 0-1.82.66-.647.656-.647 1.84t.647 1.84q.651.656 1.82.656.525 0 1.04-.122.516-.127 1.03-.375v.981q-.502.213-1.04.317-.538.104-1.15.104-1.65 0-2.62-.923-.977-.918-.977-2.48 0-1.58.981-2.5.986-.904 2.7-.904.556 0 1.09.0995.529.0995 1.03.303zm3.28-2.09v1.84h2.48v.828h-2.48v3.52q0 .796.24 1.02.249.226.999.226h1.24v.891h-1.24q-1.39 0-1.92-.457-.529-.466-.529-1.68v-3.52h-.882v-.828h.882v-1.84zm9.63 10.3v.828h-6.96v-.828zm1.14-8.46h1.2v6.47h-1.2zm0-2.52h1.2v1.35h-1.2zm8.55 3.5v-3.5h1.2v9h-1.2v-.972q-.38.579-.963.864-.574.28-1.38.28-1.33 0-2.17-.941-.828-.936-.828-2.46 0-1.53.832-2.46.837-.941 2.17-.941.809 0 1.38.285.583.28.963.859zm-4.1 2.27q0 1.18.543 1.84.552.665 1.51.665.95 0 1.5-.665.552-.669.552-1.84 0-1.18-.552-1.84-.547-.669-1.5-.669-.954 0-1.51.669-.543.665-.543 1.84zm-51.1 9.72v1.84h2.48v.828h-2.48v3.52q0 .791.244 1.02.249.226.995.226h1.24v.891h-1.23q-1.39 0-1.92-.457-.529-.461-.529-1.68v-3.52h-.886v-.828h.886v-1.84zm7.1 8.91q-.511 1.16-.995 1.51-.484.353-1.29.353h-.963v-.891h.71q.497 0 .769-.208t.61-.981l.217-.488-2.97-6.38h1.28l2.29 5.06 2.29-5.06h1.28zm6.01-1.57v3.44h-1.21v-8.95h1.21v.981q.38-.579.954-.855.588-.285 1.39-.285 1.33 0 2.17.941.837.936.837 2.46 0 1.53-.837 2.46-.832.941-2.17.941-.805 0-1.39-.28-.574-.285-.95-.859zm4.1-2.26q0-1.18-.552-1.84-.543-.674-1.5-.674-.954 0-1.51.674-.543.665-.543 1.84 0 1.18.543 1.84.552.665 1.51.665.954 0 1.5-.665.552-.669.552-1.84zm9.5-.271v.52h-5.52q.0769 1.1.742 1.68.678.574 1.87.574.692 0 1.34-.154.656-.149 1.3-.452v1.01q-.647.244-1.33.371-.683.127-1.38.127-1.75 0-2.78-.904-1.02-.9-1.02-2.44 0-1.59.968-2.52.972-.941 2.62-.941 1.48 0 2.33.846.864.841.864 2.29zm-1.2-.317q-.0136-.873-.556-1.39-.538-.52-1.42-.52-1.01 0-1.61.502-.606.506-.696 1.42zm8.77 5.79v.832h-6.96v-.832zm1.14-8.46h1.2v6.47h-1.2zm0-2.52h1.2v1.35h-1.2zm8.55 3.5v-3.5h1.2v9h-1.2v-.972q-.38.579-.963.864-.574.276-1.38.276-1.33 0-2.17-.936-.832-.936-.832-2.46 0-1.53.832-2.46.837-.941 2.17-.941.814 0 1.38.285.583.276.963.859zm-4.1 2.26q0 1.18.543 1.85.552.66 1.51.66.954 0 1.5-.665.552-.669.552-1.84 0-1.18-.552-1.84-.547-.674-1.5-.674-.954 0-1.51.674-.543.665-.543 1.84z" style="fill:#f9f9f9;stroke-width:2.28"/>
  <path d="m678 150h113c6.04-.0135 10.9 4.9 10.9 10.9v59c.0136 6.04-4.9 10.9-10.9 10.9h-113c-6.04.0136-10.9-4.9-10.9-10.9v-59c-.00902-6.04 4.9-10.9 10.9-10.9z" fill="#828487" stroke-width="3.63" style="stroke-width:16.4"/>
  <path d="m676 160q-.968 0-1.53.669-.561.665-.561 1.83t.552 1.84q.565.665 1.54.665.963 0 1.52-.669.565-.674.565-1.83 0-1.15-.565-1.82-.561-.678-1.52-.678zm0-.904q1.57 0 2.46.904.9.904.9 2.5 0 1.59-.9 2.5-.895.904-2.46.904-1.57 0-2.47-.904-.891-.904-.891-2.5 0-1.6.891-2.5.895-.904 2.47-.904zm10.6 3.4q0-1.18-.547-1.84-.543-.669-1.5-.669-.954 0-1.51.669-.543.669-.543 1.84t.543 1.85q.552.665 1.51.665.95 0 1.49-.665.552-.674.552-1.85zm-4.09-2.26q.38-.579.954-.859.583-.28 1.39-.28 1.33 0 2.16.936.841.936.841 2.46 0 1.53-.841 2.47-.828.936-2.16.936-.805 0-1.39-.276-.574-.285-.954-.864v.972h-1.21v-9h1.21zm7.33-.981h1.2v6.6q0 1.24-.538 1.79-.529.556-1.71.556h-.452v-.904h.317q.687 0 .936-.28.249-.28.249-1.16zm0-2.53h1.2v1.35h-1.2zm9.99 5.52v.52h-5.52q.0769 1.1.746 1.68.674.574 1.87.574.696 0 1.34-.149.651-.149 1.29-.452v1.01q-.647.24-1.33.371-.683.131-1.38.127-1.75 0-2.78-.904-1.02-.904-1.02-2.44 0-1.59.968-2.52.977-.936 2.62-.936 1.48 0 2.33.841.864.841.864 2.29zm-1.2-.312q-.0135-.873-.556-1.4-.534-.52-1.42-.52-1.01 0-1.61.506-.601.502-.696 1.42zm8.46-2.41v.995q-.511-.249-1.03-.366-.511-.131-1.03-.131-1.18 0-1.82.66-.647.656-.647 1.84 0 1.18.647 1.85.647.651 1.82.651.52 0 1.03-.122.516-.127 1.03-.375v.986q-.502.208-1.04.312-.538.104-1.14.104-1.66 0-2.63-.922-.972-.918-.972-2.48 0-1.58.981-2.49.986-.909 2.7-.909.556 0 1.09.104.529.0995 1.03.298zm3.28-2.09v1.84h2.48v.828h-2.48v3.52q0 .791.24 1.02.249.226 1 .226h1.23v.891h-1.23q-1.39 0-1.92-.457-.534-.466-.534-1.68v-3.52h-.882v-.828h.882v-1.84zm9.63 10.3v.828h-6.96v-.828zm2.29-2.94v3.44h-1.21v-8.95h1.21v.986q.375-.579.95-.859.588-.28 1.39-.28 1.33 0 2.17.936.837.936.837 2.46 0 1.53-.837 2.47-.832.936-2.17.936-.805 0-1.38-.276-.579-.285-.954-.864zm4.1-2.26q0-1.18-.552-1.85-.543-.669-1.49-.669-.959 0-1.51.669-.543.669-.543 1.84 0 1.17.543 1.85.547.665 1.5.665.954 0 1.5-.665.552-.674.552-1.85zm7.51-2.26q-.203-.104-.448-.149-.235-.0497-.52-.0497-1.02 0-1.57.588-.543.588-.543 1.69v3.41h-1.21v-6.47h1.21v1.01q.375-.588.986-.873.606-.289 1.48-.289.122 0 .271.0181.154.00905.335.0362zm3.81-.244q-.968 0-1.53.669-.561.665-.561 1.83 0 1.16.556 1.84.561.665 1.54.665.959 0 1.52-.669.561-.674.561-1.83 0-1.15-.561-1.82-.565-.678-1.52-.678zm0-.904q1.57 0 2.46.904.895.904.895 2.5 0 1.59-.895 2.5-.895.904-2.46.904-1.58 0-2.47-.904-.891-.904-.891-2.5 0-1.6.891-2.5.895-.904 2.47-.904zm6.51 5.65v3.44h-1.21v-8.95h1.21v.986q.38-.579.95-.859.588-.28 1.39-.28 1.34 0 2.17.936.832.936.832 2.46 0 1.53-.837 2.47-.828.936-2.17.936-.8 0-1.38-.276-.574-.285-.954-.864zm4.09-2.26q0-1.18-.547-1.85-.543-.669-1.5-.669-.959 0-1.5.669-.543.669-.543 1.84t.543 1.85q.547.665 1.5.665.954 0 1.5-.665.547-.674.547-1.85zm9.5-.276v.52h-5.52q.0769 1.1.746 1.68.674.574 1.87.574.696 0 1.34-.149.656-.149 1.29-.452v1.01q-.647.24-1.32.371-.678.131-1.38.127-1.75 0-2.78-.904-1.02-.904-1.02-2.44 0-1.59.968-2.52.977-.936 2.62-.936 1.48 0 2.34.841.859.841.859 2.29zm-1.2-.312q-.0136-.873-.556-1.4-.534-.52-1.42-.52-1.01 0-1.61.506-.601.502-.692 1.42zm7.42-1.67q-.204-.104-.448-.149-.235-.0498-.52-.0498-1.02 0-1.57.588-.543.588-.543 1.69v3.41h-1.21v-6.47h1.21v1.01q.38-.588.99-.873.606-.289 1.48-.289.122 0 .271.0181.154.00905.335.0362zm2.47-2.84v1.84h2.48v.828h-2.48v3.52q0 .791.24 1.02.249.226.999.226h1.24v.891h-1.24q-1.39 0-1.92-.457-.529-.466-.529-1.68v-3.52h-.882v-.828h.882v-1.84zm7.1 8.91q-.511 1.16-.995 1.51t-1.29.353h-.963v-.891h.71q.497 0 .769-.208.276-.208.61-.986l.213-.484-2.96-6.38h1.28l2.29 5.06 2.29-5.06h1.28zm-100 26.5v-3.92h1.2v3.88q0 .922.407 1.38.407.457 1.22.457.972 0 1.54-.547.57-.552.57-1.5v-3.67h1.2v6.47h-1.2v-.995q-.439.588-1.02.877-.574.285-1.34.285-1.27 0-1.92-.692-.656-.696-.656-2.03zm8.59-3.92h1.2v6.47h-1.2zm0-2.52h1.2v1.35h-1.2zm9.27 11v.828h-6.96v-.828zm1.14-8.46h1.2v6.47h-1.2zm0-2.52h1.2v1.35h-1.2zm8.55 3.5v-3.5h1.2v9h-1.2v-.972q-.38.579-.963.859-.574.28-1.38.28-1.33 0-2.17-.936-.828-.941-.828-2.46 0-1.53.832-2.47.837-.936 2.17-.936.809 0 1.38.285.583.276.963.859zm-4.1 2.26q0 1.18.543 1.85.547.665 1.51.665.95 0 1.5-.665.552-.674.552-1.84 0-1.18-.552-1.84-.547-.674-1.5-.674-.959 0-1.51.674-.543.665-.543 1.84zm-20.5 12.3q-.968 0-1.53.674-.561.665-.561 1.83t.552 1.84q.565.665 1.54.665.963 0 1.52-.669.565-.674.565-1.83 0-1.15-.565-1.82-.561-.678-1.52-.678zm0-.904q1.57 0 2.46.904.9.904.9 2.5 0 1.59-.9 2.5-.895.904-2.46.904-1.57 0-2.47-.904-.891-.904-.891-2.5 0-1.6.891-2.5.895-.904 2.47-.904zm10.6 3.41q0-1.18-.547-1.84-.543-.669-1.5-.669-.954 0-1.51.669-.543.665-.543 1.84 0 1.18.543 1.85.552.665 1.51.665.95 0 1.49-.665.552-.669.552-1.85zm-4.09-2.26q.38-.579.954-.859.583-.285 1.39-.285 1.33 0 2.16.941.841.936.841 2.46 0 1.53-.841 2.46-.828.941-2.16.941-.805 0-1.39-.28-.574-.285-.954-.859v.972h-1.21v-9h1.21zm7.33-.986h1.2v6.6q0 1.23-.538 1.79-.529.556-1.71.556h-.452v-.904h.317q.687 0 .936-.28.249-.28.249-1.17zm0-2.52h1.2v1.35h-1.2zm9.99 5.52v.52h-5.52q.0769 1.1.746 1.68.674.57 1.87.57.696 0 1.34-.149.651-.149 1.29-.452v1.01q-.647.244-1.33.371-.683.127-1.38.127-1.75 0-2.78-.904-1.02-.904-1.02-2.44 0-1.59.968-2.52.977-.936 2.62-.936 1.48 0 2.33.846.864.837.864 2.28zm-1.2-.312q-.0136-.873-.556-1.39-.534-.525-1.42-.525-1.01 0-1.61.506-.601.502-.696 1.42zm8.46-2.41v.995q-.511-.249-1.03-.371-.511-.127-1.03-.127-1.18 0-1.82.66-.647.656-.647 1.84t.647 1.84q.647.656 1.82.656.52 0 1.03-.122.516-.127 1.03-.375v.981q-.502.213-1.04.317-.538.104-1.14.104-1.66 0-2.63-.922-.972-.918-.972-2.48 0-1.58.981-2.5.986-.904 2.7-.904.556 0 1.09.0995.529.0995 1.03.303zm3.28-2.09v1.84h2.48v.828h-2.48v3.52q0 .796.24 1.02.249.226 1 .226h1.23v.891h-1.23q-1.39 0-1.92-.457-.534-.466-.534-1.68v-3.52h-.882v-.828h.882v-1.84zm9.63 10.3v.828h-6.96v-.828zm1.14-8.46h1.2v6.47h-1.2zm0-2.52h1.2v1.35h-1.2zm8.55 3.5v-3.5h1.2v9h-1.2v-.972q-.38.579-.959.864-.579.28-1.39.28-1.33 0-2.17-.941-.828-.936-.828-2.46 0-1.53.828-2.46.837-.941 2.17-.941.814 0 1.39.285.579.28.959.859zm-4.1 2.27q0 1.18.543 1.85.552.665 1.51.665.954 0 1.51-.665.547-.669.547-1.85 0-1.18-.547-1.84-.552-.669-1.51-.669-.954 0-1.51.669-.543.665-.543 1.84zm-51.1 17.1v3.44h-1.21v-8.95h1.21v.981q.38-.579.954-.855.583-.285 1.39-.285 1.33 0 2.16.941.837.936.837 2.46 0 1.53-.837 2.46-.828.941-2.16.941-.805 0-1.39-.28-.574-.285-.954-.859zm4.09-2.26q0-1.18-.547-1.84-.543-.674-1.5-.674-.959 0-1.51.674-.543.665-.543 1.84 0 1.18.543 1.85.547.665 1.51.665.95 0 1.49-.665.552-.669.552-1.85zm7.51-2.25q-.204-.104-.443-.149-.235-.0543-.525-.0543-1.02 0-1.57.588-.543.588-.543 1.69v3.41h-1.21v-6.47h1.21v1q.38-.588.986-.873.61-.289 1.48-.289.127 0 .271.0181.154.0136.339.0407zm3.81-.249q-.968 0-1.53.674-.561.665-.561 1.83 0 1.16.556 1.84.561.665 1.54.665.959 0 1.52-.674.561-.669.561-1.83 0-1.15-.561-1.82-.565-.678-1.52-.678zm0-.904q1.57 0 2.46.904.895.904.895 2.5 0 1.59-.895 2.5-.895.904-2.46.904-1.58 0-2.47-.904-.886-.909-.886-2.5 0-1.6.886-2.5.895-.904 2.47-.904zm6.51 5.65v3.44h-1.21v-8.95h1.21v.981q.38-.579.954-.855.583-.285 1.39-.285 1.33 0 2.16.941.841.936.841 2.46t-.841 2.46q-.828.941-2.16.941-.805 0-1.39-.28-.574-.285-.954-.859zm4.09-2.26q0-1.18-.547-1.84-.543-.674-1.5-.674-.954 0-1.51.674-.543.665-.543 1.84 0 1.18.543 1.85.552.665 1.51.665.95 0 1.49-.665.552-.669.552-1.85zm9.5-.271v.52h-5.52q.0814 1.1.746 1.68.678.574 1.87.574.692 0 1.34-.154.656-.149 1.3-.452v1.01q-.651.244-1.33.371-.678.127-1.38.127-1.75 0-2.78-.904-1.02-.9-1.02-2.44 0-1.59.968-2.52.972-.941 2.62-.941 1.47 0 2.33.846.859.841.859 2.29zm-1.2-.317q-.0135-.873-.556-1.39-.538-.52-1.43-.52-1 0-1.61.502-.601.506-.692 1.42zm7.42-1.66q-.203-.104-.443-.149-.24-.0543-.525-.0543-1.02 0-1.57.588-.543.588-.543 1.69v3.41h-1.21v-6.47h1.21v1q.38-.588.986-.873.61-.289 1.48-.289.122 0 .271.0181.154.0136.335.0407zm2.45-2.84v1.85h2.48v.828h-2.48v3.52q0 .791.244 1.02.249.226.999.226h1.23v.891h-1.23q-1.39 0-1.92-.457-.529-.461-.529-1.68v-3.52h-.882v-.828h.882v-1.84zm7.1 8.91q-.506 1.16-.995 1.51-.488.353-1.29.353h-.959v-.891h.705q.497 0 .769-.208.271-.208.61-.981l.217-.488-2.96-6.38h1.28l2.29 5.06 2.29-5.06h1.28zm10.4 1.37v.832h-6.96v-.832zm1.11-8.46h1.2v6.47h-1.2zm0-2.52h1.2v1.35h-1.2zm8.55 3.5v-3.5h1.2v9h-1.2v-.972q-.38.579-.959.864-.579.276-1.39.276-1.32 0-2.17-.936-.828-.936-.828-2.46 0-1.53.828-2.46.841-.941 2.17-.941.805 0 1.38.285.579.276.959.859zm-4.1 2.26q0 1.18.543 1.85.547.66 1.5.66.954 0 1.51-.665.547-.669.547-1.84 0-1.18-.547-1.84-.552-.674-1.51-.674-.954 0-1.5.674-.543.665-.543 1.84z" style="fill:#f9f9f9;stroke-width:2.28"/>
  <path d="m474 241h95.8c6.04-.0135 10.9 4.9 10.9 10.9v16.8c.018 6.04-4.9 10.9-10.9 10.9h-95.8c-6.04.0181-10.9-4.9-10.9-10.9v-16.8c-.00906-6.04 4.9-10.9 10.9-10.9z" fill="#828487" stroke-width="3.63" style="stroke-width:16.4"/>
  <path d="m473 250q-.972 0-1.53.674-.561.665-.561 1.83 0 1.16.556 1.84.561.665 1.54.665.959 0 1.52-.674.561-.674.565-1.83 0-1.15-.565-1.82-.561-.678-1.52-.678zm0-.904q1.57 0 2.46.904.895.904.895 2.5 0 1.59-.895 2.5-.895.904-2.46.904-1.58 0-2.47-.904-.891-.909-.891-2.5 0-1.6.891-2.5.895-.904 2.47-.904zm10.6 3.41q0-1.18-.543-1.84-.543-.669-1.5-.669-.959 0-1.5.669-.543.669-.543 1.84 0 1.18.543 1.85.547.665 1.5.665.954 0 1.5-.665.552-.674.552-1.85zm-4.09-2.26q.38-.579.95-.859.588-.28 1.39-.28 1.33 0 2.17.936.832.936.832 2.46 0 1.53-.837 2.47-.832.936-2.17.936-.8 0-1.38-.276-.574-.285-.954-.864v.972h-1.21v-9h1.21zm7.33-.977h1.2v6.6q0 1.23-.534 1.79-.534.556-1.72.556h-.452v-.904h.317q.687 0 .936-.285.249-.276.249-1.16zm0-2.52h1.2v1.35h-1.2zm9.95 5.52v.516h-5.52q.0814 1.1.746 1.68.678.574 1.87.574.692 0 1.34-.149.656-.149 1.3-.452v1.01q-.647.24-1.33.371-.683.131-1.38.127-1.75 0-2.78-.904-1.02-.904-1.02-2.44 0-1.59.968-2.52.972-.936 2.62-.936 1.48 0 2.33.841.859.841.859 2.29zm-1.2-.317q-.0136-.873-.556-1.4-.538-.52-1.42-.52-1.01 0-1.62.506-.601.502-.692 1.42zm8.46-2.41v.995q-.511-.249-1.03-.366-.511-.131-1.04-.131-1.17 0-1.82.66-.647.656-.647 1.84 0 1.18.647 1.85.651.651 1.82.651.525 0 1.04-.122.516-.127 1.03-.375v.986q-.502.208-1.04.312-.543.104-1.15.104-1.65 0-2.62-.922-.977-.918-.977-2.48 0-1.58.981-2.49.986-.909 2.7-.909.556 0 1.09.104.529.0995 1.03.298zm3.28-2.1v1.84h2.48v.828h-2.48v3.52q0 .796.24 1.02.249.226.999.226h1.24v.891h-1.24q-1.39 0-1.92-.452-.529-.466-.529-1.68v-3.52h-.882v-.828h.882v-1.84zm9.63 10.3v.823h-6.96v-.828zm5.79-8.28v1q-.511-.231-1.06-.348-.552-.113-1.14-.113-.895 0-1.35.244-.443.24-.443.724 0 .375.317.588.326.208 1.29.398l.407.0814q1.28.244 1.82.692.543.439.543 1.23 0 .904-.814 1.43-.8.529-2.22.529-.588 0-1.23-.104-.633-.0995-1.34-.303v-1.1q.669.308 1.31.466.651.149 1.28.149.85 0 1.31-.258.452-.258.452-.724 0-.439-.33-.669-.326-.231-1.45-.448l-.416-.0859q-1.12-.208-1.62-.633-.497-.439-.497-1.19 0-.913.737-1.41.733-.497 2.08-.497.665 0 1.25.0859.588.0859 1.09.262zm2.32-.181h1.2v6.47h-1.2zm0-2.52h1.2v1.35h-1.2zm8.55 5.7q0-1.16-.543-1.8-.534-.638-1.51-.638-.968 0-1.51.633-.534.642-.534 1.8 0 1.15.534 1.79.543.633 1.51.633.977 0 1.51-.633.543-.633.543-1.79zm1.2 2.51q0 1.66-.828 2.46-.832.814-2.55.814-.633 0-1.19-.0904-.565-.0814-1.09-.253v-1.04q.529.258 1.05.38.52.122 1.05.122 1.18 0 1.77-.552.588-.543.588-1.65v-.525q-.371.574-.95.859-.588.28-1.4.28-1.35 0-2.17-.909-.823-.904-.823-2.41 0-1.51.823-2.41.823-.909 2.17-.909.814 0 1.39.285.583.28.954.855v-.986h1.2zm8.59-3.09v3.91h-1.2v-3.88q0-.922-.407-1.38-.407-.457-1.22-.452-.972 0-1.53.543-.561.552-.561 1.5v3.66h-1.21v-6.47h1.21v1.01q.43-.588 1.01-.877.588-.289 1.36-.289 1.26 0 1.9.696.651.687.651 2.03zm5.74.647q-1.46 0-2.02.298-.565.294-.565 1 0 .57.421.904.425.33 1.15.33.995 0 1.6-.624.606-.633.606-1.67v-.24zm2.4-.439v3.7h-1.2v-.986q-.407.592-1.03.877-.615.276-1.5.276-1.13 0-1.8-.556-.66-.561-.66-1.5 0-1.09.828-1.65.827-.556 2.47-.556h1.69v-.104q0-.733-.547-1.13-.543-.407-1.53-.407-.624 0-1.22.131-.597.136-1.14.398v-.981q.66-.226 1.28-.335.624-.118 1.21-.118 1.59 0 2.37.728.782.728.782 2.22zm2.47-5.29h1.2v9h-1.2zm-83.7 22.3h1.38v1.47h-1.38zm4.24 0h1.38v1.47h-1.38zm4.26 0h1.38v1.47h-1.38z" style="fill:#f9f9f9;stroke-width:2.28"/>
  <path d="m628 241h162a10.9 10.9 0 0110.9 10.9v16.8a10.9 10.9 0 01-10.9 10.9h-162a10.9 10.9 0 01-10.9-10.9v-16.8a10.9 10.9 0 0110.9-10.9z" stroke-width="16.4" style="fill:#828487"/>
  <path d="m450 319v-5.11h-4.02v5.11h-2.74v-11.9h2.74v4.84h4.02v-4.84h2.72v11.9zm4.79-11.2q0-.543.389-.886.389-.353 1.05-.353.651 0 1.04.353.389.344.389.886 0 .534-.389.886-.389.348-1.04.348-.66 0-1.05-.348-.389-.353-.389-.886zm2.76 2.3v8.86h-2.64v-8.86zm6.47 6.51q0-.339-.398-.601t-1.34-.624q-1.37-.479-2.12-1.09-.733-.606-.733-1.67 0-1.11.918-1.89.923-.787 2.56-.787 1.69 0 2.67.769.972.769.972 2.01h-2.63q0-1.09-1.02-1.09-.95 0-.95.868 0 .344.362.583.375.24 1.34.588 1.51.502 2.21 1.12.714.615.714 1.72 0 1.18-.995 1.91-.995.733-2.67.733-1.82 0-2.79-.913-.954-.918-.954-2h2.49q.0181.724.38.968.362.249.927.249 1.06 0 1.06-.846zm8.64 2.32q-.638.226-1.46.226-1.17 0-1.87-.61-.696-.606-.696-2.03v-4.66h-1.17v-1.75h1.17v-2.19h2.62v2.19h1.34v1.75h-1.35v4.41q0 .561.181.742.181.181.61.181.362 0 .62-.0678zm.809-4.66q0-2.09 1.09-3.2 1.1-1.12 2.96-1.12 1.88 0 2.97 1.12 1.1 1.11 1.1 3.2v.588q0 2.09-1.1 3.2-1.09 1.11-2.95 1.11-1.87 0-2.97-1.11-1.1-1.11-1.1-3.2zm2.62.588q0 2.38 1.45 2.38 1.38 0 1.43-2.23v-.733q0-2.39-1.45-2.39-1.38 0-1.43 2.24zm11.3-2.55q-1.1 0-1.47.828v5.88h-2.62v-8.86h2.47l.0769.959q.633-1.13 1.72-1.13.425 0 .714.0995l-.0271 2.31q-.466-.0633-.864-.0633zm3.64 10.3q-.475 0-1.08-.154v-1.81l.317.00905q.638 0 .936-.226.294-.226.443-.71l.217-.615-2.9-8.95h2.81l1.22 5.02 1.33-5.02h2.8l-3.31 10.2q-.705 2.05-2.4 2.22z" style="fill:#828487;font-variant-caps:normal;font-variant-east-asian:normal;font-variant-ligatures:normal;font-variant-numeric:normal;stroke-width:2.28"/>
  <path class="st6" d="m366 123h-154c-4.84 0-8.82-3.43-8.82-7.6v-84.6c0-4.19 3.98-7.64 8.82-7.64h154c4.84 0 8.82 3.43 8.82 7.64v84.6c0 4.19-3.98 7.6-8.82 7.6z" fill="url(#b)" filter="url(#i)" stroke="url(#e)" stroke-width="2.49" style="fill:#f2f2f2;filter:url(#filter15);stroke-width:.855;stroke:url(#e)"/>
  <path d="m586 298h9.99v1.95h-3.6v8.05h-2.8v-8.05h-3.6zm15.4 4.43q.882 0 1.26-.303.384-.303.384-.995 0-.683-.384-.977-.375-.298-1.26-.298h-1.18v2.57zm-1.18 1.79v3.79h-2.8v-10h4.27q2.14 0 3.14.665 1 .665 1 2.1 0 .995-.525 1.63-.516.638-1.56.941.574.122 1.02.552.461.421.927 1.29l1.51 2.85h-2.98l-1.32-2.49q-.398-.755-.814-1.03-.407-.276-1.09-.276zm8.68-6.2h2.8v10h-2.8zm15.3 9.27q-1.05.47-2.17.705-1.13.235-2.33.235-2.71 0-4.3-1.4-1.58-1.4-1.58-3.8 0-2.42 1.61-3.81 1.61-1.39 4.42-1.39 1.08 0 2.07.19.995.185 1.87.556v2.08q-.904-.479-1.81-.714-.895-.235-1.8-.235-1.67 0-2.58.868-.904.859-.904 2.46 0 1.59.873 2.46.873.868 2.48.864.439 0 .809-.0452.375-.0543.674-.163v-1.94h-1.71v-1.73h4.36zm12.2 0q-1.05.47-2.17.705-1.13.235-2.33.235-2.71 0-4.3-1.4-1.58-1.4-1.58-3.8 0-2.42 1.61-3.81 1.61-1.39 4.42-1.39 1.08 0 2.07.19.995.185 1.87.556v2.08q-.904-.479-1.81-.714-.895-.235-1.8-.235-1.67 0-2.58.868-.904.859-.904 2.46 0 1.59.873 2.46.873.868 2.48.864.439 0 .809-.0452.375-.0543.674-.163v-1.94h-1.71v-1.73h4.36zm2.47-9.27h7.55v1.95h-4.75v1.86h4.47v1.95h-4.47v2.3h4.93v1.95h-7.69zm14.1 4.43q.882 0 1.26-.303.384-.303.384-.995 0-.683-.384-.977-.375-.298-1.26-.298h-1.18v2.57zm-1.18 1.79v3.79h-2.8v-10h4.27q2.14 0 3.14.665 1 .665 1 2.1 0 .995-.525 1.63-.516.638-1.56.941.574.122 1.02.552.461.421.922 1.29l1.52 2.85h-2.98l-1.32-2.49q-.398-.755-.814-1.03-.407-.276-1.09-.276zm16.2-5.92v2.13q-.891-.371-1.74-.561-.85-.185-1.61-.185-1 0-1.48.253-.479.253-.479.791 0 .407.317.633.33.222 1.18.38l1.19.226q1.81.335 2.58 1.02.76.683.76 1.94 0 1.66-1.07 2.47-1.06.805-3.25.805-1.03 0-2.07-.181-1.04-.181-2.08-.538v-2.18q1.04.506 2.01.769.977.258 1.88.258.913 0 1.4-.285.488-.28.488-.805 0-.47-.335-.724-.33-.253-1.32-.457l-1.09-.222q-1.63-.321-2.38-1.03-.746-.705-.746-1.9 0-1.5 1.04-2.31 1.04-.809 3.01-.805.895 0 1.84.131.945.118 1.95.366z" style="fill:#828487;stroke-width:2.28"/>
  <path class="st2" d="m565 291v13.9h-4.24l6.81 10.4 6.81-10.4h-4.16v-13.9l-5.22-.00472z" style="fill:#bcbec0;stroke-width:4.54"/>
  <path class="st2" d="m683 291v13.9h-4.22l6.81 10.4 6.81-10.4h-4.19v-13.9l-5.22-.00472z" style="fill:#bcbec0;stroke-width:4.54"/>
  <path class="st2" d="m378 71.5v8.4h2.85v-8.4zm8.22 0v8.4l5.4.00467v-8.4h-5.4zm10.9 0v8.4l5.4.00467v-8.4h-5.4zm10.8 0v8.4l5.4.00467v-8.4h-5.4zm10.8 0v8.4l5.4.00467v-8.4h-5.4zm10.8 0v8.4h2.85v-8.4z" style="fill:#bcbec0;stroke-width:1.62"/>
  <path d="m174 69.6v3.71h-15.7l-.00467 4.63h15.7v3.72l11.8-6.04-11.8-6.04z" style="fill:#bcbec0;stroke-width:4.54"/>
  <path class="st2" d="m287 137-6.81 10.4 4.21.00236v13.9h5.22v-13.9l4.2.00236-6.81-10.4z" style="fill:#bcbec0;stroke-width:4.54"/>
  <path d="m267 214v5.27q-.459.43-1.58 1.03-1.13.595-3.16.595-2.41 0-3.85-1.34-1.44-1.35-1.44-4.12v-2.16q0-2.78 1.38-4.13 1.38-1.35 3.73-1.35 2.45 0 3.6 1.09 1.15 1.08 1.32 3.15h-2.82q-.118-1.2-.581-1.64-.452-.452-1.43-.452-1.13 0-1.69.74-.563.74-.572 2.52v2.25q0 1.81.622 2.58.622.749 1.91.749.767 0 1.12-.181l.536-.28v-2.34h-2.05v-1.94zm12.2 1.47q0 2.7-1.43 4.05-1.43 1.36-3.75 1.36-2.32 0-3.76-1.36-1.45-1.36-1.45-4.05v-2.12q0-2.76 1.44-4.16t3.75-1.4q2.33 0 3.76 1.4 1.44 1.4 1.44 4.16zm-2.91-2.13q0-1.82-.586-2.61-.586-.785-1.7-.785-1.11 0-1.69.776-.572.767-.586 2.55v2.21q0 1.73.586 2.51.59.763 1.71.763 1.11 0 1.68-.754.572-.749.581-2.45zm13.2 2.94q0 2.31-.858 3.46-.858 1.15-2.59 1.15-1.41 0-2.23-1.11l-.0904.935h-2.58v-13.4h2.79v4.77q.799-.949 2.09-.949 1.8 0 2.62 1.16.831 1.14.84 3.38zm-4.27-3.15q-.89 0-1.28.708v4.32q.384.663 1.31.663.917 0 1.18-.577.271-.577.271-1.96v-.617q0-1.29-.28-1.91-.267-.622-1.2-.622zm5.9-4.33q0-.577.416-.949.416-.37 1.11-.37.704 0 1.12.375.416.366.416.944 0 .568-.416.949-.416.361-1.12.361-.69 0-1.11-.361-.416-.38-.416-.949zm.19 2.45h2.81v9.99q0 1.6-.854 2.45-.84.858-2.37.858-.672 0-1.29-.149v-2.01q.448.0676.754.0676.94 0 .94-1.22zm12.8 8.22q-.425.513-1.35.967-.908.452-2.29.452-2.19 0-3.39-1.15-1.18-1.16-1.18-3.21v-.781q0-2.3 1.13-3.48 1.14-1.19 3.16-1.19 2.02 0 3.04 1.13 1.02 1.13 1.04 3.39v1.22h-5.54q.05 1.13.54 1.58.513.452 1.41.452 1.42 0 2.34-.858zm-3.93-6.36q-.726 0-1.07.468-.326.452-.384 1.48h2.8v-.217q-.0226-.858-.316-1.29-.298-.439-1.03-.439zm9.58 5.72q1.23 0 1.23-1.4h2.63q-.00903 1.62-1.11 2.54-1.09.917-2.7.917-2.14 0-3.19-1.18t-1.07-3.31v-.763q0-2.17 1.05-3.37 1.05-1.2 3.2-1.2 1.72 0 2.76.949 1.05.944 1.06 2.76h-2.63q0-1.65-1.25-1.65-.922 0-1.16.645-.226.645-.226 1.86v.681q0 1.25.226 1.88.226.631 1.18.631zm10.2 1.83q-.676.235-1.56.235-1.24 0-1.99-.645-.74-.645-.74-2.16v-4.99h-1.25v-1.87h1.25v-2.34h2.79v2.34h1.43v1.87h-1.43v4.72q0 .595.185.785.199.194.654.194.384 0 .658-.0722zm-59 23.1-2.17-4.68h-1.45v4.68h-2.91v-12.8h4.63q2.16 0 3.36.994 1.21.976 1.21 2.86 0 1.38-.554 2.23-.554.844-1.54 1.31l2.54 5.22v.122zm-3.62-10.6v3.8h1.64q.872 0 1.31-.508.434-.518.434-1.38 0-1.88-1.6-1.92zm13.5 10.6-.0676-.872q-.872 1.05-2.35 1.05-1.33 0-2.16-.822t-.831-2.69v-6.13h2.8v6.13q0 1.45 1.03 1.45.967 0 1.4-.74v-6.86h2.81v9.49zm8.54-7.58q-.758 0-1.19.699v6.9h-2.8v-9.49h2.62l.0813.926q.963-1.1 2.5-1.1 1.26 0 2.04.804.795.808.795 2.82v6.04h-2.8v-6.04q0-.904-.316-1.22-.307-.316-.922-.316zm10.8 7.54q-.676.235-1.56.235-1.25 0-1.99-.645-.74-.649-.74-2.17v-4.99h-1.25v-1.86h1.25v-2.34h2.79v2.34h1.44v1.86h-1.44v4.72q0 .595.19.785.199.194.654.194.384 0 .658-.0676zm1.47-11.9q0-.572.416-.944.416-.375 1.12-.375.695 0 1.11.375.416.37.416.949 0 .563-.416.944-.416.361-1.11.361-.699 0-1.12-.361-.416-.38-.416-.949zm2.94 2.46v9.49h-2.81v-9.49zm6.17 1.9q-.736 0-1.14.676v6.9h-2.8v-9.49h2.62l.0813.876q.926-1.05 2.47-1.05 1.59 0 2.28 1.27.917-1.27 2.61-1.27 1.3 0 2.09.813.79.813.79 2.8v6.04h-2.8v-6.04q0-.949-.294-1.24-.298-.307-.831-.307-.79 0-1.16.858l.00903 6.72h-2.79v-5.99q0-.935-.294-1.25-.294-.316-.844-.316zm19 6.36q-.425.508-1.35.967-.908.452-2.29.452-2.19 0-3.39-1.15-1.19-1.16-1.19-3.21v-.781q0-2.31 1.13-3.49 1.14-1.19 3.16-1.19 2.02 0 3.04 1.13 1.02 1.13 1.04 3.39v1.22h-5.54q.0499 1.13.54 1.58.509.443 1.41.443 1.42 0 2.34-.858zm-3.93-6.36q-.731 0-1.07.463-.326.459-.384 1.48h2.8v-.222q-.0226-.858-.316-1.28-.303-.439-1.04-.439z" style="fill:#828487;font-feature-settings:normal;font-variant-caps:normal;font-variant-ligatures:normal;font-variant-numeric:normal;stroke-width:1.62"/>
  <path d="m631 251q-.968 0-1.53.669-.565.669-.565 1.83t.556 1.84q.565.665 1.54.665.963 0 1.52-.674.561-.669.561-1.83 0-1.15-.561-1.82-.561-.678-1.52-.678zm0-.904q1.57 0 2.46.904.895.904.895 2.5 0 1.59-.895 2.5-.895.904-2.46.904-1.57 0-2.47-.904-.886-.909-.886-2.5 0-1.6.886-2.5.9-.904 2.47-.904zm10.6 3.41q0-1.18-.547-1.84-.543-.669-1.5-.669-.95 0-1.5.669-.543.665-.543 1.84 0 1.18.543 1.85.547.669 1.5.669.959 0 1.5-.669.547-.669.547-1.85zm-4.09-2.26q.38-.579.95-.859.588-.28 1.39-.28 1.33 0 2.16.936.837.936.837 2.46 0 1.53-.837 2.46-.828.941-2.16.941-.805 0-1.39-.28-.574-.28-.954-.859v.972h-1.21v-9h1.21zm7.33-.977h1.2v6.6q0 1.24-.538 1.8-.529.556-1.71.556h-.457v-.904h.316q.692 0 .941-.285.249-.276.249-1.16zm0-2.52h1.2v1.35h-1.2zm9.99 5.47v.525h-5.52q.0769 1.1.742 1.68.678.574 1.87.574.692 0 1.34-.149.656-.154 1.3-.452v1.01q-.647.24-1.33.366-.678.131-1.38.131-1.75 0-2.78-.904-1.02-.904-1.02-2.44 0-1.59.968-2.52.972-.941 2.62-.941 1.48 0 2.33.846.864.841.864 2.29zm-1.2-.308q-.0135-.873-.556-1.4-.538-.52-1.42-.52-1.01 0-1.61.502-.606.506-.696 1.42zm8.46-2.41v.995q-.511-.249-1.03-.371-.511-.127-1.03-.127-1.18 0-1.82.66-.647.656-.647 1.84 0 1.18.647 1.84.651.656 1.82.656.52 0 1.03-.122.516-.127 1.03-.375v.986q-.502.208-1.04.312-.538.104-1.14.104-1.66 0-2.63-.922-.972-.918-.972-2.48 0-1.58.981-2.49.986-.909 2.7-.909.556 0 1.09.104.529.095 1.03.298zm3.28-2.08v1.84h2.48v.828h-2.48v3.52q0 .791.24 1.02.249.226.999.226h1.24v.891h-1.24q-1.39 0-1.92-.452-.529-.466-.529-1.68v-3.52h-.882v-.828h.882v-1.84zm9.63 10.3v.828h-6.96v-.828zm1.14-10.9h1.2v9h-1.2zm7.05 5.74q-1.46 0-2.02.298-.561.298-.561 1 0 .57.416.904.425.33 1.15.33.999 0 1.6-.624.61-.633.61-1.67v-.24zm2.4-.439v3.7h-1.2v-.986q-.411.588-1.03.877-.615.271-1.51.271-1.13 0-1.79-.552-.66-.561-.66-1.5 0-1.09.823-1.65.832-.556 2.47-.556h1.69v-.104q0-.737-.552-1.14-.543-.407-1.53-.407-.633 0-1.22.136-.597.136-1.15.398v-.981q.66-.226 1.28-.339.62-.113 1.21-.113 1.59 0 2.37.728.787.728.787 2.21zm5.52 4.31q-.511 1.16-.995 1.51t-1.29.353h-.963v-.891h.705q.497 0 .769-.208.28-.208.61-.986l.217-.484-2.96-6.38h1.28l2.29 5.06 2.29-5.06h1.28zm7.73-6.33q-.968 0-1.53.669-.561.669-.561 1.83 0 1.16.556 1.84.561.665 1.54.665.959 0 1.52-.674.561-.669.561-1.83 0-1.15-.561-1.82-.565-.678-1.52-.678zm0-.904q1.57 0 2.46.904.895.904.895 2.5 0 1.59-.895 2.5-.895.904-2.46.904-1.58 0-2.47-.904-.891-.909-.891-2.5 0-1.6.891-2.5.895-.904 2.47-.904zm5.25 4.1v-3.92h1.2v3.88q0 .922.407 1.38.407.457 1.22.457.972 0 1.54-.547.57-.552.57-1.5v-3.67h1.2v6.47h-1.2v-.995q-.439.588-1.02.882-.574.28-1.34.28-1.27 0-1.92-.692-.656-.696-.656-2.03zm9.81-5.74v1.84h2.48v.828h-2.48v3.52q0 .791.24 1.02.249.226.999.226h1.24v.891h-1.24q-1.39 0-1.92-.452-.529-.466-.529-1.68v-3.52h-.882v-.828h.882v-1.84zm9.63 10.3v.828h-6.96v-.828zm2.3-2.93v3.44h-1.21v-8.95h1.21v.981q.38-.579.954-.859.588-.28 1.39-.28 1.33 0 2.17.936.837.941.837 2.47 0 1.53-.837 2.46-.832.936-2.17.936-.805 0-1.39-.276-.574-.285-.95-.859zm4.1-2.26q0-1.18-.552-1.84-.543-.674-1.5-.674-.954 0-1.51.674-.543.665-.543 1.84 0 1.18.543 1.84.552.665 1.51.665.954 0 1.5-.665.552-.674.552-1.84zm7.51-2.27q-.199-.104-.443-.149-.235-.0543-.525-.0543-1.02 0-1.57.592-.543.588-.543 1.68v3.42h-1.21v-6.51h1.21v1.01q.38-.588.99-.873.606-.289 1.48-.289.122 0 .271.0136.154.0136.335.0452zm3.79-.244q-.968 0-1.53.669-.561.669-.561 1.83t.556 1.84q.561.665 1.54.665.959 0 1.52-.674.561-.669.561-1.83 0-1.15-.561-1.82-.565-.678-1.52-.678zm0-.904q1.57 0 2.46.904.895.904.895 2.5 0 1.59-.895 2.5-.895.904-2.46.904-1.58 0-2.47-.904-.891-.909-.891-2.5 0-1.6.891-2.5.895-.904 2.47-.904zm6.56 5.7v3.44h-1.21v-8.95h1.21v.981q.38-.579.959-.859.579-.28 1.38-.28 1.33 0 2.17.936.837.941.837 2.47 0 1.53-.837 2.46-.832.936-2.17.936-.805 0-1.38-.276-.579-.285-.959-.859zm4.09-2.26q0-1.18-.552-1.84-.543-.674-1.49-.674-.95 0-1.51.674-.543.665-.543 1.84 0 1.18.543 1.85.547.665 1.5.665.954 0 1.5-.665.552-.674.552-1.85zm9.5-.289v.525h-5.52q.0769 1.1.746 1.68.674.574 1.87.574.692 0 1.34-.149.651-.154 1.29-.452v1.01q-.647.24-1.33.366-.678.131-1.38.131-1.75 0-2.78-.904-1.02-.904-1.02-2.44 0-1.59.968-2.52.977-.941 2.62-.941 1.48 0 2.33.846.864.841.864 2.29zm-1.2-.308q-.0136-.873-.556-1.4-.534-.52-1.42-.52-1.01 0-1.61.502-.601.506-.696 1.42zm7.42-1.68q-.199-.104-.443-.149-.235-.0543-.525-.0543-1.02 0-1.57.592-.543.588-.543 1.68v3.42h-1.21v-6.51h1.21v1.01q.38-.588.99-.873.606-.289 1.47-.289.127 0 .276.0136.149.0136.335.0452zm2.45-2.81v1.84h2.47v.828h-2.48v3.52q0 .791.24 1.02.249.226 1 .226h1.23v.891h-1.23q-1.39 0-1.93-.452-.529-.466-.529-1.68v-3.52h-.882v-.828h.882v-1.84zm7.1 8.91q-.511 1.16-.995 1.51-.484.353-1.29.353h-.963v-.891h.705q.497 0 .773-.208.271-.208.606-.986l.217-.484-2.96-6.38h1.28l2.29 5.06 2.29-5.06h1.28zm-149 12.8h1.38v1.47h-1.38zm4.27 0h1.38v1.47h-1.38zm4.27 0h1.37v1.47h-1.38z" style="fill:#f9f9f9;stroke-width:2.28"/>
  <path d="m592 323h69c8.13-.0136 14.8 5.72 14.7 12.8v67.6c.0181 7.04-6.58 12.8-14.7 12.8h-69c-8.13.0181-14.8-5.68-14.7-12.8v-67.6c-.0136-7.04 6.58-12.8 14.7-12.8z" fill="#828487" stroke-width="3.63" style="stroke-width:16.4"/>
  <path d="m597 332v1.43h1.12v-1.43zm-7.99.00469v9.49h1.13v-3.86c0-.663.175-1.19.522-1.58.353-.384.826-.581 1.43-.581.504 0 .881.16 1.14.481.253.321.375.804.375 1.45v4.08h1.12v-4.12c0-.94-.198-1.66-.599-2.14-.402-.49-.994-.731-1.78-.731-.477 0-.894.104-1.26.307-.361.203-.672.508-.944.917v-3.71h-1.13zm17.9.713v1.94h-.822v.872h.822v3.7c0 .854.163 1.44.495 1.77.33.321.926.481 1.79.481h1.15v-.94h-1.15c-.472 0-.781-.0767-.935-.239-.149-.158-.225-.518-.225-1.07v-3.7h2.31v-.872h-2.31v-1.94h-1.13zm-4.31 1.78c-.835 0-1.48.178-1.94.527-.459.353-.681.844-.681 1.49 0 .527.155.944.468 1.25.307.298.808.518 1.51.667l.387.0917c.695.149 1.14.306 1.35.468.208.163.312.394.312.704 0 .33-.144.581-.43.767-.285.176-.69.267-1.22.267-.398 0-.795-.0531-1.2-.157-.402-.109-.808-.271-1.23-.486v1.16c.439.145.858.249 1.25.317.398.0767.776.113 1.14.113.876 0 1.57-.185 2.07-.554.509-.37.754-.872.754-1.51 0-.554-.168-.99-.509-1.3-.33-.312-.894-.554-1.69-.726l-.382-.0822c-.599-.136-1-.275-1.2-.42-.199-.153-.298-.357-.298-.617 0-.339.139-.595.415-.763.28-.172.695-.258 1.25-.258.366 0 .722.0406 1.06.122.344.0813.667.203.985.366v-1.06c-.307-.122-.645-.211-1.01-.27-.366-.0631-.758-.0962-1.17-.0962zm11.8 0c-.976 0-1.74.317-2.3.949-.549.631-.826 1.51-.826 2.63 0 1.12.277 1.99.826 2.63.554.631 1.33.949 2.3.949.976 0 1.74-.317 2.3-.949.554-.636.831-1.51.831-2.63 0-1.12-.277-2-.831-2.63-.558-.631-1.32-.949-2.3-.949zm8.4 0c-.54 0-.999.0994-1.38.303-.38.199-.681.504-.922.922v-1.06h-1.13v6.81h1.13v-3.6c0-.772.173-1.37.509-1.77.344-.416.831-.622 1.46-.622.176 0 .339.0178.486.054.149.0316.291.0872.413.159l-.00467-1.15c-.113-.0181-.217-.0309-.312-.0399-.0904-.0136-.177-.0188-.253-.0188zm-25.9.164v6.81h1.12v-6.81zm26.8 0 2.76 6.72-.204.508c-.203.54-.394.89-.568 1.04-.172.149-.41.223-.717.223h-.663v.935h.899c.504 0 .903-.122 1.21-.37.298-.249.604-.776.922-1.59l3-7.45h-1.19l-2.13 5.36-2.13-5.36h-1.19zm-9.31.785c.599 0 1.07.239 1.43.713.348.472.518 1.11.518 1.92 0 .808-.171 1.45-.518 1.93-.353.472-.822.704-1.43.704-.604 0-1.08-.233-1.43-.699-.348-.472-.522-1.12-.522-1.93 0-.817.178-1.46.527-1.93.348-.477.822-.708 1.43-.708zm-17.5 24.2v1.43h1.12v-1.43zm41.2 0v1.43h1.12v-1.43zm7.95 0v3.69c-.235-.407-.536-.704-.894-.899-.357-.199-.785-.298-1.29-.298-.822 0-1.49.326-2.02.985-.518.658-.772 1.53-.772 2.6 0 1.08.257 1.94.772 2.6.518.654 1.19.985 2.02.985.509 0 .935-.101 1.29-.296.361-.199.663-.499.894-.908v1.03h1.12v-9.49h-1.12zm-57.2.00467v9.49h1.13v-3.85c0-.663.175-1.19.522-1.58.353-.384.826-.581 1.43-.581.504 0 .881.158 1.14.477.253.321.375.808.375 1.45v4.08h1.12v-4.12c0-.94-.198-1.65-.599-2.14-.402-.49-.994-.731-1.78-.731-.477 0-.894.104-1.26.307-.361.203-.672.508-.944.917v-3.72h-1.13zm17.9.717v1.94h-.822v.872h.822v3.7c0 .854.163 1.44.495 1.77.33.321.926.481 1.79.481h1.15v-.94h-1.15c-.472 0-.781-.0767-.935-.239-.149-.158-.225-.518-.225-1.07v-3.7h2.31v-.872h-2.31v-1.94h-1.13zm-4.31 1.78c-.835 0-1.48.175-1.94.522-.459.353-.681.844-.681 1.49 0 .527.155.944.468 1.25.307.298.808.518 1.51.667l.387.0917c.695.149 1.14.306 1.35.468.208.163.312.394.312.704 0 .33-.144.581-.43.767-.285.176-.69.267-1.22.267-.398 0-.795-.0554-1.2-.159-.402-.109-.808-.271-1.23-.486v1.16c.439.145.858.249 1.25.317.398.0767.776.115 1.14.115.876 0 1.57-.185 2.07-.554.509-.37.754-.872.754-1.51 0-.554-.168-.99-.509-1.3-.33-.312-.894-.554-1.69-.726l-.382-.0822c-.599-.136-1-.275-1.2-.42-.199-.153-.298-.357-.298-.617 0-.339.139-.599.415-.763.28-.172.695-.256 1.25-.256.366 0 .722.0406 1.06.122.344.0813.667.203.985.366v-1.06c-.307-.122-.645-.213-1.01-.272-.366-.0631-.758-.094-1.17-.094zm11.8 0c-.976 0-1.74.315-2.3.949-.549.631-.826 1.52-.826 2.64 0 1.12.277 1.99.826 2.63.554.631 1.33.949 2.3.949.976 0 1.74-.317 2.3-.949.554-.636.831-1.51.831-2.63 0-1.12-.277-2-.831-2.64-.558-.631-1.32-.949-2.3-.949zm8.4 0c-.54 0-.999.099-1.38.303-.38.199-.681.504-.922.922v-1.06h-1.13v6.81h1.13v-3.59c0-.772.173-1.37.508-1.78.344-.416.831-.622 1.46-.622.176 0 .339.0178.486.054.149.0316.291.0849.413.157l-.00472-1.15c-.113-.0181-.217-.0332-.312-.0423-.0903-.0135-.177-.0164-.253-.0164zm-25.9.162v6.81h1.12v-6.81zm26.8 0 2.76 6.72-.204.513c-.203.54-.394.89-.568 1.04-.172.149-.41.223-.717.223h-.663v.935h.899c.504 0 .903-.122 1.21-.37.298-.249.604-.776.922-1.59l3-7.45h-1.19l-2.13 5.36-2.13-5.36h-1.19zm14.4 0v6.81h1.12v-6.81zm6.04.776c.59 0 1.06.234 1.4.708.344.468.513 1.11.513 1.93 0 .826-.168 1.47-.513 1.94-.339.472-.808.704-1.4.704-.595 0-1.06-.232-1.4-.704-.339-.472-.509-1.12-.509-1.94 0-.822.168-1.47.509-1.93.344-.477.808-.708 1.4-.708zm-29.8.0117c.599 0 1.07.241 1.43.717.348.472.518 1.11.518 1.92 0 .808-.171 1.45-.518 1.93-.353.472-.822.708-1.43.708-.604 0-1.08-.236-1.43-.704-.348-.472-.522-1.12-.522-1.93 0-.817.177-1.46.527-1.93.348-.477.822-.713 1.43-.713zm16.2 8.13v.872h6.49v-.872zm17.3 2.24v3.69c-.235-.407-.531-.708-.894-.899-.357-.199-.785-.298-1.29-.298-.822 0-1.5.326-2.02.985-.518.658-.772 1.53-.772 2.6 0 1.08.257 1.94.772 2.6.518.654 1.19.985 2.02.985.509 0 .935-.099 1.29-.293.361-.199.658-.504.894-.908v1.03h1.12v-9.49h-1.12zm-9.13 2.49c-.477 0-.894.104-1.26.307-.361.203-.676.504-.944.917v-1.06h-1.13v6.81h1.13v-3.86c0-.663.175-1.19.522-1.58.353-.384.826-.581 1.43-.581.508 0 .881.16 1.14.481.253.321.375.804.375 1.45v4.08h1.12v-4.12c0-.94-.198-1.66-.599-2.14-.402-.49-.994-.731-1.78-.731zm-46.8.00474c-1.06 0-1.9.317-2.52.953-.608.64-.913 1.51-.913 2.62 0 1.1.302 1.97.908 2.62.604.645 1.42.967 2.45.967.375 0 .731-.0356 1.07-.108.335-.0722.663-.186.972-.331v-1.04c-.316.176-.636.306-.953.396-.316.0813-.636.127-.962.127-.726 0-1.29-.231-1.7-.686-.402-.468-.599-1.11-.599-1.95 0-.831.198-1.48.599-1.93.402-.468.967-.695 1.7-.695.326 0 .645.0459.962.136.321.0858.64.211.953.387v-1.05c-.307-.14-.627-.249-.953-.317-.33-.0722-.672-.108-1.01-.108zm6.58 0c-.976 0-1.74.317-2.3.949-.549.631-.826 1.51-.826 2.63 0 1.12.274 1.99.826 2.63.554.631 1.33.949 2.3.949.976 0 1.74-.317 2.3-.949.554-.636.831-1.51.831-2.63 0-1.12-.277-2-.831-2.63-.558-.631-1.32-.949-2.3-.949zm8.26 0c-.495 0-.913.099-1.28.298-.357.199-.663.509-.917.926v-1.06h-1.13v6.81h1.13v-3.86c0-.663.168-1.19.509-1.57.335-.389.79-.586 1.37-.586.486 0 .84.16 1.07.477.231.312.35.795.35 1.45v4.08h1.13v-3.86c0-.667.165-1.19.504-1.58.339-.389.795-.581 1.38-.581.477 0 .826.16 1.06.477.235.316.347.799.347 1.45v4.08h1.13v-4.12c0-.917-.195-1.63-.586-2.12-.384-.504-.931-.749-1.64-.749-.527 0-.985.117-1.38.361-.389.24-.726.608-1.01 1.11-.163-.481-.426-.844-.776-1.09-.344-.253-.763-.38-1.26-.38zm12.2 0c-.495 0-.913.099-1.28.298-.357.199-.658.509-.917.926v-1.06h-1.13v6.81h1.13v-3.86c0-.663.168-1.19.508-1.57.335-.389.79-.586 1.37-.586.486 0 .84.16 1.07.477.231.312.35.795.35 1.45v4.08h1.13v-3.86c0-.667.168-1.19.509-1.58.339-.389.795-.581 1.38-.581.477 0 .826.16 1.06.477.235.316.347.799.347 1.45v4.08h1.13v-4.12c0-.917-.195-1.63-.586-2.12-.384-.504-.931-.749-1.64-.749-.527 0-.985.117-1.38.361-.389.24-.726.608-1.01 1.11-.163-.481-.42-.844-.772-1.09-.344-.253-.763-.38-1.26-.38zm11.3 0c-.366 0-.74.0406-1.13.122-.389.0767-.785.194-1.2.352v1.04c.344-.185.699-.327 1.07-.422.37-.0903.749-.138 1.14-.138.613 0 1.09.144 1.43.43.339.28.513.676.513 1.19v.11h-1.57c-1.02 0-1.78.193-2.3.586-.513.389-.772.967-.772 1.73 0 .654.203 1.18.613 1.58.416.389.972.586 1.67.586.554 0 1.02-.0944 1.4-.289.384-.199.699-.504.958-.922v1.04h1.12v-3.89c0-1.04-.244-1.82-.731-2.33-.486-.513-1.23-.772-2.21-.772zm15.8.935c.59 0 1.06.234 1.4.708.344.468.513 1.11.513 1.93 0 .826-.168 1.48-.513 1.94-.339.472-.808.699-1.4.699-.595 0-1.06-.229-1.4-.699-.339-.472-.509-1.12-.509-1.94 0-.822.168-1.47.509-1.93.344-.477.808-.708 1.4-.708zm-47.7.0141c.599 0 1.07.239 1.43.713.348.472.518 1.11.518 1.92 0 .808-.17 1.45-.518 1.93-.353.472-.822.704-1.43.704-.604 0-1.08-.233-1.43-.699-.348-.472-.522-1.12-.522-1.93 0-.817.178-1.46.527-1.93.348-.477.822-.708 1.43-.708zm32.4 2.61h1.12v.249c0 .731-.19 1.32-.568 1.77-.375.439-.872.658-1.5.658-.448 0-.804-.117-1.07-.347-.258-.235-.39-.554-.39-.949 0-.504.178-.854.527-1.06.349-.209.976-.312 1.88-.312zm-29.4 7.72v9.49h1.13v-1.03c.235.407.527.708.885.908.361.194.795.293 1.29.293.826 0 1.5-.33 2.02-.99.518-.654.781-1.53.781-2.6 0-1.07-.262-1.93-.781-2.6-.518-.658-1.19-.985-2.02-.985-.499 0-.931.101-1.29.3-.357.194-.649.49-.885.899v-3.69h-1.13zm7.95 0v9.49h1.12v-9.49zm-20.5.717v1.94h-.822v.872h.822v3.7c0 .854.163 1.44.495 1.77.33.321.926.481 1.79.481h1.15v-.94h-1.15c-.472 0-.781-.0767-.935-.239-.149-.158-.225-.513-.225-1.07v-3.7h2.31v-.872h-2.31v-1.94h-1.13zm7.36 1.78c-.366 0-.74.0406-1.13.122-.389.0767-.785.196-1.2.354v1.04c.344-.185.699-.325 1.07-.42.37-.0904.749-.141 1.14-.141.613 0 1.09.144 1.43.43.339.28.513.681.513 1.19v.108h-1.58c-1.02 0-1.78.193-2.3.586-.509.389-.772.967-.772 1.73 0 .654.203 1.18.613 1.58.416.389.972.581 1.67.581.554 0 1.02-.0944 1.4-.289.384-.199.704-.504.958-.922v1.04h1.12v-3.89c0-1.04-.244-1.82-.731-2.33-.486-.513-1.23-.772-2.21-.772zm19.5 0c-1.02 0-1.84.33-2.44.985-.599.654-.904 1.54-.904 2.66 0 1.08.317 1.94.949 2.57.64.631 1.51.949 2.59.949.439 0 .863-.0454 1.29-.131.42-.0904.835-.22 1.23-.392v-1.06c-.398.208-.799.37-1.2.472-.404.102-.822.159-1.25.159-.74 0-1.32-.205-1.74-.608-.416-.402-.649-.994-.695-1.76h5.13v-.549c0-1.01-.266-1.82-.799-2.41-.531-.59-1.26-.89-2.18-.89zm-11.2.935c.595 0 1.06.236 1.39.713.344.468.513 1.11.513 1.93 0 .826-.168 1.48-.513 1.94-.335.472-.799.699-1.39.699-.59 0-1.06-.229-1.4-.699-.335-.472-.499-1.12-.499-1.94 0-.822.165-1.47.499-1.93.344-.477.813-.713 1.4-.713zm11.2.0141c.549 0 .994.185 1.33.549.335.361.513.854.518 1.46l-4 .00939c.0586-.64.272-1.14.649-1.5.38-.353.881-.527 1.5-.527zm-18.8 2.61h1.12v.249c0 .731-.19 1.32-.568 1.76-.375.439-.872.658-1.5.658-.448 0-.804-.117-1.07-.347-.258-.235-.39-.554-.39-.949 0-.504.175-.854.522-1.06.348-.208.976-.312 1.88-.312zm6.99 7.72v9.49h1.12v-9.49zm21.2 2.49c-.835 0-1.48.175-1.94.522-.459.353-.681.844-.681 1.49 0 .527.155.944.468 1.25.307.298.808.518 1.5.667l.39.0917c.695.149 1.14.306 1.35.468.208.163.312.394.312.704 0 .33-.144.581-.43.767-.285.176-.69.267-1.22.267-.398 0-.795-.0554-1.2-.159-.402-.109-.808-.271-1.23-.486v1.16c.439.145.858.247 1.25.314.398.0767.776.115 1.14.115.876 0 1.57-.185 2.07-.554.508-.37.754-.872.754-1.51 0-.554-.168-.99-.508-1.3-.33-.312-.894-.554-1.69-.726l-.382-.0822c-.599-.136-1-.275-1.2-.42-.199-.154-.298-.357-.298-.617 0-.339.139-.599.415-.763.28-.172.695-.256 1.25-.256.366 0 .722.0407 1.06.122.344.0813.667.203.985.366v-1.06c-.307-.122-.645-.213-1.01-.272-.366-.0631-.758-.094-1.17-.094zm-26.5.00471c-.366 0-.74.0406-1.13.122-.389.0767-.785.194-1.2.352v1.04c.344-.185.699-.325 1.07-.42.37-.0904.754-.141 1.14-.141.613 0 1.09.144 1.43.43.339.28.513.681.513 1.19v.108h-1.58c-1.02 0-1.78.196-2.3.59-.513.389-.767.967-.767 1.73 0 .654.203 1.18.613 1.58.416.389.972.586 1.67.586.554 0 1.02-.0962 1.4-.291.384-.199.704-.504.958-.922v1.04h1.12v-3.89c0-1.04-.244-1.82-.731-2.33-.486-.513-1.23-.767-2.21-.767zm19.5 0c-1.02 0-1.83.33-2.44.985-.599.654-.904 1.54-.904 2.66 0 1.08.315 1.94.949 2.57.64.631 1.51.949 2.59.949.439 0 .863-.0454 1.29-.131.42-.0904.835-.222 1.23-.394v-1.06c-.398.208-.799.372-1.2.477-.402.104-.822.157-1.25.157-.74 0-1.33-.203-1.74-.604-.413-.401-.645-.994-.695-1.77h5.13v-.549c0-1.01-.266-1.82-.799-2.41-.531-.59-1.26-.89-2.18-.89zm-30.1.162 2.56 6.81h1.53l2.56-6.81h-1.19l-2.13 5.72-2.13-5.72h-1.19zm19.2 0v4.13c0 .94.203 1.65.608 2.14.407.49 1 .736 1.78.736.477 0 .89-.101 1.25-.3.361-.203.681-.513.949-.926v1.05h1.12v-6.81h-1.12v3.87c0 .667-.178 1.19-.531 1.58-.353.389-.826.577-1.43.577-.509 0-.881-.158-1.14-.477-.253-.326-.38-.808-.38-1.45v-4.09h-1.12zm10.9.785c.549 0 .994.185 1.33.549.335.361.509.858.513 1.47l-4 .00935c.059-.64.272-1.14.649-1.5.38-.353.881-.531 1.5-.531zm-18.8 2.61h1.12v.249c0 .731-.19 1.32-.568 1.76-.375.439-.872.663-1.5.663-.448 0-.804-.119-1.07-.35-.258-.235-.387-.549-.387-.949 0-.504.175-.854.522-1.06.348-.208.976-.312 1.88-.312z" style="fill:#ffffff;paint-order:stroke;stroke-width:8.49"/>
  <path d="m244 52.4v13.3h2.55v-.999c.613.963 1.47 1.42 2.7 1.42 2.34 0 4.12-2.23 4.12-5.18 0-1.33-.398-2.67-1.05-3.61-.672-.958-1.87-1.58-3.07-1.58-1.23 0-2.09.45-2.7 1.43v-4.72h-2.55zm53.6 0v13.3h2.54v-13.3zm-15.9.999v2.63h-1.25v1.69h1.25v6.04c0 1.54.817 2.3 2.49 2.3.581 0 .999-.0549 1.47-.199v-1.78c-.253.0362-.38.0563-.581.0563-.672 0-.835-.2-.835-1.07v-5.36h1.42v-1.69h-1.42v-2.63h-2.54zm-59.9 2.27c-2.94 0-4.63 1.93-4.63 5.27 0 3.23 1.68 5.13 4.59 5.13 2.38 0 4.03-1.47 4.26-3.81h-2.43c-.307 1.27-.817 1.76-1.83 1.76-1.29 0-2.05-1.14-2.05-3.07 0-.94.181-1.79.486-2.37.294-.54.854-.831 1.58-.831 1.04 0 1.53.49 1.81 1.78h2.43c-.181-2.4-1.76-3.83-4.23-3.83zm11.1 0c-1.13 0-1.85.36-2.68 1.38v-1.22h-2.53v9.81h2.54v-5.9c0-1.22.649-1.93 1.74-1.93.854 0 1.38.486 1.38 1.27v6.54h2.54v-5.9c0-1.2.654-1.92 1.74-1.92.854 0 1.38.486 1.38 1.27v6.54h2.54v-6.95c0-1.9-1.16-3.03-3.12-3.03-1.25 0-2.11.433-2.87 1.45-.472-.926-1.45-1.45-2.67-1.45zm32.2 0c-2.94 0-4.63 1.93-4.63 5.27 0 3.23 1.68 5.13 4.59 5.13 2.38 0 4.03-1.47 4.26-3.81h-2.43c-.307 1.27-.813 1.76-1.83 1.76-1.29 0-2.05-1.14-2.05-3.07 0-.94.181-1.79.486-2.37.294-.54.858-.831 1.58-.831 1.04 0 1.52.49 1.81 1.78h2.43c-.181-2.4-1.76-3.83-4.23-3.83zm9.85 0c-2.65 0-4.03 1.13-4.19 3.4h2.45c.127-1.02.545-1.34 1.8-1.34.976 0 1.47.327 1.47.976 0 .33-.163.599-.439.763-.344.181-.343.181-1.59.38l-1.02.185c-1.94.326-2.88 1.33-2.88 3.08 0 1.76 1.18 2.94 2.97 2.94 1.09 0 2.07-.454 2.98-1.39 0 .509.0536.686.289.976h2.76v-.307c-.434-.416-.577-.704-.577-1.2v-5.45c0-1.99-1.36-3.01-4.01-3.01zm16.2 0c-2.65 0-4.03 1.13-4.19 3.4h2.45c.127-1.02.54-1.34 1.8-1.34.976 0 1.47.327 1.47.976 0 .33-.163.599-.439.763-.344.181-.343.181-1.59.38l-1.02.185c-1.94.326-2.88 1.33-2.88 3.08 0 1.76 1.18 2.94 2.97 2.94 1.09 0 2.07-.454 2.98-1.39 0 .509.0558.686.291.976h2.76v-.307c-.434-.416-.581-.704-.581-1.2v-5.45c0-1.99-1.36-3.01-4.01-3.01zm15.7 0c-2.99 0-4.81 1.98-4.81 5.18 0 3.23 1.84 5.18 4.86 5.18 3 0 4.86-1.96 4.86-5.13 0-3.32-1.8-5.27-4.86-5.27zm10.3 0c-.872 0-1.83.433-2.51 1.14-.981 1.02-1.49 2.43-1.49 4.16 0 3.01 1.6 5.09 3.94 5.09 1.05 0 1.69-.344 2.57-1.42v1.33c0 1.18-.831 2-2.03 2-.908 0-1.48-.401-1.67-1.14h-2.62c.0181.758.291 1.29.963 1.83.776.636 1.85.944 3.23.944 2.83 0 4.54-1.36 4.54-3.63v-10.1h-2.42v1.51c-.704-1.14-1.49-1.67-2.52-1.67zm17.8 0c-.872 0-1.83.433-2.51 1.14-.981 1.02-1.48 2.43-1.48 4.16 0 3.01 1.59 5.09 3.94 5.09 1.05 0 1.69-.344 2.57-1.42v1.33c0 1.18-.831 2-2.03 2-.908 0-1.48-.401-1.67-1.14h-2.62c.0181.758.291 1.29.963 1.83.776.636 1.85.944 3.23.944 2.83 0 4.54-1.36 4.54-3.63v-10.1h-2.42v1.51c-.704-1.14-1.49-1.67-2.52-1.67zm11.3 0c-2.81 0-4.53 2.03-4.53 5.31 0 3.14 1.7 5.09 4.48 5.09 2.2 0 3.98-1.23 4.54-3.18h-2.5c-.307.781-1.02 1.23-1.94 1.23-.722 0-1.31-.307-1.67-.849-.235-.366-.327-.799-.364-1.73h6.58c.0181-.217.0188-.307.0188-.434 0-.981-.145-1.89-.38-2.58-.649-1.78-2.23-2.85-4.21-2.85zm11.8 0c-1.33 0-2.22.468-2.94 1.58v-1.42h-2.55v9.81h2.55v-5.9c0-1.16.795-1.93 2.05-1.93 1.09 0 1.64.595 1.64 1.76v6.04h2.54v-6.58c0-2.18-1.18-3.4-3.29-3.4zm-11.8 1.94c1.16 0 1.85.781 1.98 2.23h-3.9c.163-1.51.799-2.23 1.92-2.23zm-39.3.108c1.4 0 2.3 1.25 2.3 3.18 0 1.83-.94 3.1-2.3 3.1-1.38 0-2.31-1.25-2.31-3.14 0-1.89.926-3.14 2.31-3.14zm-58.6.0726c1.25 0 2.14 1.27 2.14 3.08 0 1.8-.867 3.05-2.14 3.05-1.29 0-2.14-1.22-2.14-3.11 0-1.79.867-3.03 2.14-3.03zm69 0c1.2 0 2.08 1.33 2.08 3.14 0 1.78-.849 2.99-2.12 2.99-1.11 0-1.89-1.22-1.89-2.99 0-1.85.781-3.14 1.93-3.14zm17.8 0c1.2 0 2.08 1.33 2.08 3.14 0 1.78-.849 2.99-2.12 2.99-1.11 0-1.89-1.22-1.89-2.99 0-1.85.781-3.14 1.93-3.14zm-81.3 1.63v2.45h4.95v-2.45zm69.9 0v2.45h4.95v-2.45zm-47.7 1.58v.69c0 1.47-.726 2.31-2.02 2.31-.854 0-1.38-.452-1.38-1.18 0-.763.397-1.13 1.45-1.34l.872-.162c.667-.127.781-.163 1.07-.312zm16.2 0v.69c0 1.47-.731 2.31-2.02 2.31-.854 0-1.38-.452-1.38-1.18 0-.763.397-1.13 1.45-1.34l.872-.162c.667-.127.781-.163 1.07-.312z" style="fill:#808080;paint-order:stroke;stroke-width:8.49"/>
  <path d="m217 77.8v8.26h1.7v-2.95h2.12c1.52 0 2.49-1.08 2.49-2.76 0-1.65-.94-2.57-2.67-2.57h-3.65zm17.7 0v8.26h1.59v-3.67c0-.704.508-1.2 1.23-1.2.353 0 .613.122.799.37.145.208.181.376.181.763v3.74h1.58v-4.11c0-.758-.204-1.3-.622-1.65-.353-.294-.863-.468-1.38-.468-.781 0-1.35.307-1.79.985v-3.03h-1.59zm40.9 0v1.42h1.59v-1.42zm-44.5.622v1.65h-.781v1.06h.781v3.76c0 .963.513 1.44 1.56 1.44.361 0 .622-.0363.917-.127v-1.11c-.158.0226-.235.0352-.361.0352-.42 0-.522-.126-.522-.672v-3.33h.881v-1.06h-.881v-1.65h-1.59zm54.5 0v1.65h-.785v1.06h.785v3.76c0 .963.513 1.44 1.56 1.44.361 0 .622-.0363.917-.127v-1.11c-.158.0226-.235.0352-.361.0352-.42 0-.522-.126-.522-.672v-3.33h.881v-1.06h-.881v-1.65h-1.59zm-67.2.795h1.59c.908 0 1.32.398 1.32 1.23 0 .854-.415 1.25-1.32 1.25h-1.59zm25.6.617c-1.87 0-3.02 1.24-3.02 3.25 0 2.02 1.14 3.25 3.03 3.25 1.87 0 3.03-1.23 3.03-3.2 0-2.07-1.12-3.29-3.04-3.29zm7.67.00468c-.826 0-1.38.294-1.83.985v-.885h-1.59v6.13h1.59v-3.68c0-.722.495-1.2 1.28-1.2.681 0 1.02.377 1.02 1.1v3.78h1.59v-4.11c0-1.36-.74-2.12-2.06-2.12zm9.04 0c-1.55 0-2.52.781-2.52 2.04 0 .407.128.758.345.999.212.212.405.317.999.509l1.9.59c.398.127.531.249.531.499 0 .375-.443.599-1.18.599-.42 0-.736-.0663-.944-.211-.167-.127-.235-.25-.303-.581h-1.55c.0452 1.35 1.03 2.04 2.89 2.04.849 0 1.49-.185 1.95-.545.459-.361.726-.931.726-1.53 0-.79-.397-1.3-1.2-1.54l-2.01-.581c-.443-.136-.554-.226-.554-.477 0-.339.361-.568.917-.568.758 0 1.14.272 1.15.826h1.53c-.0226-1.29-1.02-2.07-2.67-2.07zm6.54 0c-1.84 0-2.89 1.2-2.89 3.29 0 2.02 1.05 3.2 2.87 3.2 1.48 0 2.52-.917 2.67-2.38h-1.52c-.194.795-.508 1.1-1.14 1.1-.808 0-1.28-.713-1.28-1.92 0-.586.113-1.12.307-1.48.181-.344.531-.522.985-.522.645 0 .953.305 1.14 1.11h1.52c-.113-1.5-1.1-2.39-2.64-2.39zm7.04 0c-.722 0-1.34.477-1.7 1.3v-1.2h-1.59v6.13h1.59v-3.26c0-.931.463-1.39 1.39-1.39.172 0 .285.0131.504.0495v-1.62c-.0904-.00903-.127-.0094-.195-.0094zm7.45 0c-.772 0-1.32.326-1.71 1.01v-.908h-1.58v8.58h1.58v-3.2c.389.676.931.999 1.71.999 1.48 0 2.56-1.38 2.56-3.25 0-.863-.248-1.73-.654-2.29-.411-.577-1.17-.963-1.91-.963zm-58.1.101 2.28 6.36c0 .631-.398 1.07-.99 1.07-.122 0-.226-.0229-.42-.0681v1.19c.24.0361.376.0446.572.0446.407 0 .863-.0772 1.14-.195.443-.181.636-.429.899-1.17l2.52-7.26h-1.64l-1.27 4.46-1.35-4.46h-1.75zm51.8 0v6.13h1.59v-6.13zm-31.3 1.18c.872 0 1.44.781 1.44 1.98 0 1.15-.595 1.94-1.44 1.94-.863 0-1.44-.781-1.44-1.96 0-1.18.577-1.96 1.44-1.96zm37.3.0446c.804 0 1.34.772 1.34 1.95 0 1.12-.549 1.89-1.34 1.89-.808 0-1.34-.772-1.34-1.92 0-1.16.531-1.93 1.34-1.93z" style="fill:#808080;paint-order:stroke;stroke-width:8.49"/>
  <path d="m75.4 56.9q1.08 0 2.09-.31 1.01-.319 1.57-.808v-1.83h-3.23v-2.05h5.77v4.86q-1.05 1.08-2.74 1.69-1.68.608-3.53.608-3.23 0-4.95-1.78-1.73-1.79-1.73-5.09 0-3.26 1.74-4.99 1.74-1.74 5.04-1.74 4.68 0 5.9 3.45l-2.55.767q-.413-1-1.29-1.52-.881-.518-2.07-.518-1.95 0-2.96 1.18-1.01 1.18-1.01 3.39 0 2.24 1.04 3.47 1.05 1.22 2.95 1.22zm8.67 1.98v-13.2h2.77v13.2zm14.4 0-3.07-5.04h-3.25v5.04h-2.77v-13.2h6.63q2.37 0 3.65 1.02 1.28 1.01 1.28 2.92 0 1.39-.79 2.4-.79 1-2.13 1.32l3.58 5.54zm-.328-9.17q0-1.91-2.44-1.91h-3.55v3.9h3.62q1.16 0 1.77-.527.599-.527.599-1.48z" style="fill-rule:evenodd;fill:#808080;paint-order:fill markers stroke;stroke-linecap:round;stroke-linejoin:round;stroke-width:12"/>
  <path d="m76.8 79.2q0 2.05-.808 3.58-.799 1.52-2.27 2.33-1.46.808-3.36.808h-5.36v-13.2h4.77q3.34 0 5.18 1.69 1.83 1.68 1.83 4.81zm-2.79 0q0-2.13-1.11-3.25-1.11-1.13-3.16-1.13h-1.96v8.94h2.35q1.78 0 2.83-1.23 1.05-1.23 1.05-3.34zm7.26 6.9q-1.48 0-2.3-.799-.826-.808-.826-2.26 0-1.58 1.02-2.4 1.03-.826 2.98-.844l2.19-.0375v-.518q0-.994-.347-1.48-.347-.486-1.14-.486-.731 0-1.08.338-.338.328-.422 1.1l-2.75-.131q.253-1.48 1.35-2.24 1.11-.767 3.01-.767 1.93 0 2.96.949 1.04.949 1.04 2.69v3.7q0 .854.188 1.18.197.319.649.319.3 0 .581-.0563v1.43q-.235.0563-.422.103-.188.0468-.375.0749-.188.0282-.404.0468-.207.0188-.486.0188-.994 0-1.48-.486-.468-.486-.563-1.43h-.0563q-1.11 2-3.34 2zm3.07-4.9-1.35.0188q-.922.0375-1.3.207-.385.159-.59.499-.197.338-.197.899 0 .722.328 1.08.338.347.89.347.617 0 1.13-.338.518-.338.808-.931.291-.599.291-1.27zm7.85 4.86q-1.16 0-1.79-.627-.627-.64-.627-1.93v-5.99h-1.28v-1.78h1.42l.826-2.38h1.65v2.38h1.93v1.78h-1.93v5.27q0 .74.281 1.1.281.347.872.347.31 0 .881-.131v1.63q-.976.319-2.22.319zm6.13.0187q-1.48 0-2.3-.799-.826-.808-.826-2.26 0-1.58 1.02-2.4 1.03-.826 2.98-.844l2.19-.0375v-.518q0-.994-.347-1.48-.347-.486-1.14-.486-.731 0-1.08.338-.338.328-.422 1.1l-2.75-.131q.253-1.48 1.35-2.24 1.11-.767 3.01-.767 1.93 0 2.96.949 1.04.949 1.04 2.69v3.7q0 .854.188 1.18.197.319.649.319.3 0 .581-.0563v1.43q-.235.0563-.422.103-.188.0468-.375.0749-.188.0282-.404.0468-.207.0188-.486.0188-.994 0-1.48-.486-.468-.486-.563-1.43h-.0563q-1.11 2-3.34 2zm3.07-4.9-1.35.0188q-.922.0375-1.3.207-.385.159-.59.499-.197.338-.197.899 0 .722.328 1.08.338.347.89.347.617 0 1.13-.338.518-.338.808-.931.291-.599.291-1.27z" style="fill-rule:evenodd;fill:#808080;paint-order:fill markers stroke;stroke-linecap:round;stroke-linejoin:round;stroke-width:12"/>
 </g>
</svg>
