<?xml version="1.0" encoding="UTF-8"?>
<svg version="1.1" viewBox="0 0 380 140" xml:space="preserve" xmlns="http://www.w3.org/2000/svg">
  <style>
    .st2{fill:#252e30}.st3{fill:#b0b0b0}
  </style>
  
    <path class="st2" d="m11 58.4c-3.19.0398-6.19 1.5-8.18 3.99-4.49 5.6-3.6 13.8 2.04 18.6.224.186.46.379.696.559 4.51 3.4 10.7 3.71 17.3 3.76l3.79.0125h7.58c-.186-.199-.36-.404-.534-.609h-7.02c-.466-.0187-.932-.0249-1.41-.0249-4.02-.0248-6.55-2.24-6.55-2.24-.913 1.21-2.57 1.91-4.48 1.73l-.13-.0248-.329-.0559c-3.23-.534-6.14-1.56-8.48-3.6-5.38-4.63-6.23-12.5-1.96-17.8 1.68-2.09 4.07-3.4 6.75-3.7 2.68-.292 5.28.472 7.39 2.15 1.66 1.32 2.72 3.25 2.94 5.36.236 2.12-.373 4.2-1.71 5.87-2.11 2.63-5.92 3.14-8.64 1.16.273.0621.571-.031.758-.261.307-.363.265-.905-.0931-1.22-.205-.175-.472-.26-.74-.237-.269.0233-.516.153-.688.361-.422.491-.36 1.23.124 1.66l.168.137c3 2.25 7.24 1.72 9.59-1.2 1.44-1.79 2.09-4.04 1.84-6.32s-1.37-4.33-3.17-5.77c-1.93-1.55-4.35-2.38-6.82-2.34zm357 .0186c-2.05.168-4.07.932-5.8 2.31-1.8 1.43-2.92 3.48-3.17 5.77-.249 2.29.403 4.53 1.84 6.32 2.4 2.98 6.77 3.46 9.76 1.07.491-.422.547-1.17.124-1.66-.173-.205-.421-.333-.689-.355-.268-.0222-.534.0632-.739.237-.36.31-.403.851-.093 1.22.193.224.497.329.758.261-2.73 1.98-6.53 1.47-8.64-1.16-1.33-1.65-1.95-3.76-1.72-5.87.232-2.11 1.29-4.03 2.95-5.35 2.1-1.68 4.72-2.45 7.39-2.16 2.67.292 5.07 1.61 6.75 3.7 4.28 5.34 3.42 13.1-1.96 17.8-2.35 2.03-5.25 3.06-8.48 3.6l-.453.0683c-1.91.186-3.58-.509-4.49-1.73 0 0-2.52 2.22-6.54 2.24l-1.42.0062v.0249h-277c-.112.217-.23.422-.354.621l281-.0124v-.0373c6.56-.0435 12.7-.366 17.2-3.75l.702-.559c5.63-4.85 6.52-13 2.04-18.6-2.22-2.77-5.67-4.25-9.2-3.96zm-357 29.5v1.83h28.4c-.782-.57-1.53-1.18-2.25-1.83zm63 0c-.835.704-1.74 1.32-2.71 1.83h19.8c1.29 1.81 2.32 3.79 3.05 5.89.559 2.7.745 5.46.192 8.15-.31 1.7-1.11 3.26-2.01 4.71-.929 1.43-2.02 2.76-3.25 3.94h-.0062c-.247.256-.349.62-.261.964.0881.344.353.615.695.71.342.096.709.002.962-.246.0559-.05.0994-.112.143-.174.985-1.51 1.86-3.09 2.61-4.73.712-1.63 1.25-3.34 1.61-5.08.292-1.32.398-2.66.373-4 .248 1.59.366 3.25.335 4.97-.251 12-10.2 21.6-22.2 21.4-.912-.018-1.82-.107-2.72-.267-4.36-1.02-6.2-2.96-6.46-5.78 0 0-5.96-3.02-7.47-7.73-.272-1.29-.398-2.61-.373-3.92.0621-3.68 1.57-7.13 4.24-9.68 2.66-2.55 6.15-3.93 9.84-3.85 2.92.0559 5.65 1.24 7.69 3.35 2.04 2.11 3.12 4.89 3.06 7.82-.0976 4.64-3.82 8.38-8.45 8.51.317-.149.54-.484.559-.869.0245-.609-.448-1.12-1.06-1.15-.716-.028-1.32.526-1.35 1.24-.0319.827.602 1.53 1.43 1.58v.013h.0311c2.53.037 4.91-.901 6.73-2.65 1.82-1.74 2.87-4.13 2.91-6.65.0621-3.14-1.11-6.12-3.29-8.38-2.19-2.27-5.1-3.54-8.24-3.6-3.88-.0872-7.62 1.38-10.4 4.08-2.8 2.68-4.41 6.36-4.47 10.2-.1 5.05 1.92 9.92 5.57 13.4l.0186.043.0435.019c1.12 1.07 2.37 1.99 3.73 2.75-1.34-.513-2.66-1.08-3.95-1.71.963.503 1.97.956 3.01 1.36-8.68-2.98-15.6-8.94-22-14.4l-1.81-1.55v-.013l-.0062-.006c-5.48-4.71-10.8-8.95-16.8-10.4l-.0373-.0249c-2.3-.72-5.66-1.47-8.07-1.31-1.76.124-3.54.329-5.27.832-1.73.498-3.42 1.12-5.06 1.86-.283.12-.495.365-.572.663-.0778.298-.0132.615.175.859.158.214.396.356.66.393.264.038.532-.033.743-.195v-.012c1.37-1.02 2.83-1.93 4.39-2.61 1.56-.683 3.23-1.23 4.96-1.29 1.35-.0621 2.68.0435 4.01.286h-.18c-9.54-.0559-17.3 7.12-17.7 16.3-.301 7.56 5.58 13.9 13.1 14.2 2.94.118 5.76-.919 7.92-2.92s3.43-4.72 3.55-7.67c.192-4.91-3.63-9.06-8.55-9.26v.006c-.834 0-1.51.669-1.53 1.5-.0062.714.559 1.3 1.29 1.3.609.013 1.11-.472 1.12-1.09.013-.372-.187-.719-.515-.894 4.28.385 7.56 4.07 7.39 8.41-.118 2.73-1.29 5.26-3.29 7.11-2.01 1.85-4.63 2.82-7.37 2.71-3.45-.143-6.63-1.61-8.97-4.14-2.34-2.53-3.54-5.82-3.4-9.27.354-8.78 7.78-15.6 16.9-15.6 3.97.0186 7.66 1.46 11.2 3.66.118.081.248.149.36.23l.137.087c2 1.43 3.02 3.52 2.89 5.46 0 0 4.3-.025 8.23 3.33 7.95 6.87 16.7 14.3 28.8 15.8.404.068.814.124 1.23.161l-.292.006.447.013c6.17.424 12.2-1.7 16.8-5.87s7.22-10 7.36-16.2c.112-5.79-1.38-10.9-4.25-15.1h197c-2.88 4.26-4.36 9.35-4.25 15.1.134 6.18 2.79 12 7.36 16.2 4.56 4.17 10.6 6.29 16.8 5.87l.447-.013h-.286c.41-.043.82-.099 1.23-.167 12-1.53 20.8-8.92 28.8-15.8 3.92-3.35 8.23-3.33 8.23-3.33-.136-1.94.888-4.03 2.89-5.46l.137-.087c.111-.081.242-.149.36-.224 3.58-2.21 7.27-3.65 11.2-3.67 9.11-.0497 16.5 6.79 16.9 15.6.136 3.45-1.08 6.74-3.42 9.27-2.34 2.53-5.51 4-8.97 4.14-2.73.111-5.34-.851-7.36-2.71-2.02-1.86-3.18-4.38-3.29-7.11-.172-4.32 3.08-8.02 7.39-8.41-.316.161-.521.515-.515.894.006.621.509 1.11 1.12 1.1.344-.003.673-.143.914-.388.241-.246.375-.578.371-.922-.013-.834-.693-1.5-1.53-1.5v-.006l-.274.012c-4.8.345-8.46 4.44-8.27 9.25.125 2.94 1.38 5.66 3.55 7.66 2.16 2 4.99 3.04 7.93 2.92 7.56-.313 13.4-6.69 13.1-14.2-.373-9.2-8.14-16.4-17.7-16.3l-.174.0062c1.32-.242 2.66-.348 4-.286 1.73.0621 3.39.609 4.96 1.28 1.56.703 3.03 1.58 4.38 2.61l.007.012c.447.329 1.07.242 1.4-.205s.248-1.07-.199-1.4c-.06-.0487-.127-.0884-.198-.118-1.64-.743-3.33-1.37-5.06-1.86-1.72-.46-3.48-.737-5.26-.826-2.42-.161-5.78.59-8.07 1.3l-.031.0248c-5.95 1.46-11.3 5.7-16.8 10.4l-.007.006v.006l-1.8 1.55c-6.38 5.52-13.3 11.5-22 14.5 1.04-.404 2.05-.857 3.01-1.37-1.29.632-2.61 1.21-3.96 1.72 1.35-.756 2.6-1.68 3.73-2.75l.044-.019.025-.043c3.65-3.5 5.67-8.36 5.57-13.4-.063-3.87-1.67-7.56-4.47-10.2-2.78-2.7-6.53-4.16-10.4-4.07-3.14.0559-6.07 1.34-8.25 3.6-2.18 2.27-3.35 5.24-3.28 8.38.044 2.52 1.09 4.91 2.91 6.64 1.8 1.74 4.22 2.7 6.73 2.65h.025v-.007c.828-.05 1.46-.754 1.43-1.58-.034-.713-.634-1.27-1.35-1.24-.614.025-1.09.54-1.06 1.15.018.385.242.72.559.869-4.64-.128-8.36-3.87-8.45-8.51-.062-2.93 1.02-5.71 3.06-7.82 2.04-2.11 4.76-3.3 7.69-3.35 3.7-.0808 7.18 1.3 9.84 3.85 2.66 2.55 4.16 6 4.24 9.69.031 1.34-.112 2.66-.373 3.92-1.51 4.71-7.47 7.73-7.47 7.73-.26 2.82-2.1 4.75-6.46 5.78-.888.161-1.8.248-2.72.273-12 .222-22-9.33-22.2-21.4-.031-1.73.087-3.39.335-4.98-.037 1.34.088 2.69.373 4 .36 1.74.901 3.45 1.62 5.08.749 1.64 1.62 3.22 2.6 4.73.348.424.974.49 1.4.145.427-.345.494-.97.149-1.4l-.013-.006c-1.23-1.19-2.32-2.51-3.25-3.94-.895-1.45-1.7-3.01-2.01-4.71-.559-2.69-.373-5.45.186-8.15.734-2.1 1.76-4.08 3.06-5.89h80.1c-.037-.335-.062-1.02-.062-1.02s.013-.54.044-.807zm203 8.74c-.366.0219-.659.31-.687.676s.218.695.576.772c.359.0771.719-.122.844-.467.083-.231.045-.488-.101-.686s-.381-.308-.626-.296zm-174 0c-.244-.0108-.477.0993-.624.294-.146.195-.187.45-.109.681.13.385.559.584.931.447.373-.137.584-.559.448-.932-.097-.279-.352-.472-.646-.491zm-61.7 1.82c-.498-.0031-.95.292-1.15.75-.198.458-.103.989.241 1.35l11 11.3-9.05-12.9c-.227-.327-.596-.525-.994-.534zm297 .0124c-.317 0-.634.124-.87.373-.043.0496-.093.0993-.124.155l-9.05 12.9 11-11.3c.478-.496.465-1.28-.025-1.75-.249-.242-.565-.354-.882-.348zm-235 3.97c-.533.02-1 .352-1.2.846-.2.495-.09 1.06.28 1.44.37.385.931.516 1.43.336.629-.226.999-.876.872-1.53-.128-.656-.714-1.12-1.38-1.1zm172 .006c-.594-.027-1.14.339-1.33.9-.198.551-.02 1.17.441 1.53.462.36 1.1.382 1.59.055.486-.327.707-.929.547-1.49-.159-.563-.662-.96-1.25-.984zm-174 7.04c-.876.046-1.6.696-1.74 1.56-.143.866.335 1.72 1.15 2.04-3.09 10.2-9.98 17.1-19.6 19.3-1.86.217-3.49-.621-3.49-.621s-2.37 1.6-4.52 2.07c-.0124 0 2.06.081 4.07-.044v.019c.155-.012.292-.037.447-.056.559-.037 1.11-.099 1.6-.186l.0248-.019c11-1.73 18.9-9.12 22.3-20.4 1.03-.061 1.81-.941 1.76-1.97-.058-1.03-.938-1.81-1.96-1.76zm176 0c-.924-.041-1.74.599-1.92 1.51s.332 1.81 1.2 2.12c.161.055.328.089.497.099 3.37 11.3 11.3 18.6 22.3 20.4l.025.013c.491.093 1.04.155 1.6.198l.447.05v-.019c2.01.125 4.08.05 4.07.044-2.15-.478-4.52-2.07-4.52-2.07s-1.62.832-3.49.621c-9.62-2.22-16.5-9.14-19.6-19.3.827-.316 1.32-1.17 1.17-2.04-.144-.874-.884-1.52-1.77-1.56zm-238 9.83c-1.2.025-2.29.685-2.87 1.73-.58 1.05-.556 2.33.062 3.35.618 1.03 1.74 1.64 2.93 1.62 1.2-.023 2.29-.682 2.87-1.73.58-1.05.556-2.33-.0621-3.35-.618-1.03-1.74-1.64-2.93-1.62zm301 0c-1.67-.051-3.13 1.14-3.41 2.79s.704 3.26 2.3 3.76c1.25.392 2.61.022 3.49-.947.879-.969 1.11-2.36.602-3.56-.512-1.2-1.68-2-2.98-2.04zm-289 9.14c-.774.011-1.5.392-1.94 1.02s-.567 1.44-.322 2.17c.392 1.19 1.62 1.88 2.84 1.61 1.22-.272 2.04-1.42 1.89-2.66-.148-1.24-1.21-2.17-2.46-2.14zm277 0c-.869-.011-1.68.439-2.13 1.18-.447.746-.462 1.67-.04 2.43.422.761 1.22 1.24 2.09 1.25.869.011 1.68-.439 2.13-1.18s.463-1.67.04-2.43c-.422-.761-1.22-1.24-2.09-1.25zm-266 5.02c-.486-.066-.97.142-1.26.542-.286.399-.326.924-.106 1.36.22.438.665.719 1.16.729.701.013 1.29-.522 1.34-1.22.0544-.699-.446-1.32-1.14-1.41zm254 0c-.49.013-.932.295-1.15.733-.218.439-.176.962.109 1.36.286.399.768.606 1.25.541.696-.095 1.2-.717 1.14-1.42s-.65-1.23-1.35-1.22z"/>
    <path class="st2" d="m190 103c-.578 0-1.02.261-1.35.782-.364.667-.536 1.42-.497 2.18 0 .335.05.932.149 1.8h-.894v.342h.944v9.02h-.944v.335h3.6v-.335h-.944v-9.02h.944v-.342h-1.13c-.506-.944-.761-2-.739-3.07 0-.373.08-.683.229-.931.156-.261.336-.385.553-.385.249 0 .379.08.379.223 0 .037-.062.137-.18.311-.118.173-.186.347-.186.558 0 .255.08.466.229.622.143.161.323.248.547.248.186 0 .348-.087.484-.248.131-.174.205-.379.205-.628 0-.372-.143-.714-.416-1.01-.246-.285-.605-.448-.981-.447zm-33.1.155v.336h.963v13.6h-.963v.342h3.79v-.342h-.95v-13.6h.969v-.336zm76.9 0v.336h.944v13.6h-.944v.342h3.26v-.342h-.602v-14zm-108 0v.342h.956v10.8c0 1.07.236 1.89.714 2.46.478.572 1.15.87 2.02.87.9 0 1.58-.242 2.03-.714.454-.472.683-1.18.683-2.12v-10.6c0-.217.062-.391.193-.534.13-.143.298-.217.515-.217h.311v-.33h-2.42v.336h.317c.217 0 .391.074.515.211.131.136.193.317.193.54v10.5c0 .764-.149 1.37-.46 1.78-.31.416-.745.621-1.29.621-.389.023-.771-.114-1.06-.379-.267-.285-.407-.666-.385-1.06v-12.2h.969v-.342zm91.1 0v.342h.962v12.5c0 .416-.062.708-.211.87-.143.167-.391.248-.745.248v.348h2.34v-.342c-.373 0-.621-.087-.758-.248-.137-.162-.211-.46-.211-.876v-12.5h.043l2.43 13.9h.434l2.36-13.6h.037v13.3h-.962v.342h3.81v-.342h-.969v-13.6h.981v-.33h-3.16l-1.55 9.1h-.043l-1.55-9.1zm-45.7 1.92v2.69h-1.15v.342h1.15v7.97c0 .479.124.857.379 1.14.248.286.584.422.993.422 1.02 0 1.63-.714 1.83-2.15h-.372c-.156.993-.435 1.49-.851 1.49-.174 0-.261-.143-.261-.416v-8.46h1.14v-.342h-1.14v-2.7zm-34.8 2.51c-.515 0-.993.205-1.43.621-.441.404-.658 1.02-.658 1.83 0 1.04.59 2.06 1.77 3.09.584.468 1.11 1 1.57 1.6.292.422.435.857.435 1.3 0 .36-.118.658-.342.9-.236.249-.515.36-.857.36-.546 0-1.02-.26-1.41-.795-.454-.699-.721-1.5-.776-2.34h-.329v3.3h.329c.044-.254.124-.379.248-.379.125 0 .286.063.472.187.463.249.984.371 1.51.354.593.013 1.17-.198 1.61-.59.435-.398.652-1.02.652-1.91 0-1.16-.714-2.36-2.14-3.58-.523-.416-.998-.889-1.42-1.41-.204-.298-.313-.651-.311-1.01 0-.348.1-.633.292-.857.186-.217.447-.329.77-.329.516 0 .957.217 1.32.671.354.453.596 1.1.72 1.97v-.012h.36v-2.81h-.335c0 .211-.087.317-.248.317-.094 0-.205-.031-.336-.112-.441-.266-.95-.398-1.46-.379zm14.6.006c-.665 0-1.14.298-1.42.901h-.044v-.721h-2.66v.342h.943v9.02h-.943v.342h3.6v-.342h-.944v-7.2c0-.51.125-.963.354-1.35.236-.391.497-.584.777-.584.118 0 .174.05.174.156 0 .018-.038.062-.094.149-.173.273-.267.496-.267.683 0 .229.087.422.249.59.161.161.372.248.621.248.279 0 .509-.099.683-.292.174-.192.261-.435.261-.702 0-.347-.131-.639-.379-.881-.248-.243-.559-.361-.919-.361zm34.9 0c-.67 0-1.14.298-1.42.901h-.044v-.721h-2.66v.342h.944v9.02h-.944v.342h3.6v-.342h-.944v-7.2c0-.51.118-.963.354-1.35s.497-.584.77-.584c.118 0 .174.05.174.156 0 .018-.037.062-.093.149-.174.273-.261.496-.261.683 0 .229.081.422.248.59.162.161.373.248.621.248.274 0 .503-.099.684-.292.167-.192.26-.435.26-.702 0-.347-.136-.639-.385-.881-.248-.243-.559-.361-.913-.361zm16.5 0c-.981 0-1.74.435-2.3 1.3-.552.869-.838 2.1-.838 3.67 0 1.61.267 2.86.783 3.74.435.827 1.3 1.34 2.24 1.32.758 0 1.3-.249 1.63-.746.317-.509.528-1.34.621-2.48h-.354c-.028.745-.207 1.48-.528 2.15-.267.478-.633.714-1.09.714-.416 0-.763-.192-1.04-.583-.301-.472-.447-1.03-.416-1.58v-5.2c0-.54.124-1 .385-1.37.255-.373.559-.559.919-.559.336 0 .609.062.826.186s.329.248.329.391c0 .112-.105.187-.323.224-.174.037-.31.137-.428.298s-.174.348-.174.559c0 .217.087.41.248.571.168.162.348.249.559.249.267 0 .497-.112.671-.305.186-.192.273-.441.273-.732 0-.572-.186-1.01-.559-1.33-.399-.33-.905-.5-1.42-.479zm2.13 6.79m48.1-6.79c-.664 0-1.14.298-1.42.901h-.038v-.721h-2.66v.342h.944v9.02h-.944v.342h3.6v-.342h-.944v-7.2c0-.51.118-.963.354-1.35s.491-.584.77-.584c.118 0 .174.05.174.156 0 .018-.037.062-.093.149-.174.273-.261.496-.261.683 0 .229.081.422.249.59.161.161.372.248.621.248.273 0 .503-.099.677-.292.173-.192.26-.435.26-.702 0-.347-.124-.639-.378-.881-.249-.243-.559-.361-.92-.361zm-109 .007c-.91-.029-1.76.469-2.17 1.28-.491.851-.745 2.09-.745 3.7s.267 2.85.788 3.73c.434.83 1.3 1.34 2.24 1.32.764 0 1.34-.273 1.74-.832.391-.559.633-1.41.733-2.56h-.361c-.034.779-.246 1.54-.621 2.22-.335.528-.745.795-1.22.795-.416 0-.764-.199-1.04-.584-.28-.385-.416-.919-.416-1.58v-2.23h3.7c0-1.74-.218-3.07-.659-3.94-.434-.882-1.08-1.32-1.95-1.32zm23.4 0c-.845 0-1.52.496-2.02 1.51v-1.34h-2.66v.342h.944v9.02h-.944v.342h3.26v-.342h-.602v-6.71c0-.496.167-.975.497-1.47.335-.497.664-.733.968-.733.193 0 .354.105.472.323.118.217.174.515.174.888v7.69h-.602v.342h3.25v-.336h-.944v-7.24c0-.732-.155-1.3-.466-1.7-.323-.402-.82-.624-1.34-.596zm11.5 0c-.956 0-1.68.422-2.17 1.28-.496.857-.745 2.09-.745 3.7s.267 2.85.789 3.73c.434.83 1.3 1.34 2.24 1.32.757 0 1.34-.273 1.73-.832.398-.559.64-1.41.733-2.56h-.36c-.035.779-.247 1.54-.621 2.22-.336.528-.739.795-1.22.795-.416 0-.763-.199-1.04-.584-.279-.385-.416-.919-.416-1.58v-2.23h3.7c0-1.74-.224-3.07-.652-3.94-.435-.882-1.08-1.32-1.95-1.32zm16.8 0c-.664 0-1.23.186-1.69.546-.472.366-.702.783-.702 1.23 0 .285.087.528.267.72.187.199.416.292.702.292.249 0 .453-.081.621-.248.162-.181.249-.398.249-.653 0-.347-.162-.602-.472-.77-.149-.074-.224-.186-.224-.323 0-.099.099-.198.311-.304.211-.105.409-.149.633-.149.329 0 .59.087.782.28.199.186.292.447.292.776v2.49c-.087.186-.583.571-1.48 1.16-.589.342-1.11.793-1.53 1.33-.274.409-.417.892-.409 1.38 0 .683.167 1.22.515 1.63.342.41.776.621 1.3.621.826 0 1.41-.341 1.74-1.01.186.671.609 1.01 1.27 1.01.435 0 .776-.136 1.01-.41.236-.273.354-.652.354-1.14h.019v-.224h-.329c0 .783-.143 1.17-.435 1.17-.211 0-.31-.168-.31-.497v-6.01c0-.839-.249-1.53-.739-2.08-.434-.522-1.08-.823-1.76-.819zm14 0c-.91-.029-1.76.469-2.17 1.28-.497.851-.745 2.09-.745 3.7s.267 2.85.788 3.73c.522.876 1.27 1.32 2.24 1.32.764 0 1.34-.273 1.74-.832.391-.559.633-1.41.733-2.56h-.361c-.036.779-.25 1.54-.627 2.22-.335.528-.739.795-1.22.795-.416 0-.764-.199-1.04-.584-.304-.47-.451-1.02-.423-1.58v-2.23h3.7c0-1.74-.223-3.07-.652-3.94-.434-.882-1.08-1.32-1.95-1.32zm21.1 0c-.658 0-1.22.186-1.69.546-.472.366-.702.783-.702 1.23 0 .285.094.528.274.72.186.199.416.292.701.292.249 0 .454-.081.621-.248.162-.181.249-.398.249-.653 0-.347-.162-.602-.472-.77-.149-.074-.224-.186-.224-.323 0-.099.1-.198.311-.304.205-.099.41-.149.633-.149.323 0 .59.087.783.28.198.186.292.447.292.776v2.49c-.087.186-.584.571-1.48 1.16-.589.342-1.11.793-1.53 1.33-.275.409-.418.892-.41 1.38 0 .683.167 1.22.515 1.63.342.41.776.621 1.3.621.826 0 1.41-.341 1.74-1.01.186.671.609 1.01 1.27 1.01.435 0 .776-.136 1.01-.41.236-.273.354-.652.354-1.14h.013v-.224h-.323c0 .783-.149 1.17-.435 1.17-.211 0-.31-.168-.31-.497v-6.01c0-.839-.249-1.53-.745-2.08-.433-.521-1.08-.821-1.75-.819zm15 0c-.962 0-1.68.422-2.17 1.28-.497.857-.746 2.09-.746 3.7s.267 2.85.783 3.73c.434.83 1.3 1.34 2.24 1.32.763 0 1.34-.273 1.74-.832.392-.559.64-1.41.733-2.56h-.36c-.034.779-.247 1.54-.621 2.22-.335.528-.739.795-1.22.795-.416 0-.764-.199-1.04-.584-.279-.385-.416-.919-.416-1.58v-2.23h3.7c0-1.74-.223-3.07-.652-3.94-.435-.882-1.09-1.32-1.95-1.32zm-6.21.167v.342h.491c.236 0 .354.093.354.273 0 .081-.025.155-.062.248-.038.094-.286.441-.764 1.08l-1.74 2.27 2.12 5.15h-.64v.342h3.34v-.348h-.807l-2.66-6.3 1.7-2.27c.249-.304.522-.453.833-.453h.341v-.342zm-95.5.168c.267 0 .472.143.621.428.156.286.236.684.236 1.19v2.92h-1.94v-2.6c0-.589.093-1.06.291-1.41.187-.354.454-.528.795-.528zm34.9 0c.261 0 .472.143.621.428.155.286.23.684.23 1.19v2.92h-1.94v-2.6c0-.589.099-1.06.292-1.41.192-.354.459-.528.801-.528zm30.7 0c.261 0 .472.143.621.428.156.286.23.684.23 1.19v2.92h-1.94v-2.6c0-.589.1-1.06.292-1.41.199-.354.46-.528.801-.528zm36 0c.267 0 .472.143.627.428.155.286.23.684.23 1.19v2.92h-1.94v-2.6c0-.589.1-1.06.292-1.41.193-.354.46-.528.795-.528zm-49.2 4.02v3.71c.013.341-.088.677-.286.956-.186.248-.379.372-.59.372-.497 0-.733-.341-.733-1.03v-1.6c0-.422.063-.763.187-1.04.136-.279.416-.571.838-.869.214-.141.411-.308.584-.497zm35.1 0v3.71c.013.341-.088.677-.286.956-.186.248-.385.372-.59.372-.496 0-.739-.341-.739-1.03v-1.6c0-.422.063-.763.199-1.04.137-.279.41-.571.832-.869.215-.141.411-.308.584-.497z" fill="#252e30" stroke-width=".11"/>
    
      <path class="st3" d="m66.9 8.58-.139.111c-3.76 3.01-4.44 7.28-5.09 11.4-.708 4.45-1.37 8.66-5.99 10.2-.666.222-1.33.271-1.98.174.007.007 4.73 3.16 4.75 3.17.882.618 2.03.93 3.3.507 1.24-.416 2.16-1.05 2.87-1.83l1.77-7.96c.146-.875-.104-1.93-.632-2.6-.368-.465-.84-.722-1.41-.757l-.139-.0277c-.458-.153-.93-.416-.93-1.21v-.84h.569c1.66 0 3.15.0208 4.65.0416.736-2.35 1.92-4.59 4.16-6.37l-.132-.132c-.0555-.16-.132-.257-.222-.306-.0208-.0138-5.41-3.62-5.41-3.62zm-16.6 2.98c-4.56-.0736-10.3 2.98-13.6 9.59-3.44 7.16-5.28 17.6-4.9 28 .41 11.5 3.39 21.1 8.37 27.2 1.76 2.14 3.73 3.8 5.9 4.99-11.1-13.4-10.6-41.5-3.63-55.9 3.32-6.8 9.48-10.2 14.5-9.88-.944-1.94-2.58-3.26-4.78-3.78-.613-.14-1.24-.214-1.87-.222zm299 8.54c-.049.153-.118.278-.174.382-.021.0416-.048.0833-.069.132l-.07.111c-.499.597-.236 1.46.07 2.08.972 1.94 1.25 3.65.854 5.24-.431 1.87-2.26 4.39-4.51 4.21.007 0 5.2 3.46 5.2 3.46.257.18.611.333.965.333 1.89.271 3.64-2.02 4.04-3.77.402-1.62 0-3.23-.806-4.85-.402-.805-.673-1.89 0-2.69.132-.271.271-.403.271-.805-.028 0-5.75-3.81-5.78-3.82zm-48.4.0208c-.146.618-.729.812-1.03.916l-.139.0278c-2.06.139-2.17 2.92-2.17 3.47v15.1l.528-.264c1.55-.611 3.32-.833 5.16-.861v-9.43c0-.986.215-2.1.757-2.91.326-.444.77-.805 1.34-1.02.187-.0555.381-.0971.597-.111.402-.132.673-.271.673-.673v-.271l-5.68-3.75v-.236zm-15.4.0139c-.076.29-.286.564-.485.757-.327.396-.264 1.03.242 2.03.847 1.55 1.15 3.31.861 4.94-.458 1.84-2.32 4.25-4.6 4.11.007.0069 5.21 3.47 5.21 3.47.236.18.548.326.902.326.535.0694 1.06-.0417 1.54-.271v-11.1c-.063-.826-.209-1.51-.424-2.05-.021-.0208-3.23-2.16-3.25-2.17zm-73.6.125c-.097.514-.458.798-1.04.805-1.88.257-2.17 2.37-2.17 3.61v37.3h4.28c.5 0 .958-.0555 1.4-.146v-32.6c0-1.75.542-3.91 2.69-4.18.402 0 .541-.132.541-.541v-.271h-.062v-.0417h-.063v-.0416h-.062v-.0417h-.063v-.0416h-.062v-.0417h-.063v-.0416h-.062v-.0417h-.063v-.0416h-.062v-.0417h-.062v-.0416h-.063v-.0417h-.062v-.0416h-.063v-.0417h-.062v-.0416h-.063v-.0417h-.062v-.0416h-.063v-.0417h-.062v-.0416h-.063v-.0417h-.062v-.0416h-.063v-.0417h-.062v-.0416h-.063v-.0417h-.062v-.0416h-.063v-.0417h-.062v-.0416h-.063v-.0417h-.062v-.0416h-.062v-.0417h-.063v-.0416h-.062v-.0417h-.063v-.0416h-.062v-.0417h-.063v-.0416h-.062v-.0417h-.063v-.0416h-.062v-.0417h-.063v-.0416h-.062v-.0417h-.063v-.0416h-.062v-.0417h-.063v-.0416h-.062v-.0417h-.063v-.0416h-.062v-.0417h-.063v-.0416h-.062v-.0417h-.063v-.0416h-.062v-.0417h-.062v-.0416h-.063v-.0417h-.062v-.0416h-.063v-.0417h-.062v-.0416h-.063v-.0417h-.062v-.0416h-.063v-.0417h-.062v-.0416h-.063v-.0417h-.062v-.0416h-.063v-.0417h-.062v-.0416h-.063v-.0417h-.062v-.0416h-.063v-.0417h-.062v-.0416h-.063v-.0417h-.062v-.0416h-.062v-.0417h-.063v-.0416h-.062v-.0417h-.063v-.0416h-.062v-.0417h-.063v-.0416h-.062v-.0417h-.063v-.0416h-.062v-.0417h-.063v-.0416h-.062v-.0417h-.063v-.0416h-.062v-.0417h-.063v-.0416h-.062v-.0417h-.063v-.0416h-.062v-.0417h-.063v-.0416h-.062v-.0417h-.063v-.0416h-.062v-.0417h-.062v-.0416h-.063v-.222zm-103 .132c-.118.66-.604.784-.861.805-.437.118-.729.34-.895.507-.674.673-.542 1.54-.271 2.89l.021.0972 5.62 22.1 2.15-9.27-2.08-8.16c-.271-1.35-.542-2.56.402-3.51.271-.271.674-.542 1.22-.673.271 0 .403-.132.403-.541v-.271l-5.68-3.75v-.222zm212 .0625c-.145.618-.728.812-1.03.916l-.139.0278c-1.83.125-2.03 2.47-2.03 3.47-.125 4.76-.132 9.58-.132 14.3 1.47-.375 1.69-1.08 1.69-1.74 0-.569.299-.819.479-.909.34-.187.778-.125 1.22.167l.083.0694c.674.673.979 1.73.868 3.04-.167 2.01-1.24 4.16-2.56 5.1-.492.368-1.09.639-1.78.812 0 5.15.007 10.5.132 15.7 0 1.01.202 3.35 2.03 3.62.694.0209 1.19.535 1.19 1.24v.701h-13.8l5.62 3.79h13.9v-.132c0-.229-.097-.41-.243-.528-.02-.0208-2.48-1.65-2.5-1.67-.124-.271-.222-.562-.298-.861h.062l5 3.37h26.5c0-.403.132-.542-.27-1.08-.542-.597-.271-1.54.132-2.21.805-1.62 1.62-4.71 1.21-7.68-.201-1.52-1.17-4.04-2.73-5.07 0 0-4.09-2.73-4.1-2.74.624 1.12 1.02 2.38 1.14 3.32.403 2.97-.347 6.16-1.27 8.01-.326.542-.521 1.21-.243 1.5l.055.0625c.417.548.424.875.396 1.24-.007.0555-.007.111-.007.18v.569h-27.7v-.84c0-.701.382-1.09 1.07-1.1.173-.0208.333-.0694.486-.125-.118-5.12-.118-10.2-.118-15.4.708-.118 1.3-.347 1.8-.666v-8.7c-.007-.0069-1.8-1.19-1.8-1.2.014-3.24.041-6.48.125-9.72 0-.972.166-2.08.666-2.88.25-.375.583-.68 1-.902v-.493c0-.562-.063-1.3-.299-1.97zm-188 .257c-.18.271-.499.465-1.01.479-1.83.271-2.03 2.61-2.03 3.61-.132 12.1-.132 24.4 0 36.5 0 1.01.201 3.35 2.03 3.62.521.0069.833.208 1.01.479.167-.298.479-.465.924-.479.853-.118 1.37-.618 1.69-1.24-.111-11.4-.111-22.9.021-34.3 0-.812.125-1.71.451-2.47v-2.08c0-1.24-.284-3.35-2.16-3.61-.445-.0069-.757-.174-.924-.479zm55 1.26c.271.507.403 1.19.292 1.85l-.021.0833c-.16.472-.521.791-.923.826-.174.0138-.604-.0209-.903-.555-.277-.326-.853-.382-1.3-.292-.659.111-1.12.396-1.43.882-.659 1.02-.659 2.99-.014 5.41l4.58 15.1c2.1-.16 3.19-.826 3.19-1.98 0-.389.104-.646.236-.812l-2.3-7.57c-.542-2.02-1.35-6.46 1.89-7 .326-.0625.687-.0694 1.02.0139.021.0139.951.646.965.652.264.326.59.0763.715-.285.208-1.24-.611-2.62-1.67-3.39 0 0-4.32-2.88-4.32-2.88zm-106 .007c.271.5.403 1.18.292 1.84l-.0208.0833c-.16.472-.521.791-.923.826-.174.0138-.604-.0209-.902-.555-.278-.326-.861-.382-1.3-.292-.659.111-1.12.396-1.43.882-.659 1.02-.659 2.99-.0138 5.42l4.58 15.1c2.1-.16 3.19-.826 3.19-1.98 0-.389.104-.646.236-.812l-2.3-7.57c-.542-2.02-1.35-6.46 1.89-7 .326-.0624.687-.0694 1.02.0139.0208.0139.951.646.965.652.264.326.59.0764.715-.285.208-1.24-.611-2.62-1.67-3.39 0 0-4.32-2.88-4.32-2.88zm171 0c.271.5.396 1.18.292 1.84l-.021.0833c-.16.472-.521.791-.923.826-.174.0138-.604-.0209-.903-.555-.27-.326-.86-.382-1.3-.292-.659.111-1.12.396-1.43.882-.659 1.02-.659 2.99-.014 5.42l4.58 15.1c2.1-.16 3.19-.826 3.19-1.98 0-.389.104-.646.236-.812l-2.3-7.57c-.542-2.02-1.35-6.46 1.89-7 .326-.0624.687-.0694 1.02.0139.021.0139.951.646.965.652.264.326.59.0764.715-.285.208-1.24-.611-2.62-1.67-3.39 0 0-4.32-2.88-4.32-2.88zm23.2 1.78c-.279.0042-.563.0257-.849.0659-2.44.333-4.45 1.94-5.39 4.28-1.32 3.03-1.98 7.71-1.98 13.9-.007 12.4 2.68 18.9 7.98 19.5-2.1-4.6-2.3-11.2-2.3-14.9 0-6.33.673-11 2.02-14.1 1.1-2.76 3.44-4.3 5.86-4.62.042-.687-.104-1.35-.416-1.7-1.18-1.54-2.98-2.38-4.93-2.36zm-131 .0014c-.266.0042-.527.0208-.779.0507v14.7c2.34-.0486 4.24-.451 5.69-1.87v-8.77c.437-.0833.916-.118 1.42-.118-.313-.805-.764-1.53-1.35-2.15-.984-1.28-3.11-1.87-4.98-1.83zm188 .266c-.007 2.71-.035 5.43-.07 8.06-.027 2.63-.062 5.34-.069 8.05h2.67c1.17 0 2.22-.382 3.06-1.04.042-3.69.09-7.36.09-11.1h4.85c.375 0 .736.007 1.08.0278.042-.701-.09-1.4-.389-1.83-.957-1.37-3.55-2.18-6.94-2.18zm-174 .652c.902 1.32 1.19 2.79 1.24 3.97.125 3.53-1.82 7.32-4.96 9.68-.736.493-1.58.944-2.61 1.42 3.03.528 4.94 1.52 6.47 3.28.104.118.208.25.312.375.625-.312 1.22-.632 1.74-.979 4.71-3.53 7.14-11.1 1.33-15.4l-.187-.125-.063-.0417-.249-.167-.063-.0416-.25-.167-.312-.208-.063-.0417-.25-.167-.312-.208-.062-.0417-.25-.167-.063-.0416-.25-.167-.062-.0417-.25-.167-.063-.0416-.249-.167-.063-.0417-.25-.167-.187-.125c-.007-.007-.014-.007-.021-.0139zm-59.8 5.33v31.4c0 1.24.285 3.35 2.17 3.61.688.0139 1.07.41 1.07 1.1v.84h-25.3l5.69 3.66h13.6v-.132c0-.305-.0833-.534-.298-.625l-3.44-2.29c-.0209-.0347-.0417-.0694-.0556-.111h.611l4.81 3.25h10.1v-.271c-.007-.0833-.063-.222-.181-.298-.014-.0208-2.6-1.74-2.62-1.75-.326-.75-.444-1.63-.444-2.43v-14.7c-1.35-5.3-2.8-10.6-4.23-15.9-.486-1.8-.978-3.59-1.45-5.36zm21.5 1.41-8.41 35.7h-2.66c0 .0139 5.63 3.78 5.63 3.79h2.82l.909-3.85 5.29 3.54h13.7v-.271c0-.222-.083-.354-.229-.437l-2.55-1.71c-.007-.0139-.014-.0278-.014-.0416h.736l3.56 2.42h7.26c.937-.132 2.53-.535 2.69-1.99.014.007.667.444.667.444 3.48 2.3 9.95 1.61 13.5-.618l2.81 1.91h10.5v-.132c0-.306-.083-.534-.298-.625-.021-.0139-1.96-1.33-1.99-1.33-.291-.819-.18-1.87-.007-2.83l1.07-5.09c.014.007.285.188.313.208.048.0278.097.0486.139.0763.062.0348.125.0695.187.0972.25.111.493.18.708.25.944.132 1.75 0 2.16-.132 1.75-.805 1.62-2.29 1.08-3.1-.139-.354-.278-.555-.403-.611-.021-.0208-2.79-1.87-2.8-1.87.451-.382 1.3-.923 2.69-1.08.667-.0625 1.31-.0764 1.94-.0625l-.958-3.19c-2.33-.514-4.56-.972-7.18-.722-1.78.201-2.47 1.09-2.51 1.79-.028.5.242.895.701 1l.083.0277c.208.0833.701.222 1.04-.167.195-.444.535-.507.68-.507h.021c.569 0 .854.632.979.937.403.632.521 1.41.326 2.09-.152.528-.562 1.27-1.67 1.78l-.055.0208c-.514.167-1.42.298-2.42.16l-.243-.0694c-.187-.0624-.409-.132-.638-.236l-.91 4.3c-.347 1.9-.153 2.88.639 3.28.208.104.416.208.555.208.535 0 1.1.326 1.1 1.24v.701h-11.6v-.701c0-.895.548-1.23 1.07-1.24 2.12-.264 2.94-2.17 3.26-3.72l2.45-11.1c-.438-.75-.923-1.41-1.44-2.01-.437-.507-.916-.944-1.44-1.33-.035-.0208-3.48-2.33-3.48-2.33 1.14 1.62 2.23 3.92 2.47 7.53.146 5.89-1.15 9.91-3.97 12.3-3.54 2.86-11.1 3.8-15 1.19-.368.708-1.19 1.39-2.92 1.63l-.042.0069h-23.1v-.84c0-.701.375-1.09 1.06-1.1.465-.0694.826-.264 1.11-.528l1.06-4.49zm-51.3 1.38c-.778 3.44-1.55 6.96-2.22 10.4l-.562 2.26c2.11-.708 4.4-.757 6.5-.68zm106 0c-.778 3.44-1.55 6.96-2.22 10.4l-.562 2.26c2.11-.715 4.4-.757 6.5-.68zm65.1 0c-.771 3.43-1.55 6.93-2.22 10.4l-.562 2.26c2.11-.715 4.4-.757 6.5-.68zm102 4.25v11.5h-.667c.014.0139 1.82 1.21 1.83 1.22.34-.285.805-.528 1.33-.535 1.29-.125 2.36.59 3.19 1.62v-10.1zm-197 5.81c-.528-.0084-1.06.0367-1.58.139-.007 1.67-.035 3.74-.062 5.92-.028 2.07-.056 4.19-.07 6.1.701-.528 1.49-.791 2.39-.791l.111.0139c.785.16 1.62.618 1.78 1.28.132.236.07.444.035.534-.125.222-.417.278-.604.292-.889.347-1.25 1.5-1.14 2.49.124 1.12.86 2.39 2.58 2.58.888.0903 1.67-.167 2.37-.77.479-.41.889-.979 1.24-1.62-.007-.007-.014-.007-.021-.0139l-.063-.0417-.187-.125-.063-.0417-.062-.0416-.063-.0417-.124-.0833-.063-.0416-.062-.0417-.063-.0416-.125-.0833-.062-.0417-.063-.0416-.062-.0417-.125-.0833-.063-.0416-.062-.0417-.063-.0416-.125-.0833-.062-.0417-.063-.0416-.062-.0417-.125-.0833-.062-.0416-.063-.0417-.187-.125-.063-.0417-.062-.0416-.063-.0417-.125-.0833-.062-.0416-.063-.0417-.187-.125-.063-.0417-.062-.0416-.063-.0417-.062-.0416-.021-.0208c.042-3.52.111-7.3.111-9.9.951-.243 1.96-.306 2.95-.201-1.33-2.41-4.2-3.99-7.06-4.03zm-58.2 1.01c.146.528.194 1.14.139 1.81-.174 2-1.21 4.05-2.49 4.89-.41.389-.951.625-1.41.77.902 3.3 1.94 6.53 2.94 9.66.604 2.26 1.69 3.46 3.42 3.78.451.0208.909.278 1.02.923.104-.493.451-.764 1.01-.784-.993-3.1-1.97-6.21-2.85-9.44.673-.132 1.35-.403 1.75-.805 1.89-1.21 3.23-5.66 1.48-7.27-.0416-.0417-5-3.53-5.01-3.53zm215 .0479c-.698-.0225-1.4.0102-2.09.0979-1.8.201-2.49 1.09-2.53 1.79-.028.5.243.896.701 1l.084.0278c.409.167.812 0 1.06-.208.187-.389.506-.458.638-.465.618-.0277.917.604 1.02.819.43.75.534 1.61.284 2.33-.166.479-.59 1.12-1.61 1.53-.465.278-1.19.347-2.25.222v10.2c0 .548.104 3.3 2.17 3.61.695.0208 1.2.534 1.2 1.24v.701h-15.1v-.701c0-.701.499-1.22 1.19-1.24 1.27-.187 2-1.42 2.17-3.65v-7.55s-2.35-1.56-2.36-1.58c.07.153.139.298.201.465 1.28 3.48.181 8.99-3.81 11.8-2.51 1.8-5.73 2.93-8.41 2.93-1.88 0-3.63-.312-5.25-.923.007.0069 3.53 2.35 3.53 2.35.479.333.978.632 1.49.896 1.94 1.02 4.11 1.53 6.48 1.53 2.56 0 5.66-1.08 8.08-2.83.014-.0069 3.5 2.31 3.5 2.31h14v-.132c-.007-.278-.105-.451-.25-.569-.021-.0209-2.59-1.73-2.6-1.74-.368-.764-.521-1.67-.521-2.5v-10.8h.403c.944.139 1.75.139 2.16-.132 1.75-.673 1.62-2.16 1.08-3.1-.125-.243-.243-.396-.354-.465-.02-.0209-2.84-1.9-2.85-1.9.438-.625 1.29-1.16 2.66-1.31.861-.111 1.74-.125 2.61-.0764v-2.94l-.313-.0694c-2.11-.463-4.28-.942-6.39-1zm-109 .0902c.146.528.201 1 .139 1.67-.174 2-1.22 4.05-2.48 4.89-.41.382-.951.625-1.41.771.903 3.3 1.94 6.53 2.94 9.66.597 2.24 1.71 3.46 3.42 3.78.382.0139.763.201.944.646.16-.382.514-.632.979-.646.021 0 .041-.0069.062-.0138-.972-3.05-1.94-6.12-2.8-9.29.673-.132 1.35-.403 1.75-.805 1.89-1.21 3.24-5.66 1.48-7.27-.042-.0416-5.01-3.38-5.03-3.39zm140 .0903c0 3.06.035 6.12.07 9.09.027 2.92.055 5.94.062 8.91h4.28c.493 0 .937-.0486 1.38-.111-.042-4.6-.105-9.21-.105-13.9h1.9c-.09-.132-.166-.292-.222-.507-.576-2.08-2.46-3.48-4.7-3.48zm-74.9 2.89c-.396 1.58-1.26 3.02-2.27 3.7-.41.389-.951.625-1.41.77.903 3.28 1.93 6.5 2.93 9.63l.021.0562c.597 2.24 1.69 3.44 3.42 3.76.521.0209 1.05.361 1.05 1.24v.701h-13.9l5.68 3.79h13.9v-.132c-.007-.236-.083-.458-.298-.555-.021-.0139-3.41-2.28-3.44-2.29-.306-.555-.542-1.17-.715-1.82-.896-2.81-1.79-5.62-2.61-8.51-1.3-2.93-2.1-6.37-2.36-10.3zm-34 2.3c2.29 4.19 1.46 11.3-.014 14-.278.555-.382 1.11-.257 1.36l.028.0771c.007.0278.034.0555.111.132.173.18.458.479.458 1.12v.84h-41.5l5.68 3.79h13.9v-.132c0-.305-.083-.534-.298-.625-.021-.0139-3.41-2.28-3.44-2.29-.035-.0694-.077-.132-.111-.201h.451l4.75 3.21h26.3v-.271c0-.652-.375-.673-.52-1.04h.055l1.81 1.25h10.5v-.132c0-.305-.084-.534-.299-.625-.021-.0139-1.96-1.33-1.99-1.33-.292-.819-.181-1.87-.007-2.83l1.07-5.09c.014.0069.409.264.458.285.062.0347.125.0694.187.0972.25.111.493.18.708.257.945.132 1.75 0 2.15-.132 1.75-.805 1.62-2.29 1.08-3.1-.138-.354-.277-.555-.402-.611-.021-.0208-2.79-1.87-2.8-1.87.452-.646 1.3-1.19 2.69-1.34.666-.0625 1.31-.0764 1.94-.0625l-.958-3.19c-2.33-.514-4.56-.972-7.18-.722-1.78.201-2.47 1.09-2.51 1.79-.028.5.243.895.694 1l.083.0277c.202.0833.702.222 1.04-.167.194-.444.534-.507.68-.507h.021c.569 0 .854.639.979.937.402.632.52 1.41.326 2.1-.153.528-.562 1.27-1.67 1.78l-.056.0208c-.513.167-1.41.298-2.42.16l-.243-.0694c-.188-.0625-.41-.132-.639-.236l-.909 4.3c-.347 1.9-.153 2.88.638 3.28.209.104.417.208.556.208.534 0 1.1.326 1.1 1.24v.701h-11.6v-.701c0-.896.542-1.23 1.07-1.24 2.12-.264 2.94-2.17 3.26-3.72l1.35-6.11c-.514-1.32-1.27-2.42-2.35-3.11 0 0-3.84-2.56-3.86-2.57zm-155 .809c-.613-.0153-1.24.0035-1.9.0659-1.78.201-2.47 1.09-2.51 1.79-.0277.5.243.895.701 1l.0833.0277c.201.0833.701.222 1.04-.167.194-.444.534-.507.68-.507h.0208c.569 0 .854.639.979.937.403.632.521 1.41.326 2.1-.153.528-.562 1.27-1.67 1.78l-.0555.0208c-.514.167-1.42.298-2.42.16l-.243-.0694c-.187-.0625-.41-.132-.639-.236l-.902 4.3c-.347 1.9-.153 2.88.639 3.28.208.104.416.208.555.208.534 0 1.1.326 1.1 1.24v.701h-10.5l5.69 3.79h10.5v-.132c0-.305-.0833-.534-.298-.625-.0209-.0139-1.97-1.33-1.99-1.33-.292-.819-.18-1.87-.0069-2.83l1.07-5.09c.0139.007.0277.0208.0416.0278l.188.125c.0277.0209.0555.0347.0833.0556.0485.0277.0971.0486.139.0763.0625.0347.125.0694.187.0972.25.111.493.18.708.25.944.132 1.75 0 2.15-.132 1.75-.805 1.62-2.29 1.08-3.1-.139-.354-.278-.555-.403-.611-.0208-.0209-2.79-1.87-2.8-1.87.451-.611 1.3-1.15 2.69-1.3.666-.0625 1.31-.0764 1.94-.0625l-.958-3.19c-1.75-.391-3.44-.742-5.28-.788zm.818 27c.243.632.326 1.32.229 2.03-.896 4.85-4.97 6.26-9.29 7.76-4.03 1.4-8.19 2.85-10.6 7.12l-.16.292h-.0347c.0208.0139.0347.0347.0625.0416.0208.0139.0347.0347.0625.0417.0208.0139.0347.0347.0624.0416.0209.0139.0347.0347.0625.0417.0208.0139.0347.0347.0625.0416.0208.0139.0347.0347.0625.0417.0208.0139.0347.0347.0624.0416.0209.0139.0347.0347.0625.0417.0208.0139.0347.0347.0625.0416.0208.0139.0347.0347.0625.0417.0208.0139.0347.0347.0624.0416.0209.0139.0347.0347.0625.0417.0208.0139.0347.0347.0625.0416.0208.0139.0347.0347.0625.0417.0208.0139.0347.0347.0624.0416.0209.0139.0347.0347.0625.0417.0208.0139.0347.0347.0625.0416.0208.0139.0347.0347.0625.0417.0208.0139.0347.0347.0624.0416.0209.0139.0347.0347.0625.0417.0208.0138.0347.0347.0625.0416.0208.0139.0347.0347.0625.0417.0208.0138.0347.0347.0624.0416.0209.0139.0347.0347.0625.0417.0208.0138.0347.0347.0625.0416.0208.0139.0347.0347.0625.0417.0208.0138.0347.0347.0624.0416.0209.0139.0347.0347.0625.0417.0208.0138.0347.0347.0625.0416.0208.0139.0347.0347.0624.0417.0209.0138.0348.0347.0625.0416.0208.0139.0347.0347.0625.0417.0208.0138.0347.0347.0625.0416.0208.0139.0347.0347.0624.0417.0209.0138.0348.0347.0625.0416.0208.0139.0347.0347.0625.0417.0208.0138.0347.0347.0625.0416.0208.0139.0347.0347.0624.0417.0209.0138.0348.0347.0625.0416.0208.0139.0347.0347.0625.0417.0208.0138.0347.0347.0625.0416.0208.0139.0347.0347.0624.0417.0209.0138.0348.0347.0625.0416.0208.0139.0347.0347.0625.0417.0208.0138.0347.0347.0625.0416.0208.0139.0347.0347.0624.0417.0209.0138.0348.0347.0625.0416.0208.0139.0347.0347.0625.0417.0208.0138.0347.0347.0625.0416.0208.0139.0347.0347.0624.0417.0209.0138.0348.0347.0625.0416.0208.0139.0347.0347.0625.0417.0208.0138.0347.0347.0625.0416.0208.0139.0347.0347.0624.0417.0209.0138.0348.0347.0625.0416.0208.0139.0347.0347.0625.0417.0208.0138.0347.0347.0625.0416.0208.0139.0347.0347.0624.0417.0209.0138.0348.0347.0625.0416.0208.0139.0347.0347.0625.0417.0208.0138.0347.0347.0625.0416.0208.0139.0347.0347.0624.0417.0209.0138.0348.0347.0625.0416.0208.0139.0347.0347.0625.0417.0208.0138.0347.0347.0625.0416.0208.0139.0347.0347.0624.0417.0209.0138.0348.0347.0625.0416.0208.0139.0347.0347.0625.0417.0208.0138.0347.0347.0625.0416.0208.0139.0347.0347.0624.0417.0209.0138.0348.0347.0625.0416.0208.0139.0347.0347.0625.0417.0208.0138.0347.0347.0625.0416.0208.0139.0347.0347.0624.0417.0209.0138.0348.0347.0625.0416.0208.0139.0347.0347.0625.0417.0208.0138.0347.0347.0625.0416.0208.0139.0347.0347.0624.0417.0209.0138.0348.0347.0625.0416.0208.0139.0347.0347.0625.0417.0208.0138.0347.0347.0625.0416.0208.0139.0347.0347.0624.0417.0209.0138.0348.0347.0625.0416.0208.0139.0347.0347.0625.0417.0208.0138.0347.0347.0625.0416.0208.0139.0347.0347.0624.0417.0209.0138.0347.0347.0625.0416.0208.0139.0347.0347.0625.0417.0208.0138.0347.0347.0625.0416.0208.0139.0347.0347.0624.0417.0209.0138.0347.0347.0625.0416h.271c5.12-9.16 18.2-5.93 19.8-14.7.187-1.45-.5-2.6-1.46-3.32l-4.46-2.98zm-27.6 10.5 2 1.34c1.15.868 2.36 1.62 3.64 2.26.319.153.639.285.958.416.0764-1.02-.562-1.81-2.03-2.49l-.542-.16c-1.1-.326-2.54-.75-4.03-1.37z"/>
      <path class="st3" d="m171 21.6c.007 0 .007.007.013.007-.055-.0486-.118-.0833-.18-.125.014.0139.028.0208.042.0278.02.0139.034.0347.062.0416.021.0209.035.0417.063.0486z"/>
      <path class="st3" d="m288 21.4.187.125c.007.007.014.007.014.0139-.104-.0902-.208-.167-.326-.229l.063.0417c.02.0208.041.0347.062.0486z"/>
      <path class="st3" d="m308 21.3c.02.0139.034.0347.062.0416.021.0139.035.0348.063.0417.02.0139.034.0347.062.0416.021.0139.035.0348.062.0417.021.0139.035.0347.063.0416.021.0139.035.0348.062.0417.021.0139.035.0347.063.0416.014.007.028.0209.042.0278-.178-.19-.393-.341-.632-.444.007.007.014.0139.028.0209.02.0139.034.0347.062.0416.021.0347.035.0486.063.0625z"/>
      <path class="st3" d="m199 21.4c.021.0208.042.0277.063.0416.02.0208.041.0278.062.0417.021.0208.042.0277.062.0416.014.0139.028.0208.042.0278-.097-.0903-.215-.167-.333-.236.014.0069.028.0208.042.0277.02.0278.041.0417.062.0556z"/>
      <path class="st3" d="m236 21.6c.007 0 .007.007.014.007-.063-.0486-.125-.0903-.188-.132.014.0139.028.0277.049.0347.021.0139.034.0347.062.0416.021.0209.035.0417.063.0486z"/>
      <path class="st3" d="m55.8 25.1c-.007-.0069-.0139-.0069-.0208-.0139-.0139-.0138-.0417-.0277-.0625-.0416-.0139-.0139-.0417-.0278-.0625-.0417-.0139-.0138-.0416-.0277-.0625-.0416-.0138-.0139-.0416-.0278-.0624-.0417-.0139-.0138-.0417-.0277-.0625-.0416-.0139-.0139-.0417-.0278-.0625-.0417-.0139-.0138-.0416-.0277-.0625-.0416-.0138-.0139-.0416-.0278-.0624-.0417-.0139-.0138-.0417-.0277-.0625-.0416-.0139-.0139-.0417-.0278-.0625-.0417-.0139-.0138-.0416-.0277-.0625-.0416-.0138-.0139-.0416-.0278-.0624-.0417-.0139-.0138-.0417-.0277-.0625-.0416-.0139-.0139-.0417-.0278-.0625-.0417-.0139-.0138-.0416-.0277-.0625-.0416-.0138-.0139-.0416-.0278-.0624-.0417-.0139-.0138-.0417-.0277-.0625-.0416-.0139-.0139-.0417-.0278-.0625-.0417-.0139-.0138-.0416-.0277-.0625-.0416-.0138-.0139-.0416-.0278-.0624-.0417-.0139-.0138-.0417-.0277-.0625-.0416-.0139-.0139-.0417-.0278-.0625-.0417-.0139-.0138-.0416-.0277-.0625-.0416-.0138-.0139-.0416-.0208-.0624-.0347-.0278.0694-.0694.146-.118.222-.167.305-.118.715.146.965.326.264.882.208 1.49-.18z"/>
      <path class="st3" d="m92.8 21.4.0069.0069c.0139.0209.0417.0278.0625.0417.0139.0208.0417.0278.0625.0416.0139.0209.0416.0278.0625.0417.0138.0208.0416.0278.0624.0416.0139.0209.0417.0278.0625.0417.0139.0208.0417.0278.0625.0416.0139.0209.0416.0278.0625.0417.0138.0208.0416.0278.0624.0416.0139.0209.0417.0278.0625.0417.0139.0208.0417.0278.0625.0416.0069.007.0139.007.0208.0139-.18-.174-.396-.326-.652-.437z"/>
      <path class="st3" d="m65.6 78.8c-.292-.236-.729-.25-.979-.0347-.112.116-.243.21-.389.278.0347.0486.0764.0903.125.111.0208.0139.0416.0347.0624.0417.0209.0138.0417.0347.0625.0416.0208.0139.0417.0347.0625.0417.0208.0138.0416.0347.0625.0416.0208.0139.0416.0347.0624.0417.0209.0138.0417.0347.0625.0416.0208.0139.0417.0347.0625.0417.0208.0138.0416.0347.0625.0416.0208.0139.0416.0347.0624.0417.0209.0138.0417.0347.0625.0416.0208.0139.0416.0347.0625.0417.0208.0138.0416.0347.0624.0416.0209.0139.0417.0347.0625.0417.0208.0138.0417.0347.0625.0416.0208.0139.0416.0347.0625.0417.0208.0138.0416.0347.0624.0416.0209.0139.0417.0347.0625.0417.0208.0138.0417.0347.0625.0416.0208.0139.0416.0347.0625.0417.0208.0138.0416.0347.0624.0416.0209.0139.0417.0347.0625.0417.007.0069.0208.0138.0278.0208.257-.534.222-.993-.0972-1.25z"/>
      <path class="st2" d="m253 84.8.271.611"/>
    
    <path class="st2" d="m48.8 3.86c-1.34 0-2.6.186-3.71.385-11.3 1.89-18.3 13.2-21.2 26.8-1.35-1.48-3.09-2.29-5.53-1.61-.944.124-1.89 1.21-.807 1.48 3.37 1.07 4.59 6.06 4.99 10.1-1.07 18.6 4.99 38.4 18.3 45 2.02.944 4.04 1.48 5.39 1.89 1.74.807 2.96 2.02 2.15 4.18-.13.404 0 .677.273.807h.267c5.12-9.17 18.2-5.93 19.8-14.7.397-2.96-2.71-4.58-4.45-4.17-2.15.54-2.42 2.15-2.42 3.09.124.677.397.807.807.404.938-.807 2.96.137 1.88 2.15-.671 1.48-1.89 2.42-3.63 2.83-32.9 8.48-36.4-41.4-26.3-62.4 6.2-12.7 22.2-13.5 22.2-.807 0 2.3-.54 4.31-2.29 5.53-1.89 1.22-3.09-.404-2.42-1.61.273-.404 0-.677-.671-.546-.944 0-2.42.677-2.56 2.83-.13 1.75 2.15 4.45 4.99 3.51 8.35-2.83 2.83-15.1 10.9-21.5l-.13-.137c-.137-.404-.404-.404-.807-.273-1.03.586-2.31.479-3.23-.267-3.25-2.32-7.92-3.05-11.9-2.94zm-16.8 14.7c-1.8 3.86-3.17 8.41-4.1 13.7-.952 5.33-1.31 10.8-1.08 16.2.211 5.45 1.09 10.9 2.63 16.1 1.53 5.2 3.77 9.7 6.73 13.5-3.32-3.25-5.86-7.36-7.61-12.3-1.78-5.1-2.84-10.4-3.17-15.8-.36-5.57.0266-11.2 1.15-16.6 1.12-5.53 2.94-10.4 5.45-14.6zm315 .205c-.032.014-.059.0353-.081.0621-.54.267-2.02.267-3.09.267h-23.3v.267c0 .404.137.54.547.54 2.15.273 2.69 2.42 2.69 4.18v36.5c0 1.75-.54 3.91-2.69 4.18-.404 0-.547.124-.547.54v.267h26.5c0-.404.124-.54-.273-1.07-.547-.559-.286-1.5.124-2.17.807-1.61 1.62-4.71 1.22-7.68-.273-2.02-1.89-5.79-4.45-5.53-.671 0-1.21.54-1.35.807 0 .13 0 .267.137.267 2.96.404 2.42 11.7-6.46 11.7h-4.86c0-6.33-.13-12.7-.13-19.1h3.23c2.44-.0527 4.6 1.56 5.26 3.91.124.54.397.54.944.54h.124v-11.7h-.124c-.547 0-.808.137-.944.546-.667 2.34-2.82 3.95-5.26 3.91h-3.23c0-5.79.124-11.4.124-17.2h4.86c4.04 0 6.46 1.08 7.41 2.42.944 1.35.54 4.45-1.08 4.72 0 0-.136.124 0 .267 0 .273.671.807 1.34.807 1.89.267 3.64-2.02 4.04-3.77.41-1.61 0-3.24-.801-4.86-.403-.807-.671-1.89 0-2.69.137-.273.273-.404.273-.807-.099 0-.124-.0745-.186-.0559zm-62.3.0621v.267c0 .404.274.54.677.671 2.02.13 2.56 2.29 2.7 4.04v36.5c-.136 1.75-.676 3.91-2.7 4.18-.403 0-.677.267-.677.671v.13h14v-.124c0-.41-.273-.683-.67-.683-2.02-.267-2.7-2.42-2.7-4.17v-10.8h.404c.944.13 1.74.13 2.15-.13 1.75-.671 1.61-2.15 1.07-3.1-.267-.54-.54-.671-.671-.267-.449.474-1.14.633-1.75.404-1.74-.404-1.74-3.51 1.89-3.91 3.1-.397 6.33.404 9.43 1.08v16.7c0 1.75-.54 3.91-2.69 4.18-.404 0-.546.267-.546.671v.137h13.9v-.137c0-.41-.267-.671-.664-.671-2.02-.273-2.56-2.42-2.56-4.18-.131-5.38-.131-10.8-.131-16.2.728-.103 1.42-.38 2.02-.807 1.89-1.35 3.24-5.65 1.61-7.27-.397-.273-.807-.273-.807.267 0 1.48-1.07 2.15-2.83 2.42 0-4.98 0-9.97.131-14.9 0-1.75.54-3.91 2.56-4.04.397-.137.67-.273.67-.683v-.267h-13.9v.273c0 .404.124.54.54.671 2.15.13 2.69 2.3 2.69 4.04v15c-3.91-.397-8.07-.807-11.2.404l-1.35.677v-16c0-1.75.671-3.91 2.7-4.04.397-.137.67-.273.67-.683v-.267zm-1.6 0c-.54.404-2.02.404-3.23.404h-5.93c-5.39-.13-9.3 2.29-12.1 6.46-1.65 2.36-2.84 5.02-3.5 7.82-.736 3.18-1.1 6.43-1.08 9.69 0 5.66.944 11.7 4.32 16.4 2.96 4.04 6.87 6.06 11.6 6.06 2.56 0 5.66-1.07 8.08-2.83 5.92-4.17 4.84-14.1.267-13.7-.677.13-1.22.54-1.35.944 0 .13 0 .273.13.273 2.42.267 2.83 11-5.66 11-8.76 0-9.3-13.9-9.3-20.1 0-6.33.677-11 2.02-14.1 2.15-5.39 9.02-6.2 12.1-2.15 1.07 1.22.54 4.45-.944 4.58-.131 0-.131.13-.131.273.131.267.671.807 1.35.807 2.02.267 3.77-2.02 4.18-3.65.267-1.48 0-3.09-.807-4.58-.404-.807-.807-1.89-.13-2.7.267-.273.403-.404.267-.807 0-.124-.125-.124-.125-.124zm-87.3.124v.267c0 .404.273.54.54.54 2.16.273 2.7 2.42 2.7 4.18.131 12.1.131 24.4 0 36.5 0 1.75-.54 3.91-2.7 4.18-.267 0-.54.13-.54.54v.273h26.7v-.273c0-.671-.404-.671-.546-1.07-.261-.54.012-1.35.279-1.89 1.62-2.96 2.56-12.8-1.89-15.6-1.07-.677-2.56.13-2.7.671l.137.137c2.96.54 2.56 14.4-6.46 14.4h-4.86v-37.9c0-1.75.54-3.91 2.69-4.18.403 0 .546-.13.546-.54v-.273zm-134 .0062v.273c0 .404.13.54.54.671 2.02.137 2.83 2.42 2.56 4.04l-4.04 18.2-4.04 18.3c-.404 2.01-1.48 3.91-3.77 4.17-.404 0-.54.273-.54.677v.124h10.5v-.124c0-.404-.13-.677-.54-.677-.273 0-.54-.13-.807-.267-1.35-.677-1.22-2.42-.944-3.91l1.07-5.12c.404.404.944.546 1.35.677.944.13 1.75 0 2.15-.13 1.75-.807 1.61-2.3 1.07-3.1-.273-.671-.54-.807-.671-.404-.404.54-1.08.677-1.75.404-1.75-.404-1.75-3.5 1.89-3.91 2.83-.267 5.25.273 7.68.807l3.23 10.8.41 1.61c.13 1.75-.677 2.15-2.02 2.56-.267.13-.397.273-.397.671v.137h13.9v-.137c-.0062-.404-.137-.683-.54-.683-2.29-.398-3.37-2.15-3.91-4.17-1.07-3.37-2.15-6.73-3.09-10.2.648-.0999 1.25-.38 1.75-.807 1.89-1.21 3.23-5.65 1.48-7.27-.273-.273-.677-.273-.677.397 0 1.75-1.74 2.42-3.91 2.56h-.267l-4.72-15.5c-.54-2.02-1.34-6.46 1.89-7 .671-.13 1.48 0 1.89.54.267.54.671.273.807-.13.267-1.61-1.22-3.51-2.7-3.91h-1.89c-4.86 0-8.35-.124-12.9-.124zm106 0v.273c0 .404.13.54.54.671 2.02.137 2.83 2.42 2.56 4.04l-4.04 18.2-4.04 18.3c-.404 2.01-1.48 3.91-3.77 4.17-.404 0-.54.273-.54.677v.124h10.5v-.124c0-.404-.13-.677-.54-.677-.273 0-.54-.13-.807-.267-1.35-.677-1.21-2.42-.944-3.91l1.07-5.12c.404.404.944.546 1.35.677.944.13 1.75 0 2.16-.13 1.74-.807 1.61-2.3 1.07-3.1-.273-.671-.54-.807-.671-.404-.403.54-1.08.677-1.75.404-1.75-.404-1.75-3.5 1.89-3.91 2.83-.267 5.25.273 7.68.807l3.23 10.8.41 1.61c.13 1.75-.677 2.15-2.02 2.56-.273.13-.403.273-.403.671v.137h13.9v-.137c0-.404-.13-.683-.54-.683-2.29-.398-3.37-2.15-3.91-4.17-1.07-3.37-2.15-6.73-3.09-10.2.648-.0999 1.25-.38 1.75-.807 1.89-1.21 3.23-5.65 1.48-7.27-.273-.273-.677-.273-.677.397 0 1.75-1.74 2.42-3.91 2.56h-.267l-4.72-15.5c-.54-2.02-1.34-6.46 1.89-7 .671-.13 1.48 0 1.89.54.267.54.671.273.808-.13.267-1.61-1.22-3.51-2.7-3.91h-1.89c-4.86 0-8.35-.124-12.9-.124zm65.1 0v.273c0 .404.13.54.54.671 2.02.137 2.83 2.42 2.56 4.04l-4.04 18.2-4.04 18.3c-.404 2.01-1.48 3.91-3.77 4.17-.403 0-.54.273-.54.677v.124h10.5v-.124c0-.404-.13-.677-.54-.677-.273 0-.54-.13-.807-.267-1.35-.677-1.22-2.42-.944-3.91l1.07-5.12c.404.404.944.546 1.35.677.944.13 1.75 0 2.16-.13 1.74-.807 1.61-2.3 1.07-3.1-.273-.671-.54-.807-.671-.404-.403.54-1.08.677-1.75.404-1.75-.404-1.75-3.5 1.89-3.91 2.83-.267 5.25.273 7.68.807l3.23 10.8.41 1.61c.13 1.75-.677 2.15-2.02 2.56-.267.13-.397.273-.397.671v.137h13.9v-.137c-.006-.404-.136-.683-.54-.683-2.29-.398-3.37-2.15-3.91-4.17-1.08-3.37-2.15-6.73-3.09-10.2.648-.0999 1.26-.38 1.75-.807 1.89-1.21 3.23-5.65 1.48-7.27-.273-.273-.677-.273-.677.397 0 1.75-1.74 2.42-3.91 2.56h-.267l-4.72-15.5c-.54-2.02-1.34-6.46 1.9-7 .67-.13 1.48 0 1.89.54.267.54.671.273.808-.13.267-1.61-1.22-3.51-2.7-3.91h-1.89c-4.86 0-8.35-.124-12.9-.124zm-143 .124v.273c0 .404.13.54.54.54 2.15.273 2.7 2.42 2.7 4.18v36.5c0 1.75-.54 3.91-2.7 4.17-.398 0-.54.137-.54.546v.267h10.4v-.267c0-.404-.13-.546-.54-.546-2.15-.267-2.7-2.42-2.7-4.17v-35.7c3.51 13.2 7.68 27.5 10.4 40.8h2.83l9.43-40v34.9c0 1.75-.67 3.91-2.7 4.18-.397 0-.54.124-.54.54v.267h13.9v-.267c0-.404-.274-.54-.677-.54-2.02-.273-2.56-2.42-2.56-4.18-.137-12.1-.137-24.4 0-36.5 0-1.75.547-3.91 2.56-4.19.403 0 .677-.124.677-.54v-.267h-16.4v.267c0 .404.273.54.67.677.404 0 .808.267 1.08.54.944.944.807 2.15.404 3.5l-5.66 24.4-6.2-24.4c-.267-1.35-.54-2.56.404-3.5.336-.333.757-.568 1.22-.677.267 0 .404-.124.404-.54v-.267zm41.2.0186v.267c0 .404.136.546.54.546 2.16.267 2.7 2.42 2.7 4.17v36.5c0 1.75-.54 3.91-2.7 4.18-.398 0-.54.124-.54.54v.267h7.81c.944-.124 2.56-.54 2.69-2.02 3.51 3.1 11.5 2.15 15-.671 2.84-2.45 3.92-6.49 3.79-11.9-.273-4.04-1.62-6.46-3.24-8.35-1.74-2.02-4.04-2.97-8.22-3.37 1.55-.554 3.04-1.27 4.44-2.15 4.86-3.64 7.28-11.6.807-15.8-1.65-1.02-3.48-1.71-5.38-2.02-2.02-.267-4.31-.267-17.6-.267zm12.4 3.38c1.88.0621 3.96.689 4.97 2.01 2.15 2.29 2.42 5.53 1.62 8.49-.188 1.02-.604 1.99-1.22 2.83-1.89 2.3-4.58 2.56-7.14 2.56v-15.8c.586-.105 1.18-.147 1.78-.124zm168 .516.404 2.29c0 2.96-.025 5.45-.069 7.48-.049 2.02-.074 3.76-.074 5.25v8.22c0 1.49.025 3.22.074 5.19.038 1.98.062 4.44.062 7.41l-.534 2.29-.403-2.3v-33.5zm-19.8.0062.404 2.29c-.099 2.96-.137 5.45-.137 7.48v26.1l-.403 2.29-.404-2.3v-33.5zm-88.9.13.403 2.3c-.099 2.96-.136 5.43-.136 7.4v26.1l-.404 2.29-.404-2.29v-33.5zm-102 .13 1.08 2.15c.993 4.31 1.71 7.48 2.15 9.5.454 2.01.87 3.76 1.28 5.25.465 1.72.912 3.45 1.34 5.19l2.36 9.43.137 2.29-.938-2.14c-1.04-3.87-2.03-7.76-2.96-11.7-.274-1.12-.522-2.11-.746-2.96-.223-.851-.472-1.84-.745-2.97-.267-1.12-.627-2.58-1.07-4.38-.453-1.8-1.04-4.22-1.75-7.27zm22.8 0 .404 2.3c0 2.96-.019 5.43-.068 7.4-.05 1.97-.069 3.73-.069 5.25v8.22c0 1.53.019 3.29.069 5.26.043 1.97.068 4.44.068 7.4l-.54 2.3-.404-2.3c0-3.14.019-5.73.068-7.74.044-2.02.069-3.75.069-5.19v-7.68c0-1.44-.019-3.17-.062-5.19-.056-2.02-.075-4.6-.075-7.75zm204 0 .398 2.3c-.087 2.96-.131 5.43-.131 7.4v13.5c-.006 1.52.013 3.28.062 5.25.044 1.97.069 4.44.069 7.4l-.541 2.3-.403-2.3v-33.5zm-189 .0124.541 2.29c.001 2.47-.024 4.94-.075 7.41l-.13 5.25c-.05 1.53-.069 2.89-.069 4.11v4.11c0 1.53.019 3.27.069 5.25.043 1.97.068 4.44.068 7.41l-.404 2.29-.54-2.29c0-3.15.019-5.73.068-7.75.044-2.02.069-3.74.069-5.19v-20.6zm14.1.807c1.53.981 2.4 2.29 2.63 3.91.216 1.64-.246 3.29-1.28 4.58h-.13c.987-3.06.584-5.87-1.22-8.49zm-81.9 1.47 1.07 2.02c.807 2.87 1.51 5.25 2.09 7.14.584 1.89 1.07 3.54 1.48 4.98.404 1.44.782 2.76 1.14 3.97.366 1.22.789 2.55 1.28 3.97.497 1.43 1.04 3.1 1.61 4.99l2.22 7.14.13 2.29-1.07-2.02-2.22-7.34c-.578-1.93-1.07-3.59-1.48-4.99l-1.07-3.71c-.31-1.07-.696-2.31-1.14-3.7-1.3-4.09-2.56-8.2-3.77-12.3zm106 0 1.07 2.02c.808 2.87 1.51 5.25 2.09 7.14.584 1.89 1.08 3.54 1.48 4.98.404 1.44.783 2.76 1.14 3.97.354 1.22.789 2.55 1.28 3.97.497 1.43 1.04 3.1 1.62 4.99l2.22 7.14.13 2.29-1.07-2.02c-1.24-4.11-2.48-8.21-3.7-12.3l-1.07-3.71c-.311-1.07-.696-2.31-1.14-3.7-1.3-4.09-2.56-8.2-3.77-12.3zm65.1 0 1.07 2.02c.808 2.87 1.51 5.25 2.09 7.14.584 1.89 1.08 3.54 1.48 4.98.404 1.44.783 2.76 1.14 3.97.354 1.22.789 2.55 1.28 3.97.497 1.43 1.04 3.1 1.62 4.99l2.22 7.14.13 2.29-1.07-2.02c-1.24-4.11-2.48-8.21-3.7-12.3l-1.07-3.71c-.311-1.07-.696-2.31-1.14-3.7-1.3-4.09-2.56-8.2-3.77-12.3zm21.7 4.18c-.606 2.23-1.03 4.51-1.28 6.81-.313 2.7-.403 5.43-.268 8.15.131 2.78.516 5.48 1.14 8.07.621 2.61 1.57 4.77 2.83 6.47-1.62-1.61-2.86-3.7-3.71-6.27s-1.35-5.25-1.48-8.07c-.14-2.77.042-5.55.541-8.28.496-2.7 1.24-4.99 2.22-6.87zm-196 .13 4.58 14.8c-2.7-.13-5.53-.13-7.95.944h-.13l.807-3.24c.807-4.18 1.74-8.35 2.69-12.5zm106 0 4.58 14.8c-2.7-.13-5.53-.13-7.95.944h-.13l.807-3.24c.807-4.18 1.74-8.35 2.69-12.5zm65.1 0 4.58 14.8c-2.7-.13-5.52-.13-7.95.944h-.13l.807-3.24c.807-4.18 1.74-8.35 2.69-12.5zm-94.7 11.6c3.1.0249 6.3 1.71 7.72 4.56.986 2.1 1.45 4.41 1.35 6.73-.125 3.09-1.62 8.89-5.65 8.49-3.78-.404-3.91-5.38-1.48-6.2.137 0 .273 0 .137-.13 0-.404-.677-.807-1.35-.944-1.22 0-2.16.54-2.97 1.61 0-4.31.136-10.2.136-13.9.683-.18 1.39-.261 2.11-.255zm11 3.08.273.267c.867 1.01 1.49 2.21 1.82 3.5.404 1.44.603 2.92.603 4.45 0 1.53-.224 3-.671 4.38-.344 1.23-1.05 2.33-2.02 3.17l-.547.404c1.54-2.39 2.36-5.17 2.36-8.02.044-3.01-.559-5.73-1.81-8.15z" fill="#252e30" stroke-width=".11"/>
  
</svg>
