<?xml version="1.0" encoding="UTF-8"?>
<svg version="1.1" viewBox="0 0 600 323" xmlns="http://www.w3.org/2000/svg">
 <defs>
  <linearGradient id="b" x1="1573" x2="1834" y1="950" y2="1330" gradientUnits="userSpaceOnUse">
   <stop stop-color="#fff" offset="0"/>
   <stop stop-color="#E6E6E6" offset="1"/>
  </linearGradient>
  <filter id="filter15" x="-.00502" y="-.00626" width="1.01" height="1.02" style="color-interpolation-filters:sRGB">
   <feFlood flood-color="rgb(210,210,210)" in="SourceGraphic" result="flood"/>
   <feGaussianBlur in="SourceGraphic" result="blur" stdDeviation="0.500000"/>
   <feOffset dx="0.500000" dy="0.500000" in="blur" result="offset"/>
   <feComposite in="flood" in2="offset" operator="in" result="comp1"/>
   <feComposite in="SourceGraphic" in2="comp1" result="comp2"/>
  </filter>
  <filter id="filter15-3" x="-.00664" y="-.0105" width="1.02" height="1.03" style="color-interpolation-filters:sRGB">
   <feFlood flood-color="rgb(210,210,210)" in="SourceGraphic" result="flood"/>
   <feGaussianBlur in="SourceGraphic" result="blur" stdDeviation="0.500000"/>
   <feOffset dx="0.500000" dy="0.500000" in="blur" result="offset"/>
   <feComposite in="flood" in2="offset" operator="in" result="comp1"/>
   <feComposite in="SourceGraphic" in2="comp1" result="comp2"/>
  </filter>
 </defs>
 <style>.st2{fill:#bcbec0}.st3{fill:#808285}.st4{fill:#828487}.st10{font-family:'RobotoCondensed-Bold'}.st12{font-size:58.0621px}.st14{font-size:25.4663px}</style>
 <path class="st6" d="m239 298h-214c-6.74 0-12.3-6.59-12.3-14.6v-163c0-8.06 5.54-14.7 12.3-14.7h214c6.74 0 12.3 6.6 12.3 14.7v163c0 8.06-5.54 14.6-12.3 14.6z" fill="url(#b)" filter="url(#i)" stroke="url(#e)" stroke-width="2.49" style="fill:#f2f2f2;filter:url(#filter15);stroke-width:1.4;stroke:url(#e)"/>
 <path class="st6" d="m574 299h-162c-5.1 0-9.3-3.92-9.3-8.68v-96.6c0-4.79 4.19-8.73 9.3-8.73h162c5.1 0 9.3 3.92 9.3 8.73v96.6c0 4.79-4.19 8.68-9.3 8.68z" fill="url(#b)" filter="url(#i)" stroke="url(#e)" stroke-width="2.49" style="fill:#f2f2f2;filter:url(#filter15-3);stroke-width:.938;stroke:url(#e)"/>
 <path class="st2" d="m188 56.7c-.78-9e-4-1.56.0363-2.33.111l.641 7.39c.526-.0363 1.09-.0723 1.69-.0723h2.52v-7.43h-2.52zm6.99 0v7.43h4.55v-7.43h-4.55zm9.07 0v7.43h4.55v-7.43h-4.55zm9.07 0v7.43h4.55v-7.43h-4.55zm9.07 0v7.43h4.55v-7.43h-4.55zm9.07 0v7.43h4.55v-7.43h-4.55zm9.07 0v7.43h4.55v-7.43h-4.55zm9.11 0v7.43h4.52l.0371.00195v-7.43h-4.55zm9.04 0v7.43h4.55v-7.43h-4.55zm9.11 0v7.43h4.55v-7.43h-4.55zm9.07 0v7.43h4.55l.00196-7.43h-4.55zm9.07 0v7.43h4.55v-7.43h-4.55zm9.07 0v7.43h4.55v-7.43h-4.55zm9.07 0v7.43h4.55v-7.43h-4.55zm9.07 0v7.43h4.55v-7.43h-4.55zm9.07 0v7.43h4.55v-7.43h-4.55zm9.07 0v7.43h4.55v-7.43h-4.55zm9.07 0v7.43h4.55v-7.43h-4.55zm9.07 0v7.43h4.56v-7.43h-4.56zm9.07 0v7.43h4.55v-7.43h-4.55zm9.07 0v7.43h4.55v-7.43h-4.55zm9.07 0v7.43h4.55v-7.43h-4.55zm-196 1.11c-1.7.485-3.34 1.15-4.89 1.97l3.54 6.54c1.09-.595 2.26-1.08 3.5-1.38l-2.15-7.13zm-9.3 4.83c-1.36 1.11-2.61 2.36-3.73 3.71l5.87 4.68c.804-.974 1.7-1.87 2.67-2.68l-4.82-5.72zm-6.59 8.06c-.815 1.55-1.47 3.18-1.96 4.87l7.23 2.04c.339-1.22.819-2.39 1.43-3.49l-6.7-3.42zm-2.9 9.96c-.036.668-.0742 1.34-.0742 2.01v2.79h7.53v-2.82c0-.445.00106-.929.0391-1.41l-7.49-.557zm-.0742 9.29v4.5h7.53v-4.5h-7.53zm0 8.96v4.5h7.53v-4.5h-7.53zm0 8.95v4.5h7.53v-4.5h-7.53zm0 8.96v4.5h7.53v-4.5h-7.53zm0 8.96v4.5h7.53v-4.5h-7.53zm0 8.96v4.5h7.53v-4.5h-7.53zm0 8.96v4.5h7.53v-4.5h-7.53zm-.00782 8.96v2.23h7.53v-2.23h-7.53z" style="stroke-width:2.78"/>
 <path class="st2" d="m385 56.7h2.26v7.43h-2.26z" fill="#bcbec0" style="stroke-width:2.78"/>
 <path d="m315 247v11.6c0 1.19-.634 1.83-1.77 1.83-1.24 0-1.77-.603-1.77-2.05v-1.51h-3.28v1.55c0 1.64.393 2.65 1.33 3.52.918.821 2.14 1.25 3.65 1.25 3.26 0 5.11-1.66 5.11-4.6v-11.6zm17.3 4.79c-.023-3.26-2.23-5.05-6.25-5.05-3.83 0-6.03 1.77-6.03 4.83 0 2.44 1.24 3.62 4.48 4.23l2.23.431c2.18.411 2.99 1.01 2.99 2.29 0 1.32-1.22 2.12-3.21 2.12-2.23 0-3.48-.929-3.58-2.61h-3.19c.197 3.36 2.54 5.2 6.6 5.2 4.11 0 6.54-1.88 6.54-5.09 0-2.48-1.27-3.77-4.22-4.33l-2.49-.475c-2.34-.453-3.02-.907-3.02-2.05 0-1.19 1.05-1.94 2.76-1.94 2.08 0 3.23.863 3.34 2.46zm8.99-5.05c-2.23 0-4.06.734-5.42 2.18-1.42 1.51-2.23 3.71-2.23 6.06s.809 4.57 2.23 6.06c1.38 1.47 3.17 2.18 5.44 2.18 2.27 0 4.06-.712 5.44-2.18 1.38-1.44 2.23-3.73 2.23-5.95 0-2.46-.808-4.68-2.23-6.17-1.4-1.49-3.15-2.18-5.46-2.18zm.023 2.76c2.69 0 4.39 2.16 4.39 5.57 0 3.24-1.77 5.4-4.39 5.4-2.67 0-4.39-2.16-4.39-5.48s1.72-5.48 4.39-5.48zm18.9 13.2h3.28v-15.7h-3.28v10.7l-6.32-10.7h-3.37v15.7h3.28v-10.9z" style="fill:#828487;stroke-width:2.78" aria-label="JSON"/>
 <path class="st4" d="m230 282h-124c-5.2 0-9.46-4.07-9.46-9.05v-100c0-4.98 4.26-9.05 9.46-9.05h124c5.2 0 9.46 4.07 9.46 9.05v100c0 4.98-4.26 9.05-9.46 9.05z" stroke-width="2.89"/>
 <path d="m479 252 2.86 12.3h3.28l2.82-12.3v12.3h3.28v-15.7h-4.94l-2.8 12.5-2.89-12.5h-4.9v15.7h3.28zm24.2 7.38c.022-.26.022-.367.022-.52 0-1.16-.175-2.24-.457-3.06-.789-2.11-2.69-3.39-5.07-3.39-3.39 0-5.46 2.42-5.46 6.32 0 3.73 2.05 6.02 5.4 6.02 2.64 0 4.79-1.47 5.46-3.78h-3.02c-.371.928-1.22 1.47-2.34 1.47-.875 0-1.57-.366-2.01-1.01-.283-.431-.393-.949-.436-2.05zm-7.87-2.01c.198-1.79.963-2.65 2.32-2.65 1.4 0 2.23.928 2.38 2.66zm9.19-4.77v11.6h3.06v-6.19c0-1.77.897-2.65 2.69-2.65.329 0 .547.021.962.087v-3.06c-.175-.021-.24-.021-.371-.021-1.4 0-2.6.906-3.28 2.48v-2.29zm17.9 6.77c.022-.26.022-.367.022-.52 0-1.16-.174-2.24-.457-3.06-.788-2.11-2.69-3.39-5.07-3.39-3.39 0-5.46 2.42-5.46 6.32 0 3.73 2.05 6.02 5.4 6.02 2.64 0 4.79-1.47 5.46-3.78h-3.02c-.371.928-1.22 1.47-2.34 1.47-.873 0-1.57-.366-2.01-1.01-.283-.431-.393-.949-.437-2.05zm-7.87-2.01c.197-1.79.961-2.65 2.32-2.65 1.4 0 2.23.928 2.38 2.66zm9.19-4.77v11.6h3.06v-6.99c0-1.38.961-2.29 2.47-2.29 1.31 0 1.97.712 1.97 2.09v7.18h3.06v-7.81c0-2.59-1.42-4.03-3.96-4.03-1.6 0-2.67.56-3.54 1.88v-1.68zm19.9 0v1.79c-.853-1.36-1.79-1.98-3.04-1.98-1.05 0-2.21.518-3.02 1.36-1.18 1.21-1.79 2.89-1.79 4.94 0 3.58 1.92 6.04 4.74 6.04 1.27 0 2.03-.409 3.1-1.68v1.58c0 1.4-1 2.37-2.45 2.37-1.09 0-1.77-.475-2.01-1.36h-3.14c.021.906.349 1.53 1.16 2.18.94.756 2.23 1.12 3.89 1.12 3.41 0 5.46-1.62 5.46-4.32v-12zm-2.47 2.33c1.44 0 2.51 1.58 2.51 3.73 0 2.11-1.03 3.56-2.56 3.56-1.33 0-2.27-1.45-2.27-3.56 0-2.2.941-3.73 2.32-3.73zm18.2 9.32v-11.6h-3.06v7.29c0 1.38-.961 2.29-2.47 2.29-1.31 0-1.97-.692-1.97-2.09v-7.49h-3.06v8.11c0 2.59 1.42 4.04 3.96 4.04 1.6 0 2.67-.561 3.54-1.88v1.38zm12.2-4.88c.021-.259.021-.366.021-.518 0-1.16-.174-2.24-.457-3.06-.788-2.11-2.69-3.39-5.07-3.39-3.39 0-5.46 2.42-5.46 6.32 0 3.73 2.05 6.02 5.4 6.02 2.64 0 4.79-1.47 5.46-3.78h-3.02c-.371.928-1.22 1.47-2.34 1.47-.873 0-1.57-.366-2.01-1.01-.283-.431-.393-.949-.436-2.05zm-7.87-2.01c.198-1.79.963-2.65 2.32-2.65 1.4 0 2.23.928 2.38 2.66z" fill="#808285" style="stroke-width:2.78" aria-label="Merengue"/>
 <path d="m38.9 130c-.108-1.36-.393-2.22-1.07-3.11-1.22-1.6-3.19-2.48-5.57-2.48-4.5 0-7.3 3.17-7.3 8.26 0 5.07 2.78 8.22 7.21 8.22 3.98 0 6.6-2.27 6.8-5.87h-3.19c-.218 2.01-1.49 3.15-3.52 3.15-2.54 0-4.02-2.03-4.02-5.46 0-3.47 1.55-5.54 4.13-5.54 1.9 0 2.97.904 3.41 2.83zm11.6 10c-.525-.494-.7-.84-.7-1.42v-6.47c0-2.38-1.64-3.58-4.83-3.58-3.19 0-4.85 1.34-5.05 4.03h2.95c.152-1.21.654-1.6 2.16-1.6 1.18 0 1.77.389 1.77 1.16.003.375-.198.722-.525.906l-1.92.454-1.22.215c-2.34.389-3.47 1.58-3.47 3.67 0 2.09 1.42 3.5 3.58 3.5 1.31 0 2.49-.539 3.58-1.66 0 .604.0655.82.349 1.16h3.32zm-3.69-4.31c0 1.75-.873 2.74-2.43 2.74-1.03 0-1.66-.54-1.66-1.4 0-.904.481-1.34 1.75-1.6l1.05-.194c.808-.151.94-.195 1.29-.368zm4.95-6.97v11.6h3.06v-6.99c0-1.45.787-2.29 2.1-2.29 1.03 0 1.66.582 1.66 1.51v7.77h3.06v-6.99c0-1.42.786-2.29 2.1-2.29 1.03 0 1.66.582 1.66 1.51v7.77h3.06v-8.24c0-2.26-1.4-3.6-3.76-3.6-1.51 0-2.54.52-3.45 1.73-.569-1.1-1.75-1.73-3.21-1.73-1.36 0-2.23.433-3.23 1.64v-1.45zm18.7-4.08v15.7h3.06v-1.19c.743 1.14 1.77 1.68 3.26 1.68 2.82 0 4.96-2.65 4.96-6.17 0-1.58-.481-3.17-1.27-4.29-.808-1.14-2.25-1.88-3.69-1.88-1.49 0-2.51.539-3.26 1.7v-5.59zm5.64 6.41c1.51 0 2.58 1.51 2.58 3.67 0 2.14-1.05 3.62-2.58 3.62-1.55 0-2.58-1.45-2.58-3.69 0-2.14 1.05-3.6 2.58-3.6zm17.1 8.95c-.525-.494-.7-.84-.7-1.42v-6.47c0-2.38-1.64-3.58-4.83-3.58-3.19 0-4.85 1.34-5.05 4.03h2.95c.154-1.21.655-1.6 2.16-1.6 1.18 0 1.77.389 1.77 1.16.0032.375-.198.722-.525.906l-1.92.454-1.22.215c-2.34.389-3.48 1.58-3.48 3.67 0 2.09 1.42 3.5 3.58 3.5 1.31 0 2.49-.539 3.59-1.66 0 .604.0655.82.349 1.16h3.32zm-3.69-4.31c0 1.75-.874 2.74-2.43 2.74-1.03 0-1.66-.54-1.66-1.4 0-.904.481-1.34 1.75-1.6l1.05-.194c.809-.151.941-.195 1.29-.368zm8.16-11h-3.06v15.7h3.06zm12.3 15.4c-.525-.494-.7-.84-.7-1.42v-6.47c0-2.38-1.64-3.58-4.83-3.58-3.19 0-4.85 1.34-5.05 4.03h2.95c.152-1.21.655-1.6 2.16-1.6 1.18 0 1.77.389 1.77 1.16.003.375-.198.722-.526.906l-1.92.454-1.22.215c-2.34.389-3.48 1.58-3.48 3.67 0 2.09 1.42 3.5 3.58 3.5 1.31 0 2.49-.539 3.58-1.66 0 .604.065.82.35 1.16h3.32zm-3.69-4.31c0 1.75-.875 2.74-2.43 2.74-1.03 0-1.66-.54-1.66-1.4 0-.904.481-1.34 1.75-1.6l1.05-.194c.809-.151.941-.195 1.29-.368zm15-2.61c-.218-2.85-2.12-4.55-5.09-4.55-3.54 0-5.57 2.29-5.57 6.26 0 3.84 2.03 6.08 5.53 6.08 2.86 0 4.85-1.75 5.14-4.53h-2.93c-.372 1.51-.985 2.09-2.21 2.09-1.55 0-2.47-1.36-2.47-3.65 0-1.12.218-2.14.59-2.83.35-.647 1.03-.992 1.9-.992 1.24 0 1.83.582 2.18 2.11zm1.39-8.43v15.7h3.06v-6.99c0-1.34.983-2.29 2.36-2.29.678 0 1.18.237 1.53.712.285.388.35.712.35 1.44v7.12h3.06v-7.81c0-1.44-.394-2.48-1.2-3.15-.677-.561-1.66-.884-2.64-.884-1.51 0-2.6.582-3.45 1.88v-5.76zm22.6 10.8c.023-.259.023-.367.023-.518 0-1.16-.174-2.24-.458-3.06-.788-2.11-2.69-3.39-5.07-3.39-3.39 0-5.46 2.42-5.46 6.32 0 3.73 2.05 6.02 5.4 6.02 2.64 0 4.79-1.47 5.46-3.78h-3.02c-.371.927-1.22 1.47-2.34 1.47-.874 0-1.57-.367-2.01-1.01-.283-.431-.392-.949-.436-2.05zm-7.87-2.01c.196-1.79.961-2.65 2.32-2.65 1.4 0 2.23.928 2.38 2.65z" fill="#828487" style="stroke-width:2.78" aria-label="Cambalache"/>
 <path d="m480 272c-2.32 0-3.9 1.69-3.9 4.16 0 2.41 1.59 4.16 3.76 4.16 1.08 0 1.81-.381 2.43-1.28l.197 1.05h.996l-.00195-4.29h-3.22v1.36h1.83c-.046.447-.157.721-.4 1-.409.483-1.01.763-1.64.764-1.35 0-2.3-1.16-2.3-2.79 0-1.71.838-2.75 2.25-2.75.575 0 1.06.162 1.43.48.233.195.353.381.498.795h1.55c-.199-1.65-1.55-2.67-3.49-2.67zm44.5.127-2.86 7.95h1.69l.541-1.6h3.02l.529 1.6h1.7l-2.78-7.95h-1.83zm16.8.00195v7.95h1.55v-7.95h-1.55zm-54.3.00196v7.95h1.54v-1.93l.619-.666 1.42 2.6h1.81l-2.17-3.66 2.03-2.22h-1.75l-1.96 2.29v-4.35h-1.54zm56.6 0v1.36h1.54v-1.36h-1.54zm16 .00976v1.36h1.55v-1.36h-1.55zm-62.6.0449c-1.14 0-2.01.491-2.35 1.33-.144.37-.188.62-.188 1.26h1.44c.011-.414.0441-.622.121-.818.144-.337.498-.545.949-.545.618 0 .973.373.973 1.02 0 .784-.454 1.17-1.37 1.17h-.133v1.02c.597 0 .627.00017.904.0762.52.142.852.588.852 1.16 0 .686-.486 1.17-1.16 1.17-.729 0-1.13-.414-1.17-1.21h-1.5c.01 1.55 1.03 2.52 2.64 2.52 1.67 0 2.74-.971 2.74-2.47 0-.905-.396-1.49-1.28-1.92.719-.447 1.03-.938 1.03-1.65 0-1.29-.971-2.1-2.48-2.1zm19.7.164-2.86 4.73v1.29h3.13v1.71h1.54v-1.71h.818v-1.26h-.818v-4.75h-1.82zm-32.4.381v1.58h-.76v1.01h.76v3.62c0 .926.497 1.38 1.51 1.38.353 0 .608-.0351.895-.121v-1.07c-.155.022-.232.0332-.354.0332-.408 0-.508-.12-.508-.643v-3.21h.861l-.00195-1.01h-.861v-1.58h-1.54zm72.5.00781v1.58h-.762v1.01h.762v3.62c0 .927.496 1.38 1.51 1.38.353 0 .609-.0341.895-.121v-1.07c-.154.022-.232.0332-.354.0332-.409 0-.508-.123-.508-.645v-3.2h.863l-.00196-1.02h-.861v-1.58h-1.54zm-39.9 1.06v3.3h-2.04l2.04-3.3zm8.35.203 1.05 3.11h-2.1l1.05-3.11zm-20.3.0898c-1.82.00021-2.94 1.19-2.94 3.12 0 1.94 1.12 3.12 2.95 3.12 1.82 0 2.95-1.18 2.95-3.07 0-1.99-1.09-3.16-2.96-3.16zm43.3 0c-1.79 0-2.82 1.15-2.82 3.16 0 1.94 1.03 3.07 2.79 3.07 1.45 0 2.45-.884 2.6-2.29h-1.48c-.188.763-.497 1.06-1.12 1.06-.785 0-1.25-.688-1.25-1.84 0-.568.109-1.08.297-1.43.177-.328.521-.5.963-.5.629 0 .926.293 1.1 1.07h1.48c-.11-1.44-1.07-2.3-2.57-2.3zm-36.7.00195c-.707 0-1.31.458-1.66 1.25v-1.16h-1.55v5.89h1.55v-3.13c0-.894.451-1.34 1.36-1.34.166 0 .277.0129.486.0449v-1.55c-.087-.01-.12-.00976-.188-.00976zm20.7 0c-.751 0-1.28.317-1.66.971v-.873h-1.54v8.26h1.54v-3.07c.374.653.905.959 1.66.959 1.44 0 2.49-1.33 2.49-3.12 0-.828-.241-1.66-.639-2.2-.399-.556-1.14-.926-1.86-.926zm6.02 0c-.751 0-1.28.317-1.66.971v-.873h-1.54v8.26h1.54v-3.07c.375.653.904.959 1.66.959 1.44 0 2.5-1.33 2.5-3.12 0-.828-.244-1.66-.641-2.2-.398-.556-1.14-.926-1.86-.926zm26.1.00586c-1.82.00021-2.94 1.19-2.94 3.12 0 1.94 1.12 3.12 2.95 3.12 1.82 0 2.95-1.18 2.95-3.07 0-1.99-1.09-3.16-2.96-3.16h-.00195zm-10.9.00195c-1.61 0-2.45.676-2.55 2.04h1.49c.077-.61.33-.805 1.09-.805.596 0 .895.194.895.586.002.19-.0996.365-.266.459l-.973.229-.617.109c-1.18.197-1.76.797-1.76 1.85s.718 1.77 1.81 1.77c.663 0 1.26-.274 1.81-.84 0 .306.0338.415.176.588h1.68l.00195-.184c-.266-.25-.354-.426-.354-.719v-3.27c0-1.2-.83-1.81-2.44-1.81zm17.6 0c-.806 0-1.35.283-1.79.947v-.848h-1.55v5.88h1.55v-3.53c0-.696.485-1.16 1.25-1.16.663 0 .996.361.996 1.06v3.63h1.54v-3.95c0-1.31-.718-2.04-2-2.04zm-27.6.0898v5.89h1.54v-5.89h-1.54zm16 .00977v5.88h1.55v-5.88h-1.55zm-54.5 1.12c.851 0 1.4.751 1.4 1.91 0 1.1-.574 1.87-1.4 1.87-.839 0-1.4-.754-1.4-1.89s.563-1.88 1.4-1.88zm59.4.00781c.85 0 1.4.75 1.4 1.91 0 1.1-.572 1.87-1.4 1.87-.839 0-1.4-.753-1.4-1.89s.563-1.88 1.4-1.88zm-32.5.0352c.783 0 1.3.742 1.3 1.88 0 1.08-.531 1.82-1.3 1.82-.785 0-1.3-.742-1.3-1.84 0-1.11.518-1.85 1.3-1.85v-.00195zm6.02 0c.785 0 1.3.742 1.3 1.88 0 1.08-.53 1.82-1.3 1.82-.783 0-1.3-.742-1.3-1.84 0-1.11.521-1.85 1.3-1.85v-.00195zm16.5 1.94v.414c0 .882-.443 1.38-1.23 1.38-.518 0-.838-.272-.838-.709 0-.457.242-.676.883-.807l.529-.0996c.408-.076.474-.0956.652-.184z" style="fill:#828487;stroke-width:2.78"/>
 <path class="st2" d="m490 143v4.23h7.53l.00195-4.23h-7.53zm0 8.43v4.24h7.53l.00195-4.24h-7.53zm0 8.44v4.24h7.53l.00195-4.24h-7.53zm0 8.47v4.23h7.53l.00195-4.23h-7.53zm.0039 9.13v2.23h7.53v-2.23h-7.53z" style="stroke-width:2.78"/>
 <g fill="#bcbec0" style="stroke-width:2.78">
  <path class="st2" d="m274 233h109v7.43h-109z"/>
  <path class="st2" d="m378 246 17-9.7-17-9.7zm-92.1 24.8h109v7.43h-109z"/>
  <path class="st2" d="m291 265-17 9.7 17 9.7z"/>
 </g>
 <path d="m38 147v8.43h1.65v-1.88l.709-.566 1.74 2.45h1.91l-2.55-3.43 2.41-2.63h-1.86l-1.7 1.84c-.133.14-.259.292-.377.455-.118.155-.233.31-.344.465h-.0234c.0222-.229.0418-.454.0566-.676.0222-.229.0332-.459.0332-.689v-3.77h-1.65zm40.7 0v8.43h1.65v-8.43h-1.65zm4.21.00586c-.251 0-.465.0597-.643.178-.17.111-.256.323-.256.633 0 .303.0859.513.256.631.177.118.391.178.643.178.244 0 .453-.0597.631-.178s.268-.328.268-.631c0-.31-.0902-.522-.268-.633-.177-.118-.387-.178-.631-.178zm20.6 0c-.251 0-.467.0597-.645.178-.17.111-.254.323-.254.633 1e-5.303.0839.513.254.631.178.118.394.178.645.178.244 0 .454-.0597.631-.178.178-.118.266-.328.266-.631 0-.31-.0876-.522-.266-.633-.177-.118-.387-.178-.631-.178zm-74.4.4c-.887 0-1.64.166-2.25.498-.614.333-1.08.802-1.41 1.41-.318.607-.479 1.32-.479 2.15 0 1.33.319 2.34.955 3.04.636.694 1.54 1.04 2.73 1.04.569 0 1.08-.042 1.52-.123.451-.081.883-.191 1.3-.332v-4.1h-3.14v1.4h1.5v1.65c-.14.029-.297.0542-.467.0762-.163.023-.361.0352-.598.0352-.488 0-.883-.112-1.19-.334-.303-.229-.526-.542-.666-.941-.14-.4-.211-.858-.211-1.38 0-.547.097-1.02.289-1.42.2-.407.475-.721.83-.943.362-.222.788-.332 1.28-.332.34 0 .666.0401.977.121.31.082.588.186.832.312l.553-1.34c-.333-.148-.701-.265-1.11-.354-.406-.088-.821-.133-1.24-.133zm29.8.0684-2.79 7.95h1.81l.576-1.88h2.88l.578 1.88h1.81l-2.8-7.95h-2.05zm-8.36.0332-3.47 5.11v1.16h3.38v1.64h1.63v-1.64h.953v-1.3h-.953v-4.98h-1.54zm-16.6.58-.477 1.28-.908.555v.699h.787v2.92c0 .517.0815.923.244 1.22.17.288.395.492.676.611.288.118.612.176.975.176.31 0 .595-.0289.854-.0879.266-.052.489-.115.666-.189v-1.23c-.17.052-.34.0958-.51.133s-.347.0547-.531.0547h-.00195c-.214 0-.387-.055-.52-.166-.133-.118-.201-.291-.201-.52v-2.92h1.7v-1.24h-1.7v-1.29h-1.05zm64.6 0-.479 1.28-.908.555v.699h.787v2.92c0 .517.0815.923.244 1.22.17.288.395.492.676.611.288.118.614.176.977.176.31 0 .595-.0289.854-.0879.266-.052.489-.115.666-.189v-1.23c-.17.052-.342.0958-.512.133s-.347.0547-.531.0547c-.215 0-.388-.055-.521-.166-.133-.118-.199-.291-.199-.52v-2.92h1.7v-1.24h-1.7v-1.29h-1.05zm-38.7.619c.037.148.0853.321.145.52.0591.2.119.398.178.59.0591.192.108.351.145.477l.576 1.84h-2.06l.566-1.84c.0296-.082.0694-.219.121-.412.0591-.199.119-.406.178-.621.0665-.221.117-.405.154-.553zm33.7.545c-.429 1e-5-.843.0466-1.24.143-.392.096-.751.23-1.08.4l.543 1.12c.281-.126.563-.23.844-.311.281-.089.568-.133.863-.133s.525.0757.688.223c.17.148.256.379.256.697v.268l-1.05.0332c-.902.03-1.58.2-2.03.51-.451.303-.676.775-.676 1.42 0 .651.176 1.14.531 1.45.355.31.802.467 1.34.467.503 0 .897-.0746 1.19-.223s.562-.384.82-.709h.0449l.322.82h1.15v-4.04c0-.725-.218-1.26-.654-1.61-.429-.355-1.05-.531-1.86-.531zm-25.6.00977c-.436 0-.791.0886-1.06.266-.273.178-.492.389-.654.633h-.0781l-.232-.787h-1.34v8.71h1.65v-2.44c0-.281-.0288-.577-.0879-.887h.0879c.163.199.374.38.633.543.259.155.605.232 1.04.232.68 0 1.24-.266 1.67-.799.436-.539.654-1.32.654-2.35 0-1.03-.209-1.8-.631-2.33-.421-.533-.972-.799-1.65-.799zm7.02 0c-.436 0-.791.0886-1.06.266-.274.178-.492.389-.654.633h-.0762l-.234-.787h-1.34v8.71h1.65v-2.44c0-.281-.0287-.577-.0879-.887h.0879c.163.199.374.38.633.543.259.155.607.232 1.04.232.68 0 1.24-.266 1.67-.799.436-.539.654-1.32.654-2.35 0-1.03-.211-1.8-.633-2.33-.421-.533-.972-.799-1.65-.799zm41.3 0c-.377 0-.736.0699-1.08.211-.333.14-.593.366-.785.676h-.0898l-.223-.775h-1.26v6.05h1.65v-2.85c0-.643.0924-1.13.277-1.47.185-.348.529-.52 1.03-.52.34 0 .587.11.742.332.156.215.232.539.232.975v3.54h1.65v-3.95c0-.776-.195-1.34-.586-1.69-.392-.354-.913-.531-1.56-.531zm-28.3.00195c-.584 0-1.1.112-1.55.334-.444.221-.792.565-1.04 1.03-.251.465-.377 1.07-.377 1.81 0 1.07.245 1.86.732 2.36.495.495 1.19.744 2.1.744.421 0 .769-.0373 1.04-.111.281-.067.546-.181.797-.344v-1.41c-.251.163-.509.293-.775.389-.266.089-.573.133-.92.133-.407 0-.724-.146-.953-.434-.222-.289-.334-.736-.334-1.34 0-1.22.43-1.83 1.29-1.83.222 0 .442.0356.664.102.229.067.474.151.732.254l.488-1.28c-.229-.111-.498-.206-.809-.287-.303-.081-.662-.123-1.08-.123zm20.6 0c-.917 0-1.64.271-2.16.811-.525.539-.787 1.31-.787 2.32 0 .673.126 1.25.377 1.72.252.465.594.82 1.03 1.06.443.244.946.365 1.51.365.909 0 1.63-.273 2.15-.82.533-.547.799-1.32.799-2.33 0-.673-.126-1.24-.377-1.7-.251-.466-.595-.822-1.03-1.07s-.939-.365-1.51-.365zm-26.6.115v6.05h1.65v-6.05h-1.65zm20.6 0v6.05h1.65v-6.05h-1.65zm-52.2.0469h.0449c-.0074.067-.0184.207-.0332.422-.0074.207-.016.432-.0234.676s-.00976.451-.00976.621v1.34h-1.91l1.45-2.2c.104-.148.192-.292.266-.432.0739-.141.144-.286.211-.434zm17 1.16c.754 0 1.13.595 1.13 1.79 0 .591-.0906 1.04-.275 1.36-.177.311-.455.467-.832.467-.458 0-.776-.156-.953-.467-.17-.317-.256-.768-.256-1.35v-.178c.0148-.547.107-.953.277-1.22.177-.266.48-.398.908-.398zm7.02 0c.754 0 1.13.595 1.13 1.79 0 .591-.0925 1.04-.277 1.36-.177.311-.455.467-.832.467-.458 0-.776-.156-.953-.467-.17-.317-.256-.768-.256-1.35v-.178c.0148-.547.107-.953.277-1.22.177-.266.481-.398.91-.398zm34.1.0117c.443 0 .761.152.953.455.2.296.299.743.299 1.34s-.0988 1.05-.299 1.36c-.192.303-.505.455-.941.455-.444 0-.765-.152-.965-.455-.192-.311-.289-.764-.289-1.36s.0971-1.05.289-1.34c.2-.303.516-.455.953-.455zm-14.1 2.03v.5c0 .385-.121.683-.365.898-.244.206-.544.311-.898.311-.236 0-.428-.0532-.576-.156-.148-.111-.223-.291-.223-.543 0-.288.104-.522.311-.699s.577-.273 1.11-.287l.643-.0234z" style="fill-rule:evenodd;fill:#808285;paint-order:stroke fill markers;stroke-linecap:round;stroke-miterlimit:10;stroke-width:3.78"/>
 <path d="m127 187c-.314 0-.583.0727-.805.221-.212.139-.316.403-.316.791 0 .379.104.641.316.789.222.148.491.223.805.223.305 0 .567-.0747.789-.223s.334-.41.334-.789c0-.388-.112-.652-.334-.791-.222-.148-.484-.221-.789-.221zm80.8 0c-.314 0-.581.0727-.803.221-.212.139-.32.403-.32.791 0 .379.108.641.32.789.222.148.489.223.803.223.305 0 .569-.0747.791-.223s.332-.41.332-.789c0-.388-.11-.652-.332-.791-.222-.148-.486-.221-.791-.221zm-68.9.00391v2.42c0 .296.0177.587.0547.873.037.277.0706.491.0976.639h-.0684c-.203-.314-.481-.577-.832-.789-.352-.213-.801-.32-1.35-.32-.868 0-1.57.333-2.11.998-.535.665-.805 1.65-.805 2.94 0 1.28.264 2.26.791 2.92.536.657 1.22.984 2.06.984v-.00195c.545 0 .988-.105 1.33-.318.342-.221.615-.489.818-.803h.084l.4.984h1.58v-10.5h-2.06zm-8.78.00195v10.5h2.06v-10.5h-2.06zm-24 .492c-.998 0-1.84.218-2.54.652-.683.435-1.21 1.03-1.57 1.8-.36.767-.539 1.65-.539 2.65-1e-5 1.02.157 1.91.471 2.68.314.758.799 1.35 1.46 1.77.665.416 1.5.625 2.52.625.526 0 1-.042 1.43-.125.425-.083.855-.213 1.29-.389v-1.76c-.471.166-.909.297-1.32.389-.397.092-.799.139-1.21.139-.869 0-1.5-.286-1.9-.859-.388-.582-.582-1.4-.582-2.45 0-1.04.214-1.87.639-2.47.425-.6 1.04-.902 1.84-.902.36 0 .724.0663 1.09.195.378.13.754.281 1.12.457l.68-1.71c-.452-.213-.929-.378-1.43-.498-.49-.129-.98-.195-1.47-.195zm49.7 0c-.998 0-1.84.218-2.54.652-.684.435-1.21 1.03-1.57 1.8s-.541 1.65-.541 2.65c0 1.02.156 1.91.471 2.68.314.758.799 1.35 1.46 1.77.665.416 1.51.625 2.52.625.527 0 1-.042 1.43-.125.425-.083.854-.213 1.29-.389v-1.76c-.471.166-.911.297-1.32.389-.397.092-.798.139-1.21.139-.868 0-1.5-.286-1.9-.859-.388-.582-.582-1.4-.582-2.45 0-1.04.212-1.87.637-2.47.425-.6 1.04-.902 1.84-.902.361 0 .727.0663 1.1.195.379.13.753.281 1.12.457l.678-1.71c-.453-.213-.929-.378-1.43-.498-.489-.129-.979-.195-1.47-.195zm56.1.859-.596 1.59-1.14.693v.873h.986v3.64c0 .647.0997 1.16.303 1.53.213.36.495.614.846.762.36.148.769.223 1.22.223.389 0 .742-.0373 1.07-.111.332-.065.611-.142.832-.234v-1.54c-.212.065-.425.12-.637.166-.213.047-.435.0703-.666.0703-.267 0-.486-.071-.652-.209-.166-.148-.248-.365-.248-.652v-3.64h2.12v-1.55h-2.12v-1.61h-1.32zm-98.2 1.46c-.536 0-1.05.0597-1.55.18-.49.12-.937.288-1.34.5l.678 1.4c.351-.157.704-.288 1.05-.389.351-.111.712-.166 1.08-.166.369 0 .654.0923.857.277.213.185.32.476.32.873v.332l-1.32.041c-1.13.037-1.97.251-2.54.639-.564.378-.846.969-.846 1.77 0 .813.222 1.42.666 1.81.443.388 1 .582 1.68.582.628 0 1.12-.0904 1.48-.275.36-.185.702-.482 1.03-.889h.0547l.402 1.03h1.44v-5.04c0-.905-.273-1.57-.818-2.01-.536-.443-1.31-.666-2.33-.666zm32.5 0c-.536 0-1.05.0597-1.55.18-.489.12-.937.288-1.34.5l.678 1.4c.351-.157.703-.288 1.05-.389.351-.111.712-.166 1.08-.166.369 0 .654.0923.857.277.212.185.32.476.32.873v.332l-1.32.041c-1.13.037-1.97.251-2.54.639-.564.378-.846.969-.846 1.77 0 .813.221 1.42.664 1.81.444.388 1 .582 1.68.582.629 0 1.12-.0904 1.48-.275.361-.185.702-.482 1.03-.889h.0566l.4 1.03h1.44v-5.04c0-.905-.273-1.57-.818-2.01-.536-.443-1.31-.666-2.33-.666zm17.3.00976c-1.15 0-2.05.338-2.7 1.01-.656.675-.982 1.64-.982 2.9 0 .841.157 1.56.471 2.15.314.582.744 1.03 1.29 1.33.555.305 1.18.457 1.88.457 1.14 0 2.03-.341 2.69-1.03.665-.683.998-1.65.998-2.91 0-.841-.159-1.55-.473-2.12-.315-.582-.744-1.03-1.29-1.33s-1.17-.459-1.88-.459zm31 0c-1.15 0-2.05.338-2.7 1.01-.656.675-.984 1.64-.984 2.9 0 .841.157 1.56.471 2.15.314.582.744 1.03 1.29 1.33.554.305 1.18.457 1.88.457 1.14 0 2.03-.341 2.69-1.03.665-.683.998-1.65.998-2.91 0-.841-.156-1.55-.471-2.12-.314-.582-.743-1.03-1.29-1.33-.545-.305-1.17-.459-1.88-.459zm25.7 0c-1.15 0-2.05.338-2.7 1.01-.656.675-.982 1.64-.982 2.9 0 .841.157 1.56.471 2.15.314.582.744 1.03 1.29 1.33.555.305 1.18.457 1.88.457 1.14 0 2.03-.341 2.69-1.03.665-.683.998-1.65.998-2.91 0-.841-.158-1.55-.473-2.12-.314-.582-.742-1.03-1.29-1.33-.546-.305-1.18-.459-1.89-.459zm-47.1.00196c-.435 0-.855.0857-1.26.262-.397.175-.71.458-.941.846h-.111l-.277-.971h-1.58v7.57h2.06v-3.56c0-.804.107-1.42.32-1.84.222-.434.618-.65 1.19-.65.757 0 1.14.545 1.14 1.63v4.42h2.06v-3.8c0-.73.117-1.29.348-1.68s.619-.582 1.16-.582c.758 0 1.14.545 1.14 1.63v4.42h2.06v-4.94c0-.97-.222-1.67-.666-2.11-.434-.444-1.08-.664-1.94-.664-.434 0-.859.0857-1.28.262-.407.175-.726.458-.957.846h-.18c-.203-.379-.499-.655-.887-.83-.388-.185-.86-.277-1.41-.277zm13.7 0c-.545 0-.986.11-1.33.332s-.614.484-.818.789h-.0977l-.291-.984h-1.68v10.9h2.07v-3.05c0-.351-.0373-.721-.111-1.11h.111c.204.249.466.477.789.68.324.194.758.291 1.3.291.85 0 1.55-.333 2.09-.998.545-.674.818-1.65.818-2.94s-.265-2.26-.791-2.91c-.527-.665-1.22-.996-2.07-.996zm43.1 0c-.508 0-.956.137-1.34.414-.388.278-.692.61-.914.998h-.0976l-.305-1.28h-1.57v7.57h2.06v-3.85c0-.48.097-.86.291-1.14.203-.277.468-.476.791-.596.323-.129.661-.193 1.01-.193.092 0 .197.00834.318.0273.129.009.226.023.291.041l.152-1.94c-.083-.019-.193-.033-.332-.043-.138-.009-.259-.0117-.361-.0117zm-108 .00586c-.905 0-1.63.176-2.18.527-.545.351-.818.878-.818 1.58 0 .425.0737.78.221 1.07.148.278.377.518.682.721.304.194.693.393 1.16.596.489.203.849.371 1.08.5s.379.245.443.346c.074.102.111.219.111.348 0 .194-.0887.351-.264.471-.166.12-.453.18-.859.18-.361 0-.777-.0597-1.25-.18s-.909-.272-1.32-.457v1.71c.379.157.758.267 1.14.332.379.074.831.109 1.36.109 1.07 0 1.88-.202 2.41-.609.545-.416.818-1.01.818-1.77 0-.453-.0877-.819-.264-1.1-.166-.286-.407-.522-.721-.707-.315-.194-.689-.377-1.12-.553-.444-.185-.781-.333-1.01-.443-.222-.111-.374-.213-.457-.305-.074-.102-.111-.214-.111-.334 0-.333.306-.498.916-.498.341 0 .68.055 1.01.166.333.102.683.23 1.05.387l.623-1.48c-.452-.212-.891-.365-1.32-.457s-.872-.139-1.34-.139zm80.9 0c-.906 0-1.63.176-2.18.527s-.816.878-.816 1.58c0 .425.0727.78.221 1.07.148.278.375.518.68.721.305.194.693.393 1.16.596.49.203.849.371 1.08.5s.38.245.445.346c.074.102.111.219.111.348 0 .194-.0896.351-.266.471-.166.12-.451.18-.857.18-.36 0-.777-.0597-1.25-.18-.472-.12-.91-.272-1.32-.457v1.71c.379.157.756.267 1.13.332.379.074.832.109 1.36.109 1.07 0 1.88-.202 2.41-.609.545-.416.818-1.01.818-1.77 0-.453-.0887-.819-.264-1.1-.167-.286-.407-.522-.721-.707-.314-.194-.688-.377-1.12-.553-.443-.185-.781-.333-1.01-.443-.221-.111-.374-.213-.457-.305-.074-.102-.111-.214-.111-.334 0-.333.304-.498.914-.498.342 0 .679.055 1.01.166.332.102.685.23 1.05.387l.623-1.48c-.453-.212-.891-.365-1.32-.457s-.873-.139-1.34-.139zm-76.5.131v7.57h2.06v-7.57h-2.06zm80.8 0v7.57h2.06v-7.57h-2.06zm-20.7 1.51c.943 0 1.41.743 1.41 2.23 0 .739-.117 1.31-.348 1.71-.221.388-.568.582-1.04.582-.573 0-.969-.194-1.19-.582-.212-.397-.318-.961-.318-1.69v-.221c.019-.683.133-1.19.346-1.52.221-.333.601-.5 1.14-.5zm-22.5.0137c.554 0 .951.189 1.19.568.249.37.375.93.375 1.68s-.126 1.32-.375 1.71c-.24.378-.633.566-1.18.566-.554 0-.955-.188-1.21-.566-.24-.388-.361-.957-.361-1.71s.121-1.31.361-1.68c.25-.379.646-.568 1.19-.568zm31 0c.554 0 .951.189 1.19.568.249.37.373.93.373 1.68s-.124 1.32-.373 1.71c-.24.378-.633.566-1.18.566-.555 0-.958-.188-1.21-.566-.24-.388-.359-.957-.359-1.71s.119-1.31.359-1.68c.249-.379.648-.568 1.19-.568zm25.7 0c.554 0 .951.189 1.19.568.249.37.375.93.375 1.68s-.126 1.32-.375 1.71c-.24.378-.633.566-1.18.566-.555 0-.956-.188-1.21-.566-.24-.388-.361-.957-.361-1.71s.121-1.31.361-1.68c.249-.379.646-.568 1.19-.568zm-82.8.0176c.61 0 1.03.194 1.25.582.231.388.346.952.346 1.69v.221c-.01.674-.13 1.18-.361 1.53-.231.333-.632.498-1.21.498-.471 0-.837-.186-1.1-.555-.258-.379-.387-.937-.387-1.68s.129-1.3.387-1.69c.259-.397.615-.596 1.07-.596zm-22.6 2.52v.625c0 .481-.154.855-.459 1.12-.304.258-.678.387-1.12.387-.296 0-.536-.0644-.721-.193-.185-.139-.277-.366-.277-.68 0-.361.128-.652.387-.873.259-.222.722-.342 1.39-.361l.805-.0273zm32.5 0v.625c0 .481-.154.855-.459 1.12-.305.258-.678.387-1.12.387-.296 0-.536-.0644-.721-.193-.185-.139-.277-.366-.277-.68 0-.361.128-.652.387-.873.259-.222.722-.342 1.39-.361l.805-.0273zm-35.6 7.9v8.43h1.65v-8.43h-1.65zm64.5.00391v1.94c0 .236.014.468.043.697.03.222.0561.392.0781.51h-.0566c-.162-.251-.383-.461-.664-.631s-.64-.256-1.08-.256c-.695 0-1.26.266-1.69.799-.428.532-.643 1.31-.643 2.35 0 1.03.212 1.81.633 2.34.429.525.978.785 1.65.785.436 0 .792-.0839 1.07-.254.273-.177.491-.392.654-.643h.0644l.322.787h1.26v-8.43h-1.65zm-29.4.00586v8.43h1.26l.275-.666h.111c.163.2.37.38.621.543.259.155.61.232 1.05.232.695 0 1.26-.267 1.69-.799.428-.532.643-1.32.643-2.35 0-1.03-.212-1.8-.633-2.33-.421-.532-.972-.799-1.65-.799-.436 0-.79.0886-1.06.266-.273.17-.491.382-.654.633h-.0644c.014-.126.028-.299.043-.521s.0215-.447.0215-.676v-1.96h-1.65zm-12.4 1.08-.477 1.28-.91.555v.697h.787v2.92c0 .518.0811.925.244 1.22.17.288.396.491.676.609.289.118.615.178.977.178.311 0 .595-.0289.854-.0879.266-.052.489-.115.666-.189v-1.23c-.17.052-.34.0958-.51.133s-.348.0566-.533.0566c-.214 0-.388-.056-.521-.166-.133-.119-.199-.293-.199-.523v-2.92h1.7v-1.24h-1.7v-1.29h-1.05zm21.9 1.16c-.429 0-.843.0466-1.24.143-.392.097-.75.23-1.08.4l.545 1.12c.28-.125.561-.23.842-.311.281-.089.569-.133.865-.133s.524.0746.688.223c.17.148.256.379.256.697v.266l-1.05.0352c-.902.029-1.58.199-2.03.51-.451.303-.676.775-.676 1.42 0 .65.176 1.14.531 1.45.355.311.804.465 1.34.465.502 0 .898-.0727 1.19-.221s.561-.384.82-.709h.0449l.32.82h1.15v-4.04c0-.724-.22-1.26-.656-1.61-.428-.354-1.05-.531-1.86-.531zm-37.9.00976c-.407 0-.765.11-1.08.332-.31.222-.554.488-.732.799h-.0762l-.244-1.02h-1.25v6.05h1.65v-3.08c0-.384.0774-.687.232-.908.163-.222.374-.381.633-.477.259-.104.528-.156.809-.156.074 0 .16.00648.256.0215.104.007.18.0182.232.0332l.121-1.55c-.066-.015-.155-.0262-.266-.0332-.111-.008-.206-.0117-.287-.0117zm50.1 0c-.569 0-1.07.118-1.5.354-.429.237-.765.593-1.01 1.07-.237.466-.355 1.05-.355 1.76 0 .695.132 1.27.398 1.73.266.459.632.801 1.1 1.03.465.221 1 .332 1.61.332.466 0 .862-.0373 1.19-.111.332-.066.645-.172.941-.32v-1.28c-.34.162-.668.283-.986.365-.318.074-.672.111-1.06.111-.466 0-.832-.134-1.1-.4-.259-.266-.395-.631-.41-1.1h3.9v-.799c0-.879-.242-1.56-.73-2.03-.488-.48-1.15-.721-1.99-.721zm-46.1.00196c-.917 0-1.64.27-2.16.809-.525.54-.785 1.31-.785 2.32 0 .673.125 1.25.377 1.72.251.466.593.82 1.03 1.06.443.244.948.365 1.51.365.909 0 1.63-.273 2.15-.82.532-.547.797-1.32.797-2.33 0-.672-.126-1.24-.377-1.7-.251-.466-.593-.818-1.03-1.06s-.941-.367-1.51-.367zm6.86 0c-.916 0-1.64.27-2.16.809-.524.54-.787 1.31-.787 2.32 0 .673.126 1.25.377 1.72.251.466.595.82 1.03 1.06.444.244.946.365 1.51.365.909 0 1.63-.273 2.15-.82.532-.547.799-1.32.799-2.33 0-.672-.126-1.24-.377-1.7-.252-.466-.594-.818-1.03-1.06-.436-.244-.938-.367-1.51-.367zm11.1.00586c-.725 0-1.3.14-1.74.42-.436.281-.654.703-.654 1.26 0 .34.0597.626.178.855.119.222.299.413.543.576.244.155.555.314.932.477.392.162.68.296.865.4.185.103.302.194.354.275.059.081.0879.174.0879.277 0 .155-.069.281-.209.377-.133.096-.362.145-.688.145-.288 0-.621-.0485-.998-.145s-.728-.217-1.05-.365v1.36c.303.126.605.214.908.266.303.059.664.0898 1.09.0898.857 0 1.5-.163 1.93-.488.436-.333.654-.805.654-1.42 0-.363-.0709-.656-.211-.877-.133-.229-.325-.418-.576-.566-.251-.155-.551-.301-.898-.441-.355-.148-.624-.266-.809-.355-.177-.089-.299-.17-.365-.244-.06-.081-.0898-.17-.0898-.266 0-.266.244-.4.732-.4.273 0 .543.0438.809.133.266.081.548.186.844.311l.498-1.19c-.362-.17-.713-.291-1.05-.365s-.699-.111-1.08-.111zm22.1 0c-.724 0-1.3.14-1.74.42-.437.281-.654.703-.654 1.26 0 .34.0597.626.178.855.118.222.299.413.543.576.244.155.556.314.932.477.392.162.679.296.863.4.185.103.303.194.355.275.059.081.0898.174.0898.277 0 .155-.0699.281-.211.377-.133.096-.362.145-.688.145-.289 0-.621-.0485-.998-.145s-.728-.217-1.05-.365v1.36c.303.126.605.214.908.266.303.059.665.0898 1.09.0898.858 0 1.5-.163 1.93-.488.436-.333.654-.805.654-1.42 0-.363-.0699-.656-.211-.877-.133-.229-.325-.418-.576-.566-.252-.155-.55-.301-.898-.441-.354-.148-.624-.266-.809-.355-.177-.089-.3-.17-.367-.244-.059-.081-.0879-.17-.0879-.266 0-.266.244-.4.732-.4.274 0 .543.0438.809.133.266.081.549.186.844.311l.498-1.19c-.362-.17-.713-.291-1.05-.365s-.699-.111-1.08-.111zm-61.1.109 1.72 6.05h1.77l.488-2.1c.029-.133.0728-.325.133-.576.059-.251.123-.518.189-.799.067-.288.126-.551.178-.787.059-.244.0991-.422.121-.533h.0449c.022.111.0621.289.121.533.059.236.123.499.189.787.067.281.126.548.178.799.059.244.103.428.133.553l.465 2.12h1.8l1.74-6.05h-1.62l-.721 2.68c-.052.184-.103.41-.154.676-.045.266-.086.522-.123.766-.037.236-.0631.418-.0781.543h-.043c1e-5-.14-.0196-.328-.0566-.564-.029-.237-.0663-.47-.111-.699-.037-.229-.0687-.396-.0977-.5l-.711-2.9h-1.82l-.742 2.9c-.015.052-.0364.158-.0664.312-.022.148-.0509.313-.0879.498-.03.184-.0561.366-.0781.543-.022.17-.0379.307-.0449.41h-.0449c-.015-.14-.0392-.328-.0762-.564-.037-.244-.079-.495-.123-.754-.037-.259-.0818-.482-.133-.666l-.699-2.68h-1.64zm67.1 1.06c.392 0 .68.121.865.365.185.236.281.54.289.91h-2.32c.037-.436.158-.76.365-.967.215-.207.482-.309.799-.309zm-18.9.152c.347 0 .62.152.82.455.207.295.311.737.311 1.33 0 .592-.0988 1.05-.299 1.37-.199.311-.471.465-.811.465-.459 0-.775-.154-.953-.465-.17-.318-.256-.77-.256-1.35v-.176c.015-.547.107-.954.277-1.22.178-.266.481-.398.91-.398zm-27.2.0039c.443 0 .761.152.953.455.2.295.301.744.301 1.34 0 .599-.101 1.05-.301 1.36-.192.303-.505.455-.941.455-.444 0-.765-.152-.965-.455-.192-.31-.289-.764-.289-1.36 0-.598.0971-1.05.289-1.34.2-.303.517-.455.953-.455zm6.86 0c.444 0 .763.152.955.455.199.295.299.744.299 1.34 0 .599-.0998 1.05-.299 1.36-.192.303-.507.455-.943.455-.443 0-.764-.152-.963-.455-.193-.31-.289-.764-.289-1.36 0-.598.0961-1.05.289-1.34.199-.303.515-.455.951-.455zm45.8.0117c.488 0 .82.156.998.467.184.31.275.761.275 1.35v.178c-.008.539-.103.946-.287 1.22-.185.267-.507.4-.965.4-.377 0-.67-.147-.877-.443-.207-.303-.309-.75-.309-1.34 0-.591.102-1.04.309-1.35.207-.318.493-.479.855-.479zm-17.9 2.02v.5c0 .384-.123.684-.367.898-.244.207-.544.309-.898.309-.237 0-.428-.0503-.576-.154-.148-.111-.223-.292-.223-.543 0-.288.106-.521.312-.699.207-.177.575-.272 1.11-.287l.645-.0234z" style="fill-rule:evenodd;fill:#ffffff;paint-order:stroke fill markers;stroke-linecap:round;stroke-miterlimit:10;stroke-width:3.78"/>
 <path d="m528 64.7v3.39c0 .414.0261.822.0781 1.22.052.388.0958.686.135.893h-.0957c-.285-.44-.674-.808-1.17-1.11-.491-.297-1.12-.447-1.88-.447-1.22 0-2.2.465-2.95 1.4-.75.931-1.12 2.3-1.12 4.12-1e-5 1.8.367 3.16 1.11 4.09.75.918 1.71 1.38 2.89 1.38.763 0 1.39-.148 1.86-.445.479-.31.861-.685 1.14-1.12h.117l.562 1.38h2.21v-14.7h-2.89zm-36.8.00586v14.7h2.89v-14.7h-2.89zm-42.6.891 3.53 13.9h3.34l1.86-7.26c.039-.155.0912-.376.156-.66.065-.298.128-.608.193-.932.065-.336.124-.654.176-.951.064-.311.102-.549.115-.717.026.168.0652.406.117.717.051.297.109.615.174.951.078.336.141.647.193.932.065.285.118.498.156.641l1.88 7.28h3.34l3.53-13.9h-2.89l-1.77 7.57c-.064.298-.148.674-.252 1.13-.09.453-.174.905-.252 1.36-.078.44-.137.821-.176 1.14-.039-.31-.0968-.692-.174-1.14-.078-.453-.161-.891-.252-1.32-.077-.427-.148-.751-.213-.971l-2.02-7.76h-2.78l-2.02 7.76c-.064.233-.142.561-.232.988-.078.414-.155.848-.232 1.3-.078.44-.135.821-.174 1.14-.039-.31-.0968-.692-.174-1.14-.078-.453-.163-.905-.254-1.36-.09-.453-.174-.829-.252-1.13l-1.77-7.57h-2.89zm24.2 3.05c-.75 0-1.48.0838-2.17.252-.686.168-1.31.402-1.88.699l.949 1.96c.492-.22.984-.401 1.47-.543.492-.155.996-.232 1.51-.232.517 0 .918.13 1.2.389.297.259.447.665.447 1.22v.467l-1.84.0586c-1.58.0517-2.76.349-3.55.893-.789.53-1.18 1.36-1.18 2.48 0 1.14.311 1.99.932 2.54.62.543 1.4.814 2.35.814.88 0 1.57-.13 2.08-.389.505-.259.984-.673 1.44-1.24h.0781l.562 1.44h2.02v-7.06c0-1.27-.382-2.2-1.14-2.81-.751-.621-1.84-.932-3.26-.932zm28.7 0c-.75 0-1.47.0838-2.17.252-.686.168-1.31.402-1.88.699l.951 1.96c.492-.22.984-.401 1.47-.543.492-.155.996-.232 1.51-.232.517 0 .918.13 1.2.389.297.259.445.665.445 1.22v.467l-1.84.0586c-1.58.0517-2.76.349-3.55.893-.789.53-1.19 1.36-1.19 2.48 0 1.14.312 1.99.932 2.54.621.543 1.4.814 2.35.814.88 0 1.57-.13 2.08-.389.505-.259.984-.673 1.44-1.24h.0781l.564 1.44h2.02v-7.06c0-1.27-.382-2.2-1.14-2.81-.751-.621-1.84-.932-3.26-.932zm13.4.0195c-.659 0-1.29.123-1.88.369-.582.246-1.04.64-1.38 1.18h-.156l-.389-1.36h-2.21v10.6h2.89v-4.99c0-1.13.161-1.99.484-2.58.324-.608.925-.912 1.8-.912.595 0 1.03.194 1.3.582.272.375.408.946.408 1.71v6.19h2.89v-6.91c0-1.36-.343-2.34-1.03-2.95-.685-.621-1.6-.932-2.74-.932zm-36.2.193 4.21 10.5-.174.523c-.169.517-.433.958-.795 1.32-.349.375-.83.562-1.44.562-.22 0-.432-.0132-.639-.0391-.194-.0258-.363-.0522-.506-.0781v2.29c.181.0388.388.0718.621.0977.246.0388.531.0586.854.0586 1.01 0 1.9-.278 2.66-.834.776-.543 1.36-1.37 1.77-2.46l4.48-12h-3.1l-1.96 5.96c-.091.285-.175.582-.252.893-.065.298-.115.615-.154.951h-.0586c-.026-.336-.0652-.654-.117-.951-.052-.31-.129-.608-.232-.893l-2-5.96h-3.16zm47.3 2.15c.854 0 1.44.273 1.75.816.323.543.484 1.33.484 2.37v.309c-.013.944-.181 1.66-.504 2.13-.324.466-.886.699-1.69.699-.66 0-1.17-.258-1.53-.775-.362-.53-.545-1.31-.545-2.35s.183-1.82.545-2.37c.362-.556.86-.834 1.49-.834zm-51.6 3.54v.873c0 .673-.215 1.2-.641 1.57-.427.362-.951.543-1.57.543-.414 0-.749-.0904-1.01-.271-.259-.194-.389-.511-.389-.951 0-.505.181-.912.543-1.22.362-.31 1.01-.478 1.94-.504l1.13-.0391zm28.7 0v.873c0 .673-.213 1.2-.639 1.57-.427.362-.951.543-1.57.543-.414 0-.751-.0904-1.01-.271-.259-.194-.387-.511-.387-.951 0-.505.181-.912.543-1.22.362-.31 1.01-.478 1.94-.504l1.12-.0391zm9.08 13.8v10.5h2.07v-2.36l.887-.707 2.18 3.06h2.38l-3.19-4.28 3.01-3.29h-2.33l-2.12 2.3c-.166.176-.323.365-.471.568-.148.194-.291.388-.43.582h-.0274c.027-.286.0494-.569.0684-.846.028-.286.043-.573.043-.859v-4.71h-2.07zm-37.4.00195c-.314 0-.583.0749-.805.223-.212.139-.318.401-.318.789 0 .379.106.643.318.791.222.148.491.221.805.221.305 0 .567-.0729.789-.221s.334-.412.334-.791c0-.388-.112-.65-.334-.789-.222-.148-.484-.223-.789-.223zm55.2 1.36-.596 1.59-1.14.691v.873h.984v3.65c0 .647.101 1.15.305 1.52.212.36.495.616.846.764.36.148.766.221 1.22.221.388 0 .744-.0374 1.07-.111.332-.0647.609-.142.83-.234v-1.54c-.212.0647-.425.12-.637.166-.213.0462-.433.0703-.664.0703-.268 0-.485-.0704-.652-.209-.166-.148-.25-.364-.25-.65v-3.65h2.12v-1.55h-2.12v-1.61h-1.32zm-37.8 1.46c-.906 0-1.63.176-2.18.527-.545.351-.818.878-.818 1.58 0 .425.0746.78.223 1.07.148.277.375.518.68.721.305.194.693.392 1.16.596.49.203.849.371 1.08.5.231.129.378.244.443.346.074.102.111.216.111.346 0 .194-.0877.353-.264.473-.166.12-.453.18-.859.18-.361 0-.776-.0595-1.25-.18-.471-.12-.91-.274-1.32-.459v1.71c.379.157.758.269 1.14.334.379.074.832.109 1.36.109 1.07 0 1.87-.203 2.41-.609.545-.416.818-1.01.818-1.77 0-.453-.0867-.819-.262-1.1-.167-.286-.409-.522-.723-.707-.314-.194-.689-.379-1.12-.555-.443-.185-.781-.332-1.01-.443-.221-.111-.374-.212-.457-.305-.074-.102-.111-.212-.111-.332 0-.333.306-.498.916-.498.342 0 .679.0551 1.01.166.332.102.683.23 1.05.387l.625-1.48c-.453-.212-.893-.365-1.32-.457-.425-.0924-.873-.139-1.34-.139zm-23.2.00391c-.471 0-.919.0881-1.34.264-.416.176-.742.456-.982.844h-.111l-.279-.969h-1.58v7.57h2.07v-3.56c0-.804.115-1.42.346-1.84.231-.434.661-.652 1.29-.652.425 0 .736.139.93.416.194.268.291.674.291 1.22v4.42h2.06v-4.93c0-.97-.244-1.67-.734-2.11-.49-.444-1.14-.664-1.96-.664zm30.8 0c-1.15 0-2.05.337-2.7 1.01s-.984 1.64-.984 2.9c0 .841.157 1.56.471 2.15.315.582.744 1.03 1.29 1.33.555.305 1.18.457 1.88.457 1.14 0 2.03-.342 2.69-1.03.665-.684.998-1.65.998-2.91 0-.841-.157-1.55-.471-2.12-.315-.582-.744-1.03-1.29-1.33-.545-.305-1.17-.457-1.88-.457zm24.2 0c-.712 0-1.34.148-1.87.443s-.955.739-1.26 1.33c-.296.582-.443 1.32-.443 2.2 0 .868.165 1.59.498 2.16.333.573.789 1 1.37 1.29.582.277 1.25.416 2.01.416.582 0 1.08-.0463 1.48-.139.416-.0831.808-.218 1.18-.402v-1.59c-.425.203-.836.355-1.23.457-.397.0924-.841.139-1.33.139-.582 0-1.04-.165-1.37-.498-.324-.333-.496-.791-.514-1.37h4.88v-.996c0-1.1-.304-1.95-.914-2.54-.61-.601-1.44-.9-2.48-.9zm-15.6.00195c-.73 0-1.38.139-1.94.416-.554.277-.988.707-1.3 1.29-.314.582-.473 1.34-.473 2.26 0 1.34.306 2.32.916 2.95.619.619 1.49.93 2.62.93.527 0 .961-.0463 1.3-.139.351-.0832.684-.226.998-.43v-1.76c-.314.203-.638.364-.971.484-.333.111-.716.166-1.15.166-.509 0-.905-.181-1.19-.541-.278-.36-.416-.918-.416-1.68 1e-5-1.52.535-2.29 1.61-2.29.277 0 .555.0418.832.125.287.0831.59.189.914.318l.611-1.59c-.287-.139-.624-.258-1.01-.359-.379-.102-.829-.154-1.35-.154zm-52.8.133v4.93c0 .97.245 1.68.734 2.12.49.434 1.14.65 1.95.65.472 0 .916-.0881 1.33-.264.425-.176.758-.456.998-.844h.111l.277.969h1.58v-7.57h-2.06v3.56c0 .804-.115 1.42-.346 1.86-.231.425-.66.639-1.29.639-.425 0-.736-.139-.93-.416s-.291-.683-.291-1.22v-4.42h-2.06zm21.6 0 2.44 3.7-2.56 3.87h2.34l1.59-2.59 1.59 2.59h2.34l-2.58-3.87 2.47-3.7h-2.34l-1.48 2.41-1.47-2.41h-2.34zm-3.34.00391v7.57h2.06v-7.57h-2.06zm50.2 1.33c.489 0 .849.152 1.08.457.231.296.35.675.359 1.14h-2.9c.047-.545.2-.946.459-1.21.268-.259.6-.389.998-.389zm-24.2.193c.554 0 .953.19 1.19.568.249.37.373.929.373 1.68s-.124 1.32-.373 1.71c-.24.379-.633.568-1.18.568-.554 0-.957-.19-1.21-.568-.24-.388-.359-.957-.359-1.71s.119-1.31.359-1.68c.25-.379.646-.568 1.19-.568zm36.5 16.4c-.545 0-1.02.0747-1.43.223-.397.148-.707.402-.928.762-.213.351-.32.849-.32 1.5v.555l-1.14.555v.998h1.14v6.02h2.07v-6.02h1.79v-1.55h-1.79v-.471c0-.268.0644-.488.193-.664.139-.176.351-.264.637-.264.241 0 .454.0224.639.0684.185.037.355.078.512.125l.527-1.51c-.203-.083-.471-.158-.803-.223-.324-.064-.69-.0977-1.1-.0977zm-87.3.0703v10.5h2.07v-3.56c0-.804.115-1.42.346-1.84.24-.435.669-.652 1.29-.652.813 0 1.22.544 1.22 1.63v4.42h2.06v-4.93c0-.97-.249-1.67-.748-2.11-.49-.443-1.15-.666-1.97-.666-.462 0-.882.0887-1.26.264-.379.176-.69.458-.93.846h-.111c.019-.139.0376-.379.0566-.721.027-.342.041-.697.041-1.07v-2.15h-2.07zm40.2 0v2.43c0 .296.0196.587.0566.873.037.277.0697.489.0977.637h-.0703c-.204-.315-.481-.577-.832-.789-.351-.213-.799-.32-1.34-.32-.869 0-1.57.333-2.11.998s-.803 1.65-.803 2.94c0 1.28.262 2.26.789 2.92.536.656 1.22.984 2.06.984.545 0 .99-.107 1.33-.32.342-.221.613-.488.816-.803h.084l.402.984h1.58v-10.5h-2.07zm26.2.00781v10.5h1.58l.346-.832h.139c.204.25.462.475.777.678.323.194.762.291 1.32.291.869 0 1.57-.332 2.11-.998.536-.665.805-1.64.805-2.94 0-1.28-.262-2.25-.789-2.91-.527-.666-1.22-.998-2.07-.998-.545 0-.988.111-1.33.332-.342.213-.613.477-.816.791h-.084c.019-.157.0357-.375.0547-.652.018-.277.0293-.558.0293-.844v-2.45h-2.07zm-37.4.633-3.69 9.89h1.87l3.69-9.89h-1.87zm32.1 2.17c-.536 0-1.05.0597-1.55.18-.49.12-.94.287-1.35.5l.68 1.4c.351-.157.702-.288 1.05-.389.351-.111.713-.166 1.08-.166.37 0 .654.0923.857.277.213.184.32.475.32.873v.332l-1.32.041c-1.13.037-1.97.25-2.54.639-.563.378-.846.969-.846 1.77 0 .813.222 1.42.666 1.82.443.388 1 .582 1.68.582.628 0 1.12-.0923 1.48-.277.36-.185.701-.48 1.03-.887h.0547l.402 1.03h1.44v-5.04c0-.906-.271-1.57-.816-2.01-.536-.443-1.31-.666-2.33-.666zm-65.5.0176c-.906 0-1.63.176-2.18.527s-.818.878-.818 1.58c0 .425.0747.78.223 1.07.148.277.375.518.68.721.305.194.693.393 1.16.596.49.203.849.37 1.08.5.231.129.378.245.443.346.074.102.111.218.111.348 0 .194-.0877.351-.264.471-.166.12-.453.18-.859.18-.36 0-.775-.0597-1.25-.18-.472-.12-.91-.273-1.32-.457v1.7c.379.157.756.269 1.13.334.379.074.832.111 1.36.111 1.07 0 1.87-.204 2.41-.611.545-.416.818-1.01.818-1.77 0-.453-.0867-.819-.262-1.1-.167-.286-.409-.522-.723-.707-.314-.194-.689-.378-1.12-.553-.443-.185-.781-.334-1.01-.445-.221-.11-.374-.211-.457-.303-.074-.102-.111-.214-.111-.334 0-.333.306-.498.916-.498.342 0 .679.055 1.01.166.332.102.683.23 1.05.387l.625-1.48c-.453-.212-.893-.365-1.32-.457-.425-.092-.873-.139-1.34-.139zm17.6.00391c-.434 0-.853.0887-1.26.264-.397.176-.712.458-.943.846h-.109l-.277-.971h-1.58v7.57h2.06v-3.56c0-.804.105-1.42.318-1.84.221-.435.62-.652 1.19-.652.757 0 1.13.546 1.13 1.64v4.42h2.07v-3.8c0-.73.115-1.29.346-1.68s.619-.582 1.16-.582c.758 0 1.14.546 1.14 1.64v4.42h2.06v-4.94c0-.97-.22-1.67-.664-2.11-.434-.443-1.08-.666-1.94-.666-.435 0-.858.0887-1.27.264-.407.176-.726.458-.957.846h-.182c-.203-.379-.499-.656-.887-.832-.388-.185-.859-.277-1.41-.277zm35.3 0c-.434 0-.855.0887-1.26.264-.397.176-.71.458-.941.846h-.111l-.277-.971h-1.58v7.57h2.06v-3.56c0-.804.106-1.42.318-1.84.222-.435.619-.652 1.19-.652.758 0 1.14.546 1.14 1.64v4.42h2.06v-3.8c0-.73.115-1.29.346-1.68.23-.388.619-.582 1.16-.582.757 0 1.14.546 1.14 1.64v4.42h2.06v-4.94c0-.97-.22-1.67-.664-2.11-.434-.443-1.08-.666-1.94-.666-.435 0-.861.0887-1.28.264-.406.176-.724.458-.955.846h-.18c-.203-.379-.499-.656-.887-.832-.388-.185-.859-.277-1.41-.277zm26.5.135v4.93c0 .97.244 1.68.734 2.12.49.435 1.14.652 1.95.652.471 0 .916-.0887 1.33-.264.425-.176.757-.458.998-.846h.111l.275.969h1.58v-7.57h-2.06v3.56c0 .804-.117 1.42-.348 1.86-.231.425-.66.637-1.29.637-.425 0-.734-.139-.928-.416-.194-.277-.291-.683-.291-1.22v-4.42h-2.06zm-5.18 1.51c.434 0 .776.19 1.03.568.259.37.387.924.387 1.66 0 .739-.123 1.31-.373 1.71-.249.388-.587.582-1.01.582-.573 0-.971-.194-1.19-.582-.212-.397-.316-.961-.316-1.69v-.221c.018-.684.134-1.19.346-1.53.222-.333.601-.5 1.14-.5zm-31.2.0215c.61 0 1.03.194 1.25.582.231.388.346.952.346 1.69v.223c-.009.674-.128 1.18-.359 1.52-.231.333-.632.498-1.21.498-.471 0-.837-.184-1.1-.553-.259-.379-.389-.939-.389-1.68 0-.74.13-1.3.389-1.69.259-.398.613-.596 1.07-.596zm23.5 2.52v.625c0 .48-.152.855-.457 1.12-.305.258-.679.387-1.12.387-.295 0-.536-.0644-.721-.193-.184-.139-.277-.364-.277-.678 0-.361.131-.653.389-.875.259-.221.72-.34 1.38-.359l.805-.0293z" style="fill-rule:evenodd;fill:#808285;paint-order:stroke fill markers;stroke-linecap:round;stroke-miterlimit:10;stroke-width:3.78"/>
 <path class="st3" d="m553 62.1c6.02-32.4-19.3-62.1-52.3-62.1-19.1 0-36.2 9.99-45.6 25.5-12.8-4.09-26.1-2.34-37 5.05-10.9 7.39-17.4 19.1-17.9 31.9-14.5 6.76-24.1 21.1-24.1 36.7 0 2.67.264 5.39.79 7.99 3.84 19 20.9 32.8 40.6 32.8h119c23 0 41.8-18.3 41.8-40.8 0-16.1-9.9-30.6-24.9-37.2zm-16.9 66.4h-119c-16.1 0-29.5-12.9-29.5-29.2 0-12.2 8.09-23.1 20.1-27.4l4.22-1.45-.264-4.38c-.639-10.3 4.14-20 12.8-25.8 9.11-6.21 20.3-6.61 30.6-2.04l5.31 2.38 2.48-5.24c6.78-14.3 21.5-23.6 37.5-23.6 22.8 0 41.4 18.3 41.4 40.8 0 6.65-1.43 10.7-3.01 16.1 4.4 2.27 5.12 2.67 6.63 3.2 12.2 4.12 20.4 15.2 20.4 27.5 0 16.1-13.4 29.2-30 29.2z" fill="#808285" stroke-width="2.89"/>
 <path d="m425 246c-.241 0-.447.0569-.617.17-.162.106-.244.307-.244.604 0 .29.0821.492.244.605.17.113.376.17.617.17.234 0 .434-.0569.604-.17s.256-.315.256-.605c0-.297-.0859-.498-.256-.604-.17-.113-.37-.17-.604-.17zm-4.48 2.17c-.361 0-.703.0672-1.03.201-.318.135-.57.351-.754.648h-.0859l-.213-.744h-1.21v5.8h1.58v-2.73c0-.616.0886-1.09.266-1.41.177-.333.505-.498.986-.498.326 0 .562.106.711.318.148.206.225.516.225.934v3.39h1.58v-3.78c0-.743-.189-1.28-.564-1.61-.375-.34-.873-.51-1.5-.51zm3.68.0996v5.79h1.58v-5.79h-1.58zm-14 .00391v3.78c0 .743.188 1.29.562 1.62.375.333.875.498 1.5.498.361 0 .7-.0662 1.02-.201.326-.134.582-.349.766-.646h.084l.213.742h1.21v-5.8h-1.58v2.73c0 .616-.0886 1.09-.266 1.42-.177.325-.506.488-.988.488-.325 0-.562-.107-.711-.32-.148-.212-.223-.523-.223-.934v-3.39h-1.58zm16.5.0039 1.87 2.83-1.96 2.96h1.79l1.22-1.98 1.22 1.98h1.79l-1.97-2.96 1.89-2.83h-1.79l-1.14 1.85-1.12-1.85h-1.79zm.797 9.19v8.07h1.58v-1.8l.68-.543 1.67 2.35h1.83l-2.44-3.28 2.3-2.52h-1.78l-1.62 1.76c-.128.135-.248.28-.361.436-.114.148-.223.298-.33.447h-.0215c.021-.22.0387-.436.0527-.648.022-.219.0332-.439.0332-.658v-3.61h-1.58zm13.6 1.03-.457 1.22-.871.531v.668h.754v2.79c0 .495.0784.885.234 1.17.163.276.377.471.646.584.276.114.589.17.936.17.297 0 .568-.0289.816-.0859.255-.049.467-.109.637-.18v-1.18c-.163.05-.325.0929-.488.129-.163.035-.333.0527-.51.0527-.205 0-.372-.0522-.5-.158-.127-.114-.189-.281-.189-.5v-2.79h1.62v-1.19h-1.62v-1.23h-1.01zm-29 1.13c-.693 0-1.25.133-1.67.402-.418.269-.627.673-.627 1.21 0 .326.0569.598.17.818.113.212.288.395.521.551.234.149.53.302.891.457.375.156.651.284.828.383s.29.188.34.266c.057.078.0859.165.0859.264 0 .149-.0662.269-.201.361-.127.092-.347.139-.658.139-.276 0-.596-.0467-.957-.139-.36-.092-.697-.208-1.01-.35v1.31c.29.12.581.204.871.254.291.056.637.0859 1.04.0859.821 0 1.44-.157 1.85-.469.418-.318.627-.77.627-1.36 0-.347-.0672-.628-.201-.84-.128-.22-.313-.399-.553-.541-.241-.148-.527-.29-.859-.424-.34-.142-.598-.255-.775-.34-.17-.085-.288-.163-.352-.234-.056-.077-.084-.162-.084-.254 0-.255.234-.383.701-.383.262 0 .52.042.775.127.255.078.524.177.807.297l.477-1.13c-.347-.163-.682-.281-1.01-.352-.325-.071-.67-.105-1.03-.105zm5.81.0039c-.878 0-1.57.258-2.07.775-.503.516-.754 1.26-.754 2.22 0 .645.12 1.19.361 1.64.241.446.569.787.986 1.02.425.234.905.352 1.44.352.871 0 1.56-.263 2.06-.787.509-.524.764-1.27.764-2.23 0-.644-.12-1.19-.361-1.62-.24-.446-.569-.786-.986-1.02-.418-.234-.898-.35-1.44-.35zm6.6 0c-.56 0-1.05.105-1.49.318-.424.212-.757.54-.998.986-.24.446-.361 1.02-.361 1.73 0 1.03.234 1.78.701 2.26.474.474 1.14.711 2.01.711.403 0 .736-.0345.998-.105.269-.064.523-.173.764-.328v-1.35c-.241.156-.487.279-.742.371-.255.085-.549.127-.881.127-.39 0-.695-.138-.914-.414-.213-.276-.318-.703-.318-1.28 0-1.17.411-1.75 1.23-1.75.212 0 .424.0317.637.0957.219.063.452.145.699.244l.469-1.22c-.219-.106-.477-.197-.775-.275-.29-.078-.633-.117-1.03-.117zm11.9 0c-.545 0-1.02.114-1.43.34-.411.227-.732.567-.965 1.02-.227.446-.34 1.01-.34 1.69 0 .665.126 1.22.381 1.66s.605.767 1.05.986c.446.212.959.32 1.54.32.446 0 .826-.0364 1.14-.107.319-.063.619-.166.902-.307v-1.22c-.326.155-.641.272-.945.35-.305.071-.643.105-1.02.105-.446 0-.797-.126-1.05-.381-.248-.255-.381-.607-.395-1.05h3.74v-.764c0-.843-.234-1.49-.701-1.94-.467-.46-1.1-.689-1.9-.689zm.00976 1.12c.376 0 .652.118.828.352.177.226.269.515.277.869h-2.22c.035-.418.152-.725.35-.924.205-.198.46-.297.764-.297zm-18.6.148c.425 0 .728.146.912.436.191.283.287.711.287 1.29 0 .573-.0961 1.01-.287 1.3-.184.29-.484.438-.902.438-.424 0-.733-.148-.924-.438-.184-.297-.275-.732-.275-1.3 0-.574.0914-1 .275-1.29.191-.29.496-.436.914-.436z" style="fill-rule:evenodd;fill:#808285;paint-order:stroke fill markers;stroke-dasharray:5.00002, 8.00007;stroke-linecap:round;stroke-miterlimit:10;stroke-width:10"/>
</svg>
