<?xml version="1.0" encoding="UTF-8" standalone="no"?>
<svg
   width="64"
   height="64"
   version="1.1"
   viewBox="0 0 16.933 16.933"
   id="svg40"
   xmlns="http://www.w3.org/2000/svg"
   xmlns:svg="http://www.w3.org/2000/svg">
  <defs
     id="defs2">
    <filter
       id="b"
       x="-0.013632521"
       y="-0.010716652"
       width="1.027265"
       height="1.0214333"
       color-interpolation-filters="sRGB">
      <feGaussianBlur
         stdDeviation="2.0004419"
         id="feGaussianBlur1" />
    </filter>
    <linearGradient
       id="a"
       x1="277.71"
       x2="277.71"
       y1="-9.2709"
       y2="252.83"
       gradientTransform="matrix(0 0 0 0 16.745 .55424)"
       gradientUnits="userSpaceOnUse">
      <stop
         stop-color="#deddda"
         offset="0"
         id="stop1" />
      <stop
         stop-color="#bebcb6"
         offset="1"
         id="stop2" />
    </linearGradient>
  </defs>
  <g
     transform="matrix(.13788 0 0 .13788 -.4144 -309.4)"
     stroke-width=".50769"
     id="g17">
    <g
       transform="matrix(.25 0 0 .25 0 2295)"
       stroke-width=".50769"
       id="g5">
      <g
         stroke-width=".50769"
         id="g4">
        <path
           d="m111.83-178.55h200l120.17 119.67 5e-3 296.24c3.1e-4 17.728-14.449 32.088-32.177 32.088h-288c-17.728 0-32-14.272-32-32v-384c0-17.728 14.272-32 32-32z"
           enable-background="new"
           filter="url(#b)"
           opacity=".4"
           id="path2" />
        <path
           d="m111.83-179.67h200l120.17 119.67 5e-3 296.24c3.1e-4 17.728-14.449 32.088-32.177 32.088h-288c-17.728 0-32-14.272-32-32v-384c0-17.728 14.272-32 32-32z"
           enable-background="new"
           fill="#f6f5f4"
           id="path3" />
        <path
           d="m311.83-179.67v88c0 17.728 14.442 31.694 32.17 31.694l88.001-0.02222z"
           enable-background="new"
           fill="#deddda"
           id="path4" />
      </g>
    </g>
    <rect
       x="-1.5e-6"
       y="2242"
       width="128"
       height="128"
       enable-background="new"
       fill="none"
       style="paint-order:normal"
       id="rect5" />
    <g
       transform="matrix(0,0,0,0,134.88,2248)"
       stroke-width="5.4208"
       id="g7">
      <path
         d="m108.05-184.87 208.22 4e-3 120.53 120.53-0.18413 306.27c-0.0108 18.192-14.827 32.929-33.02 32.929h-295.54c-18.192 0-32.838-14.646-32.838-32.838v-394.06c0-18.192 14.646-32.838 32.838-32.838z"
         enable-background="new"
         fill="#f6f5f4"
         stroke="url(#a)"
         stroke-linejoin="round"
         stroke-width="21.683"
         id="path5" />
      <path
         d="m79.828 226.66v9.3347c0 21.78 10.965 33.668 32 33.668h288c21.679 0 32-11.889 32-33.668v-9.3347c0 17.728-14.272 32-32 32h-288c-17.728 0-32-14.272-32-32z"
         enable-background="new"
         fill="#deddda"
         opacity=".417"
         id="path6" />
      <path
         d="m314.73-179.67-0.13774 85.758c-0.0285 17.728 14.442 31.694 32.17 31.694h85.42z"
         enable-background="new"
         fill="#deddda"
         id="path7" />
    </g>
    <g
       transform="matrix(0,0,0,0,136.44,2265.3)"
       stroke-width="8.0291"
       id="g10">
      <path
         d="m108.05-182.78 210.2 4e-3 120.53 120.53-0.18413 304.18c-0.011 18.192-14.827 32.929-33.02 32.929h-297.52c-18.192 0-32.838-14.646-32.838-32.838v-391.96c0-22.386 13.468-32.838 32.838-32.838z"
         enable-background="new"
         fill="#f6f5f4"
         stroke="url(#linearGradient7099)"
         stroke-linejoin="round"
         stroke-width="32.116"
         id="path8" />
      <path
         d="m79.828 220.37v14.227c0 21.78 10.965 33.668 32 33.668h288c21.679 0 32-11.889 32-33.668v-14.227c0 17.728-14.272 32-32 32h-288c-17.728 0-32-14.272-32-32z"
         enable-background="new"
         fill="#deddda"
         opacity=".417"
         id="path9" />
      <path
         d="m304.91-191.5-0.15009 108.06c-0.0268 19.316 15.736 34.533 35.052 34.533h106.59z"
         enable-background="new"
         fill="#deddda"
         id="path10" />
    </g>
    <g
       transform="matrix(0,0,0,0,136.49,2277.1)"
       stroke-width="11.993"
       id="g13">
      <path
         d="m115.36-182.78 202.89 4e-3 120.53 120.53-0.18413 296.87c-0.0113 18.192-14.827 32.929-33.02 32.929h-290.21c-18.192 0-32.838-14.646-32.838-32.838v-384.65c0-22.386 13.468-32.838 32.838-32.838z"
         enable-background="new"
         fill="#f6f5f4"
         stroke="url(#linearGradient7167)"
         stroke-linejoin="round"
         stroke-width="47.974"
         id="path11" />
      <path
         d="m94.445 200.53v22.579c0 21.78 10.965 33.668 32 33.668h269.21c21.679 0 32-11.889 32-33.668v-22.579c0 17.728-14.272 32-32 32h-269.21c-17.728 0-32-14.272-32-32z"
         enable-background="new"
         fill="#deddda"
         opacity=".417"
         id="path12" />
      <path
         d="m304.91-191.5-0.15009 108.06c-0.0268 19.316 15.736 34.533 35.052 34.533h106.59z"
         enable-background="new"
         fill="#deddda"
         id="path13" />
    </g>
    <g
       transform="matrix(0,0,0,0,136.47,2286.9)"
       stroke-width="15.823"
       id="g16">
      <path
         d="m115.36-182.78 190.49 4e-3 120.53 120.53-0.18413 310.64c-0.0108 18.192-14.827 32.929-33.02 32.929h-277.82c-18.192 0-32.838-14.646-32.838-32.838v-398.43c0-22.386 13.468-32.838 32.838-32.838z"
         enable-background="new"
         fill="#f6f5f4"
         stroke="#bebcb6"
         stroke-linejoin="round"
         stroke-width="63.293"
         id="path14" />
      <path
         d="m94.445 203.29v30.844c0 21.78 10.965 33.668 32 33.668h254.06c21.679 0 32-11.889 32-33.668v-30.844c0 17.728-14.272 32-32 32h-254.06c-17.728 0-32-14.272-32-32z"
         enable-background="new"
         fill="#deddda"
         opacity=".417"
         id="path15" />
      <path
         d="m285.63-188.74-0.15009 108.06c-0.0268 19.316 15.736 34.533 35.052 34.533h106.59z"
         enable-background="new"
         fill="#bebcb6"
         id="path16" />
    </g>
  </g>
  <path
     d="M 5.602909,7.8583553 C 5.2888629,8.8686484 3.9377964,8.7189753 4.1021695,8.346129 4.2237788,8.0721739 4.5578704,8.3929018 4.3941714,8.4998112 4.8144528,8.6307751 5.3489993,8.3367745 5.5066905,7.8276189 6.0265371,6.1598335 3.2522403,5.4194866 2.6655755,7.2997541 2.3435111,8.3327654 2.9288396,9.432595 3.9939238,9.8027684 4.5044158,9.9858513 5.891564,10.041978 6.0920193,9.2941715 6.0920193,9.2941715 6.5958287,9.4927315 7.1931849,9.2941715 7.9776319,8.9595212 8.8075159,8.6441388 9.6948629,8.5452477 9.3246896,8.5358931 8.8649798,8.2418924 8.6805605,8.0574739 8.5669696,7.9532373 8.466742,7.8369734 8.3678512,7.7140277 8.3023689,7.6325094 8.4279875,7.521591 8.5121782,7.6244912 8.7553971,8.1256286 9.0774616,8.4637292 9.8672544,8.5265384 9.5411808,8.3955745 9.2645533,8.1430014 9.1242345,7.7915369 9.0199978,7.5296091 9.0253437,7.240954 9.137598,6.9843716 9.251189,6.7264529 9.4596625,6.5233252 9.7229265,6.4190887 9.9354092,6.3335611 10.171946,6.3389066 10.384429,6.4337887 10.76663,6.595489 11.007175,7.0658901 10.79202,7.1995267 10.719856,7.2449631 10.619628,7.2235813 10.570184,7.146072 10.490001,7.0204536 10.657048,6.8681078 10.761283,6.9696716 10.693128,6.7571893 10.539447,6.62088 10.348346,6.5193161 10.162591,6.4377978 9.9541175,6.4337887 9.7630177,6.5099615 9.523808,6.6048436 9.3327081,6.785253 9.2284714,7.0204536 9.1242345,7.2543176 9.1202254,7.5162456 9.2151079,7.7554551 9.3821536,8.1790832 9.7683627,8.4597202 10.198674,8.5131749 14.128926,8.491793 14.102199,12.758811 11.931941,14.14596 L 11.607204,14.144623 C 12.478514,13.243913 12.539986,12.965949 12.360914,12.22961 12.352896,12.093301 12.510587,12.086619 12.533306,12.198873 12.570724,12.843002 12.47985,13.376213 12.03885,13.769104 13.897735,12.487529 13.736035,9.5341588 11.481585,8.7924755 11.373338,8.7563935 11.263757,8.7296662 11.155512,8.710957 10.602256,8.652157 10.306918,8.80183 10.162591,9.1172125 9.5091079,9.2014035 8.98258,9.5314861 8.766088,10.150224 8.621761,10.583206 8.6578429,11.042917 8.8609706,11.449173 9.065434,11.855428 9.4182355,12.157446 9.8538905,12.301774 10.198674,12.415365 10.566174,12.388637 10.892246,12.22961 11.21832,12.06791 11.458866,11.792618 11.572458,11.449173 11.752867,10.903935 11.468221,10.31727 10.937684,10.114142 11.029893,10.207687 10.92432,10.37206 10.79202,10.330634 10.706493,10.303906 10.661056,10.213033 10.683775,10.132851 10.817411,9.717241 12.002768,10.450906 11.657985,11.481246 11.53504,11.847409 11.277121,12.144083 10.928329,12.320483 10.579537,12.491538 10.18531,12.523611 9.8178081,12.402002 9.3607717,12.248319 8.9892617,11.932937 8.7714339,11.499954 8.5536062,11.070981 8.5175241,10.583206 8.6712064,10.127505 8.9398162,9.2941715 9.6881812,8.7670846 10.397792,8.6387933 8.2743053,8.4289838 5.9329914,10.580534 3.9524963,9.929723 2.8326212,9.542177 2.2259109,8.3915654 2.5613389,7.3091087 3.1787402,5.3473228 6.0265371,5.9059239 5.602909,7.8583553 Z"
     fill="#002447"
     id="path8-3"
     style="stroke-width:0.133637" />
  <g
     transform="matrix(.12046 0 0 .12006 0 1.1399)"
     fill-rule="evenodd"
     id="g40">
    <path
       d="m15.504 126.93c0.15234 0.64844 0.74219 1.0117 1.3906 0.85937l81.918-19.23c0.64453-0.15234 0.80469-0.70312 0.65625-1.3516z"
       fill="#c0bfbc"
       stroke-width="1.1"
       id="path18" />
    <path
       d="m21.535 86.031 5.6797 24.18 32.543-7.6406zm-20.063-21.172 14.422 61.438 81.918-19.23z"
       fill="#57e389"
       fill-opacity=".9"
       stroke="#3d3846"
       stroke-width="1.1"
       id="path19" />
    <path
       transform="matrix(1.1703 -.27476 .27476 1.1703 65.301 -197.08)"
       d="m-98.5 249.5 1e-3 2.9243"
       fill="#26a269"
       stroke="#3d3846"
       stroke-linecap="round"
       stroke-width=".91507"
       id="path20" />
    <path
       transform="matrix(1.1703 -.27476 .27476 1.1703 65.301 -197.08)"
       d="m-95.493 249.5 0.0018 2.9211"
       fill="#26a269"
       stroke="#3d3846"
       stroke-linecap="round"
       stroke-width=".91507"
       id="path21" />
    <path
       transform="matrix(1.1703 -.27476 .27476 1.1703 65.301 -197.08)"
       d="m-92.485 249.5 1e-3 2.9243"
       fill="#26a269"
       stroke="#3d3846"
       stroke-linecap="round"
       stroke-width=".91507"
       id="path22" />
    <path
       transform="matrix(1.1703 -.27476 .27476 1.1703 65.301 -197.08)"
       d="m-89.478 249.5 0.0018 2.9211"
       fill="#26a269"
       stroke="#3d3846"
       stroke-linecap="round"
       stroke-width=".91507"
       id="path23" />
    <path
       transform="matrix(1.1703 -.27476 .27476 1.1703 65.301 -197.08)"
       d="m-86.47 249.5 1e-3 2.9243"
       fill="#26a269"
       stroke="#3d3846"
       stroke-linecap="round"
       stroke-width=".91507"
       id="path24" />
    <path
       transform="matrix(1.1703 -.27476 .27476 1.1703 65.301 -197.08)"
       d="m-83.462 249.5 1e-3 2.9243"
       fill="#26a269"
       stroke="#3d3846"
       stroke-linecap="round"
       stroke-width=".91507"
       id="path25" />
    <path
       transform="matrix(1.1703 -.27476 .27476 1.1703 65.301 -197.08)"
       d="m-80.452 249.5-0.0021 2.9235"
       fill="#26a269"
       stroke="#3d3846"
       stroke-linecap="round"
       stroke-width=".91507"
       id="path26" />
    <path
       transform="matrix(1.1703 -.27476 .27476 1.1703 65.301 -197.08)"
       d="m-77.444 249.5-0.0021 2.9235"
       fill="#26a269"
       stroke="#3d3846"
       stroke-linecap="round"
       stroke-width=".91507"
       id="path27" />
    <path
       transform="matrix(1.1703 -.27476 .27476 1.1703 65.301 -197.08)"
       d="m-74.437 249.5-0.0014 2.9204"
       fill="#26a269"
       stroke="#3d3846"
       stroke-linecap="round"
       stroke-width=".91507"
       id="path28" />
    <path
       transform="matrix(1.1703 -.27476 .27476 1.1703 65.301 -197.08)"
       d="m-71.429 249.5-0.0021 2.9235"
       fill="#26a269"
       stroke="#3d3846"
       stroke-linecap="round"
       stroke-width=".91507"
       id="path29" />
    <path
       transform="matrix(1.1703 -.27476 .27476 1.1703 65.301 -197.08)"
       d="m-68.422 249.5-0.0014 2.9204"
       fill="#26a269"
       stroke="#3d3846"
       stroke-linecap="round"
       stroke-width=".91507"
       id="path30" />
    <path
       transform="matrix(1.1703 -.27476 .27476 1.1703 65.301 -197.08)"
       d="m-65.415 249.5 1e-3 2.9243"
       fill="#26a269"
       stroke="#3d3846"
       stroke-linecap="round"
       stroke-width=".91507"
       id="path31" />
    <path
       transform="matrix(1.1703 -.27476 .27476 1.1703 65.301 -197.08)"
       d="m-59.4 249.5 1e-3 2.9243"
       fill="#26a269"
       stroke="#3d3846"
       stroke-linecap="round"
       stroke-width=".91507"
       id="path32" />
    <path
       transform="matrix(1.1703 -.27476 .27476 1.1703 65.301 -197.08)"
       d="m-53.385 249.5 1e-3 2.9243"
       fill="#26a269"
       stroke="#3d3846"
       stroke-linecap="round"
       stroke-width=".91507"
       id="path33" />
    <path
       transform="matrix(1.1703 -.27476 .27476 1.1703 65.301 -197.08)"
       d="m-62.407 249.5 0.0018 2.9211"
       fill="#26a269"
       stroke="#3d3846"
       stroke-linecap="round"
       stroke-width=".91507"
       id="path34" />
    <path
       transform="matrix(1.1703 -.27476 .27476 1.1703 65.301 -197.08)"
       d="m-56.392 249.5 1e-3 2.9243"
       fill="#26a269"
       stroke="#3d3846"
       stroke-linecap="round"
       stroke-width=".91507"
       id="path35" />
    <path
       transform="matrix(1.1703 -.27476 .27476 1.1703 65.301 -197.08)"
       d="m-50.377 249.5 1e-3 2.9243"
       fill="#26a269"
       stroke="#3d3846"
       stroke-linecap="round"
       stroke-width=".91507"
       id="path36" />
    <path
       transform="matrix(1.1703 -.27476 .27476 1.1703 65.301 -197.08)"
       d="m-47.37 249.5 0.0018 2.9211"
       fill="#26a269"
       stroke="#3d3846"
       stroke-linecap="round"
       stroke-width=".91507"
       id="path37" />
    <path
       transform="matrix(1.1703 -.27476 .27476 1.1703 65.301 -197.08)"
       d="m-44.359 249.5-0.0021 2.9235"
       fill="#26a269"
       stroke="#3d3846"
       stroke-linecap="round"
       stroke-width=".91507"
       id="path38" />
    <path
       transform="matrix(1.1703 -.27476 .27476 1.1703 65.301 -197.08)"
       d="m-41.352 249.5-0.0014 2.9204"
       fill="#26a269"
       stroke="#3d3846"
       stroke-linecap="round"
       stroke-width=".91507"
       id="path39" />
    <path
       transform="matrix(1.1703 -.27476 .27476 1.1703 65.301 -197.08)"
       d="m-38.344 249.5-0.0021 2.9235"
       fill="#26a269"
       stroke="#3d3846"
       stroke-linecap="round"
       stroke-width=".91507"
       id="path40" />
  </g>
</svg>
