<?xml version="1.0" encoding="UTF-8" standalone="no"?>
<svg
   width="128px"
   height="128px"
   version="1.1"
   viewBox="0 0 128 128"
   id="svg36"
   xmlns="http://www.w3.org/2000/svg"
   xmlns:svg="http://www.w3.org/2000/svg">
  <defs
     id="defs36" />
  <linearGradient
     id="a"
     x1="8"
     x2="120"
     y1="117"
     y2="117"
     gradientUnits="userSpaceOnUse">
    <stop
       stop-color="#77767b"
       offset="0"
       id="stop1" />
    <stop
       stop-color="#c0bfbc"
       offset=".035714"
       id="stop2" />
    <stop
       stop-color="#9a9996"
       offset=".071365"
       id="stop3" />
    <stop
       stop-color="#9a9996"
       offset=".92857"
       id="stop4" />
    <stop
       stop-color="#c0bfbc"
       offset=".96429"
       id="stop5" />
    <stop
       stop-color="#77767b"
       offset="1"
       id="stop6" />
  </linearGradient>
  <path
     d="m16 41h96c4.418 0 8 3.582 8 8v60c0 4.418-3.582 8-8 8h-96c-4.418 0-8-3.582-8-8v-60c0-4.418 3.582-8 8-8z"
     fill="url(#a)"
     id="path6" />
  <path
     d="m16.5 28.5h95c4.418 0 8 3.582 8 8v68c0 4.418-3.582 8-8 8h-95c-4.418 0-8-3.582-8-8v-68c0-4.418 3.582-8 8-8z"
     fill="#f6f5f4"
     stroke="#5e5c64"
     id="path7" />
  <path
     d="M 51.45,61.2 C 49.1,68.76 38.99,67.64 40.22,64.85 41.13,62.8 43.63,65.2 41.68,66 45.55,66.98 49.55,64.78 50.73,60.97 54.62,48.49 33.86,42.95 29.47,57.02 27.06,64.75 31.44,72.98 39.41,75.75 43.23,77.12 53.61,77.54 55.11,72.07 55.11,72.07 58.88,73.43 63.35,71.7 69.22,69.44 75.43,67.08 82.07,66.34 79.3,66.27 75.86,64.07 74.48,62.69 73.63,61.91 72.88,61.04 72.14,60.12 71.65,59.51 72.59,58.68 73.22,59.45 75.04,63.2 77.45,65.73 83.36,66.2 80.92,65.22 78.85,63.33 77.8,60.7 77.02,58.74 77.06,56.58 77.9,54.66 78.75,52.73 80.31,51.21 82.28,50.43 83.87,49.79 85.64,49.83 87.23,50.54 90.09,51.75 91.89,55.27 90.28,56.27 89.74,56.61 88.99,56.45 88.62,55.87 88.02,54.93 89.27,53.79 90.05,54.55 89.54,52.96 88.39,51.94 86.96,51.18 85.57,50.57 84.01,50.54 82.58,51.11 80.79,51.82 79.36,53.17 78.58,54.93 77.8,56.68 77.77,58.64 78.48,60.43 79.73,63.6 82.62,65.7 85.84,66.1 115.25,65.94 115.05,97.87 98.81,108.25 L 96.38,108.24 C 102.9,101.5 103.36,99.42 102.02,93.91 101.96,92.89 103.14,92.84 103.31,93.68 103.59,98.5 102.91,102.49 99.61,105.43 113.52,95.84 112.31,73.74 95.44,68.19 94.63,67.92 93.81,67.72 93,67.58 88.86,67.14 86.65,68.26 85.57,70.62 80.68,71.25 76.74,73.72 75.12,78.35 74.04,81.59 74.31,85.03 75.83,88.07 77.36,91.11 80,93.37 83.26,94.45 85.84,95.3 88.59,95.1 91.03,93.91 93.47,92.7 95.27,90.64 96.12,88.07 97.47,83.99 95.34,79.6 91.37,78.08 92.06,78.78 91.27,80.01 90.28,79.7 89.64,79.5 89.3,78.82 89.47,78.22 90.47,75.11 99.34,80.6 96.76,88.31 95.84,91.05 93.91,93.27 91.3,94.59 88.69,95.87 85.74,96.11 82.99,95.2 79.57,94.05 76.79,91.69 75.16,88.45 73.53,85.24 73.26,81.59 74.41,78.18 76.42,72.09 82.02,68 87.33,67.04 71.44,65.47 53.92,81.57 39.1,76.7 30.72,73.8 26.18,65.19 28.69,57.09 33.31,42.41 54.62,46.59 51.45,61.2 Z"
     fill="#002447"
     id="path8" />
  <path
     d="m94.605 34h18.789c0.88672 0 1.6055 0.71875 1.6055 1.6055v3.9609c0 0.89062-0.71875 1.6094-1.6055 1.6094h-18.789c-0.88672 0-1.6055-0.71875-1.6055-1.6094v-3.9609c0-0.88672 0.71875-1.6055 1.6055-1.6055z"
     fill="#9a9996"
     id="path9" />
  <path
     d="m14.605 34h18.789c0.88672 0 1.6055 0.71875 1.6055 1.6055v3.9609c0 0.89062-0.71875 1.6094-1.6055 1.6094h-18.789c-0.88672 0-1.6055-0.71875-1.6055-1.6094v-3.9609c0-0.88672 0.71875-1.6055 1.6055-1.6055z"
     fill="#9a9996"
     id="path10" />
  <path
     d="m15.84 28.5h96.324c4.0664 0 7.3359 3.2031 7.3359 7.1836v7.7969l-111 0.019531c0-2.6055 0.003906-5.2109 0.003906-7.8164 0-3.9805 3.2734-7.1836 7.3359-7.1836zm0 0"
     fill="#deddda"
     stroke="#5e5c64"
     stroke-linecap="round"
     stroke-linejoin="round"
     stroke-miterlimit="0"
     id="path11" />
  <path
     d="m95.012 32.5h17.977c0.83594 0 1.5117 0.67578 1.5117 1.5117v3.9766c0 0.83594-0.67578 1.5117-1.5117 1.5117h-17.977c-0.83594 0-1.5117-0.67578-1.5117-1.5117v-3.9766c0-0.83594 0.67578-1.5117 1.5117-1.5117zm0 0"
     fill="#62a0ea"
     stroke="#5e5c64"
     stroke-linecap="round"
     stroke-linejoin="round"
     stroke-miterlimit="0"
     id="path12" />
  <path
     d="m15.105 32.5h17.789c0.88672 0 1.6055 0.71875 1.6055 1.6055v3.7891c0 0.88672-0.71875 1.6055-1.6055 1.6055h-17.789c-0.88672 0-1.6055-0.71875-1.6055-1.6055v-3.7891c0-0.88672 0.71875-1.6055 1.6055-1.6055zm0 0"
     fill="#deddda"
     stroke="#5e5c64"
     stroke-linecap="round"
     stroke-linejoin="round"
     stroke-miterlimit="0"
     id="path13" />
  <g
     fill-rule="evenodd"
     id="g36">
    <path
       d="m15.504 126.93c0.15234 0.64844 0.74219 1.0117 1.3906 0.85937l81.918-19.23c0.64453-0.15234 0.80469-0.70312 0.65625-1.3516z"
       fill="#c0bfbc"
       id="path14" />
    <path
       d="m21.535 86.031 5.6797 24.18 32.543-7.6406zm-20.063-21.172 14.422 61.438 81.918-19.23z"
       fill="#57e389"
       fill-opacity=".9"
       stroke="#3d3846"
       stroke-width=".99897"
       id="path15" />
    <path
       transform="matrix(1.1703 -.27476 .27476 1.1703 65.301 -197.08)"
       d="m-98.5 249.5 0.001046 2.9243"
       fill="#26a269"
       stroke="#3d3846"
       stroke-linecap="round"
       stroke-width=".83105"
       id="path16" />
    <path
       transform="matrix(1.1703 -.27476 .27476 1.1703 65.301 -197.08)"
       d="m-95.493 249.5 0.001789 2.9211"
       fill="#26a269"
       stroke="#3d3846"
       stroke-linecap="round"
       stroke-width=".83105"
       id="path17" />
    <path
       transform="matrix(1.1703 -.27476 .27476 1.1703 65.301 -197.08)"
       d="m-92.485 249.5 0.001047 2.9243"
       fill="#26a269"
       stroke="#3d3846"
       stroke-linecap="round"
       stroke-width=".83105"
       id="path18" />
    <path
       transform="matrix(1.1703 -.27476 .27476 1.1703 65.301 -197.08)"
       d="m-89.478 249.5 0.001789 2.9211"
       fill="#26a269"
       stroke="#3d3846"
       stroke-linecap="round"
       stroke-width=".83105"
       id="path19" />
    <path
       transform="matrix(1.1703 -.27476 .27476 1.1703 65.301 -197.08)"
       d="m-86.47 249.5 0.001046 2.9243"
       fill="#26a269"
       stroke="#3d3846"
       stroke-linecap="round"
       stroke-width=".83105"
       id="path20" />
    <path
       transform="matrix(1.1703 -.27476 .27476 1.1703 65.301 -197.08)"
       d="m-83.462 249.5 0.001046 2.9243"
       fill="#26a269"
       stroke="#3d3846"
       stroke-linecap="round"
       stroke-width=".83105"
       id="path21" />
    <path
       transform="matrix(1.1703 -.27476 .27476 1.1703 65.301 -197.08)"
       d="m-80.452 249.5-0.002117 2.9235"
       fill="#26a269"
       stroke="#3d3846"
       stroke-linecap="round"
       stroke-width=".83105"
       id="path22" />
    <path
       transform="matrix(1.1703 -.27476 .27476 1.1703 65.301 -197.08)"
       d="m-77.444 249.5-0.002117 2.9235"
       fill="#26a269"
       stroke="#3d3846"
       stroke-linecap="round"
       stroke-width=".83105"
       id="path23" />
    <path
       transform="matrix(1.1703 -.27476 .27476 1.1703 65.301 -197.08)"
       d="m-74.437 249.5-0.001374 2.9204"
       fill="#26a269"
       stroke="#3d3846"
       stroke-linecap="round"
       stroke-width=".83105"
       id="path24" />
    <path
       transform="matrix(1.1703 -.27476 .27476 1.1703 65.301 -197.08)"
       d="m-71.429 249.5-0.002117 2.9235"
       fill="#26a269"
       stroke="#3d3846"
       stroke-linecap="round"
       stroke-width=".83105"
       id="path25" />
    <path
       transform="matrix(1.1703 -.27476 .27476 1.1703 65.301 -197.08)"
       d="m-68.422 249.5-0.001375 2.9204"
       fill="#26a269"
       stroke="#3d3846"
       stroke-linecap="round"
       stroke-width=".83105"
       id="path26" />
    <path
       transform="matrix(1.1703 -.27476 .27476 1.1703 65.301 -197.08)"
       d="m-65.415 249.5 0.001046 2.9243"
       fill="#26a269"
       stroke="#3d3846"
       stroke-linecap="round"
       stroke-width=".83105"
       id="path27" />
    <path
       transform="matrix(1.1703 -.27476 .27476 1.1703 65.301 -197.08)"
       d="m-59.4 249.5 0.001047 2.9243"
       fill="#26a269"
       stroke="#3d3846"
       stroke-linecap="round"
       stroke-width=".83105"
       id="path28" />
    <path
       transform="matrix(1.1703 -.27476 .27476 1.1703 65.301 -197.08)"
       d="m-53.385 249.5 0.001046 2.9243"
       fill="#26a269"
       stroke="#3d3846"
       stroke-linecap="round"
       stroke-width=".83105"
       id="path29" />
    <path
       transform="matrix(1.1703 -.27476 .27476 1.1703 65.301 -197.08)"
       d="m-62.407 249.5 0.00179 2.9211"
       fill="#26a269"
       stroke="#3d3846"
       stroke-linecap="round"
       stroke-width=".83105"
       id="path30" />
    <path
       transform="matrix(1.1703 -.27476 .27476 1.1703 65.301 -197.08)"
       d="m-56.392 249.5 0.001046 2.9243"
       fill="#26a269"
       stroke="#3d3846"
       stroke-linecap="round"
       stroke-width=".83105"
       id="path31" />
    <path
       transform="matrix(1.1703 -.27476 .27476 1.1703 65.301 -197.08)"
       d="m-50.377 249.5 0.001047 2.9243"
       fill="#26a269"
       stroke="#3d3846"
       stroke-linecap="round"
       stroke-width=".83105"
       id="path32" />
    <path
       transform="matrix(1.1703 -.27476 .27476 1.1703 65.301 -197.08)"
       d="m-47.37 249.5 0.00179 2.9211"
       fill="#26a269"
       stroke="#3d3846"
       stroke-linecap="round"
       stroke-width=".83105"
       id="path33" />
    <path
       transform="matrix(1.1703 -.27476 .27476 1.1703 65.301 -197.08)"
       d="m-44.359 249.5-0.002117 2.9235"
       fill="#26a269"
       stroke="#3d3846"
       stroke-linecap="round"
       stroke-width=".83105"
       id="path34" />
    <path
       transform="matrix(1.1703 -.27476 .27476 1.1703 65.301 -197.08)"
       d="m-41.352 249.5-0.001375 2.9204"
       fill="#26a269"
       stroke="#3d3846"
       stroke-linecap="round"
       stroke-width=".83105"
       id="path35" />
    <path
       transform="matrix(1.1703 -.27476 .27476 1.1703 65.301 -197.08)"
       d="m-38.344 249.5-0.002117 2.9235"
       fill="#26a269"
       stroke="#3d3846"
       stroke-linecap="round"
       stroke-width=".83105"
       id="path36" />
  </g>
</svg>
