<?xml version="1.0" encoding="UTF-8"?>
<svg data-name="Layer 1" version="1.1" viewBox="0 0 122.88 122.88" xmlns="http://www.w3.org/2000/svg">
 <path d="m60.688 39.166a6.2238 6.2263 0 0 1-8.8017-8.8053l10.575-10.539a28.78 28.792 0 0 1 40.6 0l0.05694 0.065104a28.772 28.784 0 0 1-0.05694 40.552l-10.575 10.539a6.2238 6.2263 0 0 1-8.8017-8.8053l10.575-10.579a16.334 16.341 0 0 0 0-22.974l-0.089481-0.089517a16.334 16.341 0 0 0-22.94 0.056965l-10.534 10.579zm11.389 2.5716a6.223 6.2256 0 0 1 8.761 8.8053l-30.31 30.322a6.223 6.2256 0 0 1-8.8017-8.7972l30.318-30.33zm-10.12 42.171a6.223 6.2256 0 0 1 8.7936 8.8053l-10.331 10.343a28.772 28.784 0 0 1-40.478 0.11393l-0.22777-0.21972a28.78 28.792 0 0 1 0.10575-40.511l10.331-10.311a6.223 6.2256 0 1 1 8.8098 8.7728l-10.339 10.343a16.343 16.349 0 0 0 0 22.99 16.326 16.333 0 0 0 22.997 0z"/>
</svg>
