<?xml version="1.0" encoding="UTF-8"?>
<!-- Created with Inkscape (http://www.inkscape.org/) -->
<svg width="16" height="16" inkscape:version="1.4.2 (ebf0e940d0, 2025-05-08)" sodipodi:docname="cmb-notifications-symbolic.svg" version="1.1" viewBox="0 0 4.2 4.2" xmlns="http://www.w3.org/2000/svg" xmlns:inkscape="http://www.inkscape.org/namespaces/inkscape" xmlns:sodipodi="http://sodipodi.sourceforge.net/DTD/sodipodi-0.dtd">
 <sodipodi:namedview bordercolor="#666666" borderopacity="1.0" inkscape:current-layer="g1" inkscape:cx="6.265625" inkscape:cy="11.484375" inkscape:deskcolor="#d1d1d1" inkscape:document-units="mm" inkscape:pagecheckerboard="0" inkscape:pageopacity="0.0" inkscape:showpageshadow="2" inkscape:window-height="1368" inkscape:window-maximized="1" inkscape:window-width="2560" inkscape:window-x="0" inkscape:window-y="0" inkscape:zoom="128" pagecolor="#ffffff"/>
 <g inkscape:groupmode="layer" inkscape:label="Layer 1">
  <path d="m2.1.3.0011.35zm-.00047.35c-.57 0-1.1.38-1 1.1.0095.7-.035.97-.3 1.2-.27.21-.12.57-.12.57.98.0051 2 .0025 2.9 0 0 0 .15-.35-.12-.57-.27-.21-.31-.48-.3-1.2.0095-.7-.48-1.1-1-1.1zm-.28 2.9c8.2e-5.16.13.29.29.29.16-8.2e-5.29-.13.29-.29 8e-6-.04-.58-.044-.58 0z" style="fill:none;paint-order:stroke fill markers;stroke-linecap:square;stroke-linejoin:round;stroke-width:.53;stroke:#000000" sodipodi:nodetypes="ccccssccsssccccc"/>
 </g>
</svg>
