<?xml version="1.0" encoding="UTF-8"?>
<svg data-name="Layer 1" version="1.1" viewBox="0 0 122.88 122.88" xmlns="http://www.w3.org/2000/svg">
 <path d="m60.688 39.166c-2.4306 2.4315-6.3711 2.4315-8.8017-1e-6 -2.4306-2.4315-2.4306-6.3737-1e-6 -8.8053l10.575-10.539c11.227-11.177 29.373-11.177 40.6 0l0.05694 0.065104c11.118 11.239 11.092 29.344-0.05694 40.551l-10.575 10.539c-2.4306 2.4315-6.3711 2.4315-8.8017-1e-6 -2.4306-2.4315-2.4306-6.3737-1e-6 -8.8053l10.575-10.579c6.2887-6.3657 6.2887-16.608 0-22.973l-0.089482-0.089518c-6.3757-6.2595-16.596-6.2341-22.94 0.056966l-10.534 10.579zm1.269 44.743c2.4481-2.3216 6.2994-2.2692 8.6838 0.11812 2.3841 2.3873 2.4329 6.2402 0.11005 8.6873l-10.331 10.343c-11.18 11.132-29.235 11.182-40.478 0.11393l-0.22777-0.21973c-11.073-11.249-11.026-29.32 0.10575-40.511l10.331-10.311c2.3813-2.6473 6.4929-2.7603 9.0156-0.24795 2.523 2.5124 2.429 6.6263-0.20612 9.0209l-10.339 10.343c-6.295 6.3694-6.295 16.62 0 22.99 6.3651 6.3172 16.631 6.3172 22.997 0z"/>
</svg>
